<?xml version="1.0" encoding="UTF-8" standalone="no"?>
<svg
   height="345.6pt"
   version="1.1"
   viewBox="0 0 460.8 345.6"
   width="460.8pt"
   id="svg8324"
   sodipodi:docname="B_2_fft.svg"
   xmlns:inkscape="http://www.inkscape.org/namespaces/inkscape"
   xmlns:sodipodi="http://sodipodi.sourceforge.net/DTD/sodipodi-0.dtd"
   xmlns:xlink="http://www.w3.org/1999/xlink"
   xmlns="http://www.w3.org/2000/svg"
   xmlns:svg="http://www.w3.org/2000/svg"
   xmlns:rdf="http://www.w3.org/1999/02/22-rdf-syntax-ns#"
   xmlns:cc="http://creativecommons.org/ns#"
   xmlns:dc="http://purl.org/dc/elements/1.1/">
  <sodipodi:namedview
     id="namedview8326"
     pagecolor="#ffffff"
     bordercolor="#666666"
     borderopacity="1.0"
     inkscape:pageshadow="2"
     inkscape:pageopacity="0.0"
     inkscape:pagecheckerboard="0"
     inkscape:document-units="pt"
     showgrid="false" />
  <metadata
     id="metadata8040">
    <rdf:RDF>
      <cc:Work>
        <dc:type
           rdf:resource="http://purl.org/dc/dcmitype/StillImage" />
        <dc:date>2022-05-13T16:02:15.931818</dc:date>
        <dc:format>image/svg+xml</dc:format>
        <dc:creator>
          <cc:Agent>
            <dc:title>Matplotlib v3.4.3, https://matplotlib.org/</dc:title>
          </cc:Agent>
        </dc:creator>
      </cc:Work>
    </rdf:RDF>
  </metadata>
  <defs
     id="defs8044">
    <style
       type="text/css"
       id="style8042">*{stroke-linecap:butt;stroke-linejoin:round;}</style>
    <clipPath
       clipPathUnits="userSpaceOnUse"
       id="clipPath13428">
      <rect
         id="rect13430"
         width="357.12"
         height="266.112"
         x="57.600002"
         y="41.472"
         style="stroke-width:0.75" />
    </clipPath>
  </defs>
  <g
     id="figure_1"
     clip-path="url(#clipPath13428)">
    <g
       id="patch_1">
      <path
         d="M 0 345.6  L 460.8 345.6  L 460.8 0  L 0 0  z "
         style="fill:#ffffff;"
         id="path8046" />
    </g>
    <g
       id="axes_1">
      <g
         id="patch_2">
        <path
           d="M 57.6 307.584  L 414.72 307.584  L 414.72 41.472  L 57.6 41.472  z "
           style="fill:#ffffff;"
           id="path8049" />
      </g>
      <g
         id="matplotlib.axis_1">
        <g
           id="xtick_1">
          <g
             id="line2d_1">
            <defs
               id="defs8053">
              <path
                 d="M 0 0  L 0 3.5  "
                 id="mc1c462fee2"
                 style="stroke:#000000;stroke-width:0.8;" />
            </defs>
            <g
               id="g8057">
              <use
                 style="stroke:#000000;stroke-width:0.8;"
                 x="81.16319"
                 xlink:href="#mc1c462fee2"
                 y="307.584"
                 id="use8055" />
            </g>
          </g>
          <g
             id="text_1">
            <!-- −6 -->
            <g
               transform="translate(73.792096 322.182437)scale(0.1 -0.1)"
               id="g8068">
              <defs
                 id="defs8062">
                <path
                   d="M 678 2272  L 4684 2272  L 4684 1741  L 678 1741  L 678 2272  z "
                   id="DejaVuSans-2212"
                   transform="scale(0.015625)" />
                <path
                   d="M 2113 2584  Q 1688 2584 1439 2293  Q 1191 2003 1191 1497  Q 1191 994 1439 701  Q 1688 409 2113 409  Q 2538 409 2786 701  Q 3034 994 3034 1497  Q 3034 2003 2786 2293  Q 2538 2584 2113 2584  z M 3366 4563  L 3366 3988  Q 3128 4100 2886 4159  Q 2644 4219 2406 4219  Q 1781 4219 1451 3797  Q 1122 3375 1075 2522  Q 1259 2794 1537 2939  Q 1816 3084 2150 3084  Q 2853 3084 3261 2657  Q 3669 2231 3669 1497  Q 3669 778 3244 343  Q 2819 -91 2113 -91  Q 1303 -91 875 529  Q 447 1150 447 2328  Q 447 3434 972 4092  Q 1497 4750 2381 4750  Q 2619 4750 2861 4703  Q 3103 4656 3366 4563  z "
                   id="DejaVuSans-36"
                   transform="scale(0.015625)" />
              </defs>
              <use
                 xlink:href="#DejaVuSans-2212"
                 id="use8064" />
              <use
                 x="83.789062"
                 xlink:href="#DejaVuSans-36"
                 id="use8066" />
            </g>
          </g>
        </g>
        <g
           id="xtick_2">
          <g
             id="line2d_2">
            <g
               id="g8074">
              <use
                 style="stroke:#000000;stroke-width:0.8;"
                 x="132.934682"
                 xlink:href="#mc1c462fee2"
                 y="307.584"
                 id="use8072" />
            </g>
          </g>
          <g
             id="text_2">
            <!-- −4 -->
            <g
               transform="translate(125.563588 322.182437)scale(0.1 -0.1)"
               id="g8084">
              <defs
                 id="defs8078">
                <path
                   d="M 2419 4116  L 825 1625  L 2419 1625  L 2419 4116  z M 2253 4666  L 3047 4666  L 3047 1625  L 3713 1625  L 3713 1100  L 3047 1100  L 3047 0  L 2419 0  L 2419 1100  L 313 1100  L 313 1709  L 2253 4666  z "
                   id="DejaVuSans-34"
                   transform="scale(0.015625)" />
              </defs>
              <use
                 xlink:href="#DejaVuSans-2212"
                 id="use8080" />
              <use
                 x="83.789062"
                 xlink:href="#DejaVuSans-34"
                 id="use8082" />
            </g>
          </g>
        </g>
        <g
           id="xtick_3">
          <g
             id="line2d_3">
            <g
               id="g8090">
              <use
                 style="stroke:#000000;stroke-width:0.8;"
                 x="184.706174"
                 xlink:href="#mc1c462fee2"
                 y="307.584"
                 id="use8088" />
            </g>
          </g>
          <g
             id="text_3">
            <!-- −2 -->
            <g
               transform="translate(177.33508 322.182437)scale(0.1 -0.1)"
               id="g8100">
              <defs
                 id="defs8094">
                <path
                   d="M 1228 531  L 3431 531  L 3431 0  L 469 0  L 469 531  Q 828 903 1448 1529  Q 2069 2156 2228 2338  Q 2531 2678 2651 2914  Q 2772 3150 2772 3378  Q 2772 3750 2511 3984  Q 2250 4219 1831 4219  Q 1534 4219 1204 4116  Q 875 4013 500 3803  L 500 4441  Q 881 4594 1212 4672  Q 1544 4750 1819 4750  Q 2544 4750 2975 4387  Q 3406 4025 3406 3419  Q 3406 3131 3298 2873  Q 3191 2616 2906 2266  Q 2828 2175 2409 1742  Q 1991 1309 1228 531  z "
                   id="DejaVuSans-32"
                   transform="scale(0.015625)" />
              </defs>
              <use
                 xlink:href="#DejaVuSans-2212"
                 id="use8096" />
              <use
                 x="83.789062"
                 xlink:href="#DejaVuSans-32"
                 id="use8098" />
            </g>
          </g>
        </g>
        <g
           id="xtick_4">
          <g
             id="line2d_4">
            <g
               id="g8106">
              <use
                 style="stroke:#000000;stroke-width:0.8;"
                 x="236.477666"
                 xlink:href="#mc1c462fee2"
                 y="307.584"
                 id="use8104" />
            </g>
          </g>
          <g
             id="text_4">
            <!-- 0 -->
            <g
               transform="translate(233.296416 322.182437)scale(0.1 -0.1)"
               id="g8114">
              <defs
                 id="defs8110">
                <path
                   d="M 2034 4250  Q 1547 4250 1301 3770  Q 1056 3291 1056 2328  Q 1056 1369 1301 889  Q 1547 409 2034 409  Q 2525 409 2770 889  Q 3016 1369 3016 2328  Q 3016 3291 2770 3770  Q 2525 4250 2034 4250  z M 2034 4750  Q 2819 4750 3233 4129  Q 3647 3509 3647 2328  Q 3647 1150 3233 529  Q 2819 -91 2034 -91  Q 1250 -91 836 529  Q 422 1150 422 2328  Q 422 3509 836 4129  Q 1250 4750 2034 4750  z "
                   id="DejaVuSans-30"
                   transform="scale(0.015625)" />
              </defs>
              <use
                 xlink:href="#DejaVuSans-30"
                 id="use8112" />
            </g>
          </g>
        </g>
        <g
           id="xtick_5">
          <g
             id="line2d_5">
            <g
               id="g8120">
              <use
                 style="stroke:#000000;stroke-width:0.8;"
                 x="288.249158"
                 xlink:href="#mc1c462fee2"
                 y="307.584"
                 id="use8118" />
            </g>
          </g>
          <g
             id="text_5">
            <!-- 2 -->
            <g
               transform="translate(285.067908 322.182437)scale(0.1 -0.1)"
               id="g8125">
              <use
                 xlink:href="#DejaVuSans-32"
                 id="use8123" />
            </g>
          </g>
        </g>
        <g
           id="xtick_6">
          <g
             id="line2d_6">
            <g
               id="g8131">
              <use
                 style="stroke:#000000;stroke-width:0.8;"
                 x="340.02065"
                 xlink:href="#mc1c462fee2"
                 y="307.584"
                 id="use8129" />
            </g>
          </g>
          <g
             id="text_6">
            <!-- 4 -->
            <g
               transform="translate(336.8394 322.182437)scale(0.1 -0.1)"
               id="g8136">
              <use
                 xlink:href="#DejaVuSans-34"
                 id="use8134" />
            </g>
          </g>
        </g>
        <g
           id="xtick_7">
          <g
             id="line2d_7">
            <g
               id="g8142">
              <use
                 style="stroke:#000000;stroke-width:0.8;"
                 x="391.792142"
                 xlink:href="#mc1c462fee2"
                 y="307.584"
                 id="use8140" />
            </g>
          </g>
          <g
             id="text_7">
            <!-- 6 -->
            <g
               transform="translate(388.610892 322.182437)scale(0.1 -0.1)"
               id="g8147">
              <use
                 xlink:href="#DejaVuSans-36"
                 id="use8145" />
            </g>
          </g>
        </g>
      </g>
      <g
         id="matplotlib.axis_2">
        <g
           id="ytick_1">
          <g
             id="line2d_8">
            <defs
               id="defs8153">
              <path
                 d="M 0 0  L -3.5 0  "
                 id="mdc7c58c7b5"
                 style="stroke:#000000;stroke-width:0.8;" />
            </defs>
            <g
               id="g8157">
              <use
                 style="stroke:#000000;stroke-width:0.8;"
                 x="57.6"
                 xlink:href="#mdc7c58c7b5"
                 y="307.584"
                 id="use8155" />
            </g>
          </g>
          <g
             id="text_8">
            <!-- $\mathdefault{10^{-14}}$ -->
            <g
               transform="translate(22.7 311.383219)scale(0.1 -0.1)"
               id="g8173">
              <defs
                 id="defs8161">
                <path
                   d="M 794 531  L 1825 531  L 1825 4091  L 703 3866  L 703 4441  L 1819 4666  L 2450 4666  L 2450 531  L 3481 531  L 3481 0  L 794 0  L 794 531  z "
                   id="DejaVuSans-31"
                   transform="scale(0.015625)" />
              </defs>
              <use
                 transform="translate(0 0.684375)"
                 xlink:href="#DejaVuSans-31"
                 id="use8163" />
              <use
                 transform="translate(63.623047 0.684375)"
                 xlink:href="#DejaVuSans-30"
                 id="use8165" />
              <use
                 transform="translate(128.203125 38.965625)scale(0.7)"
                 xlink:href="#DejaVuSans-2212"
                 id="use8167" />
              <use
                 transform="translate(186.855469 38.965625)scale(0.7)"
                 xlink:href="#DejaVuSans-31"
                 id="use8169" />
              <use
                 transform="translate(231.391602 38.965625)scale(0.7)"
                 xlink:href="#DejaVuSans-34"
                 id="use8171" />
            </g>
          </g>
        </g>
        <g
           id="ytick_2">
          <g
             id="line2d_9">
            <g
               id="g8179">
              <use
                 style="stroke:#000000;stroke-width:0.8;"
                 x="57.6"
                 xlink:href="#mdc7c58c7b5"
                 y="269.568"
                 id="use8177" />
            </g>
          </g>
          <g
             id="text_9">
            <!-- $\mathdefault{10^{-12}}$ -->
            <g
               transform="translate(22.7 273.367219)scale(0.1 -0.1)"
               id="g8192">
              <use
                 transform="translate(0 0.765625)"
                 xlink:href="#DejaVuSans-31"
                 id="use8182" />
              <use
                 transform="translate(63.623047 0.765625)"
                 xlink:href="#DejaVuSans-30"
                 id="use8184" />
              <use
                 transform="translate(128.203125 39.046875)scale(0.7)"
                 xlink:href="#DejaVuSans-2212"
                 id="use8186" />
              <use
                 transform="translate(186.855469 39.046875)scale(0.7)"
                 xlink:href="#DejaVuSans-31"
                 id="use8188" />
              <use
                 transform="translate(231.391602 39.046875)scale(0.7)"
                 xlink:href="#DejaVuSans-32"
                 id="use8190" />
            </g>
          </g>
        </g>
        <g
           id="ytick_3">
          <g
             id="line2d_10">
            <g
               id="g8198">
              <use
                 style="stroke:#000000;stroke-width:0.8;"
                 x="57.6"
                 xlink:href="#mdc7c58c7b5"
                 y="231.552"
                 id="use8196" />
            </g>
          </g>
          <g
             id="text_10">
            <!-- $\mathdefault{10^{-10}}$ -->
            <g
               transform="translate(22.7 235.351219)scale(0.1 -0.1)"
               id="g8211">
              <use
                 transform="translate(0 0.765625)"
                 xlink:href="#DejaVuSans-31"
                 id="use8201" />
              <use
                 transform="translate(63.623047 0.765625)"
                 xlink:href="#DejaVuSans-30"
                 id="use8203" />
              <use
                 transform="translate(128.203125 39.046875)scale(0.7)"
                 xlink:href="#DejaVuSans-2212"
                 id="use8205" />
              <use
                 transform="translate(186.855469 39.046875)scale(0.7)"
                 xlink:href="#DejaVuSans-31"
                 id="use8207" />
              <use
                 transform="translate(231.391602 39.046875)scale(0.7)"
                 xlink:href="#DejaVuSans-30"
                 id="use8209" />
            </g>
          </g>
        </g>
        <g
           id="ytick_4">
          <g
             id="line2d_11">
            <g
               id="g8217">
              <use
                 style="stroke:#000000;stroke-width:0.8;"
                 x="57.6"
                 xlink:href="#mdc7c58c7b5"
                 y="193.536"
                 id="use8215" />
            </g>
          </g>
          <g
             id="text_11">
            <!-- $\mathdefault{10^{-8}}$ -->
            <g
               transform="translate(27.1 197.335219)scale(0.1 -0.1)"
               id="g8231">
              <defs
                 id="defs8221">
                <path
                   d="M 2034 2216  Q 1584 2216 1326 1975  Q 1069 1734 1069 1313  Q 1069 891 1326 650  Q 1584 409 2034 409  Q 2484 409 2743 651  Q 3003 894 3003 1313  Q 3003 1734 2745 1975  Q 2488 2216 2034 2216  z M 1403 2484  Q 997 2584 770 2862  Q 544 3141 544 3541  Q 544 4100 942 4425  Q 1341 4750 2034 4750  Q 2731 4750 3128 4425  Q 3525 4100 3525 3541  Q 3525 3141 3298 2862  Q 3072 2584 2669 2484  Q 3125 2378 3379 2068  Q 3634 1759 3634 1313  Q 3634 634 3220 271  Q 2806 -91 2034 -91  Q 1263 -91 848 271  Q 434 634 434 1313  Q 434 1759 690 2068  Q 947 2378 1403 2484  z M 1172 3481  Q 1172 3119 1398 2916  Q 1625 2713 2034 2713  Q 2441 2713 2670 2916  Q 2900 3119 2900 3481  Q 2900 3844 2670 4047  Q 2441 4250 2034 4250  Q 1625 4250 1398 4047  Q 1172 3844 1172 3481  z "
                   id="DejaVuSans-38"
                   transform="scale(0.015625)" />
              </defs>
              <use
                 transform="translate(0 0.765625)"
                 xlink:href="#DejaVuSans-31"
                 id="use8223" />
              <use
                 transform="translate(63.623047 0.765625)"
                 xlink:href="#DejaVuSans-30"
                 id="use8225" />
              <use
                 transform="translate(128.203125 39.046875)scale(0.7)"
                 xlink:href="#DejaVuSans-2212"
                 id="use8227" />
              <use
                 transform="translate(186.855469 39.046875)scale(0.7)"
                 xlink:href="#DejaVuSans-38"
                 id="use8229" />
            </g>
          </g>
        </g>
        <g
           id="ytick_5">
          <g
             id="line2d_12">
            <g
               id="g8237">
              <use
                 style="stroke:#000000;stroke-width:0.8;"
                 x="57.6"
                 xlink:href="#mdc7c58c7b5"
                 y="155.52"
                 id="use8235" />
            </g>
          </g>
          <g
             id="text_12">
            <!-- $\mathdefault{10^{-6}}$ -->
            <g
               transform="translate(27.1 159.319219)scale(0.1 -0.1)"
               id="g8248">
              <use
                 transform="translate(0 0.765625)"
                 xlink:href="#DejaVuSans-31"
                 id="use8240" />
              <use
                 transform="translate(63.623047 0.765625)"
                 xlink:href="#DejaVuSans-30"
                 id="use8242" />
              <use
                 transform="translate(128.203125 39.046875)scale(0.7)"
                 xlink:href="#DejaVuSans-2212"
                 id="use8244" />
              <use
                 transform="translate(186.855469 39.046875)scale(0.7)"
                 xlink:href="#DejaVuSans-36"
                 id="use8246" />
            </g>
          </g>
        </g>
        <g
           id="ytick_6">
          <g
             id="line2d_13">
            <g
               id="g8254">
              <use
                 style="stroke:#000000;stroke-width:0.8;"
                 x="57.6"
                 xlink:href="#mdc7c58c7b5"
                 y="117.504"
                 id="use8252" />
            </g>
          </g>
          <g
             id="text_13">
            <!-- $\mathdefault{10^{-4}}$ -->
            <g
               transform="translate(27.1 121.303219)scale(0.1 -0.1)"
               id="g8265">
              <use
                 transform="translate(0 0.684375)"
                 xlink:href="#DejaVuSans-31"
                 id="use8257" />
              <use
                 transform="translate(63.623047 0.684375)"
                 xlink:href="#DejaVuSans-30"
                 id="use8259" />
              <use
                 transform="translate(128.203125 38.965625)scale(0.7)"
                 xlink:href="#DejaVuSans-2212"
                 id="use8261" />
              <use
                 transform="translate(186.855469 38.965625)scale(0.7)"
                 xlink:href="#DejaVuSans-34"
                 id="use8263" />
            </g>
          </g>
        </g>
        <g
           id="ytick_7">
          <g
             id="line2d_14">
            <g
               id="g8271">
              <use
                 style="stroke:#000000;stroke-width:0.8;"
                 x="57.6"
                 xlink:href="#mdc7c58c7b5"
                 y="79.488"
                 id="use8269" />
            </g>
          </g>
          <g
             id="text_14">
            <!-- $\mathdefault{10^{-2}}$ -->
            <g
               transform="translate(27.1 83.287219)scale(0.1 -0.1)"
               id="g8282">
              <use
                 transform="translate(0 0.765625)"
                 xlink:href="#DejaVuSans-31"
                 id="use8274" />
              <use
                 transform="translate(63.623047 0.765625)"
                 xlink:href="#DejaVuSans-30"
                 id="use8276" />
              <use
                 transform="translate(128.203125 39.046875)scale(0.7)"
                 xlink:href="#DejaVuSans-2212"
                 id="use8278" />
              <use
                 transform="translate(186.855469 39.046875)scale(0.7)"
                 xlink:href="#DejaVuSans-32"
                 id="use8280" />
            </g>
          </g>
        </g>
        <g
           id="ytick_8">
          <g
             id="line2d_15">
            <g
               id="g8288">
              <use
                 style="stroke:#000000;stroke-width:0.8;"
                 x="57.6"
                 xlink:href="#mdc7c58c7b5"
                 y="41.472"
                 id="use8286" />
            </g>
          </g>
          <g
             id="text_15">
            <!-- $\mathdefault{10^{0}}$ -->
            <g
               transform="translate(33 45.271219)scale(0.1 -0.1)"
               id="g8297">
              <use
                 transform="translate(0 0.765625)"
                 xlink:href="#DejaVuSans-31"
                 id="use8291" />
              <use
                 transform="translate(63.623047 0.765625)"
                 xlink:href="#DejaVuSans-30"
                 id="use8293" />
              <use
                 transform="translate(128.203125 39.046875)scale(0.7)"
                 xlink:href="#DejaVuSans-30"
                 id="use8295" />
            </g>
          </g>
        </g>
      </g>
      <g
         id="line2d_16">
        <path
           clip-path="url(#p91bff9b5fd)"
           d="M 73.832727 344.736842  L 74.468059 345.320081  L 74.965364 346.6  M 75.805192 346.6  L 77.644718 334.993248  L 78.28005 332.512895  L 78.915382 330.487696  L 79.550713 328.875523  L 80.186045 327.943723  L 80.821377 327.519584  L 81.456709 327.408713  L 82.727372 327.763137  L 83.362704 327.429849  L 84.633368 325.486731  L 85.2687 325.077415  L 85.904031 325.76555  L 86.539363 328.845262  L 87.174695 343.219244  L 87.810027 327.30153  L 88.445358 319.83138  L 89.08069 315.335603  L 89.716022 312.161677  L 90.351354 309.887535  L 90.986686 308.267969  L 91.622017 307.228051  L 92.257349 306.699841  L 92.892681 306.571879  L 93.528013 306.5697  L 94.163345 306.236363  L 94.798676 305.282489  L 95.434008 304.024977  L 96.06934 303.023891  L 96.704672 302.749697  L 97.340004 303.706383  L 97.975335 307.203403  L 98.610667 322.804375  L 99.245999 304.714581  L 99.881331 297.719534  L 100.516663 293.456862  L 101.151994 290.485579  L 101.787326 288.372887  L 102.422658 286.937052  L 103.05799 286.080935  L 103.693321 285.703426  L 104.328653 285.590765  L 104.963985 285.313054  L 105.599317 284.421823  L 106.86998 281.621076  L 107.505312 280.712505  L 108.140644 280.616732  L 108.775976 281.792206  L 109.411308 285.51509  L 110.046639 293.761776  L 110.681971 281.995288  L 111.317303 275.647686  L 111.952635 271.663557  L 112.587967 268.905993  L 113.223298 266.998068  L 113.85863 265.773913  L 114.493962 265.120386  L 115.764626 264.622186  L 116.399957 263.850148  L 118.305953 259.341051  L 118.941284 258.571745  L 119.576616 258.650084  L 120.211948 260.001999  L 120.84728 263.789236  L 121.482612 268.472129  L 122.117943 259.401976  L 122.753275 253.665154  L 123.388607 249.976937  L 124.023939 247.463796  L 124.659271 245.801545  L 125.294602 244.828177  L 125.929934 244.383799  L 126.565266 244.147947  L 127.200598 243.533521  L 127.83593 242.121771  L 129.106593 238.509642  L 129.741925 237.242459  L 130.377257 236.627172  L 131.012589 236.861435  L 131.64792 238.357281  L 132.283252 242.110607  L 132.918584 244.61638  L 133.553916 237.020906  L 134.189247 231.844227  L 134.824579 228.486895  L 135.459911 226.272522  L 136.095243 224.916132  L 136.730575 224.235999  L 137.365906 223.959425  L 138.001238 223.518091  L 138.63657 222.257967  L 140.542565 216.577069  L 141.177897 215.450221  L 141.813229 214.975973  L 142.448561 215.343274  L 143.083893 216.96999  L 143.719224 220.661808  L 144.354556 221.639738  L 144.989888 214.984409  L 145.62522 210.348333  L 146.260552 207.378552  L 146.895883 205.535015  L 147.531215 204.549641  L 148.801879 203.872195  L 149.43721 202.845595  L 151.978538 195.010207  L 152.613869 193.996385  L 153.249201 193.623346  L 153.884533 194.105856  L 154.519865 195.889796  L 155.155197 199.565729  L 155.790528 199.257245  L 156.42586 193.275813  L 157.061192 189.197692  L 157.696524 186.690196  L 158.331856 185.298663  L 158.967187 184.727598  L 159.602519 184.518245  L 160.237851 183.771432  L 160.873183 181.868642  L 162.143846 177.07236  L 162.779178 175.138284  L 163.41451 173.659195  L 164.049842 172.701958  L 164.685173 172.407821  L 165.320505 173.041021  L 165.955837 175.087775  L 166.591169 178.824597  L 167.226501 177.238637  L 167.861832 171.871429  L 168.497164 168.42829  L 169.132496 166.498629  L 169.767828 165.660579  L 170.40316 165.474474  L 171.038491 165.034198  L 171.673823 163.337745  L 173.579819 155.922854  L 174.21515 154.0233  L 174.850482 152.552723  L 175.485814 151.640432  L 176.121146 151.486613  L 176.756477 152.403924  L 177.391809 154.930956  L 178.027141 158.788993  L 178.662473 155.801873  L 179.297805 151.081292  L 179.933136 148.365233  L 180.568468 147.121184  L 181.839132 146.636949  L 182.474464 145.18721  L 185.015791 134.861164  L 185.651123 132.81607  L 186.286454 131.267723  L 186.921786 130.413661  L 187.557118 130.481563  L 188.19245 131.825539  L 189.463113 138.723209  L 190.733777 130.186586  L 191.369109 128.292064  L 192.00444 127.794949  L 192.639772 127.710759  L 193.275104 126.392  L 195.181099 118.268955  L 196.451763 112.741665  L 197.087095 110.51531  L 197.722427 109.014964  L 198.357758 108.416658  L 198.99309 108.942606  L 199.628422 111.043279  L 200.263754 115.691685  L 200.899086 118.029873  L 201.534417 112.321657  L 202.169749 109.450593  L 202.805081 108.786634  L 203.440413 109.081252  L 204.075745 107.885709  L 205.346408 102.928526  L 205.98174 100.84138  L 208.523067 90.175542  L 209.158399 89.124774  L 209.793731 89.130854  L 210.429062 90.53904  L 211.064394 94.293118  L 211.699726 104.086758  L 212.97039 93.987855  L 213.605721 93.359188  L 214.241053 95.026857  L 214.876385 94.759339  L 215.511717 91.758534  L 216.147049 90.242651  L 216.78238 90.109384  L 217.417712 88.293507  L 218.688376 80.047107  L 219.323708 77.188406  L 219.959039 75.488727  L 220.594371 75.07205  L 221.229703 76.29257  L 221.865035 80.223382  L 222.500366 93.905563  L 223.135698 85.608495  L 223.77103 81.772748  L 224.406362 83.893655  L 225.041694 92.651786  L 225.677025 86.32053  L 226.312357 82.383934  L 226.947689 81.630336  L 227.583021 83.071422  L 228.218353 100.697132  L 228.853684 74.885247  L 229.489016 65.310406  L 230.124348 60.035654  L 230.75968 57.809694  L 231.395012 57.743308  L 232.030343 59.277579  L 232.665675 62.484156  L 233.301007 69.031443  L 233.936339 73.811833  L 234.571671 63.385125  L 235.207002 58.757916  L 235.842334 56.378843  L 236.477666 45.87477  L 237.112998 56.378843  L 237.748329 58.757916  L 238.383661 63.385125  L 239.018993 73.811833  L 239.654325 69.031443  L 240.289657 62.484156  L 240.924988 59.277579  L 241.56032 57.743308  L 242.195652 57.809694  L 242.830984 60.035654  L 243.466316 65.310406  L 244.101647 74.885247  L 244.736979 100.697132  L 245.372311 83.071422  L 246.007643 81.630336  L 246.642975 82.383934  L 247.278306 86.32053  L 247.913638 92.651786  L 248.54897 83.893655  L 249.184302 81.772748  L 249.819634 85.608495  L 250.454965 93.905563  L 251.090297 80.223382  L 251.725629 76.29257  L 252.360961 75.07205  L 252.996292 75.488727  L 253.631624 77.188406  L 254.266956 80.047107  L 255.53762 88.293507  L 256.172951 90.109384  L 256.808283 90.242651  L 257.443615 91.758534  L 258.078947 94.759339  L 258.714279 95.026857  L 259.34961 93.359188  L 259.984942 93.987855  L 261.255606 104.086758  L 261.890938 94.293118  L 262.526269 90.53904  L 263.161601 89.130854  L 263.796933 89.124774  L 264.432265 90.175542  L 265.067597 92.137954  L 267.608924 102.928526  L 268.879587 107.885709  L 269.514919 109.081252  L 270.150251 108.786634  L 270.785583 109.450593  L 271.420914 112.321657  L 272.056246 118.029873  L 272.691578 115.691685  L 273.32691 111.043279  L 273.962242 108.942606  L 274.597573 108.416658  L 275.232905 109.014964  L 275.868237 110.51531  L 276.503569 112.741665  L 279.680228 126.392  L 280.31556 127.710759  L 280.950891 127.794949  L 281.586223 128.292064  L 282.221555 130.186586  L 283.492218 138.723209  L 284.762882 131.825539  L 285.398214 130.481563  L 286.033546 130.413661  L 286.668877 131.267723  L 287.304209 132.81607  L 288.574873 137.225935  L 290.480868 145.18721  L 291.1162 146.636949  L 292.386864 147.121184  L 293.022195 148.365233  L 293.657527 151.081292  L 294.292859 155.801873  L 294.928191 158.788993  L 295.563523 154.930956  L 296.198854 152.403924  L 296.834186 151.486613  L 297.469518 151.640432  L 298.10485 152.552723  L 298.740181 154.0233  L 299.375513 155.922854  L 300.646177 160.766005  L 301.281509 163.337745  L 301.91684 165.034198  L 302.552172 165.474474  L 303.187504 165.660579  L 303.822836 166.498629  L 304.458168 168.42829  L 305.093499 171.871429  L 305.728831 177.238637  L 306.364163 178.824597  L 306.999495 175.087775  L 307.634827 173.041021  L 308.270158 172.407821  L 308.90549 172.701958  L 309.540822 173.659195  L 310.176154 175.138284  L 310.811486 177.07236  L 312.717481 183.771432  L 313.352813 184.518245  L 313.988144 184.727598  L 314.623476 185.298663  L 315.258808 186.690196  L 315.89414 189.197692  L 316.529472 193.275813  L 317.164803 199.257245  L 317.800135 199.565729  L 318.435467 195.889796  L 319.070799 194.105856  L 319.706131 193.623346  L 320.341462 193.996385  L 320.976794 195.010207  L 321.612126 196.562718  L 323.518121 202.845595  L 324.153453 203.872195  L 325.424117 204.549641  L 326.059448 205.535015  L 326.69478 207.378552  L 327.330112 210.348333  L 327.965444 214.984409  L 328.600776 221.639738  L 329.236107 220.661808  L 329.871439 216.96999  L 330.506771 215.343274  L 331.142103 214.975973  L 331.777435 215.450221  L 332.412766 216.577069  L 333.048098 218.244579  L 334.318762 222.257967  L 334.954094 223.518091  L 335.589425 223.959425  L 336.224757 224.235998  L 336.860089 224.916132  L 337.495421 226.272522  L 338.130753 228.486895  L 338.766084 231.844226  L 339.401416 237.020906  L 340.036748 244.61638  L 340.67208 242.110607  L 341.307411 238.357281  L 341.942743 236.861435  L 342.578075 236.627172  L 343.213407 237.24246  L 343.848739 238.509641  L 345.754734 243.53352  L 346.390066 244.147946  L 347.025398 244.383798  L 347.660729 244.828176  L 348.296061 245.801545  L 348.931393 247.463796  L 349.566725 249.976937  L 350.202057 253.665153  L 350.837388 259.401977  L 351.47272 268.472161  L 352.108052 263.789255  L 352.743384 260.001986  L 353.378716 258.650089  L 354.014047 258.571766  L 354.649379 259.341065  L 355.284711 260.71458  L 356.555374 263.850139  L 357.190706 264.62217  L 358.46137 265.120386  L 359.096702 265.773896  L 359.732033 266.998091  L 360.367365 268.905992  L 361.002697 271.663547  L 361.638029 275.647689  L 362.273361 281.995305  L 362.908692 293.762385  L 363.544024 285.515309  L 364.179356 281.792396  L 364.814688 280.616681  L 365.45002 280.712314  L 366.085351 281.621039  L 367.356015 284.421935  L 367.991347 285.312801  L 368.626679 285.590759  L 369.26201 285.703592  L 369.897342 286.080916  L 370.532674 286.936785  L 371.168006 288.372883  L 371.803337 290.485672  L 372.438669 293.456604  L 373.074001 297.718448  L 373.709333 304.714146  L 374.344665 322.830002  L 374.979996 307.202977  L 375.615328 303.70697  L 376.25066 302.749762  L 376.885992 303.023259  L 377.521324 304.024905  L 378.156655 305.28634  L 378.791987 306.236363  L 379.427319 306.569972  L 380.062651 306.571046  L 380.697983 306.69974  L 381.333314 307.227248  L 381.968646 308.267704  L 382.603978 309.886245  L 383.23931 312.164985  L 383.874642 315.328605  L 384.509973 319.824746  L 385.145305 327.322139  L 385.780637 343.11811  L 386.415969 328.841939  L 387.0513 325.769807  L 387.686632 325.071389  L 388.321964 325.487622  L 389.592628 327.422561  L 390.227959 327.736903  L 392.133955 327.502885  L 392.769287 327.990588  L 393.404618 329.063227  L 394.03995 330.529788  L 394.675282 332.595465  L 395.310614 335.163692  L 396.581277 343.188771  L 397.163049 346.6  M 397.711508 346.6  L 397.851941 346.510885  L 398.487273 343.472367  L 398.487273 343.472367  "
           style="fill:none;stroke:#1f77b4;stroke-linecap:square;stroke-width:1.5;"
           id="path8302" />
      </g>
      <g
         id="patch_3">
        <path
           d="M 57.6 307.584  L 57.6 41.472  "
           style="fill:none;stroke:#000000;stroke-linecap:square;stroke-linejoin:miter;stroke-width:0.8;"
           id="path8305" />
      </g>
      <g
         id="patch_4">
        <path
           d="M 414.72 307.584  L 414.72 41.472  "
           style="fill:none;stroke:#000000;stroke-linecap:square;stroke-linejoin:miter;stroke-width:0.8;"
           id="path8308" />
      </g>
      <g
         id="patch_5">
        <path
           d="M 57.6 307.584  L 414.72 307.584  "
           style="fill:none;stroke:#000000;stroke-linecap:square;stroke-linejoin:miter;stroke-width:0.8;"
           id="path8311" />
      </g>
      <g
         id="patch_6">
        <path
           d="M 57.6 41.472  L 414.72 41.472  "
           style="fill:none;stroke:#000000;stroke-linecap:square;stroke-linejoin:miter;stroke-width:0.8;"
           id="path8314" />
      </g>
    </g>
  </g>
  <defs
     id="defs8322">
    <clipPath
       id="p91bff9b5fd">
      <rect
         height="266.112"
         width="357.12"
         x="57.6"
         y="41.472"
         id="rect8319" />
    </clipPath>
  </defs>
</svg>
