<?xml version="1.0" encoding="UTF-8" standalone="no"?>
<svg
   height="345.6pt"
   version="1.1"
   viewBox="0 0 460.8 345.6"
   width="460.8pt"
   id="svg8036"
   sodipodi:docname="B_3.svg"
   xmlns:inkscape="http://www.inkscape.org/namespaces/inkscape"
   xmlns:sodipodi="http://sodipodi.sourceforge.net/DTD/sodipodi-0.dtd"
   xmlns:xlink="http://www.w3.org/1999/xlink"
   xmlns="http://www.w3.org/2000/svg"
   xmlns:svg="http://www.w3.org/2000/svg"
   xmlns:rdf="http://www.w3.org/1999/02/22-rdf-syntax-ns#"
   xmlns:cc="http://creativecommons.org/ns#"
   xmlns:dc="http://purl.org/dc/elements/1.1/">
  <sodipodi:namedview
     id="namedview8038"
     pagecolor="#ffffff"
     bordercolor="#666666"
     borderopacity="1.0"
     inkscape:pageshadow="2"
     inkscape:pageopacity="0.0"
     inkscape:pagecheckerboard="0"
     inkscape:document-units="pt"
     showgrid="false" />
  <metadata
     id="metadata7779">
    <rdf:RDF>
      <cc:Work>
        <dc:type
           rdf:resource="http://purl.org/dc/dcmitype/StillImage" />
        <dc:date>2022-05-13T16:02:16.079870</dc:date>
        <dc:format>image/svg+xml</dc:format>
        <dc:creator>
          <cc:Agent>
            <dc:title>Matplotlib v3.4.3, https://matplotlib.org/</dc:title>
          </cc:Agent>
        </dc:creator>
      </cc:Work>
    </rdf:RDF>
  </metadata>
  <defs
     id="defs7783">
    <style
       type="text/css"
       id="style7781">*{stroke-linecap:butt;stroke-linejoin:round;}</style>
    <clipPath
       clipPathUnits="userSpaceOnUse"
       id="clipPath14657">
      <rect
         id="rect14659"
         width="357.12"
         height="266.112"
         x="57.600002"
         y="41.472"
         style="stroke-width:0.75" />
    </clipPath>
  </defs>
  <g
     id="figure_1"
     clip-path="url(#clipPath14657)">
    <g
       id="patch_1">
      <path
         d="M 0 345.6  L 460.8 345.6  L 460.8 0  L 0 0  z "
         style="fill:#ffffff;"
         id="path7785" />
    </g>
    <g
       id="axes_1">
      <g
         id="patch_2">
        <path
           d="M 57.6 307.584  L 414.72 307.584  L 414.72 41.472  L 57.6 41.472  z "
           style="fill:#ffffff;"
           id="path7788" />
      </g>
      <g
         id="matplotlib.axis_1">
        <g
           id="xtick_1">
          <g
             id="line2d_1">
            <defs
               id="defs7792">
              <path
                 d="M 0 0  L 0 3.5  "
                 id="m38fdca8fff"
                 style="stroke:#000000;stroke-width:0.8;" />
            </defs>
            <g
               id="g7796">
              <use
                 style="stroke:#000000;stroke-width:0.8;"
                 x="73.832727"
                 xlink:href="#m38fdca8fff"
                 y="307.584"
                 id="use7794" />
            </g>
          </g>
          <g
             id="text_1">
            <!-- 0 -->
            <g
               transform="translate(70.651477 322.182437)scale(0.1 -0.1)"
               id="g7804">
              <defs
                 id="defs7800">
                <path
                   d="M 2034 4250  Q 1547 4250 1301 3770  Q 1056 3291 1056 2328  Q 1056 1369 1301 889  Q 1547 409 2034 409  Q 2525 409 2770 889  Q 3016 1369 3016 2328  Q 3016 3291 2770 3770  Q 2525 4250 2034 4250  z M 2034 4750  Q 2819 4750 3233 4129  Q 3647 3509 3647 2328  Q 3647 1150 3233 529  Q 2819 -91 2034 -91  Q 1250 -91 836 529  Q 422 1150 422 2328  Q 422 3509 836 4129  Q 1250 4750 2034 4750  z "
                   id="DejaVuSans-30"
                   transform="scale(0.015625)" />
              </defs>
              <use
                 xlink:href="#DejaVuSans-30"
                 id="use7802" />
            </g>
          </g>
        </g>
        <g
           id="xtick_2">
          <g
             id="line2d_2">
            <g
               id="g7810">
              <use
                 style="stroke:#000000;stroke-width:0.8;"
                 x="137.365906"
                 xlink:href="#m38fdca8fff"
                 y="307.584"
                 id="use7808" />
            </g>
          </g>
          <g
             id="text_2">
            <!-- 50 -->
            <g
               transform="translate(131.003406 322.182437)scale(0.1 -0.1)"
               id="g7820">
              <defs
                 id="defs7814">
                <path
                   d="M 691 4666  L 3169 4666  L 3169 4134  L 1269 4134  L 1269 2991  Q 1406 3038 1543 3061  Q 1681 3084 1819 3084  Q 2600 3084 3056 2656  Q 3513 2228 3513 1497  Q 3513 744 3044 326  Q 2575 -91 1722 -91  Q 1428 -91 1123 -41  Q 819 9 494 109  L 494 744  Q 775 591 1075 516  Q 1375 441 1709 441  Q 2250 441 2565 725  Q 2881 1009 2881 1497  Q 2881 1984 2565 2268  Q 2250 2553 1709 2553  Q 1456 2553 1204 2497  Q 953 2441 691 2322  L 691 4666  z "
                   id="DejaVuSans-35"
                   transform="scale(0.015625)" />
              </defs>
              <use
                 xlink:href="#DejaVuSans-35"
                 id="use7816" />
              <use
                 x="63.623047"
                 xlink:href="#DejaVuSans-30"
                 id="use7818" />
            </g>
          </g>
        </g>
        <g
           id="xtick_3">
          <g
             id="line2d_3">
            <g
               id="g7826">
              <use
                 style="stroke:#000000;stroke-width:0.8;"
                 x="200.899086"
                 xlink:href="#m38fdca8fff"
                 y="307.584"
                 id="use7824" />
            </g>
          </g>
          <g
             id="text_3">
            <!-- 100 -->
            <g
               transform="translate(191.355336 322.182437)scale(0.1 -0.1)"
               id="g7838">
              <defs
                 id="defs7830">
                <path
                   d="M 794 531  L 1825 531  L 1825 4091  L 703 3866  L 703 4441  L 1819 4666  L 2450 4666  L 2450 531  L 3481 531  L 3481 0  L 794 0  L 794 531  z "
                   id="DejaVuSans-31"
                   transform="scale(0.015625)" />
              </defs>
              <use
                 xlink:href="#DejaVuSans-31"
                 id="use7832" />
              <use
                 x="63.623047"
                 xlink:href="#DejaVuSans-30"
                 id="use7834" />
              <use
                 x="127.246094"
                 xlink:href="#DejaVuSans-30"
                 id="use7836" />
            </g>
          </g>
        </g>
        <g
           id="xtick_4">
          <g
             id="line2d_4">
            <g
               id="g7844">
              <use
                 style="stroke:#000000;stroke-width:0.8;"
                 x="264.432265"
                 xlink:href="#m38fdca8fff"
                 y="307.584"
                 id="use7842" />
            </g>
          </g>
          <g
             id="text_4">
            <!-- 150 -->
            <g
               transform="translate(254.888515 322.182437)scale(0.1 -0.1)"
               id="g7853">
              <use
                 xlink:href="#DejaVuSans-31"
                 id="use7847" />
              <use
                 x="63.623047"
                 xlink:href="#DejaVuSans-35"
                 id="use7849" />
              <use
                 x="127.246094"
                 xlink:href="#DejaVuSans-30"
                 id="use7851" />
            </g>
          </g>
        </g>
        <g
           id="xtick_5">
          <g
             id="line2d_5">
            <g
               id="g7859">
              <use
                 style="stroke:#000000;stroke-width:0.8;"
                 x="327.965444"
                 xlink:href="#m38fdca8fff"
                 y="307.584"
                 id="use7857" />
            </g>
          </g>
          <g
             id="text_5">
            <!-- 200 -->
            <g
               transform="translate(318.421694 322.182437)scale(0.1 -0.1)"
               id="g7871">
              <defs
                 id="defs7863">
                <path
                   d="M 1228 531  L 3431 531  L 3431 0  L 469 0  L 469 531  Q 828 903 1448 1529  Q 2069 2156 2228 2338  Q 2531 2678 2651 2914  Q 2772 3150 2772 3378  Q 2772 3750 2511 3984  Q 2250 4219 1831 4219  Q 1534 4219 1204 4116  Q 875 4013 500 3803  L 500 4441  Q 881 4594 1212 4672  Q 1544 4750 1819 4750  Q 2544 4750 2975 4387  Q 3406 4025 3406 3419  Q 3406 3131 3298 2873  Q 3191 2616 2906 2266  Q 2828 2175 2409 1742  Q 1991 1309 1228 531  z "
                   id="DejaVuSans-32"
                   transform="scale(0.015625)" />
              </defs>
              <use
                 xlink:href="#DejaVuSans-32"
                 id="use7865" />
              <use
                 x="63.623047"
                 xlink:href="#DejaVuSans-30"
                 id="use7867" />
              <use
                 x="127.246094"
                 xlink:href="#DejaVuSans-30"
                 id="use7869" />
            </g>
          </g>
        </g>
        <g
           id="xtick_6">
          <g
             id="line2d_6">
            <g
               id="g7877">
              <use
                 style="stroke:#000000;stroke-width:0.8;"
                 x="391.498623"
                 xlink:href="#m38fdca8fff"
                 y="307.584"
                 id="use7875" />
            </g>
          </g>
          <g
             id="text_6">
            <!-- 250 -->
            <g
               transform="translate(381.954873 322.182437)scale(0.1 -0.1)"
               id="g7886">
              <use
                 xlink:href="#DejaVuSans-32"
                 id="use7880" />
              <use
                 x="63.623047"
                 xlink:href="#DejaVuSans-35"
                 id="use7882" />
              <use
                 x="127.246094"
                 xlink:href="#DejaVuSans-30"
                 id="use7884" />
            </g>
          </g>
        </g>
      </g>
      <g
         id="matplotlib.axis_2">
        <g
           id="ytick_1">
          <g
             id="line2d_7">
            <defs
               id="defs7892">
              <path
                 d="M 0 0  L -3.5 0  "
                 id="m912b00f35d"
                 style="stroke:#000000;stroke-width:0.8;" />
            </defs>
            <g
               id="g7896">
              <use
                 style="stroke:#000000;stroke-width:0.8;"
                 x="57.6"
                 xlink:href="#m912b00f35d"
                 y="307.584"
                 id="use7894" />
            </g>
          </g>
          <g
             id="text_7">
            <!-- −0.6 -->
            <g
               transform="translate(26.317187 311.383219)scale(0.1 -0.1)"
               id="g7912">
              <defs
                 id="defs7902">
                <path
                   d="M 678 2272  L 4684 2272  L 4684 1741  L 678 1741  L 678 2272  z "
                   id="DejaVuSans-2212"
                   transform="scale(0.015625)" />
                <path
                   d="M 684 794  L 1344 794  L 1344 0  L 684 0  L 684 794  z "
                   id="DejaVuSans-2e"
                   transform="scale(0.015625)" />
                <path
                   d="M 2113 2584  Q 1688 2584 1439 2293  Q 1191 2003 1191 1497  Q 1191 994 1439 701  Q 1688 409 2113 409  Q 2538 409 2786 701  Q 3034 994 3034 1497  Q 3034 2003 2786 2293  Q 2538 2584 2113 2584  z M 3366 4563  L 3366 3988  Q 3128 4100 2886 4159  Q 2644 4219 2406 4219  Q 1781 4219 1451 3797  Q 1122 3375 1075 2522  Q 1259 2794 1537 2939  Q 1816 3084 2150 3084  Q 2853 3084 3261 2657  Q 3669 2231 3669 1497  Q 3669 778 3244 343  Q 2819 -91 2113 -91  Q 1303 -91 875 529  Q 447 1150 447 2328  Q 447 3434 972 4092  Q 1497 4750 2381 4750  Q 2619 4750 2861 4703  Q 3103 4656 3366 4563  z "
                   id="DejaVuSans-36"
                   transform="scale(0.015625)" />
              </defs>
              <use
                 xlink:href="#DejaVuSans-2212"
                 id="use7904" />
              <use
                 x="83.789062"
                 xlink:href="#DejaVuSans-30"
                 id="use7906" />
              <use
                 x="147.412109"
                 xlink:href="#DejaVuSans-2e"
                 id="use7908" />
              <use
                 x="179.199219"
                 xlink:href="#DejaVuSans-36"
                 id="use7910" />
            </g>
          </g>
        </g>
        <g
           id="ytick_2">
          <g
             id="line2d_8">
            <g
               id="g7918">
              <use
                 style="stroke:#000000;stroke-width:0.8;"
                 x="57.6"
                 xlink:href="#m912b00f35d"
                 y="263.232"
                 id="use7916" />
            </g>
          </g>
          <g
             id="text_8">
            <!-- −0.4 -->
            <g
               transform="translate(26.317187 267.031219)scale(0.1 -0.1)"
               id="g7932">
              <defs
                 id="defs7922">
                <path
                   d="M 2419 4116  L 825 1625  L 2419 1625  L 2419 4116  z M 2253 4666  L 3047 4666  L 3047 1625  L 3713 1625  L 3713 1100  L 3047 1100  L 3047 0  L 2419 0  L 2419 1100  L 313 1100  L 313 1709  L 2253 4666  z "
                   id="DejaVuSans-34"
                   transform="scale(0.015625)" />
              </defs>
              <use
                 xlink:href="#DejaVuSans-2212"
                 id="use7924" />
              <use
                 x="83.789062"
                 xlink:href="#DejaVuSans-30"
                 id="use7926" />
              <use
                 x="147.412109"
                 xlink:href="#DejaVuSans-2e"
                 id="use7928" />
              <use
                 x="179.199219"
                 xlink:href="#DejaVuSans-34"
                 id="use7930" />
            </g>
          </g>
        </g>
        <g
           id="ytick_3">
          <g
             id="line2d_9">
            <g
               id="g7938">
              <use
                 style="stroke:#000000;stroke-width:0.8;"
                 x="57.6"
                 xlink:href="#m912b00f35d"
                 y="218.88"
                 id="use7936" />
            </g>
          </g>
          <g
             id="text_9">
            <!-- −0.2 -->
            <g
               transform="translate(26.317187 222.679219)scale(0.1 -0.1)"
               id="g7949">
              <use
                 xlink:href="#DejaVuSans-2212"
                 id="use7941" />
              <use
                 x="83.789062"
                 xlink:href="#DejaVuSans-30"
                 id="use7943" />
              <use
                 x="147.412109"
                 xlink:href="#DejaVuSans-2e"
                 id="use7945" />
              <use
                 x="179.199219"
                 xlink:href="#DejaVuSans-32"
                 id="use7947" />
            </g>
          </g>
        </g>
        <g
           id="ytick_4">
          <g
             id="line2d_10">
            <g
               id="g7955">
              <use
                 style="stroke:#000000;stroke-width:0.8;"
                 x="57.6"
                 xlink:href="#m912b00f35d"
                 y="174.528"
                 id="use7953" />
            </g>
          </g>
          <g
             id="text_10">
            <!-- 0.0 -->
            <g
               transform="translate(34.696875 178.327219)scale(0.1 -0.1)"
               id="g7964">
              <use
                 xlink:href="#DejaVuSans-30"
                 id="use7958" />
              <use
                 x="63.623047"
                 xlink:href="#DejaVuSans-2e"
                 id="use7960" />
              <use
                 x="95.410156"
                 xlink:href="#DejaVuSans-30"
                 id="use7962" />
            </g>
          </g>
        </g>
        <g
           id="ytick_5">
          <g
             id="line2d_11">
            <g
               id="g7970">
              <use
                 style="stroke:#000000;stroke-width:0.8;"
                 x="57.6"
                 xlink:href="#m912b00f35d"
                 y="130.176"
                 id="use7968" />
            </g>
          </g>
          <g
             id="text_11">
            <!-- 0.2 -->
            <g
               transform="translate(34.696875 133.975219)scale(0.1 -0.1)"
               id="g7979">
              <use
                 xlink:href="#DejaVuSans-30"
                 id="use7973" />
              <use
                 x="63.623047"
                 xlink:href="#DejaVuSans-2e"
                 id="use7975" />
              <use
                 x="95.410156"
                 xlink:href="#DejaVuSans-32"
                 id="use7977" />
            </g>
          </g>
        </g>
        <g
           id="ytick_6">
          <g
             id="line2d_12">
            <g
               id="g7985">
              <use
                 style="stroke:#000000;stroke-width:0.8;"
                 x="57.6"
                 xlink:href="#m912b00f35d"
                 y="85.824"
                 id="use7983" />
            </g>
          </g>
          <g
             id="text_12">
            <!-- 0.4 -->
            <g
               transform="translate(34.696875 89.623219)scale(0.1 -0.1)"
               id="g7994">
              <use
                 xlink:href="#DejaVuSans-30"
                 id="use7988" />
              <use
                 x="63.623047"
                 xlink:href="#DejaVuSans-2e"
                 id="use7990" />
              <use
                 x="95.410156"
                 xlink:href="#DejaVuSans-34"
                 id="use7992" />
            </g>
          </g>
        </g>
        <g
           id="ytick_7">
          <g
             id="line2d_13">
            <g
               id="g8000">
              <use
                 style="stroke:#000000;stroke-width:0.8;"
                 x="57.6"
                 xlink:href="#m912b00f35d"
                 y="41.472"
                 id="use7998" />
            </g>
          </g>
          <g
             id="text_13">
            <!-- 0.6 -->
            <g
               transform="translate(34.696875 45.271219)scale(0.1 -0.1)"
               id="g8009">
              <use
                 xlink:href="#DejaVuSans-30"
                 id="use8003" />
              <use
                 x="63.623047"
                 xlink:href="#DejaVuSans-2e"
                 id="use8005" />
              <use
                 x="95.410156"
                 xlink:href="#DejaVuSans-36"
                 id="use8007" />
            </g>
          </g>
        </g>
      </g>
      <g
         id="line2d_14">
        <path
           clip-path="url(#p055b22939b)"
           d="M 73.832727 259.86356  L 80.186045 259.868882  L 97.340004 259.733651  L 116.399957 259.772926  L 145.62522 259.77645  L 152.613869 259.773483  L 154.519865 259.552771  L 157.696524 259.034763  L 158.967187 259.111751  L 159.602519 259.317429  L 160.237851 259.676235  L 160.873183 260.214545  L 161.508514 260.948386  L 162.779178 262.971159  L 164.685173 266.395486  L 165.320505 267.038886  L 165.955837 267.015234  L 166.591169 265.995074  L 167.226501 263.623642  L 167.861832 259.560556  L 168.497164 253.534386  L 169.132496 245.405148  L 169.767828 235.220824  L 171.038491 209.966905  L 173.579819 156.292911  L 174.850482 135.434302  L 176.121146 119.159109  L 177.391809 105.912638  L 178.662473 94.615113  L 179.933136 84.993042  L 181.2038 76.977939  L 182.474464 70.293557  L 183.745127 64.735219  L 184.380459 62.52505  L 185.015791 60.959527  L 185.651123 60.390591  L 186.286454 61.292321  L 186.921786 64.227378  L 187.557118 69.773752  L 188.19245 78.409808  L 188.827782 90.371698  L 190.098445 123.261419  L 192.639772 197.967398  L 193.910436 224.47072  L 195.181099 242.441997  L 196.451763 255.680221  L 197.722427 266.817338  L 198.99309 276.308868  L 200.263754 283.853699  L 201.534417 289.595078  L 202.805081 293.949424  L 203.440413 295.544293  L 204.075745 296.502301  L 204.711076 296.452778  L 205.346408 294.876373  L 205.98174 291.145409  L 206.617072 284.612647  L 207.252403 274.750033  L 207.887735 261.318783  L 209.158399 225.095301  L 211.064394 163.740347  L 212.335058 132.128897  L 212.97039 120.509906  L 213.605721 111.218656  L 214.876385 97.128344  L 216.78238 80.551591  L 218.053044 71.109259  L 219.323708 63.315321  L 220.594371 57.285359  L 221.229703 55.026222  L 221.865035 53.489869  L 222.500366 53.018042  L 223.135698 54.110409  L 223.77103 57.392232  L 224.406362 63.529049  L 225.041694 73.085918  L 225.677025 86.348985  L 226.947689 122.801323  L 228.853684 185.734468  L 230.124348 218.497651  L 230.75968 230.552056  L 231.395012 240.167574  L 232.665675 254.632459  L 233.936339 266.117787  L 235.207002 276.130093  L 236.477666 284.395532  L 237.748329 290.717228  L 239.018993 295.41037  L 239.654325 297.149151  L 240.289657 298.293337  L 240.924988 298.514895  L 241.56032 297.322807  L 242.195652 294.09265  L 242.830984 288.14615  L 243.466316 278.885722  L 244.101647 265.970331  L 244.736979 249.490842  L 246.007643 208.871948  L 247.278306 166.930777  L 248.54897 133.593446  L 249.184302 121.31807  L 249.819634 111.57741  L 251.090297 97.109902  L 252.360961 85.692311  L 254.266956 70.908243  L 255.53762 62.972644  L 256.808283 56.831192  L 257.443615 54.524383  L 258.078947 52.933752  L 258.714279 52.390424  L 259.34961 53.386547  L 259.984942 56.546532  L 260.620274 62.544506  L 261.255606 71.964548  L 261.890938 85.120259  L 263.161601 121.560653  L 265.067597 185.096042  L 266.33826 218.405885  L 266.973592 230.689641  L 267.608924 240.492708  L 268.879587 255.23718  L 270.150251 266.927701  L 271.420914 277.000544  L 272.691578 284.892781  L 273.32691 287.800656  L 273.962242 289.992404  L 274.597573 291.508635  L 275.232905 292.415567  L 275.868237 292.785263  L 276.503569 292.680341  L 277.138901 292.144785  L 277.774232 291.20015  L 278.409564 289.845584  L 279.044896 288.060227  L 279.680228 285.807342  L 280.31556 283.040256  L 280.950891 279.710608  L 282.221555 271.229292  L 283.492218 260.398853  L 287.304209 224.9076  L 287.939541 220.770996  L 288.574873 217.567394  L 289.210205 215.328535  L 289.845536 214.028621  L 290.480868 213.598768  L 291.1162 213.944093  L 291.751532 214.959561  L 292.386864 216.541873  L 293.022195 218.596287  L 294.292859 223.794878  L 296.198854 233.289593  L 299.375513 249.769806  L 300.646177 255.550549  L 301.91684 260.553702  L 303.187504 264.682894  L 304.458168 267.889787  L 305.728831 270.159939  L 306.364163 270.947304  L 306.999495 271.508271  L 307.634827 271.848972  L 308.270158 271.977108  L 308.90549 271.901871  L 309.540822 271.633914  L 310.176154 271.185346  L 311.446817 269.80235  L 312.717481 267.88071  L 314.623476 264.33089  L 317.800135 258.160688  L 319.070799 256.128066  L 320.341462 254.549951  L 321.612126 253.495687  L 322.247458 253.171607  L 322.88279 252.980061  L 323.518121 252.915527  L 324.788785 253.134708  L 326.059448 253.748241  L 327.330112 254.659571  L 329.236107 256.364137  L 333.048098 259.873505  L 334.954094 261.22193  L 336.224757 261.876805  L 337.495421 262.317615  L 338.766084 262.543701  L 340.036748 262.566513  L 341.307411 262.407853  L 343.213407 261.897246  L 345.754734 260.906306  L 349.566725 259.389433  L 351.47272 258.84721  L 353.378716 258.526928  L 355.284711 258.435715  L 357.190706 258.545866  L 359.732033 258.914795  L 366.720683 260.124042  L 369.26201 260.326961  L 372.438669 260.333939  L 376.25066 260.085816  L 383.23931 259.566924  L 387.686632 259.504293  L 394.03995 259.707436  L 398.487273 259.850855  L 398.487273 259.850855  "
           style="fill:none;stroke:#1f77b4;stroke-linecap:square;stroke-width:1.5;"
           id="path8014" />
      </g>
      <g
         id="patch_3">
        <path
           d="M 57.6 307.584  L 57.6 41.472  "
           style="fill:none;stroke:#000000;stroke-linecap:square;stroke-linejoin:miter;stroke-width:0.8;"
           id="path8017" />
      </g>
      <g
         id="patch_4">
        <path
           d="M 414.72 307.584  L 414.72 41.472  "
           style="fill:none;stroke:#000000;stroke-linecap:square;stroke-linejoin:miter;stroke-width:0.8;"
           id="path8020" />
      </g>
      <g
         id="patch_5">
        <path
           d="M 57.6 307.584  L 414.72 307.584  "
           style="fill:none;stroke:#000000;stroke-linecap:square;stroke-linejoin:miter;stroke-width:0.8;"
           id="path8023" />
      </g>
      <g
         id="patch_6">
        <path
           d="M 57.6 41.472  L 414.72 41.472  "
           style="fill:none;stroke:#000000;stroke-linecap:square;stroke-linejoin:miter;stroke-width:0.8;"
           id="path8026" />
      </g>
    </g>
  </g>
  <defs
     id="defs8034">
    <clipPath
       id="p055b22939b">
      <rect
         height="266.112"
         width="357.12"
         x="57.6"
         y="41.472"
         id="rect8031" />
    </clipPath>
  </defs>
</svg>
