<?xml version="1.0" encoding="UTF-8" standalone="no"?>
<svg
   height="345.6pt"
   version="1.1"
   viewBox="0 0 460.8 345.6"
   width="460.8pt"
   id="svg7775"
   sodipodi:docname="B_3_fft.svg"
   xmlns:inkscape="http://www.inkscape.org/namespaces/inkscape"
   xmlns:sodipodi="http://sodipodi.sourceforge.net/DTD/sodipodi-0.dtd"
   xmlns:xlink="http://www.w3.org/1999/xlink"
   xmlns="http://www.w3.org/2000/svg"
   xmlns:svg="http://www.w3.org/2000/svg"
   xmlns:rdf="http://www.w3.org/1999/02/22-rdf-syntax-ns#"
   xmlns:cc="http://creativecommons.org/ns#"
   xmlns:dc="http://purl.org/dc/elements/1.1/">
  <sodipodi:namedview
     id="namedview7777"
     pagecolor="#ffffff"
     bordercolor="#666666"
     borderopacity="1.0"
     inkscape:pageshadow="2"
     inkscape:pageopacity="0.0"
     inkscape:pagecheckerboard="0"
     inkscape:document-units="pt"
     showgrid="false" />
  <metadata
     id="metadata7491">
    <rdf:RDF>
      <cc:Work>
        <dc:type
           rdf:resource="http://purl.org/dc/dcmitype/StillImage" />
        <dc:date>2022-05-13T16:02:16.133281</dc:date>
        <dc:format>image/svg+xml</dc:format>
        <dc:creator>
          <cc:Agent>
            <dc:title>Matplotlib v3.4.3, https://matplotlib.org/</dc:title>
          </cc:Agent>
        </dc:creator>
      </cc:Work>
    </rdf:RDF>
  </metadata>
  <defs
     id="defs7495">
    <style
       type="text/css"
       id="style7493">*{stroke-linecap:butt;stroke-linejoin:round;}</style>
    <clipPath
       clipPathUnits="userSpaceOnUse"
       id="clipPath8700">
      <rect
         id="rect8702"
         width="357.12"
         height="266.112"
         x="57.600002"
         y="41.472"
         style="stroke-width:0.75" />
    </clipPath>
  </defs>
  <g
     id="figure_1"
     clip-path="url(#clipPath8700)">
    <g
       id="patch_1">
      <path
         d="M 0 345.6  L 460.8 345.6  L 460.8 0  L 0 0  z "
         style="fill:#ffffff;"
         id="path7497" />
    </g>
    <g
       id="axes_1">
      <g
         id="patch_2">
        <path
           d="M 57.6 307.584  L 414.72 307.584  L 414.72 41.472  L 57.6 41.472  z "
           style="fill:#ffffff;"
           id="path7500" />
      </g>
      <g
         id="matplotlib.axis_1">
        <g
           id="xtick_1">
          <g
             id="line2d_1">
            <defs
               id="defs7504">
              <path
                 d="M 0 0  L 0 3.5  "
                 id="m2778c0df78"
                 style="stroke:#000000;stroke-width:0.8;" />
            </defs>
            <g
               id="g7508">
              <use
                 style="stroke:#000000;stroke-width:0.8;"
                 x="81.16319"
                 xlink:href="#m2778c0df78"
                 y="307.584"
                 id="use7506" />
            </g>
          </g>
          <g
             id="text_1">
            <!-- −6 -->
            <g
               transform="translate(73.792096 322.182437)scale(0.1 -0.1)"
               id="g7519">
              <defs
                 id="defs7513">
                <path
                   d="M 678 2272  L 4684 2272  L 4684 1741  L 678 1741  L 678 2272  z "
                   id="DejaVuSans-2212"
                   transform="scale(0.015625)" />
                <path
                   d="M 2113 2584  Q 1688 2584 1439 2293  Q 1191 2003 1191 1497  Q 1191 994 1439 701  Q 1688 409 2113 409  Q 2538 409 2786 701  Q 3034 994 3034 1497  Q 3034 2003 2786 2293  Q 2538 2584 2113 2584  z M 3366 4563  L 3366 3988  Q 3128 4100 2886 4159  Q 2644 4219 2406 4219  Q 1781 4219 1451 3797  Q 1122 3375 1075 2522  Q 1259 2794 1537 2939  Q 1816 3084 2150 3084  Q 2853 3084 3261 2657  Q 3669 2231 3669 1497  Q 3669 778 3244 343  Q 2819 -91 2113 -91  Q 1303 -91 875 529  Q 447 1150 447 2328  Q 447 3434 972 4092  Q 1497 4750 2381 4750  Q 2619 4750 2861 4703  Q 3103 4656 3366 4563  z "
                   id="DejaVuSans-36"
                   transform="scale(0.015625)" />
              </defs>
              <use
                 xlink:href="#DejaVuSans-2212"
                 id="use7515" />
              <use
                 x="83.789062"
                 xlink:href="#DejaVuSans-36"
                 id="use7517" />
            </g>
          </g>
        </g>
        <g
           id="xtick_2">
          <g
             id="line2d_2">
            <g
               id="g7525">
              <use
                 style="stroke:#000000;stroke-width:0.8;"
                 x="132.934682"
                 xlink:href="#m2778c0df78"
                 y="307.584"
                 id="use7523" />
            </g>
          </g>
          <g
             id="text_2">
            <!-- −4 -->
            <g
               transform="translate(125.563588 322.182437)scale(0.1 -0.1)"
               id="g7535">
              <defs
                 id="defs7529">
                <path
                   d="M 2419 4116  L 825 1625  L 2419 1625  L 2419 4116  z M 2253 4666  L 3047 4666  L 3047 1625  L 3713 1625  L 3713 1100  L 3047 1100  L 3047 0  L 2419 0  L 2419 1100  L 313 1100  L 313 1709  L 2253 4666  z "
                   id="DejaVuSans-34"
                   transform="scale(0.015625)" />
              </defs>
              <use
                 xlink:href="#DejaVuSans-2212"
                 id="use7531" />
              <use
                 x="83.789062"
                 xlink:href="#DejaVuSans-34"
                 id="use7533" />
            </g>
          </g>
        </g>
        <g
           id="xtick_3">
          <g
             id="line2d_3">
            <g
               id="g7541">
              <use
                 style="stroke:#000000;stroke-width:0.8;"
                 x="184.706174"
                 xlink:href="#m2778c0df78"
                 y="307.584"
                 id="use7539" />
            </g>
          </g>
          <g
             id="text_3">
            <!-- −2 -->
            <g
               transform="translate(177.33508 322.182437)scale(0.1 -0.1)"
               id="g7551">
              <defs
                 id="defs7545">
                <path
                   d="M 1228 531  L 3431 531  L 3431 0  L 469 0  L 469 531  Q 828 903 1448 1529  Q 2069 2156 2228 2338  Q 2531 2678 2651 2914  Q 2772 3150 2772 3378  Q 2772 3750 2511 3984  Q 2250 4219 1831 4219  Q 1534 4219 1204 4116  Q 875 4013 500 3803  L 500 4441  Q 881 4594 1212 4672  Q 1544 4750 1819 4750  Q 2544 4750 2975 4387  Q 3406 4025 3406 3419  Q 3406 3131 3298 2873  Q 3191 2616 2906 2266  Q 2828 2175 2409 1742  Q 1991 1309 1228 531  z "
                   id="DejaVuSans-32"
                   transform="scale(0.015625)" />
              </defs>
              <use
                 xlink:href="#DejaVuSans-2212"
                 id="use7547" />
              <use
                 x="83.789062"
                 xlink:href="#DejaVuSans-32"
                 id="use7549" />
            </g>
          </g>
        </g>
        <g
           id="xtick_4">
          <g
             id="line2d_4">
            <g
               id="g7557">
              <use
                 style="stroke:#000000;stroke-width:0.8;"
                 x="236.477666"
                 xlink:href="#m2778c0df78"
                 y="307.584"
                 id="use7555" />
            </g>
          </g>
          <g
             id="text_4">
            <!-- 0 -->
            <g
               transform="translate(233.296416 322.182437)scale(0.1 -0.1)"
               id="g7565">
              <defs
                 id="defs7561">
                <path
                   d="M 2034 4250  Q 1547 4250 1301 3770  Q 1056 3291 1056 2328  Q 1056 1369 1301 889  Q 1547 409 2034 409  Q 2525 409 2770 889  Q 3016 1369 3016 2328  Q 3016 3291 2770 3770  Q 2525 4250 2034 4250  z M 2034 4750  Q 2819 4750 3233 4129  Q 3647 3509 3647 2328  Q 3647 1150 3233 529  Q 2819 -91 2034 -91  Q 1250 -91 836 529  Q 422 1150 422 2328  Q 422 3509 836 4129  Q 1250 4750 2034 4750  z "
                   id="DejaVuSans-30"
                   transform="scale(0.015625)" />
              </defs>
              <use
                 xlink:href="#DejaVuSans-30"
                 id="use7563" />
            </g>
          </g>
        </g>
        <g
           id="xtick_5">
          <g
             id="line2d_5">
            <g
               id="g7571">
              <use
                 style="stroke:#000000;stroke-width:0.8;"
                 x="288.249158"
                 xlink:href="#m2778c0df78"
                 y="307.584"
                 id="use7569" />
            </g>
          </g>
          <g
             id="text_5">
            <!-- 2 -->
            <g
               transform="translate(285.067908 322.182437)scale(0.1 -0.1)"
               id="g7576">
              <use
                 xlink:href="#DejaVuSans-32"
                 id="use7574" />
            </g>
          </g>
        </g>
        <g
           id="xtick_6">
          <g
             id="line2d_6">
            <g
               id="g7582">
              <use
                 style="stroke:#000000;stroke-width:0.8;"
                 x="340.02065"
                 xlink:href="#m2778c0df78"
                 y="307.584"
                 id="use7580" />
            </g>
          </g>
          <g
             id="text_6">
            <!-- 4 -->
            <g
               transform="translate(336.8394 322.182437)scale(0.1 -0.1)"
               id="g7587">
              <use
                 xlink:href="#DejaVuSans-34"
                 id="use7585" />
            </g>
          </g>
        </g>
        <g
           id="xtick_7">
          <g
             id="line2d_7">
            <g
               id="g7593">
              <use
                 style="stroke:#000000;stroke-width:0.8;"
                 x="391.792142"
                 xlink:href="#m2778c0df78"
                 y="307.584"
                 id="use7591" />
            </g>
          </g>
          <g
             id="text_7">
            <!-- 6 -->
            <g
               transform="translate(388.610892 322.182437)scale(0.1 -0.1)"
               id="g7598">
              <use
                 xlink:href="#DejaVuSans-36"
                 id="use7596" />
            </g>
          </g>
        </g>
      </g>
      <g
         id="matplotlib.axis_2">
        <g
           id="ytick_1">
          <g
             id="line2d_8">
            <defs
               id="defs7604">
              <path
                 d="M 0 0  L -3.5 0  "
                 id="m259a3e5819"
                 style="stroke:#000000;stroke-width:0.8;" />
            </defs>
            <g
               id="g7608">
              <use
                 style="stroke:#000000;stroke-width:0.8;"
                 x="57.6"
                 xlink:href="#m259a3e5819"
                 y="307.584"
                 id="use7606" />
            </g>
          </g>
          <g
             id="text_8">
            <!-- $\mathdefault{10^{-14}}$ -->
            <g
               transform="translate(22.7 311.383219)scale(0.1 -0.1)"
               id="g7624">
              <defs
                 id="defs7612">
                <path
                   d="M 794 531  L 1825 531  L 1825 4091  L 703 3866  L 703 4441  L 1819 4666  L 2450 4666  L 2450 531  L 3481 531  L 3481 0  L 794 0  L 794 531  z "
                   id="DejaVuSans-31"
                   transform="scale(0.015625)" />
              </defs>
              <use
                 transform="translate(0 0.684375)"
                 xlink:href="#DejaVuSans-31"
                 id="use7614" />
              <use
                 transform="translate(63.623047 0.684375)"
                 xlink:href="#DejaVuSans-30"
                 id="use7616" />
              <use
                 transform="translate(128.203125 38.965625)scale(0.7)"
                 xlink:href="#DejaVuSans-2212"
                 id="use7618" />
              <use
                 transform="translate(186.855469 38.965625)scale(0.7)"
                 xlink:href="#DejaVuSans-31"
                 id="use7620" />
              <use
                 transform="translate(231.391602 38.965625)scale(0.7)"
                 xlink:href="#DejaVuSans-34"
                 id="use7622" />
            </g>
          </g>
        </g>
        <g
           id="ytick_2">
          <g
             id="line2d_9">
            <g
               id="g7630">
              <use
                 style="stroke:#000000;stroke-width:0.8;"
                 x="57.6"
                 xlink:href="#m259a3e5819"
                 y="269.568"
                 id="use7628" />
            </g>
          </g>
          <g
             id="text_9">
            <!-- $\mathdefault{10^{-12}}$ -->
            <g
               transform="translate(22.7 273.367219)scale(0.1 -0.1)"
               id="g7643">
              <use
                 transform="translate(0 0.765625)"
                 xlink:href="#DejaVuSans-31"
                 id="use7633" />
              <use
                 transform="translate(63.623047 0.765625)"
                 xlink:href="#DejaVuSans-30"
                 id="use7635" />
              <use
                 transform="translate(128.203125 39.046875)scale(0.7)"
                 xlink:href="#DejaVuSans-2212"
                 id="use7637" />
              <use
                 transform="translate(186.855469 39.046875)scale(0.7)"
                 xlink:href="#DejaVuSans-31"
                 id="use7639" />
              <use
                 transform="translate(231.391602 39.046875)scale(0.7)"
                 xlink:href="#DejaVuSans-32"
                 id="use7641" />
            </g>
          </g>
        </g>
        <g
           id="ytick_3">
          <g
             id="line2d_10">
            <g
               id="g7649">
              <use
                 style="stroke:#000000;stroke-width:0.8;"
                 x="57.6"
                 xlink:href="#m259a3e5819"
                 y="231.552"
                 id="use7647" />
            </g>
          </g>
          <g
             id="text_10">
            <!-- $\mathdefault{10^{-10}}$ -->
            <g
               transform="translate(22.7 235.351219)scale(0.1 -0.1)"
               id="g7662">
              <use
                 transform="translate(0 0.765625)"
                 xlink:href="#DejaVuSans-31"
                 id="use7652" />
              <use
                 transform="translate(63.623047 0.765625)"
                 xlink:href="#DejaVuSans-30"
                 id="use7654" />
              <use
                 transform="translate(128.203125 39.046875)scale(0.7)"
                 xlink:href="#DejaVuSans-2212"
                 id="use7656" />
              <use
                 transform="translate(186.855469 39.046875)scale(0.7)"
                 xlink:href="#DejaVuSans-31"
                 id="use7658" />
              <use
                 transform="translate(231.391602 39.046875)scale(0.7)"
                 xlink:href="#DejaVuSans-30"
                 id="use7660" />
            </g>
          </g>
        </g>
        <g
           id="ytick_4">
          <g
             id="line2d_11">
            <g
               id="g7668">
              <use
                 style="stroke:#000000;stroke-width:0.8;"
                 x="57.6"
                 xlink:href="#m259a3e5819"
                 y="193.536"
                 id="use7666" />
            </g>
          </g>
          <g
             id="text_11">
            <!-- $\mathdefault{10^{-8}}$ -->
            <g
               transform="translate(27.1 197.335219)scale(0.1 -0.1)"
               id="g7682">
              <defs
                 id="defs7672">
                <path
                   d="M 2034 2216  Q 1584 2216 1326 1975  Q 1069 1734 1069 1313  Q 1069 891 1326 650  Q 1584 409 2034 409  Q 2484 409 2743 651  Q 3003 894 3003 1313  Q 3003 1734 2745 1975  Q 2488 2216 2034 2216  z M 1403 2484  Q 997 2584 770 2862  Q 544 3141 544 3541  Q 544 4100 942 4425  Q 1341 4750 2034 4750  Q 2731 4750 3128 4425  Q 3525 4100 3525 3541  Q 3525 3141 3298 2862  Q 3072 2584 2669 2484  Q 3125 2378 3379 2068  Q 3634 1759 3634 1313  Q 3634 634 3220 271  Q 2806 -91 2034 -91  Q 1263 -91 848 271  Q 434 634 434 1313  Q 434 1759 690 2068  Q 947 2378 1403 2484  z M 1172 3481  Q 1172 3119 1398 2916  Q 1625 2713 2034 2713  Q 2441 2713 2670 2916  Q 2900 3119 2900 3481  Q 2900 3844 2670 4047  Q 2441 4250 2034 4250  Q 1625 4250 1398 4047  Q 1172 3844 1172 3481  z "
                   id="DejaVuSans-38"
                   transform="scale(0.015625)" />
              </defs>
              <use
                 transform="translate(0 0.765625)"
                 xlink:href="#DejaVuSans-31"
                 id="use7674" />
              <use
                 transform="translate(63.623047 0.765625)"
                 xlink:href="#DejaVuSans-30"
                 id="use7676" />
              <use
                 transform="translate(128.203125 39.046875)scale(0.7)"
                 xlink:href="#DejaVuSans-2212"
                 id="use7678" />
              <use
                 transform="translate(186.855469 39.046875)scale(0.7)"
                 xlink:href="#DejaVuSans-38"
                 id="use7680" />
            </g>
          </g>
        </g>
        <g
           id="ytick_5">
          <g
             id="line2d_12">
            <g
               id="g7688">
              <use
                 style="stroke:#000000;stroke-width:0.8;"
                 x="57.6"
                 xlink:href="#m259a3e5819"
                 y="155.52"
                 id="use7686" />
            </g>
          </g>
          <g
             id="text_12">
            <!-- $\mathdefault{10^{-6}}$ -->
            <g
               transform="translate(27.1 159.319219)scale(0.1 -0.1)"
               id="g7699">
              <use
                 transform="translate(0 0.765625)"
                 xlink:href="#DejaVuSans-31"
                 id="use7691" />
              <use
                 transform="translate(63.623047 0.765625)"
                 xlink:href="#DejaVuSans-30"
                 id="use7693" />
              <use
                 transform="translate(128.203125 39.046875)scale(0.7)"
                 xlink:href="#DejaVuSans-2212"
                 id="use7695" />
              <use
                 transform="translate(186.855469 39.046875)scale(0.7)"
                 xlink:href="#DejaVuSans-36"
                 id="use7697" />
            </g>
          </g>
        </g>
        <g
           id="ytick_6">
          <g
             id="line2d_13">
            <g
               id="g7705">
              <use
                 style="stroke:#000000;stroke-width:0.8;"
                 x="57.6"
                 xlink:href="#m259a3e5819"
                 y="117.504"
                 id="use7703" />
            </g>
          </g>
          <g
             id="text_13">
            <!-- $\mathdefault{10^{-4}}$ -->
            <g
               transform="translate(27.1 121.303219)scale(0.1 -0.1)"
               id="g7716">
              <use
                 transform="translate(0 0.684375)"
                 xlink:href="#DejaVuSans-31"
                 id="use7708" />
              <use
                 transform="translate(63.623047 0.684375)"
                 xlink:href="#DejaVuSans-30"
                 id="use7710" />
              <use
                 transform="translate(128.203125 38.965625)scale(0.7)"
                 xlink:href="#DejaVuSans-2212"
                 id="use7712" />
              <use
                 transform="translate(186.855469 38.965625)scale(0.7)"
                 xlink:href="#DejaVuSans-34"
                 id="use7714" />
            </g>
          </g>
        </g>
        <g
           id="ytick_7">
          <g
             id="line2d_14">
            <g
               id="g7722">
              <use
                 style="stroke:#000000;stroke-width:0.8;"
                 x="57.6"
                 xlink:href="#m259a3e5819"
                 y="79.488"
                 id="use7720" />
            </g>
          </g>
          <g
             id="text_14">
            <!-- $\mathdefault{10^{-2}}$ -->
            <g
               transform="translate(27.1 83.287219)scale(0.1 -0.1)"
               id="g7733">
              <use
                 transform="translate(0 0.765625)"
                 xlink:href="#DejaVuSans-31"
                 id="use7725" />
              <use
                 transform="translate(63.623047 0.765625)"
                 xlink:href="#DejaVuSans-30"
                 id="use7727" />
              <use
                 transform="translate(128.203125 39.046875)scale(0.7)"
                 xlink:href="#DejaVuSans-2212"
                 id="use7729" />
              <use
                 transform="translate(186.855469 39.046875)scale(0.7)"
                 xlink:href="#DejaVuSans-32"
                 id="use7731" />
            </g>
          </g>
        </g>
        <g
           id="ytick_8">
          <g
             id="line2d_15">
            <g
               id="g7739">
              <use
                 style="stroke:#000000;stroke-width:0.8;"
                 x="57.6"
                 xlink:href="#m259a3e5819"
                 y="41.472"
                 id="use7737" />
            </g>
          </g>
          <g
             id="text_15">
            <!-- $\mathdefault{10^{0}}$ -->
            <g
               transform="translate(33 45.271219)scale(0.1 -0.1)"
               id="g7748">
              <use
                 transform="translate(0 0.765625)"
                 xlink:href="#DejaVuSans-31"
                 id="use7742" />
              <use
                 transform="translate(63.623047 0.765625)"
                 xlink:href="#DejaVuSans-30"
                 id="use7744" />
              <use
                 transform="translate(128.203125 39.046875)scale(0.7)"
                 xlink:href="#DejaVuSans-30"
                 id="use7746" />
            </g>
          </g>
        </g>
      </g>
      <g
         id="line2d_16">
        <path
           clip-path="url(#pc2ee9b83c3)"
           d="M 74.224045 346.6  L 74.468059 344.193756  L 75.103391 343.651445  L 75.738723 342.697695  L 77.009386 333.003424  L 77.644718 330.204663  L 78.28005 329.240576  L 78.915382 330.934964  L 79.550713 338.760842  L 80.186045 335.84666  L 80.821377 327.728063  L 81.456709 324.462872  L 82.092041 323.184899  L 82.727372 322.933786  L 83.362704 323.31604  L 83.998036 324.538385  L 84.633368 327.068517  L 85.2687 327.24504  L 85.904031 324.127948  L 86.539363 322.410106  L 87.174695 319.284296  L 87.810027 313.958122  L 88.445358 309.841492  L 89.08069 307.567701  L 89.716022 307.303641  L 90.351354 309.865142  L 90.986686 321.65827  L 91.622017 311.833341  L 92.257349 305.1725  L 92.892681 302.362293  L 93.528013 301.159489  L 94.163345 300.683951  L 94.798676 300.753461  L 95.434008 301.881577  L 96.06934 304.520113  L 96.704672 305.452083  L 97.340004 303.162733  L 97.975335 302.508385  L 98.610667 298.987454  L 99.245999 292.7056  L 99.881331 288.430526  L 100.516663 286.27212  L 101.151994 286.258019  L 101.787326 289.376163  L 102.422658 305.013462  L 103.05799 289.288424  L 103.693321 283.471857  L 104.328653 280.844388  L 104.963985 279.45452  L 105.599317 278.599376  L 106.234649 278.407222  L 106.86998 279.518038  L 107.505312 282.373493  L 108.140644 283.996148  L 108.775976 282.3785  L 109.411308 283.199889  L 110.046639 278.755473  L 110.681971 271.443714  L 111.317303 267.1048  L 111.952635 265.101821  L 112.587967 265.392545  L 113.223298 269.196193  L 113.85863 284.00022  L 114.493962 267.087265  L 115.129294 261.973339  L 115.764626 259.411909  L 116.399957 257.726344  L 117.035289 256.523478  L 117.670621 256.203254  L 118.305953 257.404461  L 118.941284 260.580418  L 119.576616 262.827407  L 120.211948 261.647453  L 120.84728 264.63361  L 121.482612 258.375451  L 122.117943 250.159395  L 122.753275 245.857554  L 123.388607 244.069544  L 124.023939 244.737246  L 124.659271 249.393667  L 125.294602 257.904188  L 125.929934 245.227651  L 126.565266 240.67223  L 127.200598 238.021489  L 127.83593 235.96183  L 128.471261 234.506221  L 129.106593 234.17751  L 129.741925 235.544696  L 130.377257 239.120491  L 131.012589 241.891899  L 131.64792 240.778854  L 132.283252 246.809047  L 133.553916 228.925364  L 134.189247 224.773381  L 134.824579 223.278592  L 135.459911 224.417907  L 136.095243 230.093874  L 136.730575 233.36537  L 137.365906 223.811416  L 138.001238 219.630827  L 139.271902 214.276231  L 139.907234 212.697492  L 140.542565 212.448432  L 141.177897 214.026084  L 141.813229 218.071896  L 142.448561 221.172147  L 143.083893 219.634215  L 143.719224 227.193226  L 144.354556 216.593358  L 144.989888 207.906832  L 145.62522 204.029355  L 146.260552 202.922427  L 146.895883 204.637028  L 147.531215 211.250197  L 148.166547 210.342408  L 148.801879 202.962985  L 150.072542 195.514619  L 150.707874 192.80718  L 151.343206 191.211046  L 151.978538 191.075422  L 152.613869 192.876462  L 153.249201 197.471786  L 153.884533 200.468087  L 154.519865 198.105368  L 155.155197 203.471733  L 156.42586 187.137277  L 157.061192 183.662675  L 157.696524 183.046173  L 158.331856 185.405344  L 158.967187 191.885252  L 159.602519 188.429422  L 160.237851 182.572786  L 161.508514 174.371173  L 162.143846 171.51421  L 162.779178 169.947152  L 163.41451 169.915518  L 164.049842 171.955275  L 164.685173 177.228784  L 165.320505 179.319645  L 165.955837 176.241806  L 166.591169 179.749916  L 167.226501 173.815488  L 167.861832 166.638409  L 168.497164 163.715178  L 169.132496 163.707448  L 169.767828 166.620549  L 170.40316 170.933153  L 171.038491 167.50691  L 172.944487 153.420085  L 173.579819 150.51521  L 174.21515 148.974694  L 174.850482 149.047581  L 175.485814 151.410624  L 176.121146 157.598963  L 176.756477 157.778974  L 177.391809 154.604363  L 178.027141 157.464901  L 178.662473 152.953345  L 179.297805 146.74564  L 179.933136 144.49727  L 180.568468 145.122741  L 181.2038 147.883801  L 181.839132 149.426167  L 182.474464 147.46242  L 184.380459 132.612094  L 185.015791 129.581047  L 185.651123 127.965499  L 186.286454 128.128709  L 186.921786 130.930554  L 187.557118 138.26384  L 188.827782 132.88676  L 189.463113 135.883361  L 190.098445 132.17898  L 190.733777 126.825176  L 191.369109 125.296957  L 192.00444 126.214814  L 192.639772 127.348724  L 193.275104 127.648048  L 193.910436 126.860389  L 195.816431 111.019198  L 196.451763 107.711273  L 197.087095 106.02531  L 197.722427 106.427132  L 198.357758 109.966529  L 198.99309 118.495649  L 199.628422 112.597847  L 200.263754 110.930863  L 200.899086 115.168391  L 201.534417 111.859779  L 202.169749 107.285439  L 202.805081 106.61594  L 203.440413 106.679377  L 204.075745 106.016839  L 204.711076 107.213417  L 205.346408 106.020364  L 207.252403 90.825942  L 207.887735 87.46098  L 208.523067 86.068685  L 209.158399 87.067385  L 209.793731 91.932519  L 210.429062 102.110658  L 211.064394 92.82602  L 211.699726 93.032853  L 212.335058 103.501441  L 212.97039 95.269621  L 213.605721 92.466214  L 214.241053 92.950288  L 214.876385 90.97617  L 215.511717 91.400473  L 216.147049 94.532573  L 216.78238 90.601293  L 217.417712 88.269852  L 218.688376 76.644421  L 219.323708 73.029179  L 219.959039 72.02167  L 220.594371 74.207609  L 221.229703 83.39404  L 221.865035 83.155137  L 222.500366 79.298612  L 223.135698 87.212413  L 223.77103 85.607132  L 224.406362 82.95115  L 225.041694 88.69745  L 225.677025 82.229335  L 226.312357 82.20178  L 226.947689 91.523929  L 227.583021 83.157216  L 228.218353 76.357371  L 228.853684 80.61051  L 229.489016 67.656201  L 230.124348 57.893788  L 230.75968 54.62072  L 231.395012 55.414713  L 232.030343 60.377318  L 232.665675 75.30166  L 233.301007 64.462882  L 233.936339 63.427353  L 234.571671 75.790076  L 235.207002 60.609339  L 236.477666 47.090318  L 237.748329 60.609339  L 238.383661 75.790076  L 239.018993 63.427353  L 239.654325 64.462882  L 240.289657 75.30166  L 240.924988 60.377318  L 241.56032 55.414713  L 242.195652 54.62072  L 242.830984 57.893788  L 243.466316 67.656201  L 244.101647 80.61051  L 244.736979 76.357371  L 245.372311 83.157216  L 246.007643 91.523929  L 246.642975 82.20178  L 247.278306 82.229335  L 247.913638 88.69745  L 248.54897 82.95115  L 249.184302 85.607132  L 249.819634 87.212413  L 250.454965 79.298612  L 251.090297 83.155137  L 251.725629 83.39404  L 252.360961 74.207609  L 252.996292 72.02167  L 253.631624 73.029179  L 254.266956 76.644421  L 255.53762 88.269852  L 256.172951 90.601293  L 256.808283 94.532573  L 257.443615 91.400473  L 258.078947 90.97617  L 258.714279 92.950288  L 259.34961 92.466214  L 259.984942 95.269621  L 260.620274 103.501441  L 261.255606 93.032853  L 261.890938 92.82602  L 262.526269 102.110658  L 263.161601 91.932519  L 263.796933 87.067385  L 264.432265 86.068685  L 265.067597 87.46098  L 265.702928 90.825942  L 267.608924 106.020364  L 268.244255 107.213417  L 268.879587 106.016839  L 269.514919 106.679377  L 270.150251 106.61594  L 270.785583 107.285439  L 271.420914 111.859779  L 272.056246 115.168391  L 272.691578 110.930863  L 273.32691 112.597847  L 273.962242 118.495649  L 274.597573 109.966529  L 275.232905 106.427132  L 275.868237 106.02531  L 276.503569 107.711273  L 277.138901 111.019198  L 277.774232 115.58895  L 279.044896 126.860389  L 279.680228 127.648048  L 280.31556 127.348724  L 281.586223 125.296957  L 282.221555 126.825176  L 282.856887 132.17898  L 283.492218 135.883361  L 284.12755 132.88676  L 285.398214 138.26384  L 286.033546 130.930554  L 286.668877 128.128709  L 287.304209 127.965499  L 287.939541 129.581047  L 288.574873 132.612094  L 289.210205 136.957327  L 290.480868 147.46242  L 291.1162 149.426167  L 291.751532 147.883801  L 292.386864 145.122741  L 293.022195 144.49727  L 293.657527 146.74564  L 294.292859 152.953345  L 294.928191 157.464901  L 295.563523 154.604363  L 296.198854 157.778974  L 296.834186 157.598963  L 297.469518 151.410624  L 298.10485 149.047581  L 298.740181 148.974694  L 299.375513 150.51521  L 300.010845 153.420085  L 300.646177 157.576742  L 301.91684 167.50691  L 302.552172 170.933153  L 303.187504 166.620549  L 303.822836 163.707448  L 304.458168 163.715178  L 305.093499 166.638409  L 306.364163 179.749916  L 306.999495 176.241806  L 307.634827 179.319645  L 308.270158 177.228784  L 308.90549 171.955275  L 309.540822 169.915518  L 310.176154 169.947152  L 310.811486 171.51421  L 311.446817 174.371173  L 312.717481 182.572786  L 313.352813 188.429422  L 313.988144 191.885252  L 314.623476 185.405344  L 315.258808 183.046173  L 315.89414 183.662675  L 316.529472 187.137277  L 317.800135 203.471733  L 318.435467 198.105368  L 319.070799 200.468087  L 319.706131 197.471786  L 320.341462 192.876462  L 320.976794 191.075422  L 321.612126 191.211046  L 322.247458 192.80718  L 322.88279 195.514619  L 323.518121 198.878506  L 324.153453 202.962985  L 324.788785 210.342408  L 325.424117 211.250197  L 326.059448 204.637028  L 326.69478 202.922427  L 327.330112 204.029355  L 327.965444 207.906832  L 328.600776 216.593358  L 329.236107 227.193226  L 329.871439 219.634215  L 330.506771 221.172147  L 331.142103 218.071896  L 331.777435 214.026084  L 332.412766 212.448432  L 333.048098 212.697492  L 333.68343 214.276231  L 334.318762 216.704918  L 334.954094 219.630827  L 335.589425 223.811415  L 336.224757 233.36537  L 336.860089 230.093874  L 337.495421 224.417906  L 338.130753 223.278592  L 338.766084 224.773382  L 339.401416 228.925364  L 340.67208 246.809048  L 341.307411 240.778854  L 341.942743 241.891898  L 342.578075 239.120493  L 343.213407 235.544696  L 343.848739 234.17751  L 344.48407 234.506221  L 345.119402 235.96183  L 345.754734 238.021489  L 346.390066 240.672231  L 347.025398 245.22765  L 347.660729 257.904186  L 348.296061 249.393667  L 348.931393 244.737246  L 349.566725 244.069544  L 350.202057 245.857554  L 350.837388 250.159398  L 351.47272 258.375463  L 352.108052 264.6336  L 352.743384 261.647446  L 353.378716 262.827403  L 354.014047 260.580411  L 354.649379 257.404462  L 355.284711 256.203258  L 355.920043 256.523479  L 356.555374 257.726339  L 357.190706 259.411918  L 357.826038 261.973327  L 358.46137 267.087265  L 359.096702 284.000415  L 359.732033 269.196203  L 360.367365 265.39253  L 361.002697 265.101832  L 361.638029 267.104823  L 362.273361 271.443733  L 362.908692 278.755576  L 363.544024 283.199563  L 364.179356 282.378637  L 364.814688 283.996174  L 365.45002 282.373691  L 366.085351 279.518041  L 366.720683 278.407139  L 367.356015 278.599407  L 367.991347 279.454409  L 368.626679 280.844377  L 369.26201 283.47194  L 369.897342 289.288422  L 370.532674 305.011384  L 371.168006 289.376183  L 371.803337 286.257843  L 372.438669 286.272312  L 373.074001 288.43009  L 373.709333 292.705813  L 374.344665 298.986727  L 374.979996 302.509647  L 375.615328 303.162152  L 376.25066 305.452183  L 376.885992 304.520059  L 377.521324 301.881635  L 378.156655 300.754002  L 378.791987 300.683951  L 379.427319 301.156376  L 380.062651 302.362458  L 380.697983 305.170992  L 381.333314 311.835031  L 381.968646 321.656331  L 382.603978 309.867247  L 383.23931 307.303641  L 383.874642 307.568415  L 384.509973 309.84151  L 385.145305 313.964277  L 385.780637 319.274666  L 386.415969 322.40809  L 387.0513 324.111869  L 387.686632 327.232372  L 388.321964 327.053796  L 388.957296 324.537987  L 389.592628 323.325261  L 390.227959 322.931501  L 390.863291 323.200523  L 391.498623 324.461726  L 392.133955 327.714502  L 392.769287 335.752791  L 393.404618 338.886876  L 394.03995 330.934964  L 394.675282 329.332193  L 395.310614 330.230644  L 395.945946 333.132784  L 397.216609 342.738943  L 397.851941 343.565579  L 398.487273 342.417806  L 398.487273 342.417806  "
           style="fill:none;stroke:#1f77b4;stroke-linecap:square;stroke-width:1.5;"
           id="path7753" />
      </g>
      <g
         id="patch_3">
        <path
           d="M 57.6 307.584  L 57.6 41.472  "
           style="fill:none;stroke:#000000;stroke-linecap:square;stroke-linejoin:miter;stroke-width:0.8;"
           id="path7756" />
      </g>
      <g
         id="patch_4">
        <path
           d="M 414.72 307.584  L 414.72 41.472  "
           style="fill:none;stroke:#000000;stroke-linecap:square;stroke-linejoin:miter;stroke-width:0.8;"
           id="path7759" />
      </g>
      <g
         id="patch_5">
        <path
           d="M 57.6 307.584  L 414.72 307.584  "
           style="fill:none;stroke:#000000;stroke-linecap:square;stroke-linejoin:miter;stroke-width:0.8;"
           id="path7762" />
      </g>
      <g
         id="patch_6">
        <path
           d="M 57.6 41.472  L 414.72 41.472  "
           style="fill:none;stroke:#000000;stroke-linecap:square;stroke-linejoin:miter;stroke-width:0.8;"
           id="path7765" />
      </g>
    </g>
  </g>
  <defs
     id="defs7773">
    <clipPath
       id="pc2ee9b83c3">
      <rect
         height="266.112"
         width="357.12"
         x="57.6"
         y="41.472"
         id="rect7770" />
    </clipPath>
  </defs>
</svg>
