<?xml version="1.0" encoding="utf-8" standalone="no"?>
<!DOCTYPE svg PUBLIC "-//W3C//DTD SVG 1.1//EN"
  "http://www.w3.org/Graphics/SVG/1.1/DTD/svg11.dtd">
<svg height="345.6pt" version="1.1" viewBox="0 0 460.8 345.6" width="460.8pt" xmlns="http://www.w3.org/2000/svg" xmlns:xlink="http://www.w3.org/1999/xlink">
 <metadata>
  <rdf:RDF xmlns:cc="http://creativecommons.org/ns#" xmlns:dc="http://purl.org/dc/elements/1.1/" xmlns:rdf="http://www.w3.org/1999/02/22-rdf-syntax-ns#">
   <cc:Work>
    <dc:type rdf:resource="http://purl.org/dc/dcmitype/StillImage"/>
    <dc:date>2022-05-13T16:02:16.248976</dc:date>
    <dc:format>image/svg+xml</dc:format>
    <dc:creator>
     <cc:Agent>
      <dc:title>Matplotlib v3.4.3, https://matplotlib.org/</dc:title>
     </cc:Agent>
    </dc:creator>
   </cc:Work>
  </rdf:RDF>
 </metadata>
 <defs>
  <style type="text/css">*{stroke-linecap:butt;stroke-linejoin:round;}</style>
 </defs>
 <g id="figure_1">
  <g id="patch_1">
   <path d="M 0 345.6 
L 460.8 345.6 
L 460.8 0 
L 0 0 
z
" style="fill:#ffffff;"/>
  </g>
  <g id="axes_1">
   <g id="patch_2">
    <path d="M 57.6 307.584 
L 414.72 307.584 
L 414.72 41.472 
L 57.6 41.472 
z
" style="fill:#ffffff;"/>
   </g>
   <g id="matplotlib.axis_1">
    <g id="xtick_1">
     <g id="line2d_1">
      <defs>
       <path d="M 0 0 
L 0 3.5 
" id="m4d97ef3ba5" style="stroke:#000000;stroke-width:0.8;"/>
      </defs>
      <g>
       <use style="stroke:#000000;stroke-width:0.8;" x="73.832727" xlink:href="#m4d97ef3ba5" y="307.584"/>
      </g>
     </g>
     <g id="text_1">
      <!-- 0 -->
      <g transform="translate(70.651477 322.182437)scale(0.1 -0.1)">
       <defs>
        <path d="M 2034 4250 
Q 1547 4250 1301 3770 
Q 1056 3291 1056 2328 
Q 1056 1369 1301 889 
Q 1547 409 2034 409 
Q 2525 409 2770 889 
Q 3016 1369 3016 2328 
Q 3016 3291 2770 3770 
Q 2525 4250 2034 4250 
z
M 2034 4750 
Q 2819 4750 3233 4129 
Q 3647 3509 3647 2328 
Q 3647 1150 3233 529 
Q 2819 -91 2034 -91 
Q 1250 -91 836 529 
Q 422 1150 422 2328 
Q 422 3509 836 4129 
Q 1250 4750 2034 4750 
z
" id="DejaVuSans-30" transform="scale(0.015625)"/>
       </defs>
       <use xlink:href="#DejaVuSans-30"/>
      </g>
     </g>
    </g>
    <g id="xtick_2">
     <g id="line2d_2">
      <g>
       <use style="stroke:#000000;stroke-width:0.8;" x="137.365906" xlink:href="#m4d97ef3ba5" y="307.584"/>
      </g>
     </g>
     <g id="text_2">
      <!-- 50 -->
      <g transform="translate(131.003406 322.182437)scale(0.1 -0.1)">
       <defs>
        <path d="M 691 4666 
L 3169 4666 
L 3169 4134 
L 1269 4134 
L 1269 2991 
Q 1406 3038 1543 3061 
Q 1681 3084 1819 3084 
Q 2600 3084 3056 2656 
Q 3513 2228 3513 1497 
Q 3513 744 3044 326 
Q 2575 -91 1722 -91 
Q 1428 -91 1123 -41 
Q 819 9 494 109 
L 494 744 
Q 775 591 1075 516 
Q 1375 441 1709 441 
Q 2250 441 2565 725 
Q 2881 1009 2881 1497 
Q 2881 1984 2565 2268 
Q 2250 2553 1709 2553 
Q 1456 2553 1204 2497 
Q 953 2441 691 2322 
L 691 4666 
z
" id="DejaVuSans-35" transform="scale(0.015625)"/>
       </defs>
       <use xlink:href="#DejaVuSans-35"/>
       <use x="63.623047" xlink:href="#DejaVuSans-30"/>
      </g>
     </g>
    </g>
    <g id="xtick_3">
     <g id="line2d_3">
      <g>
       <use style="stroke:#000000;stroke-width:0.8;" x="200.899086" xlink:href="#m4d97ef3ba5" y="307.584"/>
      </g>
     </g>
     <g id="text_3">
      <!-- 100 -->
      <g transform="translate(191.355336 322.182437)scale(0.1 -0.1)">
       <defs>
        <path d="M 794 531 
L 1825 531 
L 1825 4091 
L 703 3866 
L 703 4441 
L 1819 4666 
L 2450 4666 
L 2450 531 
L 3481 531 
L 3481 0 
L 794 0 
L 794 531 
z
" id="DejaVuSans-31" transform="scale(0.015625)"/>
       </defs>
       <use xlink:href="#DejaVuSans-31"/>
       <use x="63.623047" xlink:href="#DejaVuSans-30"/>
       <use x="127.246094" xlink:href="#DejaVuSans-30"/>
      </g>
     </g>
    </g>
    <g id="xtick_4">
     <g id="line2d_4">
      <g>
       <use style="stroke:#000000;stroke-width:0.8;" x="264.432265" xlink:href="#m4d97ef3ba5" y="307.584"/>
      </g>
     </g>
     <g id="text_4">
      <!-- 150 -->
      <g transform="translate(254.888515 322.182437)scale(0.1 -0.1)">
       <use xlink:href="#DejaVuSans-31"/>
       <use x="63.623047" xlink:href="#DejaVuSans-35"/>
       <use x="127.246094" xlink:href="#DejaVuSans-30"/>
      </g>
     </g>
    </g>
    <g id="xtick_5">
     <g id="line2d_5">
      <g>
       <use style="stroke:#000000;stroke-width:0.8;" x="327.965444" xlink:href="#m4d97ef3ba5" y="307.584"/>
      </g>
     </g>
     <g id="text_5">
      <!-- 200 -->
      <g transform="translate(318.421694 322.182437)scale(0.1 -0.1)">
       <defs>
        <path d="M 1228 531 
L 3431 531 
L 3431 0 
L 469 0 
L 469 531 
Q 828 903 1448 1529 
Q 2069 2156 2228 2338 
Q 2531 2678 2651 2914 
Q 2772 3150 2772 3378 
Q 2772 3750 2511 3984 
Q 2250 4219 1831 4219 
Q 1534 4219 1204 4116 
Q 875 4013 500 3803 
L 500 4441 
Q 881 4594 1212 4672 
Q 1544 4750 1819 4750 
Q 2544 4750 2975 4387 
Q 3406 4025 3406 3419 
Q 3406 3131 3298 2873 
Q 3191 2616 2906 2266 
Q 2828 2175 2409 1742 
Q 1991 1309 1228 531 
z
" id="DejaVuSans-32" transform="scale(0.015625)"/>
       </defs>
       <use xlink:href="#DejaVuSans-32"/>
       <use x="63.623047" xlink:href="#DejaVuSans-30"/>
       <use x="127.246094" xlink:href="#DejaVuSans-30"/>
      </g>
     </g>
    </g>
    <g id="xtick_6">
     <g id="line2d_6">
      <g>
       <use style="stroke:#000000;stroke-width:0.8;" x="391.498623" xlink:href="#m4d97ef3ba5" y="307.584"/>
      </g>
     </g>
     <g id="text_6">
      <!-- 250 -->
      <g transform="translate(381.954873 322.182437)scale(0.1 -0.1)">
       <use xlink:href="#DejaVuSans-32"/>
       <use x="63.623047" xlink:href="#DejaVuSans-35"/>
       <use x="127.246094" xlink:href="#DejaVuSans-30"/>
      </g>
     </g>
    </g>
   </g>
   <g id="matplotlib.axis_2">
    <g id="ytick_1">
     <g id="line2d_7">
      <defs>
       <path d="M 0 0 
L -3.5 0 
" id="m3c34f92f5f" style="stroke:#000000;stroke-width:0.8;"/>
      </defs>
      <g>
       <use style="stroke:#000000;stroke-width:0.8;" x="57.6" xlink:href="#m3c34f92f5f" y="307.584"/>
      </g>
     </g>
     <g id="text_7">
      <!-- −0.6 -->
      <g transform="translate(26.317187 311.383219)scale(0.1 -0.1)">
       <defs>
        <path d="M 678 2272 
L 4684 2272 
L 4684 1741 
L 678 1741 
L 678 2272 
z
" id="DejaVuSans-2212" transform="scale(0.015625)"/>
        <path d="M 684 794 
L 1344 794 
L 1344 0 
L 684 0 
L 684 794 
z
" id="DejaVuSans-2e" transform="scale(0.015625)"/>
        <path d="M 2113 2584 
Q 1688 2584 1439 2293 
Q 1191 2003 1191 1497 
Q 1191 994 1439 701 
Q 1688 409 2113 409 
Q 2538 409 2786 701 
Q 3034 994 3034 1497 
Q 3034 2003 2786 2293 
Q 2538 2584 2113 2584 
z
M 3366 4563 
L 3366 3988 
Q 3128 4100 2886 4159 
Q 2644 4219 2406 4219 
Q 1781 4219 1451 3797 
Q 1122 3375 1075 2522 
Q 1259 2794 1537 2939 
Q 1816 3084 2150 3084 
Q 2853 3084 3261 2657 
Q 3669 2231 3669 1497 
Q 3669 778 3244 343 
Q 2819 -91 2113 -91 
Q 1303 -91 875 529 
Q 447 1150 447 2328 
Q 447 3434 972 4092 
Q 1497 4750 2381 4750 
Q 2619 4750 2861 4703 
Q 3103 4656 3366 4563 
z
" id="DejaVuSans-36" transform="scale(0.015625)"/>
       </defs>
       <use xlink:href="#DejaVuSans-2212"/>
       <use x="83.789062" xlink:href="#DejaVuSans-30"/>
       <use x="147.412109" xlink:href="#DejaVuSans-2e"/>
       <use x="179.199219" xlink:href="#DejaVuSans-36"/>
      </g>
     </g>
    </g>
    <g id="ytick_2">
     <g id="line2d_8">
      <g>
       <use style="stroke:#000000;stroke-width:0.8;" x="57.6" xlink:href="#m3c34f92f5f" y="263.232"/>
      </g>
     </g>
     <g id="text_8">
      <!-- −0.4 -->
      <g transform="translate(26.317187 267.031219)scale(0.1 -0.1)">
       <defs>
        <path d="M 2419 4116 
L 825 1625 
L 2419 1625 
L 2419 4116 
z
M 2253 4666 
L 3047 4666 
L 3047 1625 
L 3713 1625 
L 3713 1100 
L 3047 1100 
L 3047 0 
L 2419 0 
L 2419 1100 
L 313 1100 
L 313 1709 
L 2253 4666 
z
" id="DejaVuSans-34" transform="scale(0.015625)"/>
       </defs>
       <use xlink:href="#DejaVuSans-2212"/>
       <use x="83.789062" xlink:href="#DejaVuSans-30"/>
       <use x="147.412109" xlink:href="#DejaVuSans-2e"/>
       <use x="179.199219" xlink:href="#DejaVuSans-34"/>
      </g>
     </g>
    </g>
    <g id="ytick_3">
     <g id="line2d_9">
      <g>
       <use style="stroke:#000000;stroke-width:0.8;" x="57.6" xlink:href="#m3c34f92f5f" y="218.88"/>
      </g>
     </g>
     <g id="text_9">
      <!-- −0.2 -->
      <g transform="translate(26.317187 222.679219)scale(0.1 -0.1)">
       <use xlink:href="#DejaVuSans-2212"/>
       <use x="83.789062" xlink:href="#DejaVuSans-30"/>
       <use x="147.412109" xlink:href="#DejaVuSans-2e"/>
       <use x="179.199219" xlink:href="#DejaVuSans-32"/>
      </g>
     </g>
    </g>
    <g id="ytick_4">
     <g id="line2d_10">
      <g>
       <use style="stroke:#000000;stroke-width:0.8;" x="57.6" xlink:href="#m3c34f92f5f" y="174.528"/>
      </g>
     </g>
     <g id="text_10">
      <!-- 0.0 -->
      <g transform="translate(34.696875 178.327219)scale(0.1 -0.1)">
       <use xlink:href="#DejaVuSans-30"/>
       <use x="63.623047" xlink:href="#DejaVuSans-2e"/>
       <use x="95.410156" xlink:href="#DejaVuSans-30"/>
      </g>
     </g>
    </g>
    <g id="ytick_5">
     <g id="line2d_11">
      <g>
       <use style="stroke:#000000;stroke-width:0.8;" x="57.6" xlink:href="#m3c34f92f5f" y="130.176"/>
      </g>
     </g>
     <g id="text_11">
      <!-- 0.2 -->
      <g transform="translate(34.696875 133.975219)scale(0.1 -0.1)">
       <use xlink:href="#DejaVuSans-30"/>
       <use x="63.623047" xlink:href="#DejaVuSans-2e"/>
       <use x="95.410156" xlink:href="#DejaVuSans-32"/>
      </g>
     </g>
    </g>
    <g id="ytick_6">
     <g id="line2d_12">
      <g>
       <use style="stroke:#000000;stroke-width:0.8;" x="57.6" xlink:href="#m3c34f92f5f" y="85.824"/>
      </g>
     </g>
     <g id="text_12">
      <!-- 0.4 -->
      <g transform="translate(34.696875 89.623219)scale(0.1 -0.1)">
       <use xlink:href="#DejaVuSans-30"/>
       <use x="63.623047" xlink:href="#DejaVuSans-2e"/>
       <use x="95.410156" xlink:href="#DejaVuSans-34"/>
      </g>
     </g>
    </g>
    <g id="ytick_7">
     <g id="line2d_13">
      <g>
       <use style="stroke:#000000;stroke-width:0.8;" x="57.6" xlink:href="#m3c34f92f5f" y="41.472"/>
      </g>
     </g>
     <g id="text_13">
      <!-- 0.6 -->
      <g transform="translate(34.696875 45.271219)scale(0.1 -0.1)">
       <use xlink:href="#DejaVuSans-30"/>
       <use x="63.623047" xlink:href="#DejaVuSans-2e"/>
       <use x="95.410156" xlink:href="#DejaVuSans-36"/>
      </g>
     </g>
    </g>
   </g>
   <g id="line2d_14">
    <path clip-path="url(#p5eae136988)" d="M 73.832727 260.153251 
L 76.374054 260.325545 
L 79.550713 260.30237 
L 83.998036 259.985259 
L 89.716022 259.572296 
L 94.163345 259.497423 
L 99.881331 259.665613 
L 108.140644 259.879871 
L 115.764626 259.800999 
L 126.565266 259.709743 
L 148.801879 259.743276 
L 151.343206 259.370033 
L 153.249201 259.045152 
L 154.519865 259.041941 
L 155.155197 259.185708 
L 155.790528 259.468492 
L 156.42586 259.919498 
L 157.061192 260.560399 
L 158.331856 262.421159 
L 160.237851 265.929339 
L 160.873183 266.787212 
L 161.508514 267.1172 
L 162.143846 266.6109 
L 162.779178 264.921538 
L 163.41451 261.695996 
L 164.049842 256.622818 
L 164.685173 249.492272 
L 165.320505 240.257817 
L 166.591169 216.347492 
L 169.132496 161.959279 
L 170.40316 139.88658 
L 171.673823 122.660625 
L 172.944487 108.83203 
L 174.21515 97.123062 
L 175.485814 87.109786 
L 176.756477 78.734439 
L 178.027141 71.770598 
L 179.297805 65.936543 
L 179.933136 63.507923 
L 180.568468 61.600702 
L 181.2038 60.506002 
L 181.839132 60.641784 
L 182.474464 62.535046 
L 183.109795 66.768386 
L 183.745127 73.884355 
L 184.380459 84.25296 
L 185.015791 97.927517 
L 186.286454 133.257331 
L 188.19245 190.186328 
L 189.463113 219.042343 
L 190.098445 229.853763 
L 191.369109 246.209898 
L 192.639772 258.742871 
L 193.910436 269.467023 
L 195.181099 278.470601 
L 196.451763 285.504916 
L 197.722427 290.854014 
L 198.99309 294.840871 
L 199.628422 296.139185 
L 200.263754 296.625983 
L 200.899086 295.850282 
L 201.534417 293.228079 
L 202.169749 288.107044 
L 202.805081 279.882304 
L 203.440413 268.155597 
L 204.075745 252.905179 
L 205.346408 214.24825 
L 207.252403 154.382228 
L 207.887735 138.619489 
L 208.523067 125.715759 
L 209.158399 115.388244 
L 210.429062 100.118537 
L 211.699726 88.342727 
L 213.605721 73.219732 
L 214.876385 65.013928 
L 216.147049 58.558118 
L 216.78238 56.030464 
L 217.417712 54.11588 
L 218.053044 53.081433 
L 218.688376 53.352202 
L 219.323708 55.500389 
L 219.959039 60.186532 
L 220.594371 68.044646 
L 221.229703 79.517965 
L 221.865035 94.677321 
L 223.135698 133.756119 
L 225.041694 195.346859 
L 225.677025 211.700487 
L 226.312357 225.102412 
L 226.947689 235.815059 
L 228.218353 251.548364 
L 229.489016 263.501616 
L 230.75968 273.860439 
L 232.030343 282.586677 
L 233.301007 289.356342 
L 234.571671 294.414236 
L 235.207002 296.36866 
L 235.842334 297.82926 
L 236.477666 298.545215 
L 237.112998 298.102629 
L 237.748329 295.934475 
L 238.383661 291.374855 
L 239.018993 283.76743 
L 239.654325 272.624811 
L 240.289657 257.811279 
L 241.56032 219.177719 
L 243.466316 157.163532 
L 244.101647 140.514212 
L 244.736979 126.854572 
L 245.372311 115.969204 
L 246.007643 107.298458 
L 247.278306 93.970088 
L 249.184302 77.840942 
L 250.454965 68.673889 
L 251.725629 61.199997 
L 252.996292 55.559384 
L 253.631624 53.594921 
L 254.266956 52.498174 
L 254.902288 52.684136 
L 255.53762 54.719754 
L 256.172951 59.268485 
L 256.808283 66.977572 
L 257.443615 78.313541 
L 258.078947 93.37683 
L 259.34961 132.490154 
L 261.255606 194.684696 
L 261.890938 211.27332 
L 262.526269 224.871299 
L 263.161601 235.725244 
L 264.432265 251.587417 
L 265.702928 263.559616 
L 266.973592 273.931106 
L 268.244255 282.692079 
L 269.514919 289.498794 
L 270.785583 294.578107 
L 271.420914 296.537057 
L 272.056246 297.999367 
L 272.691578 298.715049 
L 273.32691 298.270293 
L 273.962242 296.097172 
L 274.597573 291.52797 
L 275.232905 283.904054 
L 275.868237 272.736044 
L 276.503569 257.88751 
L 277.774232 219.163067 
L 279.680228 157.03266 
L 280.31556 140.366297 
L 280.950891 126.700853 
L 281.586223 115.817951 
L 282.221555 107.154326 
L 283.492218 93.842565 
L 285.398214 77.728589 
L 286.668877 68.567822 
L 287.939541 61.100463 
L 289.210205 55.469478 
L 289.845536 53.513493 
L 290.480868 52.430238 
L 291.1162 52.6373 
L 291.751532 54.704283 
L 292.386864 59.296622 
L 293.022195 67.061881 
L 293.657527 78.464333 
L 294.292859 93.599179 
L 295.563523 132.840168 
L 297.469518 195.115794 
L 298.10485 211.714447 
L 298.740181 225.330195 
L 299.375513 236.218972 
L 300.646177 252.216679 
L 301.91684 264.374083 
L 303.187504 274.834353 
L 304.458168 283.31131 
L 305.093499 286.554716 
L 305.728831 289.077133 
L 306.364163 290.900086 
L 306.999495 292.080152 
L 307.634827 292.68857 
L 308.270158 292.793499 
L 308.90549 292.448027 
L 309.540822 291.684147 
L 310.176154 290.511365 
L 310.811486 288.918308 
L 311.446817 286.876263 
L 312.082149 284.344354 
L 312.717481 281.276669 
L 313.988144 273.384579 
L 315.258808 263.143133 
L 319.070799 227.770172 
L 319.706131 223.331793 
L 320.341462 219.774404 
L 320.976794 217.156635 
L 321.612126 215.476949 
L 322.247458 214.685088 
L 322.88279 214.69789 
L 323.518121 215.415523 
L 324.153453 216.734952 
L 324.788785 218.558845 
L 326.059448 223.380016 
L 327.330112 229.287009 
L 332.412766 254.592524 
L 333.68343 259.678078 
L 334.954094 263.91796 
L 336.224757 267.255237 
L 337.495421 269.668917 
L 338.130753 270.531069 
L 338.766084 271.167848 
L 339.401416 271.584671 
L 340.036748 271.78855 
L 340.67208 271.788019 
L 341.307411 271.593086 
L 341.942743 271.215211 
L 342.578075 270.667331 
L 343.848739 269.120974 
L 345.119402 267.088766 
L 347.025398 263.48457 
L 349.566725 258.603265 
L 350.837388 256.529207 
L 352.108052 254.883649 
L 353.378716 253.744751 
L 354.014047 253.374907 
L 354.649379 253.136844 
L 355.284711 253.02609 
L 355.920043 253.035829 
L 357.190706 253.380346 
L 358.46137 254.084918 
L 359.732033 255.052187 
L 362.273361 257.382809 
L 364.814688 259.669982 
L 366.720683 261.048063 
L 367.991347 261.732295 
L 369.26201 262.207161 
L 370.532674 262.46954 
L 371.803337 262.528577 
L 373.074001 262.403985 
L 374.979996 261.936594 
L 377.521324 260.982086 
L 381.333314 259.468646 
L 383.23931 258.909244 
L 385.145305 258.564716 
L 387.0513 258.447 
L 388.957296 258.532659 
L 391.498623 258.877276 
L 398.487273 260.082371 
L 398.487273 260.082371 
" style="fill:none;stroke:#1f77b4;stroke-linecap:square;stroke-width:1.5;"/>
   </g>
   <g id="patch_3">
    <path d="M 57.6 307.584 
L 57.6 41.472 
" style="fill:none;stroke:#000000;stroke-linecap:square;stroke-linejoin:miter;stroke-width:0.8;"/>
   </g>
   <g id="patch_4">
    <path d="M 414.72 307.584 
L 414.72 41.472 
" style="fill:none;stroke:#000000;stroke-linecap:square;stroke-linejoin:miter;stroke-width:0.8;"/>
   </g>
   <g id="patch_5">
    <path d="M 57.6 307.584 
L 414.72 307.584 
" style="fill:none;stroke:#000000;stroke-linecap:square;stroke-linejoin:miter;stroke-width:0.8;"/>
   </g>
   <g id="patch_6">
    <path d="M 57.6 41.472 
L 414.72 41.472 
" style="fill:none;stroke:#000000;stroke-linecap:square;stroke-linejoin:miter;stroke-width:0.8;"/>
   </g>
  </g>
 </g>
 <defs>
  <clipPath id="p5eae136988">
   <rect height="266.112" width="357.12" x="57.6" y="41.472"/>
  </clipPath>
 </defs>
</svg>
