<?xml version="1.0" encoding="utf-8" standalone="no"?>
<!DOCTYPE svg PUBLIC "-//W3C//DTD SVG 1.1//EN"
  "http://www.w3.org/Graphics/SVG/1.1/DTD/svg11.dtd">
<svg height="345.6pt" version="1.1" viewBox="0 0 460.8 345.6" width="460.8pt" xmlns="http://www.w3.org/2000/svg" xmlns:xlink="http://www.w3.org/1999/xlink">
 <metadata>
  <rdf:RDF xmlns:cc="http://creativecommons.org/ns#" xmlns:dc="http://purl.org/dc/elements/1.1/" xmlns:rdf="http://www.w3.org/1999/02/22-rdf-syntax-ns#">
   <cc:Work>
    <dc:type rdf:resource="http://purl.org/dc/dcmitype/StillImage"/>
    <dc:date>2022-05-13T16:02:16.301819</dc:date>
    <dc:format>image/svg+xml</dc:format>
    <dc:creator>
     <cc:Agent>
      <dc:title>Matplotlib v3.4.3, https://matplotlib.org/</dc:title>
     </cc:Agent>
    </dc:creator>
   </cc:Work>
  </rdf:RDF>
 </metadata>
 <defs>
  <style type="text/css">*{stroke-linecap:butt;stroke-linejoin:round;}</style>
 </defs>
 <g id="figure_1">
  <g id="patch_1">
   <path d="M 0 345.6 
L 460.8 345.6 
L 460.8 0 
L 0 0 
z
" style="fill:#ffffff;"/>
  </g>
  <g id="axes_1">
   <g id="patch_2">
    <path d="M 57.6 307.584 
L 414.72 307.584 
L 414.72 41.472 
L 57.6 41.472 
z
" style="fill:#ffffff;"/>
   </g>
   <g id="matplotlib.axis_1">
    <g id="xtick_1">
     <g id="line2d_1">
      <defs>
       <path d="M 0 0 
L 0 3.5 
" id="mcdd36f9d5b" style="stroke:#000000;stroke-width:0.8;"/>
      </defs>
      <g>
       <use style="stroke:#000000;stroke-width:0.8;" x="81.16319" xlink:href="#mcdd36f9d5b" y="307.584"/>
      </g>
     </g>
     <g id="text_1">
      <!-- −6 -->
      <g transform="translate(73.792096 322.182437)scale(0.1 -0.1)">
       <defs>
        <path d="M 678 2272 
L 4684 2272 
L 4684 1741 
L 678 1741 
L 678 2272 
z
" id="DejaVuSans-2212" transform="scale(0.015625)"/>
        <path d="M 2113 2584 
Q 1688 2584 1439 2293 
Q 1191 2003 1191 1497 
Q 1191 994 1439 701 
Q 1688 409 2113 409 
Q 2538 409 2786 701 
Q 3034 994 3034 1497 
Q 3034 2003 2786 2293 
Q 2538 2584 2113 2584 
z
M 3366 4563 
L 3366 3988 
Q 3128 4100 2886 4159 
Q 2644 4219 2406 4219 
Q 1781 4219 1451 3797 
Q 1122 3375 1075 2522 
Q 1259 2794 1537 2939 
Q 1816 3084 2150 3084 
Q 2853 3084 3261 2657 
Q 3669 2231 3669 1497 
Q 3669 778 3244 343 
Q 2819 -91 2113 -91 
Q 1303 -91 875 529 
Q 447 1150 447 2328 
Q 447 3434 972 4092 
Q 1497 4750 2381 4750 
Q 2619 4750 2861 4703 
Q 3103 4656 3366 4563 
z
" id="DejaVuSans-36" transform="scale(0.015625)"/>
       </defs>
       <use xlink:href="#DejaVuSans-2212"/>
       <use x="83.789062" xlink:href="#DejaVuSans-36"/>
      </g>
     </g>
    </g>
    <g id="xtick_2">
     <g id="line2d_2">
      <g>
       <use style="stroke:#000000;stroke-width:0.8;" x="132.934682" xlink:href="#mcdd36f9d5b" y="307.584"/>
      </g>
     </g>
     <g id="text_2">
      <!-- −4 -->
      <g transform="translate(125.563588 322.182437)scale(0.1 -0.1)">
       <defs>
        <path d="M 2419 4116 
L 825 1625 
L 2419 1625 
L 2419 4116 
z
M 2253 4666 
L 3047 4666 
L 3047 1625 
L 3713 1625 
L 3713 1100 
L 3047 1100 
L 3047 0 
L 2419 0 
L 2419 1100 
L 313 1100 
L 313 1709 
L 2253 4666 
z
" id="DejaVuSans-34" transform="scale(0.015625)"/>
       </defs>
       <use xlink:href="#DejaVuSans-2212"/>
       <use x="83.789062" xlink:href="#DejaVuSans-34"/>
      </g>
     </g>
    </g>
    <g id="xtick_3">
     <g id="line2d_3">
      <g>
       <use style="stroke:#000000;stroke-width:0.8;" x="184.706174" xlink:href="#mcdd36f9d5b" y="307.584"/>
      </g>
     </g>
     <g id="text_3">
      <!-- −2 -->
      <g transform="translate(177.33508 322.182437)scale(0.1 -0.1)">
       <defs>
        <path d="M 1228 531 
L 3431 531 
L 3431 0 
L 469 0 
L 469 531 
Q 828 903 1448 1529 
Q 2069 2156 2228 2338 
Q 2531 2678 2651 2914 
Q 2772 3150 2772 3378 
Q 2772 3750 2511 3984 
Q 2250 4219 1831 4219 
Q 1534 4219 1204 4116 
Q 875 4013 500 3803 
L 500 4441 
Q 881 4594 1212 4672 
Q 1544 4750 1819 4750 
Q 2544 4750 2975 4387 
Q 3406 4025 3406 3419 
Q 3406 3131 3298 2873 
Q 3191 2616 2906 2266 
Q 2828 2175 2409 1742 
Q 1991 1309 1228 531 
z
" id="DejaVuSans-32" transform="scale(0.015625)"/>
       </defs>
       <use xlink:href="#DejaVuSans-2212"/>
       <use x="83.789062" xlink:href="#DejaVuSans-32"/>
      </g>
     </g>
    </g>
    <g id="xtick_4">
     <g id="line2d_4">
      <g>
       <use style="stroke:#000000;stroke-width:0.8;" x="236.477666" xlink:href="#mcdd36f9d5b" y="307.584"/>
      </g>
     </g>
     <g id="text_4">
      <!-- 0 -->
      <g transform="translate(233.296416 322.182437)scale(0.1 -0.1)">
       <defs>
        <path d="M 2034 4250 
Q 1547 4250 1301 3770 
Q 1056 3291 1056 2328 
Q 1056 1369 1301 889 
Q 1547 409 2034 409 
Q 2525 409 2770 889 
Q 3016 1369 3016 2328 
Q 3016 3291 2770 3770 
Q 2525 4250 2034 4250 
z
M 2034 4750 
Q 2819 4750 3233 4129 
Q 3647 3509 3647 2328 
Q 3647 1150 3233 529 
Q 2819 -91 2034 -91 
Q 1250 -91 836 529 
Q 422 1150 422 2328 
Q 422 3509 836 4129 
Q 1250 4750 2034 4750 
z
" id="DejaVuSans-30" transform="scale(0.015625)"/>
       </defs>
       <use xlink:href="#DejaVuSans-30"/>
      </g>
     </g>
    </g>
    <g id="xtick_5">
     <g id="line2d_5">
      <g>
       <use style="stroke:#000000;stroke-width:0.8;" x="288.249158" xlink:href="#mcdd36f9d5b" y="307.584"/>
      </g>
     </g>
     <g id="text_5">
      <!-- 2 -->
      <g transform="translate(285.067908 322.182437)scale(0.1 -0.1)">
       <use xlink:href="#DejaVuSans-32"/>
      </g>
     </g>
    </g>
    <g id="xtick_6">
     <g id="line2d_6">
      <g>
       <use style="stroke:#000000;stroke-width:0.8;" x="340.02065" xlink:href="#mcdd36f9d5b" y="307.584"/>
      </g>
     </g>
     <g id="text_6">
      <!-- 4 -->
      <g transform="translate(336.8394 322.182437)scale(0.1 -0.1)">
       <use xlink:href="#DejaVuSans-34"/>
      </g>
     </g>
    </g>
    <g id="xtick_7">
     <g id="line2d_7">
      <g>
       <use style="stroke:#000000;stroke-width:0.8;" x="391.792142" xlink:href="#mcdd36f9d5b" y="307.584"/>
      </g>
     </g>
     <g id="text_7">
      <!-- 6 -->
      <g transform="translate(388.610892 322.182437)scale(0.1 -0.1)">
       <use xlink:href="#DejaVuSans-36"/>
      </g>
     </g>
    </g>
   </g>
   <g id="matplotlib.axis_2">
    <g id="ytick_1">
     <g id="line2d_8">
      <defs>
       <path d="M 0 0 
L -3.5 0 
" id="ma08d517772" style="stroke:#000000;stroke-width:0.8;"/>
      </defs>
      <g>
       <use style="stroke:#000000;stroke-width:0.8;" x="57.6" xlink:href="#ma08d517772" y="307.584"/>
      </g>
     </g>
     <g id="text_8">
      <!-- $\mathdefault{10^{-14}}$ -->
      <g transform="translate(22.7 311.383219)scale(0.1 -0.1)">
       <defs>
        <path d="M 794 531 
L 1825 531 
L 1825 4091 
L 703 3866 
L 703 4441 
L 1819 4666 
L 2450 4666 
L 2450 531 
L 3481 531 
L 3481 0 
L 794 0 
L 794 531 
z
" id="DejaVuSans-31" transform="scale(0.015625)"/>
       </defs>
       <use transform="translate(0 0.684375)" xlink:href="#DejaVuSans-31"/>
       <use transform="translate(63.623047 0.684375)" xlink:href="#DejaVuSans-30"/>
       <use transform="translate(128.203125 38.965625)scale(0.7)" xlink:href="#DejaVuSans-2212"/>
       <use transform="translate(186.855469 38.965625)scale(0.7)" xlink:href="#DejaVuSans-31"/>
       <use transform="translate(231.391602 38.965625)scale(0.7)" xlink:href="#DejaVuSans-34"/>
      </g>
     </g>
    </g>
    <g id="ytick_2">
     <g id="line2d_9">
      <g>
       <use style="stroke:#000000;stroke-width:0.8;" x="57.6" xlink:href="#ma08d517772" y="269.568"/>
      </g>
     </g>
     <g id="text_9">
      <!-- $\mathdefault{10^{-12}}$ -->
      <g transform="translate(22.7 273.367219)scale(0.1 -0.1)">
       <use transform="translate(0 0.765625)" xlink:href="#DejaVuSans-31"/>
       <use transform="translate(63.623047 0.765625)" xlink:href="#DejaVuSans-30"/>
       <use transform="translate(128.203125 39.046875)scale(0.7)" xlink:href="#DejaVuSans-2212"/>
       <use transform="translate(186.855469 39.046875)scale(0.7)" xlink:href="#DejaVuSans-31"/>
       <use transform="translate(231.391602 39.046875)scale(0.7)" xlink:href="#DejaVuSans-32"/>
      </g>
     </g>
    </g>
    <g id="ytick_3">
     <g id="line2d_10">
      <g>
       <use style="stroke:#000000;stroke-width:0.8;" x="57.6" xlink:href="#ma08d517772" y="231.552"/>
      </g>
     </g>
     <g id="text_10">
      <!-- $\mathdefault{10^{-10}}$ -->
      <g transform="translate(22.7 235.351219)scale(0.1 -0.1)">
       <use transform="translate(0 0.765625)" xlink:href="#DejaVuSans-31"/>
       <use transform="translate(63.623047 0.765625)" xlink:href="#DejaVuSans-30"/>
       <use transform="translate(128.203125 39.046875)scale(0.7)" xlink:href="#DejaVuSans-2212"/>
       <use transform="translate(186.855469 39.046875)scale(0.7)" xlink:href="#DejaVuSans-31"/>
       <use transform="translate(231.391602 39.046875)scale(0.7)" xlink:href="#DejaVuSans-30"/>
      </g>
     </g>
    </g>
    <g id="ytick_4">
     <g id="line2d_11">
      <g>
       <use style="stroke:#000000;stroke-width:0.8;" x="57.6" xlink:href="#ma08d517772" y="193.536"/>
      </g>
     </g>
     <g id="text_11">
      <!-- $\mathdefault{10^{-8}}$ -->
      <g transform="translate(27.1 197.335219)scale(0.1 -0.1)">
       <defs>
        <path d="M 2034 2216 
Q 1584 2216 1326 1975 
Q 1069 1734 1069 1313 
Q 1069 891 1326 650 
Q 1584 409 2034 409 
Q 2484 409 2743 651 
Q 3003 894 3003 1313 
Q 3003 1734 2745 1975 
Q 2488 2216 2034 2216 
z
M 1403 2484 
Q 997 2584 770 2862 
Q 544 3141 544 3541 
Q 544 4100 942 4425 
Q 1341 4750 2034 4750 
Q 2731 4750 3128 4425 
Q 3525 4100 3525 3541 
Q 3525 3141 3298 2862 
Q 3072 2584 2669 2484 
Q 3125 2378 3379 2068 
Q 3634 1759 3634 1313 
Q 3634 634 3220 271 
Q 2806 -91 2034 -91 
Q 1263 -91 848 271 
Q 434 634 434 1313 
Q 434 1759 690 2068 
Q 947 2378 1403 2484 
z
M 1172 3481 
Q 1172 3119 1398 2916 
Q 1625 2713 2034 2713 
Q 2441 2713 2670 2916 
Q 2900 3119 2900 3481 
Q 2900 3844 2670 4047 
Q 2441 4250 2034 4250 
Q 1625 4250 1398 4047 
Q 1172 3844 1172 3481 
z
" id="DejaVuSans-38" transform="scale(0.015625)"/>
       </defs>
       <use transform="translate(0 0.765625)" xlink:href="#DejaVuSans-31"/>
       <use transform="translate(63.623047 0.765625)" xlink:href="#DejaVuSans-30"/>
       <use transform="translate(128.203125 39.046875)scale(0.7)" xlink:href="#DejaVuSans-2212"/>
       <use transform="translate(186.855469 39.046875)scale(0.7)" xlink:href="#DejaVuSans-38"/>
      </g>
     </g>
    </g>
    <g id="ytick_5">
     <g id="line2d_12">
      <g>
       <use style="stroke:#000000;stroke-width:0.8;" x="57.6" xlink:href="#ma08d517772" y="155.52"/>
      </g>
     </g>
     <g id="text_12">
      <!-- $\mathdefault{10^{-6}}$ -->
      <g transform="translate(27.1 159.319219)scale(0.1 -0.1)">
       <use transform="translate(0 0.765625)" xlink:href="#DejaVuSans-31"/>
       <use transform="translate(63.623047 0.765625)" xlink:href="#DejaVuSans-30"/>
       <use transform="translate(128.203125 39.046875)scale(0.7)" xlink:href="#DejaVuSans-2212"/>
       <use transform="translate(186.855469 39.046875)scale(0.7)" xlink:href="#DejaVuSans-36"/>
      </g>
     </g>
    </g>
    <g id="ytick_6">
     <g id="line2d_13">
      <g>
       <use style="stroke:#000000;stroke-width:0.8;" x="57.6" xlink:href="#ma08d517772" y="117.504"/>
      </g>
     </g>
     <g id="text_13">
      <!-- $\mathdefault{10^{-4}}$ -->
      <g transform="translate(27.1 121.303219)scale(0.1 -0.1)">
       <use transform="translate(0 0.684375)" xlink:href="#DejaVuSans-31"/>
       <use transform="translate(63.623047 0.684375)" xlink:href="#DejaVuSans-30"/>
       <use transform="translate(128.203125 38.965625)scale(0.7)" xlink:href="#DejaVuSans-2212"/>
       <use transform="translate(186.855469 38.965625)scale(0.7)" xlink:href="#DejaVuSans-34"/>
      </g>
     </g>
    </g>
    <g id="ytick_7">
     <g id="line2d_14">
      <g>
       <use style="stroke:#000000;stroke-width:0.8;" x="57.6" xlink:href="#ma08d517772" y="79.488"/>
      </g>
     </g>
     <g id="text_14">
      <!-- $\mathdefault{10^{-2}}$ -->
      <g transform="translate(27.1 83.287219)scale(0.1 -0.1)">
       <use transform="translate(0 0.765625)" xlink:href="#DejaVuSans-31"/>
       <use transform="translate(63.623047 0.765625)" xlink:href="#DejaVuSans-30"/>
       <use transform="translate(128.203125 39.046875)scale(0.7)" xlink:href="#DejaVuSans-2212"/>
       <use transform="translate(186.855469 39.046875)scale(0.7)" xlink:href="#DejaVuSans-32"/>
      </g>
     </g>
    </g>
    <g id="ytick_8">
     <g id="line2d_15">
      <g>
       <use style="stroke:#000000;stroke-width:0.8;" x="57.6" xlink:href="#ma08d517772" y="41.472"/>
      </g>
     </g>
     <g id="text_15">
      <!-- $\mathdefault{10^{0}}$ -->
      <g transform="translate(33 45.271219)scale(0.1 -0.1)">
       <use transform="translate(0 0.765625)" xlink:href="#DejaVuSans-31"/>
       <use transform="translate(63.623047 0.765625)" xlink:href="#DejaVuSans-30"/>
       <use transform="translate(128.203125 39.046875)scale(0.7)" xlink:href="#DejaVuSans-30"/>
      </g>
     </g>
    </g>
   </g>
   <g id="line2d_16">
    <path clip-path="url(#p22c9d4538a)" d="M 74.784978 346.6 
L 75.103391 340.749504 
L 75.738723 333.721622 
L 76.374054 328.81087 
L 77.009386 325.904015 
L 77.644718 325.964344 
L 78.915382 337.505758 
L 79.550713 328.417727 
L 80.186045 331.581199 
L 80.821377 331.939385 
L 81.456709 322.055634 
L 82.092041 319.091437 
L 82.727372 319.028706 
L 83.362704 321.215505 
L 83.998036 326.451777 
L 84.633368 328.35168 
L 85.2687 327.806604 
L 85.904031 328.974625 
L 86.539363 320.678959 
L 87.810027 309.801 
L 88.445358 306.097359 
L 89.08069 305.777689 
L 90.351354 316.282107 
L 90.986686 307.876854 
L 91.622017 311.558322 
L 92.257349 309.465619 
L 92.892681 300.582477 
L 93.528013 297.585503 
L 94.163345 297.158443 
L 94.798676 298.991278 
L 95.434008 304.238102 
L 96.06934 306.360471 
L 96.704672 305.425345 
L 97.340004 306.217023 
L 97.975335 299.9271 
L 98.610667 295.107988 
L 99.245999 288.731312 
L 99.881331 284.874857 
L 100.516663 284.76192 
L 101.151994 291.025723 
L 101.787326 293.503462 
L 102.422658 286.639918 
L 103.05799 291.606184 
L 103.693321 286.782415 
L 104.328653 278.826176 
L 104.963985 275.823158 
L 105.599317 275.127033 
L 106.234649 276.817221 
L 106.86998 282.382049 
L 107.505312 284.399895 
L 108.140644 283.042904 
L 108.775976 284.077696 
L 110.046639 274.965653 
L 110.681971 267.656863 
L 111.317303 263.722306 
L 111.952635 263.889843 
L 112.587967 271.285384 
L 113.223298 271.044738 
L 113.85863 265.612131 
L 114.493962 271.901451 
L 115.764626 257.205129 
L 116.399957 254.081171 
L 117.035289 253.137793 
L 117.670621 254.820134 
L 118.305953 260.867949 
L 118.941284 262.405259 
L 119.576616 260.791588 
L 120.211948 262.400838 
L 120.84728 259.55577 
L 121.482612 255.024681 
L 122.117943 246.590068 
L 122.753275 242.666226 
L 123.388607 243.196992 
L 124.023939 252.14795 
L 124.659271 248.924132 
L 125.294602 244.837958 
L 125.929934 252.027858 
L 126.565266 242.509229 
L 127.200598 235.703032 
L 127.83593 232.353808 
L 128.471261 231.234319 
L 129.106593 233.03075 
L 129.741925 239.705654 
L 130.377257 240.383215 
L 131.012589 238.734702 
L 131.64792 241.134507 
L 132.283252 240.039604 
L 132.918584 235.243059 
L 133.553916 225.591766 
L 134.189247 221.792189 
L 134.824579 222.797028 
L 135.459911 234.01861 
L 136.095243 227.24046 
L 136.730575 224.42867 
L 137.365906 231.232926 
L 138.001238 220.993998 
L 138.63657 214.365277 
L 139.271902 210.741022 
L 139.907234 209.551983 
L 140.542565 211.558598 
L 141.177897 218.987927 
L 141.813229 218.456338 
L 142.448561 216.997584 
L 143.083893 220.350228 
L 143.719224 220.944625 
L 144.354556 215.458402 
L 144.989888 204.81298 
L 145.62522 201.278713 
L 146.260552 202.89636 
L 146.895883 217.446723 
L 147.531215 206.165076 
L 148.166547 204.490761 
L 148.801879 209.478918 
L 149.43721 199.995297 
L 150.072542 193.232127 
L 150.707874 189.356989 
L 151.343206 188.194128 
L 151.978538 190.460257 
L 152.613869 198.753564 
L 153.249201 196.673214 
L 153.884533 195.628007 
L 154.519865 200.028413 
L 155.155197 201.219552 
L 155.790528 195.133295 
L 156.42586 184.276378 
L 157.061192 181.16702 
L 157.696524 183.553189 
L 158.331856 199.36913 
L 158.967187 185.695682 
L 159.602519 184.802637 
L 160.237851 187.607271 
L 161.508514 172.178491 
L 162.143846 168.142615 
L 162.779178 167.058546 
L 163.41451 169.598171 
L 164.049842 178.844412 
L 164.685173 174.926359 
L 165.320505 174.559923 
L 165.955837 179.843325 
L 166.591169 179.319985 
L 167.226501 174.031941 
L 167.861832 163.996396 
L 168.497164 161.498656 
L 169.132496 164.799707 
L 169.767828 175.26973 
L 170.40316 165.875711 
L 171.038491 165.003587 
L 171.673823 166.337177 
L 172.944487 151.298343 
L 173.579819 147.212192 
L 174.21515 146.221208 
L 174.850482 149.068789 
L 175.485814 159.317106 
L 176.121146 153.435108 
L 176.756477 154.085998 
L 177.391809 159.466742 
L 178.027141 156.705303 
L 178.662473 152.987378 
L 179.297805 144.305046 
L 179.933136 142.572491 
L 180.568468 146.66434 
L 181.2038 152.156346 
L 181.839132 146.680222 
L 182.474464 144.795849 
L 183.109795 145.817683 
L 184.380459 130.53114 
L 185.015791 126.354308 
L 185.651123 125.373801 
L 186.286454 128.567877 
L 186.921786 139.488184 
L 187.557118 131.845369 
L 188.19245 133.862504 
L 188.827782 137.700608 
L 189.463113 134.115649 
L 190.098445 131.966673 
L 190.733777 124.593489 
L 191.369109 123.649527 
L 192.00444 127.478597 
L 192.639772 129.987201 
L 193.910436 123.445932 
L 194.545768 124.782902 
L 195.816431 109.003393 
L 196.451763 104.602706 
L 197.087095 103.645793 
L 197.722427 107.413804 
L 198.357758 117.834976 
L 198.99309 109.697957 
L 199.628422 113.701336 
L 200.263754 114.485285 
L 200.899086 111.803645 
L 201.534417 111.794496 
L 202.169749 105.370046 
L 202.805081 105.096417 
L 203.440413 106.731174 
L 204.075745 109.386112 
L 204.711076 105.669679 
L 205.346408 103.076055 
L 205.98174 104.113334 
L 207.252403 88.934643 
L 207.887735 84.477202 
L 208.523067 83.899913 
L 209.158399 88.710036 
L 209.793731 98.153191 
L 210.429062 90.611862 
L 211.064394 98.637375 
L 211.699726 94.321762 
L 212.335058 94.821603 
L 212.97039 97.448882 
L 213.605721 91.247877 
L 214.876385 90.991051 
L 215.511717 96.129132 
L 216.147049 90.308113 
L 216.78238 90.903239 
L 217.417712 89.167789 
L 218.053044 85.015959 
L 218.688376 75.087374 
L 219.323708 70.280122 
L 219.959039 70.276018 
L 220.594371 77.564275 
L 221.229703 81.107675 
L 221.865035 78.669198 
L 222.500366 92.719277 
L 223.135698 80.454021 
L 223.77103 103.918462 
L 224.406362 82.950537 
L 225.041694 86.429866 
L 225.677025 80.762528 
L 226.312357 86.988109 
L 226.947689 84.187457 
L 227.583021 80.799959 
L 228.218353 85.659018 
L 228.853684 71.429521 
L 229.489016 80.384577 
L 230.124348 57.148996 
L 230.75968 52.362745 
L 231.395012 54.393593 
L 232.030343 67.186114 
L 232.665675 63.103624 
L 233.936339 67.669094 
L 234.571671 62.119009 
L 235.207002 70.686841 
L 235.842334 53.388581 
L 236.477666 48.549874 
L 237.112998 53.388581 
L 237.748329 70.686841 
L 238.383661 62.119009 
L 239.018993 67.669094 
L 240.289657 63.103624 
L 240.924988 67.186114 
L 241.56032 54.393593 
L 242.195652 52.362745 
L 242.830984 57.148996 
L 243.466316 80.384577 
L 244.101647 71.429521 
L 244.736979 85.659018 
L 245.372311 80.799959 
L 246.642975 86.988109 
L 247.278306 80.762528 
L 247.913638 86.429866 
L 248.54897 82.950537 
L 249.184302 103.918462 
L 249.819634 80.454021 
L 250.454965 92.719277 
L 251.090297 78.669198 
L 251.725629 81.107675 
L 252.360961 77.564275 
L 252.996292 70.276018 
L 253.631624 70.280122 
L 254.266956 75.087374 
L 254.902288 85.015959 
L 255.53762 89.167789 
L 256.172951 90.903239 
L 256.808283 90.308113 
L 257.443615 96.129132 
L 258.078947 90.991051 
L 259.34961 91.247877 
L 259.984942 97.448882 
L 260.620274 94.821603 
L 261.255606 94.321762 
L 261.890938 98.637375 
L 262.526269 90.611862 
L 263.161601 98.153191 
L 263.796933 88.710036 
L 264.432265 83.899913 
L 265.067597 84.477202 
L 265.702928 88.934643 
L 266.973592 104.113334 
L 267.608924 103.076055 
L 268.244255 105.669679 
L 268.879587 109.386112 
L 269.514919 106.731174 
L 270.150251 105.096417 
L 270.785583 105.370046 
L 271.420914 111.794496 
L 272.056246 111.803645 
L 272.691578 114.485285 
L 273.32691 113.701336 
L 273.962242 109.697957 
L 274.597573 117.834976 
L 275.232905 107.413804 
L 275.868237 103.645793 
L 276.503569 104.602706 
L 277.138901 109.003393 
L 278.409564 124.782902 
L 279.044896 123.445932 
L 280.31556 129.987201 
L 280.950891 127.478597 
L 281.586223 123.649527 
L 282.221555 124.593489 
L 282.856887 131.966673 
L 283.492218 134.115649 
L 284.12755 137.700608 
L 284.762882 133.862504 
L 285.398214 131.845369 
L 286.033546 139.488184 
L 286.668877 128.567877 
L 287.304209 125.373801 
L 287.939541 126.354308 
L 288.574873 130.53114 
L 289.845536 145.817683 
L 290.480868 144.795849 
L 291.1162 146.680222 
L 291.751532 152.156346 
L 292.386864 146.66434 
L 293.022195 142.572491 
L 293.657527 144.305046 
L 294.292859 152.987378 
L 294.928191 156.705303 
L 295.563523 159.466742 
L 296.198854 154.085998 
L 296.834186 153.435108 
L 297.469518 159.317106 
L 298.10485 149.068789 
L 298.740181 146.221208 
L 299.375513 147.212192 
L 300.010845 151.298343 
L 301.281509 166.337177 
L 301.91684 165.003587 
L 302.552172 165.875711 
L 303.187504 175.26973 
L 303.822836 164.799707 
L 304.458168 161.498656 
L 305.093499 163.996396 
L 305.728831 174.031941 
L 306.364163 179.319985 
L 306.999495 179.843325 
L 307.634827 174.559923 
L 308.270158 174.926359 
L 308.90549 178.844412 
L 309.540822 169.598171 
L 310.176154 167.058546 
L 310.811486 168.142615 
L 311.446817 172.178491 
L 312.717481 187.607271 
L 313.352813 184.802637 
L 313.988144 185.695682 
L 314.623476 199.36913 
L 315.258808 183.553189 
L 315.89414 181.16702 
L 316.529472 184.276378 
L 317.164803 195.133295 
L 317.800135 201.219552 
L 318.435467 200.028413 
L 319.070799 195.628007 
L 319.706131 196.673214 
L 320.341462 198.753564 
L 320.976794 190.460257 
L 321.612126 188.194128 
L 322.247458 189.356989 
L 322.88279 193.232127 
L 323.518121 199.995297 
L 324.153453 209.478918 
L 324.788785 204.490761 
L 325.424117 206.165076 
L 326.059448 217.446723 
L 326.69478 202.89636 
L 327.330112 201.278713 
L 327.965444 204.81298 
L 328.600776 215.458402 
L 329.236107 220.944625 
L 329.871439 220.350228 
L 330.506771 216.997584 
L 331.142103 218.456338 
L 331.777435 218.987927 
L 332.412766 211.558598 
L 333.048098 209.551983 
L 333.68343 210.741022 
L 334.318762 214.365277 
L 334.954094 220.993998 
L 335.589425 231.232926 
L 336.224757 224.428669 
L 336.860089 227.240461 
L 337.495421 234.018611 
L 338.130753 222.797028 
L 338.766084 221.792189 
L 339.401416 225.591766 
L 340.036748 235.24306 
L 340.67208 240.039604 
L 341.307411 241.134507 
L 341.942743 238.734702 
L 342.578075 240.383213 
L 343.213407 239.705655 
L 343.848739 233.030749 
L 344.48407 231.234319 
L 345.119402 232.353808 
L 345.754734 235.703033 
L 346.390066 242.509229 
L 347.025398 252.027859 
L 347.660729 244.837955 
L 348.296061 248.924133 
L 348.931393 252.147941 
L 349.566725 243.196992 
L 350.202057 242.666226 
L 350.837388 246.590068 
L 351.47272 255.024677 
L 352.108052 259.555792 
L 352.743384 262.400847 
L 353.378716 260.791578 
L 354.014047 262.405258 
L 354.649379 260.867946 
L 355.284711 254.820138 
L 355.920043 253.137793 
L 356.555374 254.081174 
L 357.190706 257.205129 
L 358.46137 271.901451 
L 359.096702 265.612179 
L 359.732033 271.044781 
L 360.367365 271.285436 
L 361.002697 263.889845 
L 361.638029 263.722316 
L 362.273361 267.656874 
L 362.908692 274.965694 
L 364.179356 284.077886 
L 364.814688 283.042752 
L 365.45002 284.399873 
L 366.085351 282.382049 
L 366.720683 276.817254 
L 367.356015 275.127035 
L 367.991347 275.82308 
L 368.626679 278.826175 
L 369.26201 286.782143 
L 369.897342 291.606329 
L 370.532674 286.639809 
L 371.168006 293.503494 
L 371.803337 291.025728 
L 372.438669 284.761883 
L 373.074001 284.874732 
L 373.709333 288.73135 
L 374.344665 295.107246 
L 374.979996 299.927238 
L 375.615328 306.218959 
L 376.25066 305.424624 
L 376.885992 306.360313 
L 377.521324 304.238695 
L 378.156655 298.991497 
L 378.791987 297.158443 
L 379.427319 297.586603 
L 380.062651 300.582502 
L 380.697983 309.461398 
L 381.333314 311.557743 
L 381.968646 307.87689 
L 382.603978 316.283399 
L 383.874642 305.776111 
L 384.509973 306.095003 
L 385.145305 309.802925 
L 386.415969 320.677676 
L 387.0513 328.932227 
L 387.686632 327.789909 
L 388.321964 328.349812 
L 388.957296 326.450694 
L 389.592628 321.196262 
L 390.227959 319.037235 
L 390.863291 319.086341 
L 391.498623 322.056863 
L 392.133955 331.916346 
L 392.769287 331.564426 
L 393.404618 328.548761 
L 394.03995 337.505758 
L 395.310614 325.964173 
L 395.945946 325.952699 
L 396.581277 328.798747 
L 397.216609 333.765456 
L 397.851941 340.733141 
L 398.125902 346.6 
L 398.125902 346.6 
" style="fill:none;stroke:#1f77b4;stroke-linecap:square;stroke-width:1.5;"/>
   </g>
   <g id="patch_3">
    <path d="M 57.6 307.584 
L 57.6 41.472 
" style="fill:none;stroke:#000000;stroke-linecap:square;stroke-linejoin:miter;stroke-width:0.8;"/>
   </g>
   <g id="patch_4">
    <path d="M 414.72 307.584 
L 414.72 41.472 
" style="fill:none;stroke:#000000;stroke-linecap:square;stroke-linejoin:miter;stroke-width:0.8;"/>
   </g>
   <g id="patch_5">
    <path d="M 57.6 307.584 
L 414.72 307.584 
" style="fill:none;stroke:#000000;stroke-linecap:square;stroke-linejoin:miter;stroke-width:0.8;"/>
   </g>
   <g id="patch_6">
    <path d="M 57.6 41.472 
L 414.72 41.472 
" style="fill:none;stroke:#000000;stroke-linecap:square;stroke-linejoin:miter;stroke-width:0.8;"/>
   </g>
  </g>
 </g>
 <defs>
  <clipPath id="p22c9d4538a">
   <rect height="266.112" width="357.12" x="57.6" y="41.472"/>
  </clipPath>
 </defs>
</svg>
