<?xml version="1.0" encoding="utf-8" standalone="no"?>
<!DOCTYPE svg PUBLIC "-//W3C//DTD SVG 1.1//EN"
  "http://www.w3.org/Graphics/SVG/1.1/DTD/svg11.dtd">
<svg height="345.6pt" version="1.1" viewBox="0 0 460.8 345.6" width="460.8pt" xmlns="http://www.w3.org/2000/svg" xmlns:xlink="http://www.w3.org/1999/xlink">
 <metadata>
  <rdf:RDF xmlns:cc="http://creativecommons.org/ns#" xmlns:dc="http://purl.org/dc/elements/1.1/" xmlns:rdf="http://www.w3.org/1999/02/22-rdf-syntax-ns#">
   <cc:Work>
    <dc:type rdf:resource="http://purl.org/dc/dcmitype/StillImage"/>
    <dc:date>2022-05-13T16:02:16.417112</dc:date>
    <dc:format>image/svg+xml</dc:format>
    <dc:creator>
     <cc:Agent>
      <dc:title>Matplotlib v3.4.3, https://matplotlib.org/</dc:title>
     </cc:Agent>
    </dc:creator>
   </cc:Work>
  </rdf:RDF>
 </metadata>
 <defs>
  <style type="text/css">*{stroke-linecap:butt;stroke-linejoin:round;}</style>
 </defs>
 <g id="figure_1">
  <g id="patch_1">
   <path d="M 0 345.6 
L 460.8 345.6 
L 460.8 0 
L 0 0 
z
" style="fill:#ffffff;"/>
  </g>
  <g id="axes_1">
   <g id="patch_2">
    <path d="M 57.6 307.584 
L 414.72 307.584 
L 414.72 41.472 
L 57.6 41.472 
z
" style="fill:#ffffff;"/>
   </g>
   <g id="matplotlib.axis_1">
    <g id="xtick_1">
     <g id="line2d_1">
      <defs>
       <path d="M 0 0 
L 0 3.5 
" id="m6a2463911b" style="stroke:#000000;stroke-width:0.8;"/>
      </defs>
      <g>
       <use style="stroke:#000000;stroke-width:0.8;" x="73.832727" xlink:href="#m6a2463911b" y="307.584"/>
      </g>
     </g>
     <g id="text_1">
      <!-- 0 -->
      <g transform="translate(70.651477 322.182437)scale(0.1 -0.1)">
       <defs>
        <path d="M 2034 4250 
Q 1547 4250 1301 3770 
Q 1056 3291 1056 2328 
Q 1056 1369 1301 889 
Q 1547 409 2034 409 
Q 2525 409 2770 889 
Q 3016 1369 3016 2328 
Q 3016 3291 2770 3770 
Q 2525 4250 2034 4250 
z
M 2034 4750 
Q 2819 4750 3233 4129 
Q 3647 3509 3647 2328 
Q 3647 1150 3233 529 
Q 2819 -91 2034 -91 
Q 1250 -91 836 529 
Q 422 1150 422 2328 
Q 422 3509 836 4129 
Q 1250 4750 2034 4750 
z
" id="DejaVuSans-30" transform="scale(0.015625)"/>
       </defs>
       <use xlink:href="#DejaVuSans-30"/>
      </g>
     </g>
    </g>
    <g id="xtick_2">
     <g id="line2d_2">
      <g>
       <use style="stroke:#000000;stroke-width:0.8;" x="137.365906" xlink:href="#m6a2463911b" y="307.584"/>
      </g>
     </g>
     <g id="text_2">
      <!-- 50 -->
      <g transform="translate(131.003406 322.182437)scale(0.1 -0.1)">
       <defs>
        <path d="M 691 4666 
L 3169 4666 
L 3169 4134 
L 1269 4134 
L 1269 2991 
Q 1406 3038 1543 3061 
Q 1681 3084 1819 3084 
Q 2600 3084 3056 2656 
Q 3513 2228 3513 1497 
Q 3513 744 3044 326 
Q 2575 -91 1722 -91 
Q 1428 -91 1123 -41 
Q 819 9 494 109 
L 494 744 
Q 775 591 1075 516 
Q 1375 441 1709 441 
Q 2250 441 2565 725 
Q 2881 1009 2881 1497 
Q 2881 1984 2565 2268 
Q 2250 2553 1709 2553 
Q 1456 2553 1204 2497 
Q 953 2441 691 2322 
L 691 4666 
z
" id="DejaVuSans-35" transform="scale(0.015625)"/>
       </defs>
       <use xlink:href="#DejaVuSans-35"/>
       <use x="63.623047" xlink:href="#DejaVuSans-30"/>
      </g>
     </g>
    </g>
    <g id="xtick_3">
     <g id="line2d_3">
      <g>
       <use style="stroke:#000000;stroke-width:0.8;" x="200.899086" xlink:href="#m6a2463911b" y="307.584"/>
      </g>
     </g>
     <g id="text_3">
      <!-- 100 -->
      <g transform="translate(191.355336 322.182437)scale(0.1 -0.1)">
       <defs>
        <path d="M 794 531 
L 1825 531 
L 1825 4091 
L 703 3866 
L 703 4441 
L 1819 4666 
L 2450 4666 
L 2450 531 
L 3481 531 
L 3481 0 
L 794 0 
L 794 531 
z
" id="DejaVuSans-31" transform="scale(0.015625)"/>
       </defs>
       <use xlink:href="#DejaVuSans-31"/>
       <use x="63.623047" xlink:href="#DejaVuSans-30"/>
       <use x="127.246094" xlink:href="#DejaVuSans-30"/>
      </g>
     </g>
    </g>
    <g id="xtick_4">
     <g id="line2d_4">
      <g>
       <use style="stroke:#000000;stroke-width:0.8;" x="264.432265" xlink:href="#m6a2463911b" y="307.584"/>
      </g>
     </g>
     <g id="text_4">
      <!-- 150 -->
      <g transform="translate(254.888515 322.182437)scale(0.1 -0.1)">
       <use xlink:href="#DejaVuSans-31"/>
       <use x="63.623047" xlink:href="#DejaVuSans-35"/>
       <use x="127.246094" xlink:href="#DejaVuSans-30"/>
      </g>
     </g>
    </g>
    <g id="xtick_5">
     <g id="line2d_5">
      <g>
       <use style="stroke:#000000;stroke-width:0.8;" x="327.965444" xlink:href="#m6a2463911b" y="307.584"/>
      </g>
     </g>
     <g id="text_5">
      <!-- 200 -->
      <g transform="translate(318.421694 322.182437)scale(0.1 -0.1)">
       <defs>
        <path d="M 1228 531 
L 3431 531 
L 3431 0 
L 469 0 
L 469 531 
Q 828 903 1448 1529 
Q 2069 2156 2228 2338 
Q 2531 2678 2651 2914 
Q 2772 3150 2772 3378 
Q 2772 3750 2511 3984 
Q 2250 4219 1831 4219 
Q 1534 4219 1204 4116 
Q 875 4013 500 3803 
L 500 4441 
Q 881 4594 1212 4672 
Q 1544 4750 1819 4750 
Q 2544 4750 2975 4387 
Q 3406 4025 3406 3419 
Q 3406 3131 3298 2873 
Q 3191 2616 2906 2266 
Q 2828 2175 2409 1742 
Q 1991 1309 1228 531 
z
" id="DejaVuSans-32" transform="scale(0.015625)"/>
       </defs>
       <use xlink:href="#DejaVuSans-32"/>
       <use x="63.623047" xlink:href="#DejaVuSans-30"/>
       <use x="127.246094" xlink:href="#DejaVuSans-30"/>
      </g>
     </g>
    </g>
    <g id="xtick_6">
     <g id="line2d_6">
      <g>
       <use style="stroke:#000000;stroke-width:0.8;" x="391.498623" xlink:href="#m6a2463911b" y="307.584"/>
      </g>
     </g>
     <g id="text_6">
      <!-- 250 -->
      <g transform="translate(381.954873 322.182437)scale(0.1 -0.1)">
       <use xlink:href="#DejaVuSans-32"/>
       <use x="63.623047" xlink:href="#DejaVuSans-35"/>
       <use x="127.246094" xlink:href="#DejaVuSans-30"/>
      </g>
     </g>
    </g>
   </g>
   <g id="matplotlib.axis_2">
    <g id="ytick_1">
     <g id="line2d_7">
      <defs>
       <path d="M 0 0 
L -3.5 0 
" id="m704b086bae" style="stroke:#000000;stroke-width:0.8;"/>
      </defs>
      <g>
       <use style="stroke:#000000;stroke-width:0.8;" x="57.6" xlink:href="#m704b086bae" y="307.584"/>
      </g>
     </g>
     <g id="text_7">
      <!-- −0.6 -->
      <g transform="translate(26.317187 311.383219)scale(0.1 -0.1)">
       <defs>
        <path d="M 678 2272 
L 4684 2272 
L 4684 1741 
L 678 1741 
L 678 2272 
z
" id="DejaVuSans-2212" transform="scale(0.015625)"/>
        <path d="M 684 794 
L 1344 794 
L 1344 0 
L 684 0 
L 684 794 
z
" id="DejaVuSans-2e" transform="scale(0.015625)"/>
        <path d="M 2113 2584 
Q 1688 2584 1439 2293 
Q 1191 2003 1191 1497 
Q 1191 994 1439 701 
Q 1688 409 2113 409 
Q 2538 409 2786 701 
Q 3034 994 3034 1497 
Q 3034 2003 2786 2293 
Q 2538 2584 2113 2584 
z
M 3366 4563 
L 3366 3988 
Q 3128 4100 2886 4159 
Q 2644 4219 2406 4219 
Q 1781 4219 1451 3797 
Q 1122 3375 1075 2522 
Q 1259 2794 1537 2939 
Q 1816 3084 2150 3084 
Q 2853 3084 3261 2657 
Q 3669 2231 3669 1497 
Q 3669 778 3244 343 
Q 2819 -91 2113 -91 
Q 1303 -91 875 529 
Q 447 1150 447 2328 
Q 447 3434 972 4092 
Q 1497 4750 2381 4750 
Q 2619 4750 2861 4703 
Q 3103 4656 3366 4563 
z
" id="DejaVuSans-36" transform="scale(0.015625)"/>
       </defs>
       <use xlink:href="#DejaVuSans-2212"/>
       <use x="83.789062" xlink:href="#DejaVuSans-30"/>
       <use x="147.412109" xlink:href="#DejaVuSans-2e"/>
       <use x="179.199219" xlink:href="#DejaVuSans-36"/>
      </g>
     </g>
    </g>
    <g id="ytick_2">
     <g id="line2d_8">
      <g>
       <use style="stroke:#000000;stroke-width:0.8;" x="57.6" xlink:href="#m704b086bae" y="263.232"/>
      </g>
     </g>
     <g id="text_8">
      <!-- −0.4 -->
      <g transform="translate(26.317187 267.031219)scale(0.1 -0.1)">
       <defs>
        <path d="M 2419 4116 
L 825 1625 
L 2419 1625 
L 2419 4116 
z
M 2253 4666 
L 3047 4666 
L 3047 1625 
L 3713 1625 
L 3713 1100 
L 3047 1100 
L 3047 0 
L 2419 0 
L 2419 1100 
L 313 1100 
L 313 1709 
L 2253 4666 
z
" id="DejaVuSans-34" transform="scale(0.015625)"/>
       </defs>
       <use xlink:href="#DejaVuSans-2212"/>
       <use x="83.789062" xlink:href="#DejaVuSans-30"/>
       <use x="147.412109" xlink:href="#DejaVuSans-2e"/>
       <use x="179.199219" xlink:href="#DejaVuSans-34"/>
      </g>
     </g>
    </g>
    <g id="ytick_3">
     <g id="line2d_9">
      <g>
       <use style="stroke:#000000;stroke-width:0.8;" x="57.6" xlink:href="#m704b086bae" y="218.88"/>
      </g>
     </g>
     <g id="text_9">
      <!-- −0.2 -->
      <g transform="translate(26.317187 222.679219)scale(0.1 -0.1)">
       <use xlink:href="#DejaVuSans-2212"/>
       <use x="83.789062" xlink:href="#DejaVuSans-30"/>
       <use x="147.412109" xlink:href="#DejaVuSans-2e"/>
       <use x="179.199219" xlink:href="#DejaVuSans-32"/>
      </g>
     </g>
    </g>
    <g id="ytick_4">
     <g id="line2d_10">
      <g>
       <use style="stroke:#000000;stroke-width:0.8;" x="57.6" xlink:href="#m704b086bae" y="174.528"/>
      </g>
     </g>
     <g id="text_10">
      <!-- 0.0 -->
      <g transform="translate(34.696875 178.327219)scale(0.1 -0.1)">
       <use xlink:href="#DejaVuSans-30"/>
       <use x="63.623047" xlink:href="#DejaVuSans-2e"/>
       <use x="95.410156" xlink:href="#DejaVuSans-30"/>
      </g>
     </g>
    </g>
    <g id="ytick_5">
     <g id="line2d_11">
      <g>
       <use style="stroke:#000000;stroke-width:0.8;" x="57.6" xlink:href="#m704b086bae" y="130.176"/>
      </g>
     </g>
     <g id="text_11">
      <!-- 0.2 -->
      <g transform="translate(34.696875 133.975219)scale(0.1 -0.1)">
       <use xlink:href="#DejaVuSans-30"/>
       <use x="63.623047" xlink:href="#DejaVuSans-2e"/>
       <use x="95.410156" xlink:href="#DejaVuSans-32"/>
      </g>
     </g>
    </g>
    <g id="ytick_6">
     <g id="line2d_12">
      <g>
       <use style="stroke:#000000;stroke-width:0.8;" x="57.6" xlink:href="#m704b086bae" y="85.824"/>
      </g>
     </g>
     <g id="text_12">
      <!-- 0.4 -->
      <g transform="translate(34.696875 89.623219)scale(0.1 -0.1)">
       <use xlink:href="#DejaVuSans-30"/>
       <use x="63.623047" xlink:href="#DejaVuSans-2e"/>
       <use x="95.410156" xlink:href="#DejaVuSans-34"/>
      </g>
     </g>
    </g>
    <g id="ytick_7">
     <g id="line2d_13">
      <g>
       <use style="stroke:#000000;stroke-width:0.8;" x="57.6" xlink:href="#m704b086bae" y="41.472"/>
      </g>
     </g>
     <g id="text_13">
      <!-- 0.6 -->
      <g transform="translate(34.696875 45.271219)scale(0.1 -0.1)">
       <use xlink:href="#DejaVuSans-30"/>
       <use x="63.623047" xlink:href="#DejaVuSans-2e"/>
       <use x="95.410156" xlink:href="#DejaVuSans-36"/>
      </g>
     </g>
    </g>
   </g>
   <g id="line2d_14">
    <path clip-path="url(#p22e4a6726b)" d="M 73.832727 259.831145 
L 77.009386 260.37771 
L 79.550713 260.631455 
L 82.092041 260.695338 
L 85.2687 260.553667 
L 96.06934 259.799709 
L 100.516663 259.842654 
L 115.764626 260.245731 
L 118.305953 260.026006 
L 122.753275 259.342907 
L 123.388607 259.414903 
L 124.023939 259.607304 
L 124.659271 259.950909 
L 125.294602 260.471949 
L 125.929934 261.186585 
L 127.200598 263.167747 
L 129.106593 266.5466 
L 129.741925 267.190489 
L 130.377257 267.181174 
L 131.012589 266.192685 
L 131.64792 263.872707 
L 132.283252 259.881337 
L 132.918584 253.944735 
L 133.553916 245.917045 
L 134.189247 235.837078 
L 135.459911 210.755205 
L 138.001238 157.091295 
L 139.271902 136.121274 
L 140.542565 119.738958 
L 141.813229 106.406627 
L 143.083893 95.023036 
L 144.354556 85.288354 
L 145.62522 77.127309 
L 146.895883 70.289392 
L 148.166547 64.642779 
L 148.801879 62.452178 
L 149.43721 60.976484 
L 150.072542 60.58958 
L 150.707874 61.783302 
L 151.343206 65.127308 
L 151.978538 71.188137 
L 152.613869 80.407864 
L 153.249201 92.960178 
L 154.519865 126.725848 
L 156.42586 184.295035 
L 157.696524 214.84176 
L 158.331856 226.446949 
L 159.602519 243.892137 
L 160.873183 256.937612 
L 162.143846 267.984034 
L 163.41451 277.34394 
L 164.685173 284.734338 
L 165.955837 290.35403 
L 167.226501 294.586254 
L 167.861832 296.073465 
L 168.497164 296.854291 
L 169.132496 296.526367 
L 169.767828 294.543868 
L 170.40316 290.267126 
L 171.038491 283.062104 
L 171.673823 272.447951 
L 172.309155 258.268597 
L 173.579819 220.986439 
L 175.485814 160.086154 
L 176.756477 129.624482 
L 177.391809 118.523097 
L 178.027141 109.622643 
L 179.297805 95.924683 
L 181.2038 79.469154 
L 182.474464 70.097356 
L 183.745127 62.390545 
L 185.015791 56.512226 
L 185.651123 54.426318 
L 186.286454 53.196823 
L 186.921786 53.226068 
L 187.557118 55.06658 
L 188.19245 59.36983 
L 188.827782 66.779016 
L 189.463113 77.770112 
L 190.098445 92.469659 
L 191.369109 130.967728 
L 193.275104 193.034129 
L 193.910436 209.786788 
L 194.545768 223.592597 
L 195.181099 234.657738 
L 196.451763 250.854507 
L 197.722427 263.021975 
L 198.99309 273.521629 
L 200.263754 282.400444 
L 201.534417 289.315312 
L 202.805081 294.483062 
L 203.440413 296.487143 
L 204.075745 298.008116 
L 204.711076 298.81066 
L 205.346408 298.497573 
L 205.98174 296.516009 
L 206.617072 292.206765 
L 207.252403 284.907188 
L 207.887735 274.106305 
L 208.523067 259.627291 
L 209.793731 221.434031 
L 211.699726 159.089121 
L 212.335058 142.143544 
L 212.97039 128.181081 
L 213.605721 117.030297 
L 214.241053 108.154632 
L 215.511717 94.589445 
L 217.417712 78.273019 
L 218.688376 68.944453 
L 219.959039 61.28946 
L 221.229703 55.521067 
L 221.865035 53.541156 
L 222.500366 52.477784 
L 223.135698 52.757704 
L 223.77103 54.956261 
L 224.406362 59.737933 
L 225.041694 67.738965 
L 225.677025 79.399484 
L 226.312357 94.778719 
L 227.583021 134.305904 
L 229.489016 196.245795 
L 230.124348 212.604634 
L 230.75968 225.980228 
L 231.395012 236.655583 
L 232.665675 252.336004 
L 233.936339 264.281562 
L 235.207002 274.641435 
L 236.477666 283.352347 
L 237.748329 290.096845 
L 239.018993 295.11763 
L 239.654325 297.034023 
L 240.289657 298.4266 
L 240.924988 299.026998 
L 241.56032 298.402559 
L 242.195652 295.970518 
L 242.830984 291.058334 
L 243.466316 283.019126 
L 244.101647 271.396637 
L 244.736979 256.108456 
L 246.007643 216.808681 
L 247.913638 155.048544 
L 248.54897 138.72065 
L 249.184302 125.391226 
L 249.819634 114.788829 
L 251.090297 99.317317 
L 252.360961 87.530463 
L 254.266956 72.306837 
L 255.53762 63.968128 
L 256.808283 57.436505 
L 257.443615 54.941139 
L 258.078947 53.14383 
L 258.714279 52.348328 
L 259.34961 53.018358 
L 259.984942 55.757605 
L 260.620274 61.237141 
L 261.255606 70.064731 
L 261.890938 82.608662 
L 262.526269 98.816724 
L 263.796933 139.334754 
L 265.067597 181.804059 
L 266.33826 216.012887 
L 266.973592 228.723175 
L 267.608924 238.848808 
L 268.879587 253.882351 
L 270.150251 265.587928 
L 271.420914 275.7788 
L 272.691578 284.265546 
L 273.962242 290.788528 
L 275.232905 295.626385 
L 275.868237 297.434788 
L 276.503569 298.669748 
L 277.138901 299.024637 
L 277.774232 298.028352 
L 278.409564 295.069266 
L 279.044896 289.468197 
L 279.680228 280.606951 
L 280.31556 268.101663 
L 280.950891 251.982533 
L 282.221555 211.688326 
L 283.492218 169.378671 
L 284.762882 135.274454 
L 285.398214 122.632378 
L 286.033546 112.59825 
L 287.304209 97.788995 
L 288.574873 86.225254 
L 290.480868 71.220139 
L 291.751532 63.087658 
L 293.022195 56.782352 
L 293.657527 54.432112 
L 294.292859 52.837832 
L 294.928191 52.341068 
L 295.563523 53.442934 
L 296.198854 56.772679 
L 296.834186 63.001276 
L 297.469518 72.697725 
L 298.10485 86.146692 
L 299.375513 123.060138 
L 301.281509 186.579126 
L 302.552172 219.524293 
L 303.187504 231.636451 
L 303.822836 241.312382 
L 305.093499 255.944487 
L 306.364163 267.618385 
L 307.634827 277.652505 
L 308.90549 285.453426 
L 309.540822 288.306178 
L 310.176154 290.444133 
L 310.811486 291.91223 
L 311.446817 292.779294 
L 312.082149 293.11843 
L 312.717481 292.992026 
L 313.352813 292.442708 
L 313.988144 291.489409 
L 314.623476 290.126998 
L 315.258808 288.32821 
L 315.89414 286.047469 
L 316.529472 283.226953 
L 317.164803 279.805628 
L 318.435467 270.977888 
L 319.706131 259.540786 
L 323.518121 221.691007 
L 324.153453 217.327156 
L 324.788785 213.981037 
L 325.424117 211.680285 
L 326.059448 210.389174 
L 326.69478 210.026127 
L 327.330112 210.483611 
L 327.965444 211.645885 
L 328.600776 213.401684 
L 329.871439 218.305637 
L 331.142103 224.52911 
L 333.68343 238.762147 
L 335.589425 249.157194 
L 336.860089 255.315041 
L 338.130753 260.638515 
L 339.401416 265.033339 
L 340.67208 268.452798 
L 341.942743 270.88362 
L 342.578075 271.732345 
L 343.213407 272.342377 
L 343.848739 272.720161 
L 344.48407 272.873723 
L 345.119402 272.812583 
L 345.754734 272.547719 
L 346.390066 272.09157 
L 347.025398 271.458099 
L 348.296061 269.723203 
L 349.566725 267.48851 
L 351.47272 263.58463 
L 354.014047 258.393789 
L 355.284711 256.233278 
L 356.555374 254.554858 
L 357.826038 253.434285 
L 358.46137 253.090447 
L 359.096702 252.887851 
L 359.732033 252.820517 
L 360.367365 252.880061 
L 361.638029 253.337161 
L 362.908692 254.162056 
L 364.814688 255.854316 
L 369.26201 260.19432 
L 371.168006 261.613453 
L 372.438669 262.300613 
L 373.709333 262.761291 
L 374.979996 262.995172 
L 376.25066 263.014661 
L 377.521324 262.843037 
L 379.427319 262.299165 
L 381.968646 261.250171 
L 385.780637 259.654246 
L 387.686632 259.088647 
L 389.592628 258.758931 
L 391.498623 258.671241 
L 393.404618 258.794917 
L 395.945946 259.19051 
L 398.487273 259.702915 
L 398.487273 259.702915 
" style="fill:none;stroke:#1f77b4;stroke-linecap:square;stroke-width:1.5;"/>
   </g>
   <g id="patch_3">
    <path d="M 57.6 307.584 
L 57.6 41.472 
" style="fill:none;stroke:#000000;stroke-linecap:square;stroke-linejoin:miter;stroke-width:0.8;"/>
   </g>
   <g id="patch_4">
    <path d="M 414.72 307.584 
L 414.72 41.472 
" style="fill:none;stroke:#000000;stroke-linecap:square;stroke-linejoin:miter;stroke-width:0.8;"/>
   </g>
   <g id="patch_5">
    <path d="M 57.6 307.584 
L 414.72 307.584 
" style="fill:none;stroke:#000000;stroke-linecap:square;stroke-linejoin:miter;stroke-width:0.8;"/>
   </g>
   <g id="patch_6">
    <path d="M 57.6 41.472 
L 414.72 41.472 
" style="fill:none;stroke:#000000;stroke-linecap:square;stroke-linejoin:miter;stroke-width:0.8;"/>
   </g>
  </g>
 </g>
 <defs>
  <clipPath id="p22e4a6726b">
   <rect height="266.112" width="357.12" x="57.6" y="41.472"/>
  </clipPath>
 </defs>
</svg>
