<?xml version="1.0" encoding="utf-8" standalone="no"?>
<!DOCTYPE svg PUBLIC "-//W3C//DTD SVG 1.1//EN"
  "http://www.w3.org/Graphics/SVG/1.1/DTD/svg11.dtd">
<svg height="345.6pt" version="1.1" viewBox="0 0 460.8 345.6" width="460.8pt" xmlns="http://www.w3.org/2000/svg" xmlns:xlink="http://www.w3.org/1999/xlink">
 <metadata>
  <rdf:RDF xmlns:cc="http://creativecommons.org/ns#" xmlns:dc="http://purl.org/dc/elements/1.1/" xmlns:rdf="http://www.w3.org/1999/02/22-rdf-syntax-ns#">
   <cc:Work>
    <dc:type rdf:resource="http://purl.org/dc/dcmitype/StillImage"/>
    <dc:date>2022-05-13T16:02:16.507456</dc:date>
    <dc:format>image/svg+xml</dc:format>
    <dc:creator>
     <cc:Agent>
      <dc:title>Matplotlib v3.4.3, https://matplotlib.org/</dc:title>
     </cc:Agent>
    </dc:creator>
   </cc:Work>
  </rdf:RDF>
 </metadata>
 <defs>
  <style type="text/css">*{stroke-linecap:butt;stroke-linejoin:round;}</style>
 </defs>
 <g id="figure_1">
  <g id="patch_1">
   <path d="M 0 345.6 
L 460.8 345.6 
L 460.8 0 
L 0 0 
z
" style="fill:#ffffff;"/>
  </g>
  <g id="axes_1">
   <g id="patch_2">
    <path d="M 57.6 307.584 
L 414.72 307.584 
L 414.72 41.472 
L 57.6 41.472 
z
" style="fill:#ffffff;"/>
   </g>
   <g id="matplotlib.axis_1">
    <g id="xtick_1">
     <g id="line2d_1">
      <defs>
       <path d="M 0 0 
L 0 3.5 
" id="m90eb963eab" style="stroke:#000000;stroke-width:0.8;"/>
      </defs>
      <g>
       <use style="stroke:#000000;stroke-width:0.8;" x="81.16319" xlink:href="#m90eb963eab" y="307.584"/>
      </g>
     </g>
     <g id="text_1">
      <!-- −6 -->
      <g transform="translate(73.792096 322.182437)scale(0.1 -0.1)">
       <defs>
        <path d="M 678 2272 
L 4684 2272 
L 4684 1741 
L 678 1741 
L 678 2272 
z
" id="DejaVuSans-2212" transform="scale(0.015625)"/>
        <path d="M 2113 2584 
Q 1688 2584 1439 2293 
Q 1191 2003 1191 1497 
Q 1191 994 1439 701 
Q 1688 409 2113 409 
Q 2538 409 2786 701 
Q 3034 994 3034 1497 
Q 3034 2003 2786 2293 
Q 2538 2584 2113 2584 
z
M 3366 4563 
L 3366 3988 
Q 3128 4100 2886 4159 
Q 2644 4219 2406 4219 
Q 1781 4219 1451 3797 
Q 1122 3375 1075 2522 
Q 1259 2794 1537 2939 
Q 1816 3084 2150 3084 
Q 2853 3084 3261 2657 
Q 3669 2231 3669 1497 
Q 3669 778 3244 343 
Q 2819 -91 2113 -91 
Q 1303 -91 875 529 
Q 447 1150 447 2328 
Q 447 3434 972 4092 
Q 1497 4750 2381 4750 
Q 2619 4750 2861 4703 
Q 3103 4656 3366 4563 
z
" id="DejaVuSans-36" transform="scale(0.015625)"/>
       </defs>
       <use xlink:href="#DejaVuSans-2212"/>
       <use x="83.789062" xlink:href="#DejaVuSans-36"/>
      </g>
     </g>
    </g>
    <g id="xtick_2">
     <g id="line2d_2">
      <g>
       <use style="stroke:#000000;stroke-width:0.8;" x="132.934682" xlink:href="#m90eb963eab" y="307.584"/>
      </g>
     </g>
     <g id="text_2">
      <!-- −4 -->
      <g transform="translate(125.563588 322.182437)scale(0.1 -0.1)">
       <defs>
        <path d="M 2419 4116 
L 825 1625 
L 2419 1625 
L 2419 4116 
z
M 2253 4666 
L 3047 4666 
L 3047 1625 
L 3713 1625 
L 3713 1100 
L 3047 1100 
L 3047 0 
L 2419 0 
L 2419 1100 
L 313 1100 
L 313 1709 
L 2253 4666 
z
" id="DejaVuSans-34" transform="scale(0.015625)"/>
       </defs>
       <use xlink:href="#DejaVuSans-2212"/>
       <use x="83.789062" xlink:href="#DejaVuSans-34"/>
      </g>
     </g>
    </g>
    <g id="xtick_3">
     <g id="line2d_3">
      <g>
       <use style="stroke:#000000;stroke-width:0.8;" x="184.706174" xlink:href="#m90eb963eab" y="307.584"/>
      </g>
     </g>
     <g id="text_3">
      <!-- −2 -->
      <g transform="translate(177.33508 322.182437)scale(0.1 -0.1)">
       <defs>
        <path d="M 1228 531 
L 3431 531 
L 3431 0 
L 469 0 
L 469 531 
Q 828 903 1448 1529 
Q 2069 2156 2228 2338 
Q 2531 2678 2651 2914 
Q 2772 3150 2772 3378 
Q 2772 3750 2511 3984 
Q 2250 4219 1831 4219 
Q 1534 4219 1204 4116 
Q 875 4013 500 3803 
L 500 4441 
Q 881 4594 1212 4672 
Q 1544 4750 1819 4750 
Q 2544 4750 2975 4387 
Q 3406 4025 3406 3419 
Q 3406 3131 3298 2873 
Q 3191 2616 2906 2266 
Q 2828 2175 2409 1742 
Q 1991 1309 1228 531 
z
" id="DejaVuSans-32" transform="scale(0.015625)"/>
       </defs>
       <use xlink:href="#DejaVuSans-2212"/>
       <use x="83.789062" xlink:href="#DejaVuSans-32"/>
      </g>
     </g>
    </g>
    <g id="xtick_4">
     <g id="line2d_4">
      <g>
       <use style="stroke:#000000;stroke-width:0.8;" x="236.477666" xlink:href="#m90eb963eab" y="307.584"/>
      </g>
     </g>
     <g id="text_4">
      <!-- 0 -->
      <g transform="translate(233.296416 322.182437)scale(0.1 -0.1)">
       <defs>
        <path d="M 2034 4250 
Q 1547 4250 1301 3770 
Q 1056 3291 1056 2328 
Q 1056 1369 1301 889 
Q 1547 409 2034 409 
Q 2525 409 2770 889 
Q 3016 1369 3016 2328 
Q 3016 3291 2770 3770 
Q 2525 4250 2034 4250 
z
M 2034 4750 
Q 2819 4750 3233 4129 
Q 3647 3509 3647 2328 
Q 3647 1150 3233 529 
Q 2819 -91 2034 -91 
Q 1250 -91 836 529 
Q 422 1150 422 2328 
Q 422 3509 836 4129 
Q 1250 4750 2034 4750 
z
" id="DejaVuSans-30" transform="scale(0.015625)"/>
       </defs>
       <use xlink:href="#DejaVuSans-30"/>
      </g>
     </g>
    </g>
    <g id="xtick_5">
     <g id="line2d_5">
      <g>
       <use style="stroke:#000000;stroke-width:0.8;" x="288.249158" xlink:href="#m90eb963eab" y="307.584"/>
      </g>
     </g>
     <g id="text_5">
      <!-- 2 -->
      <g transform="translate(285.067908 322.182437)scale(0.1 -0.1)">
       <use xlink:href="#DejaVuSans-32"/>
      </g>
     </g>
    </g>
    <g id="xtick_6">
     <g id="line2d_6">
      <g>
       <use style="stroke:#000000;stroke-width:0.8;" x="340.02065" xlink:href="#m90eb963eab" y="307.584"/>
      </g>
     </g>
     <g id="text_6">
      <!-- 4 -->
      <g transform="translate(336.8394 322.182437)scale(0.1 -0.1)">
       <use xlink:href="#DejaVuSans-34"/>
      </g>
     </g>
    </g>
    <g id="xtick_7">
     <g id="line2d_7">
      <g>
       <use style="stroke:#000000;stroke-width:0.8;" x="391.792142" xlink:href="#m90eb963eab" y="307.584"/>
      </g>
     </g>
     <g id="text_7">
      <!-- 6 -->
      <g transform="translate(388.610892 322.182437)scale(0.1 -0.1)">
       <use xlink:href="#DejaVuSans-36"/>
      </g>
     </g>
    </g>
   </g>
   <g id="matplotlib.axis_2">
    <g id="ytick_1">
     <g id="line2d_8">
      <defs>
       <path d="M 0 0 
L -3.5 0 
" id="m4d58f4b300" style="stroke:#000000;stroke-width:0.8;"/>
      </defs>
      <g>
       <use style="stroke:#000000;stroke-width:0.8;" x="57.6" xlink:href="#m4d58f4b300" y="307.584"/>
      </g>
     </g>
     <g id="text_8">
      <!-- $\mathdefault{10^{-14}}$ -->
      <g transform="translate(22.7 311.383219)scale(0.1 -0.1)">
       <defs>
        <path d="M 794 531 
L 1825 531 
L 1825 4091 
L 703 3866 
L 703 4441 
L 1819 4666 
L 2450 4666 
L 2450 531 
L 3481 531 
L 3481 0 
L 794 0 
L 794 531 
z
" id="DejaVuSans-31" transform="scale(0.015625)"/>
       </defs>
       <use transform="translate(0 0.684375)" xlink:href="#DejaVuSans-31"/>
       <use transform="translate(63.623047 0.684375)" xlink:href="#DejaVuSans-30"/>
       <use transform="translate(128.203125 38.965625)scale(0.7)" xlink:href="#DejaVuSans-2212"/>
       <use transform="translate(186.855469 38.965625)scale(0.7)" xlink:href="#DejaVuSans-31"/>
       <use transform="translate(231.391602 38.965625)scale(0.7)" xlink:href="#DejaVuSans-34"/>
      </g>
     </g>
    </g>
    <g id="ytick_2">
     <g id="line2d_9">
      <g>
       <use style="stroke:#000000;stroke-width:0.8;" x="57.6" xlink:href="#m4d58f4b300" y="269.568"/>
      </g>
     </g>
     <g id="text_9">
      <!-- $\mathdefault{10^{-12}}$ -->
      <g transform="translate(22.7 273.367219)scale(0.1 -0.1)">
       <use transform="translate(0 0.765625)" xlink:href="#DejaVuSans-31"/>
       <use transform="translate(63.623047 0.765625)" xlink:href="#DejaVuSans-30"/>
       <use transform="translate(128.203125 39.046875)scale(0.7)" xlink:href="#DejaVuSans-2212"/>
       <use transform="translate(186.855469 39.046875)scale(0.7)" xlink:href="#DejaVuSans-31"/>
       <use transform="translate(231.391602 39.046875)scale(0.7)" xlink:href="#DejaVuSans-32"/>
      </g>
     </g>
    </g>
    <g id="ytick_3">
     <g id="line2d_10">
      <g>
       <use style="stroke:#000000;stroke-width:0.8;" x="57.6" xlink:href="#m4d58f4b300" y="231.552"/>
      </g>
     </g>
     <g id="text_10">
      <!-- $\mathdefault{10^{-10}}$ -->
      <g transform="translate(22.7 235.351219)scale(0.1 -0.1)">
       <use transform="translate(0 0.765625)" xlink:href="#DejaVuSans-31"/>
       <use transform="translate(63.623047 0.765625)" xlink:href="#DejaVuSans-30"/>
       <use transform="translate(128.203125 39.046875)scale(0.7)" xlink:href="#DejaVuSans-2212"/>
       <use transform="translate(186.855469 39.046875)scale(0.7)" xlink:href="#DejaVuSans-31"/>
       <use transform="translate(231.391602 39.046875)scale(0.7)" xlink:href="#DejaVuSans-30"/>
      </g>
     </g>
    </g>
    <g id="ytick_4">
     <g id="line2d_11">
      <g>
       <use style="stroke:#000000;stroke-width:0.8;" x="57.6" xlink:href="#m4d58f4b300" y="193.536"/>
      </g>
     </g>
     <g id="text_11">
      <!-- $\mathdefault{10^{-8}}$ -->
      <g transform="translate(27.1 197.335219)scale(0.1 -0.1)">
       <defs>
        <path d="M 2034 2216 
Q 1584 2216 1326 1975 
Q 1069 1734 1069 1313 
Q 1069 891 1326 650 
Q 1584 409 2034 409 
Q 2484 409 2743 651 
Q 3003 894 3003 1313 
Q 3003 1734 2745 1975 
Q 2488 2216 2034 2216 
z
M 1403 2484 
Q 997 2584 770 2862 
Q 544 3141 544 3541 
Q 544 4100 942 4425 
Q 1341 4750 2034 4750 
Q 2731 4750 3128 4425 
Q 3525 4100 3525 3541 
Q 3525 3141 3298 2862 
Q 3072 2584 2669 2484 
Q 3125 2378 3379 2068 
Q 3634 1759 3634 1313 
Q 3634 634 3220 271 
Q 2806 -91 2034 -91 
Q 1263 -91 848 271 
Q 434 634 434 1313 
Q 434 1759 690 2068 
Q 947 2378 1403 2484 
z
M 1172 3481 
Q 1172 3119 1398 2916 
Q 1625 2713 2034 2713 
Q 2441 2713 2670 2916 
Q 2900 3119 2900 3481 
Q 2900 3844 2670 4047 
Q 2441 4250 2034 4250 
Q 1625 4250 1398 4047 
Q 1172 3844 1172 3481 
z
" id="DejaVuSans-38" transform="scale(0.015625)"/>
       </defs>
       <use transform="translate(0 0.765625)" xlink:href="#DejaVuSans-31"/>
       <use transform="translate(63.623047 0.765625)" xlink:href="#DejaVuSans-30"/>
       <use transform="translate(128.203125 39.046875)scale(0.7)" xlink:href="#DejaVuSans-2212"/>
       <use transform="translate(186.855469 39.046875)scale(0.7)" xlink:href="#DejaVuSans-38"/>
      </g>
     </g>
    </g>
    <g id="ytick_5">
     <g id="line2d_12">
      <g>
       <use style="stroke:#000000;stroke-width:0.8;" x="57.6" xlink:href="#m4d58f4b300" y="155.52"/>
      </g>
     </g>
     <g id="text_12">
      <!-- $\mathdefault{10^{-6}}$ -->
      <g transform="translate(27.1 159.319219)scale(0.1 -0.1)">
       <use transform="translate(0 0.765625)" xlink:href="#DejaVuSans-31"/>
       <use transform="translate(63.623047 0.765625)" xlink:href="#DejaVuSans-30"/>
       <use transform="translate(128.203125 39.046875)scale(0.7)" xlink:href="#DejaVuSans-2212"/>
       <use transform="translate(186.855469 39.046875)scale(0.7)" xlink:href="#DejaVuSans-36"/>
      </g>
     </g>
    </g>
    <g id="ytick_6">
     <g id="line2d_13">
      <g>
       <use style="stroke:#000000;stroke-width:0.8;" x="57.6" xlink:href="#m4d58f4b300" y="117.504"/>
      </g>
     </g>
     <g id="text_13">
      <!-- $\mathdefault{10^{-4}}$ -->
      <g transform="translate(27.1 121.303219)scale(0.1 -0.1)">
       <use transform="translate(0 0.684375)" xlink:href="#DejaVuSans-31"/>
       <use transform="translate(63.623047 0.684375)" xlink:href="#DejaVuSans-30"/>
       <use transform="translate(128.203125 38.965625)scale(0.7)" xlink:href="#DejaVuSans-2212"/>
       <use transform="translate(186.855469 38.965625)scale(0.7)" xlink:href="#DejaVuSans-34"/>
      </g>
     </g>
    </g>
    <g id="ytick_7">
     <g id="line2d_14">
      <g>
       <use style="stroke:#000000;stroke-width:0.8;" x="57.6" xlink:href="#m4d58f4b300" y="79.488"/>
      </g>
     </g>
     <g id="text_14">
      <!-- $\mathdefault{10^{-2}}$ -->
      <g transform="translate(27.1 83.287219)scale(0.1 -0.1)">
       <use transform="translate(0 0.765625)" xlink:href="#DejaVuSans-31"/>
       <use transform="translate(63.623047 0.765625)" xlink:href="#DejaVuSans-30"/>
       <use transform="translate(128.203125 39.046875)scale(0.7)" xlink:href="#DejaVuSans-2212"/>
       <use transform="translate(186.855469 39.046875)scale(0.7)" xlink:href="#DejaVuSans-32"/>
      </g>
     </g>
    </g>
    <g id="ytick_8">
     <g id="line2d_15">
      <g>
       <use style="stroke:#000000;stroke-width:0.8;" x="57.6" xlink:href="#m4d58f4b300" y="41.472"/>
      </g>
     </g>
     <g id="text_15">
      <!-- $\mathdefault{10^{0}}$ -->
      <g transform="translate(33 45.271219)scale(0.1 -0.1)">
       <use transform="translate(0 0.765625)" xlink:href="#DejaVuSans-31"/>
       <use transform="translate(63.623047 0.765625)" xlink:href="#DejaVuSans-30"/>
       <use transform="translate(128.203125 39.046875)scale(0.7)" xlink:href="#DejaVuSans-30"/>
      </g>
     </g>
    </g>
   </g>
   <g id="line2d_16">
    <path clip-path="url(#p99bcce4058)" d="M 74.472811 346.6 
L 75.103391 336.408855 
L 75.738723 328.483117 
L 76.374054 325.059011 
L 77.009386 326.471107 
L 77.644718 339.162324 
L 78.28005 331.048018 
L 78.915382 338.872248 
L 79.550713 330.57075 
L 80.186045 333.278551 
L 81.456709 319.354134 
L 82.092041 319.173825 
L 82.727372 323.766725 
L 83.362704 331.577962 
L 83.998036 330.621698 
L 84.633368 329.122627 
L 85.2687 326.980931 
L 85.904031 329.533158 
L 86.539363 315.112245 
L 87.174695 307.783704 
L 87.810027 304.323918 
L 88.445358 306.514857 
L 89.08069 322.52459 
L 89.716022 308.610989 
L 90.351354 318.691579 
L 90.986686 308.965811 
L 91.622017 312.32256 
L 92.257349 303.93305 
L 92.892681 297.374097 
L 93.528013 296.944715 
L 94.163345 301.288279 
L 94.798676 309.819758 
L 95.434008 306.629105 
L 96.06934 307.185577 
L 96.704672 306.061602 
L 97.340004 308.163234 
L 97.975335 294.92716 
L 98.610667 287.104414 
L 99.245999 283.158347 
L 99.881331 285.145778 
L 100.516663 301.963762 
L 101.151994 287.34915 
L 101.787326 297.922403 
L 102.422658 287.499798 
L 103.05799 291.039417 
L 103.693321 282.307836 
L 104.328653 275.548583 
L 104.963985 274.599649 
L 105.599317 278.368709 
L 106.234649 287.713411 
L 106.86998 283.548792 
L 107.505312 285.344187 
L 108.140644 284.967968 
L 108.775976 286.619819 
L 109.411308 275.050995 
L 110.046639 266.552263 
L 110.681971 262.091578 
L 111.317303 263.908966 
L 111.952635 281.65931 
L 112.587967 266.236407 
L 113.223298 277.355073 
L 113.85863 266.178127 
L 114.493962 269.77798 
L 115.129294 260.883961 
L 115.764626 253.85055 
L 116.399957 252.388573 
L 117.035289 255.718854 
L 117.670621 265.787273 
L 118.305953 260.839331 
L 118.941284 263.644429 
L 119.576616 263.574918 
L 120.211948 264.973302 
L 121.482612 246.137282 
L 122.117943 241.128834 
L 122.753275 242.823694 
L 123.388607 261.679526 
L 124.023939 245.278374 
L 124.659271 256.858949 
L 125.294602 245.020267 
L 125.929934 248.483874 
L 127.200598 232.271639 
L 127.83593 230.316913 
L 128.471261 233.318398 
L 129.106593 244.080017 
L 129.741925 238.437194 
L 130.377257 242.100856 
L 131.012589 241.853349 
L 131.64792 243.284435 
L 132.283252 236.719205 
L 132.918584 225.909194 
L 133.553916 220.336639 
L 134.189247 221.975233 
L 134.824579 242.050589 
L 135.459911 224.57911 
L 136.095243 236.143467 
L 136.730575 224.14252 
L 137.365906 227.162029 
L 138.63657 210.89188 
L 139.271902 208.484346 
L 139.907234 211.24199 
L 140.542565 222.693861 
L 141.177897 216.39251 
L 141.813229 220.813851 
L 142.448561 219.978006 
L 143.083893 221.727951 
L 143.719224 218.98413 
L 144.354556 205.985942 
L 144.989888 199.870037 
L 145.62522 201.536693 
L 146.260552 222.220899 
L 146.895883 204.311387 
L 147.531215 214.841272 
L 148.166547 203.695649 
L 148.801879 205.867836 
L 150.072542 189.79727 
L 150.707874 186.981519 
L 151.343206 189.540468 
L 151.978538 201.661605 
L 152.613869 194.707499 
L 153.249201 199.83874 
L 153.884533 198.097161 
L 155.155197 202.978857 
L 155.790528 186.318814 
L 156.42586 179.746308 
L 157.061192 181.535586 
L 157.696524 200.499351 
L 158.331856 184.470311 
L 158.967187 192.899137 
L 159.602519 183.623051 
L 160.237851 184.547732 
L 160.873183 178.215533 
L 161.508514 168.897189 
L 162.143846 165.711011 
L 162.779178 168.079828 
L 163.41451 180.792629 
L 164.049842 173.225726 
L 164.685173 179.087041 
L 165.320505 176.227137 
L 165.955837 179.361688 
L 166.591169 184.842114 
L 167.226501 166.770203 
L 167.861832 159.953102 
L 168.497164 161.974266 
L 169.132496 177.428556 
L 169.767828 165.056778 
L 170.40316 170.87443 
L 171.038491 163.904888 
L 171.673823 163.350351 
L 172.309155 158.444479 
L 172.944487 148.276134 
L 173.579819 144.749403 
L 174.21515 146.93503 
L 174.850482 160.15243 
L 175.485814 152.076831 
L 176.121146 158.804272 
L 176.756477 154.698317 
L 177.391809 158.893259 
L 178.027141 159.918964 
L 178.662473 147.525198 
L 179.297805 140.766376 
L 179.933136 143.04872 
L 180.568468 154.792075 
L 181.2038 146.095903 
L 181.839132 149.30899 
L 182.474464 144.392989 
L 183.109795 142.411078 
L 183.745127 138.855442 
L 184.380459 127.815728 
L 185.015791 123.864484 
L 185.651123 125.82151 
L 186.286454 139.433723 
L 186.921786 130.885023 
L 187.557118 138.650834 
L 188.19245 133.083821 
L 188.827782 138.575111 
L 189.463113 135.681005 
L 190.733777 121.522952 
L 191.369109 123.816442 
L 192.00444 132.096866 
L 192.639772 126.266267 
L 193.275104 127.464851 
L 193.910436 123.766016 
L 195.181099 118.41067 
L 195.816431 106.618483 
L 196.451763 102.132253 
L 197.087095 103.910601 
L 197.722427 117.964334 
L 198.357758 108.996875 
L 198.99309 118.22556 
L 199.628422 110.938853 
L 200.263754 118.633234 
L 200.899086 112.203811 
L 201.534417 108.850935 
L 202.169749 102.693353 
L 202.805081 104.31354 
L 203.440413 110.077119 
L 204.075745 105.793718 
L 204.711076 106.670838 
L 205.346408 103.207796 
L 205.98174 100.705023 
L 206.617072 99.092604 
L 207.252403 86.94775 
L 207.887735 82.1097 
L 208.523067 83.986996 
L 209.158399 100.066625 
L 209.793731 89.659724 
L 210.429062 103.381463 
L 211.064394 91.9207 
L 211.699726 106.490288 
L 212.335058 93.416142 
L 212.97039 96.372807 
L 213.605721 89.107875 
L 214.241053 89.274868 
L 214.876385 95.339188 
L 215.511717 90.418288 
L 216.147049 93.888467 
L 216.78238 89.359733 
L 217.417712 87.761481 
L 218.053044 87.797599 
L 218.688376 73.702551 
L 219.323708 68.090461 
L 219.959039 70.352532 
L 220.594371 89.035825 
L 221.229703 76.815835 
L 221.865035 87.159569 
L 222.500366 80.502214 
L 223.135698 83.82053 
L 223.77103 86.060691 
L 224.406362 83.154717 
L 225.041694 82.598593 
L 225.677025 80.324863 
L 226.312357 90.504289 
L 226.947689 82.252589 
L 227.583021 86.153354 
L 228.218353 77.65875 
L 229.489016 70.679336 
L 230.124348 56.984429 
L 230.75968 50.534063 
L 231.395012 54.778595 
L 232.030343 66.854603 
L 232.665675 63.026576 
L 233.301007 67.043932 
L 233.936339 65.491271 
L 234.571671 63.538452 
L 235.207002 65.454291 
L 235.842334 53.606605 
L 236.477666 50.240436 
L 237.112998 53.606605 
L 237.748329 65.454291 
L 238.383661 63.538452 
L 239.018993 65.491271 
L 239.654325 67.043932 
L 240.289657 63.026576 
L 240.924988 66.854603 
L 241.56032 54.778595 
L 242.195652 50.534063 
L 242.830984 56.984429 
L 243.466316 70.679336 
L 244.736979 77.65875 
L 245.372311 86.153354 
L 246.007643 82.252589 
L 246.642975 90.504289 
L 247.278306 80.324863 
L 247.913638 82.598593 
L 248.54897 83.154717 
L 249.184302 86.060691 
L 249.819634 83.82053 
L 250.454965 80.502214 
L 251.090297 87.159569 
L 251.725629 76.815835 
L 252.360961 89.035825 
L 252.996292 70.352532 
L 253.631624 68.090461 
L 254.266956 73.702551 
L 254.902288 87.797599 
L 255.53762 87.761481 
L 256.172951 89.359733 
L 256.808283 93.888467 
L 257.443615 90.418288 
L 258.078947 95.339188 
L 258.714279 89.274868 
L 259.34961 89.107875 
L 259.984942 96.372807 
L 260.620274 93.416142 
L 261.255606 106.490288 
L 261.890938 91.9207 
L 262.526269 103.381463 
L 263.161601 89.659724 
L 263.796933 100.066625 
L 264.432265 83.986996 
L 265.067597 82.1097 
L 265.702928 86.94775 
L 266.33826 99.092604 
L 266.973592 100.705023 
L 267.608924 103.207796 
L 268.244255 106.670838 
L 268.879587 105.793718 
L 269.514919 110.077119 
L 270.150251 104.31354 
L 270.785583 102.693353 
L 271.420914 108.850935 
L 272.056246 112.203811 
L 272.691578 118.633234 
L 273.32691 110.938853 
L 273.962242 118.22556 
L 274.597573 108.996875 
L 275.232905 117.964334 
L 275.868237 103.910601 
L 276.503569 102.132253 
L 277.138901 106.618483 
L 277.774232 118.41067 
L 279.044896 123.766016 
L 279.680228 127.464851 
L 280.31556 126.266267 
L 280.950891 132.096866 
L 281.586223 123.816442 
L 282.221555 121.522952 
L 282.856887 127.996053 
L 283.492218 135.681005 
L 284.12755 138.575111 
L 284.762882 133.083821 
L 285.398214 138.650834 
L 286.033546 130.885023 
L 286.668877 139.433723 
L 287.304209 125.82151 
L 287.939541 123.864484 
L 288.574873 127.815728 
L 289.210205 138.855442 
L 289.845536 142.411078 
L 290.480868 144.392989 
L 291.1162 149.30899 
L 291.751532 146.095903 
L 292.386864 154.792075 
L 293.022195 143.04872 
L 293.657527 140.766376 
L 294.292859 147.525198 
L 294.928191 159.918964 
L 295.563523 158.893259 
L 296.198854 154.698317 
L 296.834186 158.804272 
L 297.469518 152.076831 
L 298.10485 160.15243 
L 298.740181 146.93503 
L 299.375513 144.749403 
L 300.010845 148.276134 
L 300.646177 158.444479 
L 301.281509 163.350351 
L 301.91684 163.904888 
L 302.552172 170.87443 
L 303.187504 165.056778 
L 303.822836 177.428556 
L 304.458168 161.974266 
L 305.093499 159.953102 
L 305.728831 166.770203 
L 306.364163 184.842114 
L 306.999495 179.361688 
L 307.634827 176.227137 
L 308.270158 179.087041 
L 308.90549 173.225726 
L 309.540822 180.792629 
L 310.176154 168.079828 
L 310.811486 165.711011 
L 311.446817 168.897189 
L 312.082149 178.215533 
L 312.717481 184.547732 
L 313.352813 183.623051 
L 313.988144 192.899137 
L 314.623476 184.470311 
L 315.258808 200.499351 
L 315.89414 181.535586 
L 316.529472 179.746308 
L 317.164803 186.318814 
L 317.800135 202.978857 
L 319.070799 198.097161 
L 319.706131 199.83874 
L 320.341462 194.707499 
L 320.976794 201.661605 
L 321.612126 189.540468 
L 322.247458 186.981519 
L 322.88279 189.79727 
L 324.153453 205.867836 
L 324.788785 203.695649 
L 325.424117 214.841272 
L 326.059448 204.311387 
L 326.69478 222.220899 
L 327.330112 201.536693 
L 327.965444 199.870037 
L 328.600776 205.985942 
L 329.236107 218.98413 
L 329.871439 221.727951 
L 330.506771 219.978006 
L 331.142103 220.813851 
L 331.777435 216.39251 
L 332.412766 222.69386 
L 333.048098 211.24199 
L 333.68343 208.484346 
L 334.318762 210.89188 
L 335.589425 227.162029 
L 336.224757 224.14252 
L 336.860089 236.143466 
L 337.495421 224.57911 
L 338.130753 242.050589 
L 338.766084 221.975233 
L 339.401416 220.336639 
L 340.036748 225.909194 
L 340.67208 236.719205 
L 341.307411 243.284437 
L 341.942743 241.853349 
L 342.578075 242.100854 
L 343.213407 238.437195 
L 343.848739 244.080016 
L 344.48407 233.318399 
L 345.119402 230.316913 
L 345.754734 232.271639 
L 346.390066 239.676527 
L 347.025398 248.483874 
L 347.660729 245.020264 
L 348.296061 256.858949 
L 348.931393 245.27837 
L 349.566725 261.679525 
L 350.202057 242.823693 
L 350.837388 241.128834 
L 351.47272 246.13728 
L 352.743384 264.973315 
L 353.378716 263.574882 
L 354.014047 263.644443 
L 354.649379 260.839344 
L 355.284711 265.787288 
L 355.920043 255.71885 
L 356.555374 252.388565 
L 357.190706 253.850549 
L 357.826038 260.883971 
L 358.46137 269.77798 
L 359.096702 266.17813 
L 359.732033 277.35504 
L 360.367365 266.236374 
L 361.002697 281.659367 
L 361.638029 263.908942 
L 362.273361 262.091556 
L 362.908692 266.552244 
L 363.544024 275.051073 
L 364.179356 286.618943 
L 364.814688 284.968284 
L 365.45002 285.343939 
L 366.085351 283.548812 
L 366.720683 287.713605 
L 367.356015 278.368701 
L 367.991347 274.599638 
L 368.626679 275.548581 
L 369.26201 282.30774 
L 369.897342 291.039299 
L 370.532674 287.500262 
L 371.168006 297.922482 
L 371.803337 287.348891 
L 372.438669 301.965426 
L 373.074001 285.145542 
L 373.709333 283.158089 
L 374.344665 287.104182 
L 374.979996 294.927307 
L 375.615328 308.159743 
L 376.25066 306.059488 
L 376.885992 307.188081 
L 377.521324 306.628878 
L 378.156655 309.820292 
L 378.791987 301.288279 
L 379.427319 296.946215 
L 380.062651 297.373979 
L 380.697983 303.934721 
L 381.333314 312.320442 
L 381.968646 308.965388 
L 382.603978 318.690146 
L 383.23931 308.610315 
L 383.874642 322.541957 
L 384.509973 306.512836 
L 385.145305 304.320989 
L 385.780637 307.789184 
L 386.415969 315.113083 
L 387.0513 329.525892 
L 387.686632 326.975872 
L 388.321964 329.075513 
L 388.957296 330.621522 
L 389.592628 331.484834 
L 390.227959 323.768362 
L 390.863291 319.17152 
L 391.498623 319.360277 
L 392.769287 333.35354 
L 393.404618 330.819905 
L 394.03995 338.343054 
L 394.675282 331.190587 
L 395.310614 339.111723 
L 395.945946 326.5076 
L 396.581277 325.05514 
L 397.216609 328.519175 
L 397.851941 336.438979 
L 398.482507 346.6 
L 398.482507 346.6 
" style="fill:none;stroke:#1f77b4;stroke-linecap:square;stroke-width:1.5;"/>
   </g>
   <g id="patch_3">
    <path d="M 57.6 307.584 
L 57.6 41.472 
" style="fill:none;stroke:#000000;stroke-linecap:square;stroke-linejoin:miter;stroke-width:0.8;"/>
   </g>
   <g id="patch_4">
    <path d="M 414.72 307.584 
L 414.72 41.472 
" style="fill:none;stroke:#000000;stroke-linecap:square;stroke-linejoin:miter;stroke-width:0.8;"/>
   </g>
   <g id="patch_5">
    <path d="M 57.6 307.584 
L 414.72 307.584 
" style="fill:none;stroke:#000000;stroke-linecap:square;stroke-linejoin:miter;stroke-width:0.8;"/>
   </g>
   <g id="patch_6">
    <path d="M 57.6 41.472 
L 414.72 41.472 
" style="fill:none;stroke:#000000;stroke-linecap:square;stroke-linejoin:miter;stroke-width:0.8;"/>
   </g>
  </g>
 </g>
 <defs>
  <clipPath id="p99bcce4058">
   <rect height="266.112" width="357.12" x="57.6" y="41.472"/>
  </clipPath>
 </defs>
</svg>
