<?xml version="1.0" encoding="UTF-8" standalone="no"?>
<svg
   height="345.6pt"
   version="1.1"
   viewBox="0 0 460.8 345.6"
   width="460.8pt"
   id="svg7487"
   sodipodi:docname="B_6.svg"
   xmlns:inkscape="http://www.inkscape.org/namespaces/inkscape"
   xmlns:sodipodi="http://sodipodi.sourceforge.net/DTD/sodipodi-0.dtd"
   xmlns:xlink="http://www.w3.org/1999/xlink"
   xmlns="http://www.w3.org/2000/svg"
   xmlns:svg="http://www.w3.org/2000/svg"
   xmlns:rdf="http://www.w3.org/1999/02/22-rdf-syntax-ns#"
   xmlns:cc="http://creativecommons.org/ns#"
   xmlns:dc="http://purl.org/dc/elements/1.1/">
  <sodipodi:namedview
     id="namedview7489"
     pagecolor="#ffffff"
     bordercolor="#666666"
     borderopacity="1.0"
     inkscape:pageshadow="2"
     inkscape:pageopacity="0.0"
     inkscape:pagecheckerboard="0"
     inkscape:document-units="pt"
     showgrid="false" />
  <metadata
     id="metadata7230">
    <rdf:RDF>
      <cc:Work>
        <dc:type
           rdf:resource="http://purl.org/dc/dcmitype/StillImage" />
        <dc:date>2022-05-13T16:02:16.623090</dc:date>
        <dc:format>image/svg+xml</dc:format>
        <dc:creator>
          <cc:Agent>
            <dc:title>Matplotlib v3.4.3, https://matplotlib.org/</dc:title>
          </cc:Agent>
        </dc:creator>
      </cc:Work>
    </rdf:RDF>
  </metadata>
  <defs
     id="defs7234">
    <style
       type="text/css"
       id="style7232">*{stroke-linecap:butt;stroke-linejoin:round;}</style>
    <clipPath
       clipPathUnits="userSpaceOnUse"
       id="clipPath9929">
      <rect
         id="rect9931"
         width="357.12"
         height="266.112"
         x="57.600002"
         y="41.472"
         style="stroke-width:0.75" />
    </clipPath>
  </defs>
  <g
     id="figure_1"
     clip-path="url(#clipPath9929)">
    <g
       id="patch_1">
      <path
         d="M 0 345.6  L 460.8 345.6  L 460.8 0  L 0 0  z "
         style="fill:#ffffff;"
         id="path7236" />
    </g>
    <g
       id="axes_1">
      <g
         id="patch_2">
        <path
           d="M 57.6 307.584  L 414.72 307.584  L 414.72 41.472  L 57.6 41.472  z "
           style="fill:#ffffff;"
           id="path7239" />
      </g>
      <g
         id="matplotlib.axis_1">
        <g
           id="xtick_1">
          <g
             id="line2d_1">
            <defs
               id="defs7243">
              <path
                 d="M 0 0  L 0 3.5  "
                 id="m590ec55acd"
                 style="stroke:#000000;stroke-width:0.8;" />
            </defs>
            <g
               id="g7247">
              <use
                 style="stroke:#000000;stroke-width:0.8;"
                 x="73.832727"
                 xlink:href="#m590ec55acd"
                 y="307.584"
                 id="use7245" />
            </g>
          </g>
          <g
             id="text_1">
            <!-- 0 -->
            <g
               transform="translate(70.651477 322.182437)scale(0.1 -0.1)"
               id="g7255">
              <defs
                 id="defs7251">
                <path
                   d="M 2034 4250  Q 1547 4250 1301 3770  Q 1056 3291 1056 2328  Q 1056 1369 1301 889  Q 1547 409 2034 409  Q 2525 409 2770 889  Q 3016 1369 3016 2328  Q 3016 3291 2770 3770  Q 2525 4250 2034 4250  z M 2034 4750  Q 2819 4750 3233 4129  Q 3647 3509 3647 2328  Q 3647 1150 3233 529  Q 2819 -91 2034 -91  Q 1250 -91 836 529  Q 422 1150 422 2328  Q 422 3509 836 4129  Q 1250 4750 2034 4750  z "
                   id="DejaVuSans-30"
                   transform="scale(0.015625)" />
              </defs>
              <use
                 xlink:href="#DejaVuSans-30"
                 id="use7253" />
            </g>
          </g>
        </g>
        <g
           id="xtick_2">
          <g
             id="line2d_2">
            <g
               id="g7261">
              <use
                 style="stroke:#000000;stroke-width:0.8;"
                 x="137.365906"
                 xlink:href="#m590ec55acd"
                 y="307.584"
                 id="use7259" />
            </g>
          </g>
          <g
             id="text_2">
            <!-- 50 -->
            <g
               transform="translate(131.003406 322.182437)scale(0.1 -0.1)"
               id="g7271">
              <defs
                 id="defs7265">
                <path
                   d="M 691 4666  L 3169 4666  L 3169 4134  L 1269 4134  L 1269 2991  Q 1406 3038 1543 3061  Q 1681 3084 1819 3084  Q 2600 3084 3056 2656  Q 3513 2228 3513 1497  Q 3513 744 3044 326  Q 2575 -91 1722 -91  Q 1428 -91 1123 -41  Q 819 9 494 109  L 494 744  Q 775 591 1075 516  Q 1375 441 1709 441  Q 2250 441 2565 725  Q 2881 1009 2881 1497  Q 2881 1984 2565 2268  Q 2250 2553 1709 2553  Q 1456 2553 1204 2497  Q 953 2441 691 2322  L 691 4666  z "
                   id="DejaVuSans-35"
                   transform="scale(0.015625)" />
              </defs>
              <use
                 xlink:href="#DejaVuSans-35"
                 id="use7267" />
              <use
                 x="63.623047"
                 xlink:href="#DejaVuSans-30"
                 id="use7269" />
            </g>
          </g>
        </g>
        <g
           id="xtick_3">
          <g
             id="line2d_3">
            <g
               id="g7277">
              <use
                 style="stroke:#000000;stroke-width:0.8;"
                 x="200.899086"
                 xlink:href="#m590ec55acd"
                 y="307.584"
                 id="use7275" />
            </g>
          </g>
          <g
             id="text_3">
            <!-- 100 -->
            <g
               transform="translate(191.355336 322.182437)scale(0.1 -0.1)"
               id="g7289">
              <defs
                 id="defs7281">
                <path
                   d="M 794 531  L 1825 531  L 1825 4091  L 703 3866  L 703 4441  L 1819 4666  L 2450 4666  L 2450 531  L 3481 531  L 3481 0  L 794 0  L 794 531  z "
                   id="DejaVuSans-31"
                   transform="scale(0.015625)" />
              </defs>
              <use
                 xlink:href="#DejaVuSans-31"
                 id="use7283" />
              <use
                 x="63.623047"
                 xlink:href="#DejaVuSans-30"
                 id="use7285" />
              <use
                 x="127.246094"
                 xlink:href="#DejaVuSans-30"
                 id="use7287" />
            </g>
          </g>
        </g>
        <g
           id="xtick_4">
          <g
             id="line2d_4">
            <g
               id="g7295">
              <use
                 style="stroke:#000000;stroke-width:0.8;"
                 x="264.432265"
                 xlink:href="#m590ec55acd"
                 y="307.584"
                 id="use7293" />
            </g>
          </g>
          <g
             id="text_4">
            <!-- 150 -->
            <g
               transform="translate(254.888515 322.182437)scale(0.1 -0.1)"
               id="g7304">
              <use
                 xlink:href="#DejaVuSans-31"
                 id="use7298" />
              <use
                 x="63.623047"
                 xlink:href="#DejaVuSans-35"
                 id="use7300" />
              <use
                 x="127.246094"
                 xlink:href="#DejaVuSans-30"
                 id="use7302" />
            </g>
          </g>
        </g>
        <g
           id="xtick_5">
          <g
             id="line2d_5">
            <g
               id="g7310">
              <use
                 style="stroke:#000000;stroke-width:0.8;"
                 x="327.965444"
                 xlink:href="#m590ec55acd"
                 y="307.584"
                 id="use7308" />
            </g>
          </g>
          <g
             id="text_5">
            <!-- 200 -->
            <g
               transform="translate(318.421694 322.182437)scale(0.1 -0.1)"
               id="g7322">
              <defs
                 id="defs7314">
                <path
                   d="M 1228 531  L 3431 531  L 3431 0  L 469 0  L 469 531  Q 828 903 1448 1529  Q 2069 2156 2228 2338  Q 2531 2678 2651 2914  Q 2772 3150 2772 3378  Q 2772 3750 2511 3984  Q 2250 4219 1831 4219  Q 1534 4219 1204 4116  Q 875 4013 500 3803  L 500 4441  Q 881 4594 1212 4672  Q 1544 4750 1819 4750  Q 2544 4750 2975 4387  Q 3406 4025 3406 3419  Q 3406 3131 3298 2873  Q 3191 2616 2906 2266  Q 2828 2175 2409 1742  Q 1991 1309 1228 531  z "
                   id="DejaVuSans-32"
                   transform="scale(0.015625)" />
              </defs>
              <use
                 xlink:href="#DejaVuSans-32"
                 id="use7316" />
              <use
                 x="63.623047"
                 xlink:href="#DejaVuSans-30"
                 id="use7318" />
              <use
                 x="127.246094"
                 xlink:href="#DejaVuSans-30"
                 id="use7320" />
            </g>
          </g>
        </g>
        <g
           id="xtick_6">
          <g
             id="line2d_6">
            <g
               id="g7328">
              <use
                 style="stroke:#000000;stroke-width:0.8;"
                 x="391.498623"
                 xlink:href="#m590ec55acd"
                 y="307.584"
                 id="use7326" />
            </g>
          </g>
          <g
             id="text_6">
            <!-- 250 -->
            <g
               transform="translate(381.954873 322.182437)scale(0.1 -0.1)"
               id="g7337">
              <use
                 xlink:href="#DejaVuSans-32"
                 id="use7331" />
              <use
                 x="63.623047"
                 xlink:href="#DejaVuSans-35"
                 id="use7333" />
              <use
                 x="127.246094"
                 xlink:href="#DejaVuSans-30"
                 id="use7335" />
            </g>
          </g>
        </g>
      </g>
      <g
         id="matplotlib.axis_2">
        <g
           id="ytick_1">
          <g
             id="line2d_7">
            <defs
               id="defs7343">
              <path
                 d="M 0 0  L -3.5 0  "
                 id="m73771be93b"
                 style="stroke:#000000;stroke-width:0.8;" />
            </defs>
            <g
               id="g7347">
              <use
                 style="stroke:#000000;stroke-width:0.8;"
                 x="57.6"
                 xlink:href="#m73771be93b"
                 y="307.584"
                 id="use7345" />
            </g>
          </g>
          <g
             id="text_7">
            <!-- −0.6 -->
            <g
               transform="translate(26.317187 311.383219)scale(0.1 -0.1)"
               id="g7363">
              <defs
                 id="defs7353">
                <path
                   d="M 678 2272  L 4684 2272  L 4684 1741  L 678 1741  L 678 2272  z "
                   id="DejaVuSans-2212"
                   transform="scale(0.015625)" />
                <path
                   d="M 684 794  L 1344 794  L 1344 0  L 684 0  L 684 794  z "
                   id="DejaVuSans-2e"
                   transform="scale(0.015625)" />
                <path
                   d="M 2113 2584  Q 1688 2584 1439 2293  Q 1191 2003 1191 1497  Q 1191 994 1439 701  Q 1688 409 2113 409  Q 2538 409 2786 701  Q 3034 994 3034 1497  Q 3034 2003 2786 2293  Q 2538 2584 2113 2584  z M 3366 4563  L 3366 3988  Q 3128 4100 2886 4159  Q 2644 4219 2406 4219  Q 1781 4219 1451 3797  Q 1122 3375 1075 2522  Q 1259 2794 1537 2939  Q 1816 3084 2150 3084  Q 2853 3084 3261 2657  Q 3669 2231 3669 1497  Q 3669 778 3244 343  Q 2819 -91 2113 -91  Q 1303 -91 875 529  Q 447 1150 447 2328  Q 447 3434 972 4092  Q 1497 4750 2381 4750  Q 2619 4750 2861 4703  Q 3103 4656 3366 4563  z "
                   id="DejaVuSans-36"
                   transform="scale(0.015625)" />
              </defs>
              <use
                 xlink:href="#DejaVuSans-2212"
                 id="use7355" />
              <use
                 x="83.789062"
                 xlink:href="#DejaVuSans-30"
                 id="use7357" />
              <use
                 x="147.412109"
                 xlink:href="#DejaVuSans-2e"
                 id="use7359" />
              <use
                 x="179.199219"
                 xlink:href="#DejaVuSans-36"
                 id="use7361" />
            </g>
          </g>
        </g>
        <g
           id="ytick_2">
          <g
             id="line2d_8">
            <g
               id="g7369">
              <use
                 style="stroke:#000000;stroke-width:0.8;"
                 x="57.6"
                 xlink:href="#m73771be93b"
                 y="263.232"
                 id="use7367" />
            </g>
          </g>
          <g
             id="text_8">
            <!-- −0.4 -->
            <g
               transform="translate(26.317187 267.031219)scale(0.1 -0.1)"
               id="g7383">
              <defs
                 id="defs7373">
                <path
                   d="M 2419 4116  L 825 1625  L 2419 1625  L 2419 4116  z M 2253 4666  L 3047 4666  L 3047 1625  L 3713 1625  L 3713 1100  L 3047 1100  L 3047 0  L 2419 0  L 2419 1100  L 313 1100  L 313 1709  L 2253 4666  z "
                   id="DejaVuSans-34"
                   transform="scale(0.015625)" />
              </defs>
              <use
                 xlink:href="#DejaVuSans-2212"
                 id="use7375" />
              <use
                 x="83.789062"
                 xlink:href="#DejaVuSans-30"
                 id="use7377" />
              <use
                 x="147.412109"
                 xlink:href="#DejaVuSans-2e"
                 id="use7379" />
              <use
                 x="179.199219"
                 xlink:href="#DejaVuSans-34"
                 id="use7381" />
            </g>
          </g>
        </g>
        <g
           id="ytick_3">
          <g
             id="line2d_9">
            <g
               id="g7389">
              <use
                 style="stroke:#000000;stroke-width:0.8;"
                 x="57.6"
                 xlink:href="#m73771be93b"
                 y="218.88"
                 id="use7387" />
            </g>
          </g>
          <g
             id="text_9">
            <!-- −0.2 -->
            <g
               transform="translate(26.317187 222.679219)scale(0.1 -0.1)"
               id="g7400">
              <use
                 xlink:href="#DejaVuSans-2212"
                 id="use7392" />
              <use
                 x="83.789062"
                 xlink:href="#DejaVuSans-30"
                 id="use7394" />
              <use
                 x="147.412109"
                 xlink:href="#DejaVuSans-2e"
                 id="use7396" />
              <use
                 x="179.199219"
                 xlink:href="#DejaVuSans-32"
                 id="use7398" />
            </g>
          </g>
        </g>
        <g
           id="ytick_4">
          <g
             id="line2d_10">
            <g
               id="g7406">
              <use
                 style="stroke:#000000;stroke-width:0.8;"
                 x="57.6"
                 xlink:href="#m73771be93b"
                 y="174.528"
                 id="use7404" />
            </g>
          </g>
          <g
             id="text_10">
            <!-- 0.0 -->
            <g
               transform="translate(34.696875 178.327219)scale(0.1 -0.1)"
               id="g7415">
              <use
                 xlink:href="#DejaVuSans-30"
                 id="use7409" />
              <use
                 x="63.623047"
                 xlink:href="#DejaVuSans-2e"
                 id="use7411" />
              <use
                 x="95.410156"
                 xlink:href="#DejaVuSans-30"
                 id="use7413" />
            </g>
          </g>
        </g>
        <g
           id="ytick_5">
          <g
             id="line2d_11">
            <g
               id="g7421">
              <use
                 style="stroke:#000000;stroke-width:0.8;"
                 x="57.6"
                 xlink:href="#m73771be93b"
                 y="130.176"
                 id="use7419" />
            </g>
          </g>
          <g
             id="text_11">
            <!-- 0.2 -->
            <g
               transform="translate(34.696875 133.975219)scale(0.1 -0.1)"
               id="g7430">
              <use
                 xlink:href="#DejaVuSans-30"
                 id="use7424" />
              <use
                 x="63.623047"
                 xlink:href="#DejaVuSans-2e"
                 id="use7426" />
              <use
                 x="95.410156"
                 xlink:href="#DejaVuSans-32"
                 id="use7428" />
            </g>
          </g>
        </g>
        <g
           id="ytick_6">
          <g
             id="line2d_12">
            <g
               id="g7436">
              <use
                 style="stroke:#000000;stroke-width:0.8;"
                 x="57.6"
                 xlink:href="#m73771be93b"
                 y="85.824"
                 id="use7434" />
            </g>
          </g>
          <g
             id="text_12">
            <!-- 0.4 -->
            <g
               transform="translate(34.696875 89.623219)scale(0.1 -0.1)"
               id="g7445">
              <use
                 xlink:href="#DejaVuSans-30"
                 id="use7439" />
              <use
                 x="63.623047"
                 xlink:href="#DejaVuSans-2e"
                 id="use7441" />
              <use
                 x="95.410156"
                 xlink:href="#DejaVuSans-34"
                 id="use7443" />
            </g>
          </g>
        </g>
        <g
           id="ytick_7">
          <g
             id="line2d_13">
            <g
               id="g7451">
              <use
                 style="stroke:#000000;stroke-width:0.8;"
                 x="57.6"
                 xlink:href="#m73771be93b"
                 y="41.472"
                 id="use7449" />
            </g>
          </g>
          <g
             id="text_13">
            <!-- 0.6 -->
            <g
               transform="translate(34.696875 45.271219)scale(0.1 -0.1)"
               id="g7460">
              <use
                 xlink:href="#DejaVuSans-30"
                 id="use7454" />
              <use
                 x="63.623047"
                 xlink:href="#DejaVuSans-2e"
                 id="use7456" />
              <use
                 x="95.410156"
                 xlink:href="#DejaVuSans-36"
                 id="use7458" />
            </g>
          </g>
        </g>
      </g>
      <g
         id="line2d_14">
        <path
           clip-path="url(#p13e372df0e)"
           d="M 73.832727 258.59753  L 76.374054 258.905366  L 85.2687 260.270848  L 87.174695 260.202885  L 89.08069 259.882214  L 91.622017 259.423106  L 92.257349 259.4372  L 92.892681 259.563364  L 93.528013 259.834701  L 94.163345 260.280561  L 94.798676 260.921148  L 96.06934 262.778998  L 97.975335 266.143533  L 98.610667 266.862755  L 99.245999 266.9828  L 99.881331 266.182797  L 100.516663 264.110448  L 101.151994 260.418377  L 101.787326 254.815937  L 102.422658 247.130868  L 103.05799 237.368341  L 104.328653 212.70969  L 106.86998 158.748408  L 108.140644 137.391412  L 109.411308 120.737338  L 110.681971 107.267408  L 111.952635 95.815584  L 113.223298 86.05151  L 114.493962 77.918708  L 115.764626 71.156217  L 117.035289 65.493462  L 117.670621 63.166072  L 118.305953 61.395325  L 118.941284 60.494913  L 119.576616 60.90446  L 120.211948 63.166218  L 120.84728 67.864552  L 121.482612 75.523048  L 122.117943 86.467564  L 122.753275 100.684255  L 124.023939 136.691737  L 125.929934 193.108693  L 127.200598 221.085899  L 127.83593 231.513314  L 129.106593 247.370187  L 130.377257 259.67609  L 131.64792 270.240341  L 132.918584 279.051618  L 134.189247 285.887693  L 135.459911 291.078139  L 136.730575 294.928956  L 137.365906 296.141155  L 138.001238 296.509054  L 138.63657 295.566075  L 139.271902 292.717114  L 139.907234 287.308232  L 140.542565 278.747436  L 141.177897 266.666735  L 141.813229 251.090076  L 143.083893 212.065718  L 144.354556 170.818574  L 145.62522 137.18847  L 146.260552 124.578974  L 146.895883 114.49812  L 148.166547 99.533092  L 149.43721 87.886771  L 151.343206 72.911222  L 152.613869 64.826785  L 153.884533 58.482674  L 154.519865 56.004123  L 155.155197 54.137993  L 155.790528 53.157009  L 156.42586 53.492647  L 157.061192 55.722464  L 157.696524 60.509241  L 158.331856 68.484102  L 158.967187 80.080968  L 159.602519 95.355362  L 160.873183 134.566835  L 162.779178 195.995581  L 163.41451 212.234849  L 164.049842 225.523225  L 164.685173 236.13745  L 165.955837 251.739521  L 167.226501 263.626405  L 168.497164 273.934709  L 169.767828 282.600562  L 171.038491 289.303375  L 172.309155 294.305263  L 172.944487 296.243166  L 173.579819 297.700011  L 174.21515 298.429572  L 174.850482 298.022683  L 175.485814 295.916182  L 176.121146 291.445606  L 176.756477 283.951743  L 177.391809 272.938482  L 178.027141 258.255319  L 179.297805 219.811004  L 181.2038 157.745186  L 181.839132 141.014751  L 182.474464 127.272338  L 183.109795 116.318179  L 183.745127 107.600825  L 185.015791 94.242348  L 186.921786 78.132783  L 188.19245 68.974477  L 189.463113 61.502876  L 190.733777 55.837307  L 191.369109 53.82883  L 192.00444 52.648842  L 192.639772 52.697128  L 193.275104 54.528271  L 193.910436 58.801226  L 194.545768 66.172193  L 195.181099 77.13433  L 195.816431 91.832296  L 197.087095 130.456471  L 198.99309 192.932535  L 199.628422 209.796963  L 200.263754 223.671616  L 200.899086 234.759124  L 201.534417 243.610238  L 202.805081 257.205194  L 204.075745 268.32449  L 205.346408 278.007363  L 206.617072 285.865134  L 207.887735 291.809332  L 209.158399 296.176847  L 209.793731 297.710353  L 210.429062 298.556403  L 211.064394 298.32798  L 211.699726 296.479683  L 212.335058 292.353903  L 212.97039 285.28036  L 213.605721 274.72877  L 214.241053 260.491643  L 215.511717 222.613771  L 217.417712 160.054603  L 218.688376 128.775207  L 219.323708 117.478477  L 219.959039 108.509033  L 221.229703 94.899796  L 223.135698 78.677742  L 224.406362 69.42484  L 225.677025 61.842096  L 226.947689 56.060343  L 227.583021 53.97287  L 228.218353 52.678579  L 228.853684 52.558101  L 229.489016 54.149669  L 230.124348 58.104877  L 230.75968 65.088263  L 231.395012 75.622145  L 232.030343 89.901392  L 233.301007 127.968199  L 235.207002 190.81149  L 236.477666 222.245945  L 237.112998 233.635094  L 237.748329 242.711421  L 239.018993 256.539778  L 240.289657 267.746664  L 241.56032 277.518511  L 242.830984 285.490465  L 244.101647 291.535417  L 245.372311 295.989288  L 246.007643 297.582904  L 246.642975 298.521717  L 247.278306 298.43728  L 247.913638 296.800404  L 248.54897 292.961959  L 249.184302 286.246197  L 249.819634 276.098185  L 250.454965 262.265388  L 251.725629 224.960198  L 253.631624 162.127274  L 254.902288 130.191104  L 255.53762 118.597551  L 256.172951 109.401755  L 257.443615 95.554976  L 259.34961 79.224461  L 260.620274 69.889721  L 261.890938 62.209059  L 263.161601 56.322924  L 263.796933 54.164368  L 264.432265 52.767089  L 265.067597 52.493744  L 265.702928 53.866455  L 266.33826 57.528222  L 266.973592 64.148931  L 267.608924 74.275496  L 268.244255 88.147794  L 269.514919 125.639117  L 271.420914 188.748998  L 272.691578 220.829465  L 273.32691 232.510031  L 273.962242 241.808779  L 275.232905 255.874333  L 276.503569 267.169901  L 277.774232 277.025783  L 279.044896 285.106499  L 280.31556 291.24941  L 281.586223 295.786497  L 282.221555 297.436571  L 282.856887 298.462108  L 283.492218 298.512876  L 284.12755 297.07615  L 284.762882 293.512387  L 285.398214 287.142444  L 286.033546 277.389581  L 286.668877 263.959167  L 287.939541 227.248174  L 289.845536 164.204143  L 291.1162 131.629187  L 291.751532 119.737748  L 292.386864 110.310802  L 293.657527 96.216042  L 295.563523 79.775445  L 296.834186 70.362762  L 298.10485 62.586742  L 299.375513 56.597868  L 300.010845 54.369535  L 300.646177 52.871212  L 301.281509 52.447517  L 301.91684 53.604046  L 302.552172 56.974421  L 303.187504 63.232832  L 303.822836 72.949822  L 304.458168 86.409951  L 305.728831 123.312275  L 307.634827 186.720354  L 308.90549 219.546266  L 309.540822 231.593975  L 310.176154 241.206201  L 311.446817 255.723981  L 312.717481 267.315721  L 313.988144 277.306951  L 315.258808 285.095571  L 315.89414 287.947699  L 316.529472 290.084852  L 317.164803 291.548892  L 317.800135 292.405521  L 318.435467 292.724832  L 319.070799 292.566756  L 319.706131 291.972784  L 320.341462 290.963179  L 320.976794 289.538002  L 321.612126 287.680437  L 322.247458 285.361623  L 322.88279 282.546898  L 324.153453 275.311208  L 325.424117 265.919465  L 327.330112 248.991503  L 329.236107 232.609953  L 330.506771 224.548875  L 331.142103 221.755423  L 331.777435 219.832818  L 332.412766 218.75369  L 333.048098 218.454762  L 333.68343 218.851015  L 334.318762 219.848709  L 334.954094 221.355188  L 336.224757 225.560025  L 337.495421 230.879862  L 340.67208 246.008352  L 342.578075 254.469217  L 343.848739 259.322574  L 345.119402 263.395396  L 346.390066 266.623302  L 347.660729 268.979975  L 348.296061 269.831739  L 348.931393 270.469357  L 349.566725 270.89759  L 350.202057 271.122787  L 350.837388 271.152833  L 351.47272 270.997092  L 352.108052 270.666383  L 352.743384 270.172978  L 354.014047 268.754524  L 355.284711 266.869508  L 357.190706 263.501708  L 359.732033 258.902848  L 361.002697 256.93006  L 362.273361 255.348856  L 363.544024 254.235366  L 364.814688 253.616437  L 365.45002 253.488262  L 366.720683 253.565518  L 367.991347 254.029085  L 369.26201 254.79418  L 371.168006 256.305539  L 375.615328 260.056857  L 377.521324 261.248596  L 378.791987 261.812295  L 380.062651 262.177011  L 381.333314 262.344583  L 382.603978 262.32783  L 384.509973 262.007438  L 386.415969 261.426623  L 393.404618 258.996486  L 395.310614 258.659388  L 397.216609 258.533107  L 398.487273 258.557161  L 398.487273 258.557161  "
           style="fill:none;stroke:#1f77b4;stroke-linecap:square;stroke-width:1.5;"
           id="path7465" />
      </g>
      <g
         id="patch_3">
        <path
           d="M 57.6 307.584  L 57.6 41.472  "
           style="fill:none;stroke:#000000;stroke-linecap:square;stroke-linejoin:miter;stroke-width:0.8;"
           id="path7468" />
      </g>
      <g
         id="patch_4">
        <path
           d="M 414.72 307.584  L 414.72 41.472  "
           style="fill:none;stroke:#000000;stroke-linecap:square;stroke-linejoin:miter;stroke-width:0.8;"
           id="path7471" />
      </g>
      <g
         id="patch_5">
        <path
           d="M 57.6 307.584  L 414.72 307.584  "
           style="fill:none;stroke:#000000;stroke-linecap:square;stroke-linejoin:miter;stroke-width:0.8;"
           id="path7474" />
      </g>
      <g
         id="patch_6">
        <path
           d="M 57.6 41.472  L 414.72 41.472  "
           style="fill:none;stroke:#000000;stroke-linecap:square;stroke-linejoin:miter;stroke-width:0.8;"
           id="path7477" />
      </g>
    </g>
  </g>
  <defs
     id="defs7485">
    <clipPath
       id="p13e372df0e">
      <rect
         height="266.112"
         width="357.12"
         x="57.6"
         y="41.472"
         id="rect7482" />
    </clipPath>
  </defs>
</svg>
