<?xml version="1.0" encoding="UTF-8" standalone="no"?>
<svg
   height="345.6pt"
   version="1.1"
   viewBox="0 0 460.8 345.6"
   width="460.8pt"
   id="svg7146"
   sodipodi:docname="B_6_fft.svg"
   xmlns:inkscape="http://www.inkscape.org/namespaces/inkscape"
   xmlns:sodipodi="http://sodipodi.sourceforge.net/DTD/sodipodi-0.dtd"
   xmlns:xlink="http://www.w3.org/1999/xlink"
   xmlns="http://www.w3.org/2000/svg"
   xmlns:svg="http://www.w3.org/2000/svg"
   xmlns:rdf="http://www.w3.org/1999/02/22-rdf-syntax-ns#"
   xmlns:cc="http://creativecommons.org/ns#"
   xmlns:dc="http://purl.org/dc/elements/1.1/">
  <sodipodi:namedview
     id="namedview7148"
     pagecolor="#ffffff"
     bordercolor="#666666"
     borderopacity="1.0"
     inkscape:pageshadow="2"
     inkscape:pageopacity="0.0"
     inkscape:pagecheckerboard="0"
     inkscape:document-units="pt"
     showgrid="false" />
  <metadata
     id="metadata6862">
    <rdf:RDF>
      <cc:Work>
        <dc:type
           rdf:resource="http://purl.org/dc/dcmitype/StillImage" />
        <dc:date>2022-05-13T16:02:16.675265</dc:date>
        <dc:format>image/svg+xml</dc:format>
        <dc:creator>
          <cc:Agent>
            <dc:title>Matplotlib v3.4.3, https://matplotlib.org/</dc:title>
          </cc:Agent>
        </dc:creator>
      </cc:Work>
    </rdf:RDF>
  </metadata>
  <defs
     id="defs6866">
    <style
       type="text/css"
       id="style6864">*{stroke-linecap:butt;stroke-linejoin:round;}</style>
    <clipPath
       clipPathUnits="userSpaceOnUse"
       id="clipPath11064">
      <rect
         id="rect11066"
         width="357.12"
         height="266.112"
         x="57.600002"
         y="41.472"
         style="stroke-width:0.75" />
    </clipPath>
  </defs>
  <g
     id="figure_1"
     clip-path="url(#clipPath11064)">
    <g
       id="patch_1">
      <path
         d="M 0 345.6  L 460.8 345.6  L 460.8 0  L 0 0  z "
         style="fill:#ffffff;"
         id="path6868" />
    </g>
    <g
       id="axes_1">
      <g
         id="patch_2">
        <path
           d="M 57.6 307.584  L 414.72 307.584  L 414.72 41.472  L 57.6 41.472  z "
           style="fill:#ffffff;"
           id="path6871" />
      </g>
      <g
         id="matplotlib.axis_1">
        <g
           id="xtick_1">
          <g
             id="line2d_1">
            <defs
               id="defs6875">
              <path
                 d="M 0 0  L 0 3.5  "
                 id="m5b31b74dfa"
                 style="stroke:#000000;stroke-width:0.8;" />
            </defs>
            <g
               id="g6879">
              <use
                 style="stroke:#000000;stroke-width:0.8;"
                 x="81.16319"
                 xlink:href="#m5b31b74dfa"
                 y="307.584"
                 id="use6877" />
            </g>
          </g>
          <g
             id="text_1">
            <!-- −6 -->
            <g
               transform="translate(73.792096 322.182437)scale(0.1 -0.1)"
               id="g6890">
              <defs
                 id="defs6884">
                <path
                   d="M 678 2272  L 4684 2272  L 4684 1741  L 678 1741  L 678 2272  z "
                   id="DejaVuSans-2212"
                   transform="scale(0.015625)" />
                <path
                   d="M 2113 2584  Q 1688 2584 1439 2293  Q 1191 2003 1191 1497  Q 1191 994 1439 701  Q 1688 409 2113 409  Q 2538 409 2786 701  Q 3034 994 3034 1497  Q 3034 2003 2786 2293  Q 2538 2584 2113 2584  z M 3366 4563  L 3366 3988  Q 3128 4100 2886 4159  Q 2644 4219 2406 4219  Q 1781 4219 1451 3797  Q 1122 3375 1075 2522  Q 1259 2794 1537 2939  Q 1816 3084 2150 3084  Q 2853 3084 3261 2657  Q 3669 2231 3669 1497  Q 3669 778 3244 343  Q 2819 -91 2113 -91  Q 1303 -91 875 529  Q 447 1150 447 2328  Q 447 3434 972 4092  Q 1497 4750 2381 4750  Q 2619 4750 2861 4703  Q 3103 4656 3366 4563  z "
                   id="DejaVuSans-36"
                   transform="scale(0.015625)" />
              </defs>
              <use
                 xlink:href="#DejaVuSans-2212"
                 id="use6886" />
              <use
                 x="83.789062"
                 xlink:href="#DejaVuSans-36"
                 id="use6888" />
            </g>
          </g>
        </g>
        <g
           id="xtick_2">
          <g
             id="line2d_2">
            <g
               id="g6896">
              <use
                 style="stroke:#000000;stroke-width:0.8;"
                 x="132.934682"
                 xlink:href="#m5b31b74dfa"
                 y="307.584"
                 id="use6894" />
            </g>
          </g>
          <g
             id="text_2">
            <!-- −4 -->
            <g
               transform="translate(125.563588 322.182437)scale(0.1 -0.1)"
               id="g6906">
              <defs
                 id="defs6900">
                <path
                   d="M 2419 4116  L 825 1625  L 2419 1625  L 2419 4116  z M 2253 4666  L 3047 4666  L 3047 1625  L 3713 1625  L 3713 1100  L 3047 1100  L 3047 0  L 2419 0  L 2419 1100  L 313 1100  L 313 1709  L 2253 4666  z "
                   id="DejaVuSans-34"
                   transform="scale(0.015625)" />
              </defs>
              <use
                 xlink:href="#DejaVuSans-2212"
                 id="use6902" />
              <use
                 x="83.789062"
                 xlink:href="#DejaVuSans-34"
                 id="use6904" />
            </g>
          </g>
        </g>
        <g
           id="xtick_3">
          <g
             id="line2d_3">
            <g
               id="g6912">
              <use
                 style="stroke:#000000;stroke-width:0.8;"
                 x="184.706174"
                 xlink:href="#m5b31b74dfa"
                 y="307.584"
                 id="use6910" />
            </g>
          </g>
          <g
             id="text_3">
            <!-- −2 -->
            <g
               transform="translate(177.33508 322.182437)scale(0.1 -0.1)"
               id="g6922">
              <defs
                 id="defs6916">
                <path
                   d="M 1228 531  L 3431 531  L 3431 0  L 469 0  L 469 531  Q 828 903 1448 1529  Q 2069 2156 2228 2338  Q 2531 2678 2651 2914  Q 2772 3150 2772 3378  Q 2772 3750 2511 3984  Q 2250 4219 1831 4219  Q 1534 4219 1204 4116  Q 875 4013 500 3803  L 500 4441  Q 881 4594 1212 4672  Q 1544 4750 1819 4750  Q 2544 4750 2975 4387  Q 3406 4025 3406 3419  Q 3406 3131 3298 2873  Q 3191 2616 2906 2266  Q 2828 2175 2409 1742  Q 1991 1309 1228 531  z "
                   id="DejaVuSans-32"
                   transform="scale(0.015625)" />
              </defs>
              <use
                 xlink:href="#DejaVuSans-2212"
                 id="use6918" />
              <use
                 x="83.789062"
                 xlink:href="#DejaVuSans-32"
                 id="use6920" />
            </g>
          </g>
        </g>
        <g
           id="xtick_4">
          <g
             id="line2d_4">
            <g
               id="g6928">
              <use
                 style="stroke:#000000;stroke-width:0.8;"
                 x="236.477666"
                 xlink:href="#m5b31b74dfa"
                 y="307.584"
                 id="use6926" />
            </g>
          </g>
          <g
             id="text_4">
            <!-- 0 -->
            <g
               transform="translate(233.296416 322.182437)scale(0.1 -0.1)"
               id="g6936">
              <defs
                 id="defs6932">
                <path
                   d="M 2034 4250  Q 1547 4250 1301 3770  Q 1056 3291 1056 2328  Q 1056 1369 1301 889  Q 1547 409 2034 409  Q 2525 409 2770 889  Q 3016 1369 3016 2328  Q 3016 3291 2770 3770  Q 2525 4250 2034 4250  z M 2034 4750  Q 2819 4750 3233 4129  Q 3647 3509 3647 2328  Q 3647 1150 3233 529  Q 2819 -91 2034 -91  Q 1250 -91 836 529  Q 422 1150 422 2328  Q 422 3509 836 4129  Q 1250 4750 2034 4750  z "
                   id="DejaVuSans-30"
                   transform="scale(0.015625)" />
              </defs>
              <use
                 xlink:href="#DejaVuSans-30"
                 id="use6934" />
            </g>
          </g>
        </g>
        <g
           id="xtick_5">
          <g
             id="line2d_5">
            <g
               id="g6942">
              <use
                 style="stroke:#000000;stroke-width:0.8;"
                 x="288.249158"
                 xlink:href="#m5b31b74dfa"
                 y="307.584"
                 id="use6940" />
            </g>
          </g>
          <g
             id="text_5">
            <!-- 2 -->
            <g
               transform="translate(285.067908 322.182437)scale(0.1 -0.1)"
               id="g6947">
              <use
                 xlink:href="#DejaVuSans-32"
                 id="use6945" />
            </g>
          </g>
        </g>
        <g
           id="xtick_6">
          <g
             id="line2d_6">
            <g
               id="g6953">
              <use
                 style="stroke:#000000;stroke-width:0.8;"
                 x="340.02065"
                 xlink:href="#m5b31b74dfa"
                 y="307.584"
                 id="use6951" />
            </g>
          </g>
          <g
             id="text_6">
            <!-- 4 -->
            <g
               transform="translate(336.8394 322.182437)scale(0.1 -0.1)"
               id="g6958">
              <use
                 xlink:href="#DejaVuSans-34"
                 id="use6956" />
            </g>
          </g>
        </g>
        <g
           id="xtick_7">
          <g
             id="line2d_7">
            <g
               id="g6964">
              <use
                 style="stroke:#000000;stroke-width:0.8;"
                 x="391.792142"
                 xlink:href="#m5b31b74dfa"
                 y="307.584"
                 id="use6962" />
            </g>
          </g>
          <g
             id="text_7">
            <!-- 6 -->
            <g
               transform="translate(388.610892 322.182437)scale(0.1 -0.1)"
               id="g6969">
              <use
                 xlink:href="#DejaVuSans-36"
                 id="use6967" />
            </g>
          </g>
        </g>
      </g>
      <g
         id="matplotlib.axis_2">
        <g
           id="ytick_1">
          <g
             id="line2d_8">
            <defs
               id="defs6975">
              <path
                 d="M 0 0  L -3.5 0  "
                 id="m6d2912696c"
                 style="stroke:#000000;stroke-width:0.8;" />
            </defs>
            <g
               id="g6979">
              <use
                 style="stroke:#000000;stroke-width:0.8;"
                 x="57.6"
                 xlink:href="#m6d2912696c"
                 y="307.584"
                 id="use6977" />
            </g>
          </g>
          <g
             id="text_8">
            <!-- $\mathdefault{10^{-14}}$ -->
            <g
               transform="translate(22.7 311.383219)scale(0.1 -0.1)"
               id="g6995">
              <defs
                 id="defs6983">
                <path
                   d="M 794 531  L 1825 531  L 1825 4091  L 703 3866  L 703 4441  L 1819 4666  L 2450 4666  L 2450 531  L 3481 531  L 3481 0  L 794 0  L 794 531  z "
                   id="DejaVuSans-31"
                   transform="scale(0.015625)" />
              </defs>
              <use
                 transform="translate(0 0.684375)"
                 xlink:href="#DejaVuSans-31"
                 id="use6985" />
              <use
                 transform="translate(63.623047 0.684375)"
                 xlink:href="#DejaVuSans-30"
                 id="use6987" />
              <use
                 transform="translate(128.203125 38.965625)scale(0.7)"
                 xlink:href="#DejaVuSans-2212"
                 id="use6989" />
              <use
                 transform="translate(186.855469 38.965625)scale(0.7)"
                 xlink:href="#DejaVuSans-31"
                 id="use6991" />
              <use
                 transform="translate(231.391602 38.965625)scale(0.7)"
                 xlink:href="#DejaVuSans-34"
                 id="use6993" />
            </g>
          </g>
        </g>
        <g
           id="ytick_2">
          <g
             id="line2d_9">
            <g
               id="g7001">
              <use
                 style="stroke:#000000;stroke-width:0.8;"
                 x="57.6"
                 xlink:href="#m6d2912696c"
                 y="269.568"
                 id="use6999" />
            </g>
          </g>
          <g
             id="text_9">
            <!-- $\mathdefault{10^{-12}}$ -->
            <g
               transform="translate(22.7 273.367219)scale(0.1 -0.1)"
               id="g7014">
              <use
                 transform="translate(0 0.765625)"
                 xlink:href="#DejaVuSans-31"
                 id="use7004" />
              <use
                 transform="translate(63.623047 0.765625)"
                 xlink:href="#DejaVuSans-30"
                 id="use7006" />
              <use
                 transform="translate(128.203125 39.046875)scale(0.7)"
                 xlink:href="#DejaVuSans-2212"
                 id="use7008" />
              <use
                 transform="translate(186.855469 39.046875)scale(0.7)"
                 xlink:href="#DejaVuSans-31"
                 id="use7010" />
              <use
                 transform="translate(231.391602 39.046875)scale(0.7)"
                 xlink:href="#DejaVuSans-32"
                 id="use7012" />
            </g>
          </g>
        </g>
        <g
           id="ytick_3">
          <g
             id="line2d_10">
            <g
               id="g7020">
              <use
                 style="stroke:#000000;stroke-width:0.8;"
                 x="57.6"
                 xlink:href="#m6d2912696c"
                 y="231.552"
                 id="use7018" />
            </g>
          </g>
          <g
             id="text_10">
            <!-- $\mathdefault{10^{-10}}$ -->
            <g
               transform="translate(22.7 235.351219)scale(0.1 -0.1)"
               id="g7033">
              <use
                 transform="translate(0 0.765625)"
                 xlink:href="#DejaVuSans-31"
                 id="use7023" />
              <use
                 transform="translate(63.623047 0.765625)"
                 xlink:href="#DejaVuSans-30"
                 id="use7025" />
              <use
                 transform="translate(128.203125 39.046875)scale(0.7)"
                 xlink:href="#DejaVuSans-2212"
                 id="use7027" />
              <use
                 transform="translate(186.855469 39.046875)scale(0.7)"
                 xlink:href="#DejaVuSans-31"
                 id="use7029" />
              <use
                 transform="translate(231.391602 39.046875)scale(0.7)"
                 xlink:href="#DejaVuSans-30"
                 id="use7031" />
            </g>
          </g>
        </g>
        <g
           id="ytick_4">
          <g
             id="line2d_11">
            <g
               id="g7039">
              <use
                 style="stroke:#000000;stroke-width:0.8;"
                 x="57.6"
                 xlink:href="#m6d2912696c"
                 y="193.536"
                 id="use7037" />
            </g>
          </g>
          <g
             id="text_11">
            <!-- $\mathdefault{10^{-8}}$ -->
            <g
               transform="translate(27.1 197.335219)scale(0.1 -0.1)"
               id="g7053">
              <defs
                 id="defs7043">
                <path
                   d="M 2034 2216  Q 1584 2216 1326 1975  Q 1069 1734 1069 1313  Q 1069 891 1326 650  Q 1584 409 2034 409  Q 2484 409 2743 651  Q 3003 894 3003 1313  Q 3003 1734 2745 1975  Q 2488 2216 2034 2216  z M 1403 2484  Q 997 2584 770 2862  Q 544 3141 544 3541  Q 544 4100 942 4425  Q 1341 4750 2034 4750  Q 2731 4750 3128 4425  Q 3525 4100 3525 3541  Q 3525 3141 3298 2862  Q 3072 2584 2669 2484  Q 3125 2378 3379 2068  Q 3634 1759 3634 1313  Q 3634 634 3220 271  Q 2806 -91 2034 -91  Q 1263 -91 848 271  Q 434 634 434 1313  Q 434 1759 690 2068  Q 947 2378 1403 2484  z M 1172 3481  Q 1172 3119 1398 2916  Q 1625 2713 2034 2713  Q 2441 2713 2670 2916  Q 2900 3119 2900 3481  Q 2900 3844 2670 4047  Q 2441 4250 2034 4250  Q 1625 4250 1398 4047  Q 1172 3844 1172 3481  z "
                   id="DejaVuSans-38"
                   transform="scale(0.015625)" />
              </defs>
              <use
                 transform="translate(0 0.765625)"
                 xlink:href="#DejaVuSans-31"
                 id="use7045" />
              <use
                 transform="translate(63.623047 0.765625)"
                 xlink:href="#DejaVuSans-30"
                 id="use7047" />
              <use
                 transform="translate(128.203125 39.046875)scale(0.7)"
                 xlink:href="#DejaVuSans-2212"
                 id="use7049" />
              <use
                 transform="translate(186.855469 39.046875)scale(0.7)"
                 xlink:href="#DejaVuSans-38"
                 id="use7051" />
            </g>
          </g>
        </g>
        <g
           id="ytick_5">
          <g
             id="line2d_12">
            <g
               id="g7059">
              <use
                 style="stroke:#000000;stroke-width:0.8;"
                 x="57.6"
                 xlink:href="#m6d2912696c"
                 y="155.52"
                 id="use7057" />
            </g>
          </g>
          <g
             id="text_12">
            <!-- $\mathdefault{10^{-6}}$ -->
            <g
               transform="translate(27.1 159.319219)scale(0.1 -0.1)"
               id="g7070">
              <use
                 transform="translate(0 0.765625)"
                 xlink:href="#DejaVuSans-31"
                 id="use7062" />
              <use
                 transform="translate(63.623047 0.765625)"
                 xlink:href="#DejaVuSans-30"
                 id="use7064" />
              <use
                 transform="translate(128.203125 39.046875)scale(0.7)"
                 xlink:href="#DejaVuSans-2212"
                 id="use7066" />
              <use
                 transform="translate(186.855469 39.046875)scale(0.7)"
                 xlink:href="#DejaVuSans-36"
                 id="use7068" />
            </g>
          </g>
        </g>
        <g
           id="ytick_6">
          <g
             id="line2d_13">
            <g
               id="g7076">
              <use
                 style="stroke:#000000;stroke-width:0.8;"
                 x="57.6"
                 xlink:href="#m6d2912696c"
                 y="117.504"
                 id="use7074" />
            </g>
          </g>
          <g
             id="text_13">
            <!-- $\mathdefault{10^{-4}}$ -->
            <g
               transform="translate(27.1 121.303219)scale(0.1 -0.1)"
               id="g7087">
              <use
                 transform="translate(0 0.684375)"
                 xlink:href="#DejaVuSans-31"
                 id="use7079" />
              <use
                 transform="translate(63.623047 0.684375)"
                 xlink:href="#DejaVuSans-30"
                 id="use7081" />
              <use
                 transform="translate(128.203125 38.965625)scale(0.7)"
                 xlink:href="#DejaVuSans-2212"
                 id="use7083" />
              <use
                 transform="translate(186.855469 38.965625)scale(0.7)"
                 xlink:href="#DejaVuSans-34"
                 id="use7085" />
            </g>
          </g>
        </g>
        <g
           id="ytick_7">
          <g
             id="line2d_14">
            <g
               id="g7093">
              <use
                 style="stroke:#000000;stroke-width:0.8;"
                 x="57.6"
                 xlink:href="#m6d2912696c"
                 y="79.488"
                 id="use7091" />
            </g>
          </g>
          <g
             id="text_14">
            <!-- $\mathdefault{10^{-2}}$ -->
            <g
               transform="translate(27.1 83.287219)scale(0.1 -0.1)"
               id="g7104">
              <use
                 transform="translate(0 0.765625)"
                 xlink:href="#DejaVuSans-31"
                 id="use7096" />
              <use
                 transform="translate(63.623047 0.765625)"
                 xlink:href="#DejaVuSans-30"
                 id="use7098" />
              <use
                 transform="translate(128.203125 39.046875)scale(0.7)"
                 xlink:href="#DejaVuSans-2212"
                 id="use7100" />
              <use
                 transform="translate(186.855469 39.046875)scale(0.7)"
                 xlink:href="#DejaVuSans-32"
                 id="use7102" />
            </g>
          </g>
        </g>
        <g
           id="ytick_8">
          <g
             id="line2d_15">
            <g
               id="g7110">
              <use
                 style="stroke:#000000;stroke-width:0.8;"
                 x="57.6"
                 xlink:href="#m6d2912696c"
                 y="41.472"
                 id="use7108" />
            </g>
          </g>
          <g
             id="text_15">
            <!-- $\mathdefault{10^{0}}$ -->
            <g
               transform="translate(33 45.271219)scale(0.1 -0.1)"
               id="g7119">
              <use
                 transform="translate(0 0.765625)"
                 xlink:href="#DejaVuSans-31"
                 id="use7113" />
              <use
                 transform="translate(63.623047 0.765625)"
                 xlink:href="#DejaVuSans-30"
                 id="use7115" />
              <use
                 transform="translate(128.203125 39.046875)scale(0.7)"
                 xlink:href="#DejaVuSans-30"
                 id="use7117" />
            </g>
          </g>
        </g>
      </g>
      <g
         id="line2d_16">
        <path
           clip-path="url(#p6b0629c7d0)"
           d="M 73.832727 342.894777  L 74.468059 344.736842  L 75.103391 341.489425  L 75.738723 340.808701  L 76.374054 331.281965  L 77.009386 323.845272  L 77.644718 324.245481  L 78.28005 339.175137  L 78.915382 328.583387  L 79.550713 336.540223  L 80.186045 330.192588  L 80.821377 329.278122  L 81.456709 332.85781  L 82.092041 318.582379  L 82.727372 313.991219  L 83.362704 317.758199  L 83.998036 329.798002  L 84.633368 324.819689  L 85.904031 328.567568  L 86.539363 322.852581  L 87.174695 325.253237  L 87.810027 309.02835  L 88.445358 302.314894  L 89.08069 303.505942  L 89.716022 316.03844  L 90.351354 307.688511  L 90.986686 312.256772  L 91.622017 309.866095  L 92.257349 306.749714  L 92.892681 313.152862  L 93.528013 295.940581  L 94.163345 292.022374  L 94.798676 296.121452  L 95.434008 306.477015  L 96.06934 302.581093  L 96.704672 304.874486  L 97.340004 305.604354  L 97.975335 302.816316  L 98.610667 301.646597  L 99.245999 287.823952  L 99.881331 281.126605  L 100.516663 283.093688  L 101.151994 292.020492  L 101.787326 287.48077  L 103.05799 290.751278  L 103.693321 284.55469  L 104.328653 292.580673  L 104.963985 273.67371  L 105.599317 270.186707  L 106.234649 274.702707  L 106.86998 283.026937  L 107.505312 280.773436  L 108.140644 282.73733  L 108.775976 283.365613  L 109.411308 283.358942  L 110.046639 279.377591  L 110.681971 266.720396  L 111.317303 260.028396  L 111.952635 262.966969  L 112.587967 268.924435  L 113.85863 266.784791  L 114.493962 272.698479  L 115.129294 262.85504  L 115.764626 268.518325  L 116.399957 251.583013  L 117.035289 248.408391  L 117.670621 253.532965  L 118.305953 259.77795  L 118.941284 259.460033  L 119.576616 260.470862  L 120.211948 261.79895  L 120.84728 264.150582  L 121.482612 257.968859  L 122.117943 245.643726  L 122.753275 239.043041  L 123.388607 243.215244  L 124.023939 246.524427  L 124.659271 249.074553  L 125.294602 245.027746  L 125.929934 254.844996  L 126.565266 241.615045  L 127.200598 244.29608  L 127.83593 229.620991  L 128.471261 226.714237  L 129.106593 232.693414  L 129.741925 236.885739  L 130.377257 238.681774  L 131.012589 238.228506  L 131.64792 240.804653  L 132.283252 244.083656  L 132.918584 237.478118  L 133.553916 224.59994  L 134.189247 218.26501  L 134.824579 224.054376  L 135.459911 224.799119  L 136.095243 231.72052  L 136.730575 223.950601  L 137.365906 232.642354  L 138.001238 220.850224  L 138.63657 221.02285  L 139.271902 207.834473  L 139.907234 205.240944  L 140.542565 212.355314  L 141.177897 214.498484  L 141.813229 218.566431  L 142.448561 216.261546  L 143.083893 220.300229  L 143.719224 222.320412  L 144.354556 218.338048  L 144.989888 203.69046  L 145.62522 197.884163  L 146.260552 205.897671  L 146.895883 203.878026  L 147.531215 216.280936  L 148.166547 203.680986  L 148.801879 208.808277  L 149.43721 200.48215  L 150.072542 198.638958  L 150.707874 186.287212  L 151.343206 184.108155  L 151.978538 192.653881  L 152.613869 192.650862  L 153.249201 199.138032  L 153.884533 194.699239  L 154.519865 199.809161  L 155.155197 200.072684  L 155.790528 201.535625  L 156.42586 182.910551  L 157.061192 177.959673  L 157.696524 189.271121  L 158.331856 183.769803  L 158.967187 195.502021  L 159.602519 184.070621  L 160.237851 186.346082  L 160.873183 180.116563  L 161.508514 176.744149  L 162.143846 164.895749  L 162.779178 163.236002  L 163.41451 173.551985  L 164.049842 171.180935  L 164.685173 179.920259  L 165.320505 173.525697  L 165.955837 178.378772  L 166.591169 178.415122  L 167.226501 188.276458  L 167.861832 162.287942  L 168.497164 158.55448  L 169.132496 174.984366  L 169.767828 164.5177  L 170.40316 171.226497  L 171.038491 164.728849  L 171.673823 165.250819  L 172.309155 159.628881  L 172.944487 155.106576  L 173.579819 143.78645  L 174.21515 142.719864  L 174.850482 155.278378  L 175.485814 150.201107  L 176.121146 159.696317  L 176.756477 153.080347  L 177.391809 156.185807  L 178.027141 157.992558  L 178.662473 160.932837  L 179.297805 142.208453  L 179.933136 139.989537  L 180.568468 156.427784  L 181.2038 146.120713  L 181.839132 149.398975  L 182.474464 144.937923  L 183.109795 144.926597  L 184.380459 133.492902  L 185.015791 122.790903  L 185.651123 122.273506  L 186.286454 137.56086  L 186.921786 129.377678  L 187.557118 137.003626  L 188.19245 133.118248  L 188.827782 133.537864  L 189.463113 138.066572  L 190.098445 135.104843  L 190.733777 122.138145  L 191.369109 121.520915  L 192.00444 131.865511  L 192.639772 126.721329  L 193.275104 128.549094  L 193.910436 123.693186  L 194.545768 123.393533  L 195.181099 118.172327  L 195.816431 111.135475  L 196.451763 100.973005  L 197.087095 101.044945  L 197.722427 117.792115  L 198.357758 108.190813  L 198.99309 112.872073  L 199.628422 113.657719  L 200.263754 110.80229  L 200.899086 117.336799  L 201.534417 112.007494  L 202.169749 102.706142  L 202.805081 103.318487  L 203.440413 110.128297  L 204.075745 105.912398  L 204.711076 108.34874  L 205.346408 103.474159  L 205.98174 102.083755  L 206.617072 98.478135  L 207.252403 90.413114  L 207.887735 80.79861  L 208.523067 81.888524  L 209.158399 96.529357  L 209.793731 90.158717  L 210.429062 92.235313  L 211.064394 100.462717  L 211.699726 92.404426  L 212.335058 97.223561  L 212.97039 97.430558  L 213.605721 89.003718  L 214.241053 89.324815  L 214.876385 96.55752  L 215.511717 90.890363  L 216.147049 92.138646  L 216.78238 91.528317  L 217.417712 88.525458  L 218.053044 84.557784  L 218.688376 76.497266  L 219.323708 66.703927  L 219.959039 69.265299  L 220.594371 79.106965  L 221.229703 81.12635  L 221.865035 78.116264  L 222.500366 86.936767  L 223.135698 85.209516  L 223.77103 81.735456  L 224.406362 88.046132  L 225.041694 83.496842  L 225.677025 80.371481  L 226.947689 88.760602  L 227.583021 79.338453  L 228.218353 80.675991  L 228.853684 79.121852  L 229.489016 65.445298  L 230.124348 59.378201  L 230.75968 49.158343  L 232.030343 60.598013  L 232.665675 75.035143  L 233.301007 63.300826  L 233.936339 64.62767  L 234.571671 75.672982  L 235.207002 59.417824  L 235.842334 54.857076  L 236.477666 52.601417  L 237.112998 54.857076  L 237.748329 59.417824  L 238.383661 75.672982  L 239.018993 64.62767  L 239.654325 63.300826  L 240.289657 75.035143  L 240.924988 60.598013  L 242.195652 49.158343  L 242.830984 59.378201  L 243.466316 65.445298  L 244.101647 79.121852  L 244.736979 80.675991  L 245.372311 79.338453  L 246.007643 88.760602  L 247.278306 80.371481  L 247.913638 83.496842  L 248.54897 88.046132  L 249.184302 81.735456  L 249.819634 85.209516  L 250.454965 86.936767  L 251.090297 78.116264  L 251.725629 81.12635  L 252.360961 79.106965  L 252.996292 69.265299  L 253.631624 66.703927  L 254.266956 76.497266  L 254.902288 84.557784  L 255.53762 88.525458  L 256.172951 91.528317  L 256.808283 92.138646  L 257.443615 90.890363  L 258.078947 96.55752  L 258.714279 89.324815  L 259.34961 89.003718  L 259.984942 97.430558  L 260.620274 97.223561  L 261.255606 92.404426  L 261.890938 100.462717  L 262.526269 92.235313  L 263.161601 90.158717  L 263.796933 96.529357  L 264.432265 81.888524  L 265.067597 80.79861  L 266.33826 98.478135  L 266.973592 102.083755  L 267.608924 103.474159  L 268.244255 108.34874  L 268.879587 105.912398  L 269.514919 110.128297  L 270.150251 103.318487  L 270.785583 102.706142  L 271.420914 112.007494  L 272.056246 117.336799  L 272.691578 110.80229  L 273.32691 113.657719  L 273.962242 112.872073  L 274.597573 108.190813  L 275.232905 117.792115  L 275.868237 101.044945  L 276.503569 100.973005  L 277.138901 111.135475  L 277.774232 118.172327  L 278.409564 123.393533  L 279.044896 123.693186  L 279.680228 128.549094  L 280.31556 126.721329  L 280.950891 131.865511  L 281.586223 121.520915  L 282.221555 122.138145  L 282.856887 135.104843  L 283.492218 138.066572  L 284.12755 133.537864  L 284.762882 133.118248  L 285.398214 137.003626  L 286.033546 129.377678  L 286.668877 137.56086  L 287.304209 122.273506  L 287.939541 122.790903  L 288.574873 133.492902  L 289.845536 144.926597  L 290.480868 144.937923  L 291.1162 149.398975  L 291.751532 146.120713  L 292.386864 156.427784  L 293.022195 139.989537  L 293.657527 142.208453  L 294.292859 160.932837  L 294.928191 157.992558  L 295.563523 156.185807  L 296.198854 153.080347  L 296.834186 159.696317  L 297.469518 150.201107  L 298.10485 155.278378  L 298.740181 142.719864  L 299.375513 143.78645  L 300.010845 155.106576  L 300.646177 159.628881  L 301.281509 165.250819  L 301.91684 164.728849  L 302.552172 171.226497  L 303.187504 164.5177  L 303.822836 174.984366  L 304.458168 158.55448  L 305.093499 162.287942  L 305.728831 188.276458  L 306.364163 178.415122  L 306.999495 178.378772  L 307.634827 173.525697  L 308.270158 179.920259  L 308.90549 171.180935  L 309.540822 173.551985  L 310.176154 163.236002  L 310.811486 164.895749  L 311.446817 176.744149  L 312.082149 180.116563  L 312.717481 186.346082  L 313.352813 184.070621  L 313.988144 195.502021  L 314.623476 183.769803  L 315.258808 189.271121  L 315.89414 177.959673  L 316.529472 182.910551  L 317.164803 201.535625  L 317.800135 200.072684  L 318.435467 199.809161  L 319.070799 194.699239  L 319.706131 199.138032  L 320.341462 192.650862  L 320.976794 192.653881  L 321.612126 184.108155  L 322.247458 186.287212  L 322.88279 198.638958  L 323.518121 200.48215  L 324.153453 208.808277  L 324.788785 203.680986  L 325.424117 216.280936  L 326.059448 203.878026  L 326.69478 205.897671  L 327.330112 197.884163  L 327.965444 203.69046  L 328.600776 218.338048  L 329.236107 222.320412  L 329.871439 220.300229  L 330.506771 216.261546  L 331.142103 218.566432  L 331.777435 214.498484  L 332.412766 212.355314  L 333.048098 205.240944  L 333.68343 207.834473  L 334.318762 221.02285  L 334.954094 220.850225  L 335.589425 232.642355  L 336.224757 223.950601  L 336.860089 231.72052  L 337.495421 224.799119  L 338.130753 224.054376  L 338.766084 218.26501  L 339.401416 224.59994  L 340.036748 237.478117  L 340.67208 244.083656  L 341.307411 240.804653  L 341.942743 238.228506  L 342.578075 238.681773  L 343.213407 236.885739  L 343.848739 232.693414  L 344.48407 226.714237  L 345.119402 229.620991  L 345.754734 244.296079  L 346.390066 241.615044  L 347.025398 254.844997  L 347.660729 245.027743  L 348.296061 249.074553  L 348.931393 246.524426  L 349.566725 243.215244  L 350.202057 239.043041  L 350.837388 245.643726  L 351.47272 257.968865  L 352.108052 264.150589  L 352.743384 261.798935  L 353.378716 260.47085  L 354.014047 259.460051  L 354.649379 259.777943  L 355.284711 253.532973  L 355.920043 248.408392  L 356.555374 251.583011  L 357.190706 268.518345  L 357.826038 262.855052  L 358.46137 272.698479  L 359.096702 266.784781  L 360.367365 268.924454  L 361.002697 262.966961  L 361.638029 260.028382  L 362.273361 266.720399  L 362.908692 279.377321  L 363.544024 283.359026  L 364.179356 283.366044  L 364.814688 282.737275  L 365.45002 280.773293  L 366.085351 283.026849  L 366.720683 274.70274  L 367.356015 270.186718  L 367.991347 273.673612  L 368.626679 292.580675  L 369.26201 284.55498  L 369.897342 290.751015  L 371.168006 287.480723  L 371.803337 292.021393  L 372.438669 283.093699  L 373.074001 281.126647  L 373.709333 287.823984  L 374.344665 301.647392  L 374.979996 302.817947  L 375.615328 305.60391  L 376.25066 304.874717  L 376.885992 302.582651  L 377.521324 306.474144  L 378.156655 296.122079  L 378.791987 292.022374  L 379.427319 295.939744  L 380.062651 313.14964  L 380.697983 306.750135  L 381.333314 309.867567  L 381.968646 312.260017  L 382.603978 307.687511  L 383.23931 316.023363  L 383.874642 303.507676  L 384.509973 302.315633  L 385.145305 309.029937  L 385.780637 325.196411  L 386.415969 322.852067  L 387.0513 328.538876  L 388.321964 324.836991  L 388.957296 329.798693  L 389.592628 317.762623  L 390.227959 313.994395  L 390.863291 318.57668  L 391.498623 332.865423  L 392.133955 329.278122  L 392.769287 330.201989  L 393.404618 336.41167  L 394.03995 328.702277  L 394.675282 338.935025  L 395.310614 324.235672  L 395.945946 323.881511  L 396.581277 331.231663  L 397.216609 340.608411  L 397.851941 341.973744  L 398.487273 346.45092  L 398.487273 346.45092  "
           style="fill:none;stroke:#1f77b4;stroke-linecap:square;stroke-width:1.5;"
           id="path7124" />
      </g>
      <g
         id="patch_3">
        <path
           d="M 57.6 307.584  L 57.6 41.472  "
           style="fill:none;stroke:#000000;stroke-linecap:square;stroke-linejoin:miter;stroke-width:0.8;"
           id="path7127" />
      </g>
      <g
         id="patch_4">
        <path
           d="M 414.72 307.584  L 414.72 41.472  "
           style="fill:none;stroke:#000000;stroke-linecap:square;stroke-linejoin:miter;stroke-width:0.8;"
           id="path7130" />
      </g>
      <g
         id="patch_5">
        <path
           d="M 57.6 307.584  L 414.72 307.584  "
           style="fill:none;stroke:#000000;stroke-linecap:square;stroke-linejoin:miter;stroke-width:0.8;"
           id="path7133" />
      </g>
      <g
         id="patch_6">
        <path
           d="M 57.6 41.472  L 414.72 41.472  "
           style="fill:none;stroke:#000000;stroke-linecap:square;stroke-linejoin:miter;stroke-width:0.8;"
           id="path7136" />
      </g>
    </g>
  </g>
  <defs
     id="defs7144">
    <clipPath
       id="p6b0629c7d0">
      <rect
         height="266.112"
         width="357.12"
         x="57.6"
         y="41.472"
         id="rect7141" />
    </clipPath>
  </defs>
</svg>
