<?xml version="1.0" encoding="utf-8" standalone="no"?>
<!DOCTYPE svg PUBLIC "-//W3C//DTD SVG 1.1//EN"
  "http://www.w3.org/Graphics/SVG/1.1/DTD/svg11.dtd">
<svg height="345.6pt" version="1.1" viewBox="0 0 460.8 345.6" width="460.8pt" xmlns="http://www.w3.org/2000/svg" xmlns:xlink="http://www.w3.org/1999/xlink">
 <metadata>
  <rdf:RDF xmlns:cc="http://creativecommons.org/ns#" xmlns:dc="http://purl.org/dc/elements/1.1/" xmlns:rdf="http://www.w3.org/1999/02/22-rdf-syntax-ns#">
   <cc:Work>
    <dc:type rdf:resource="http://purl.org/dc/dcmitype/StillImage"/>
    <dc:date>2022-05-12T11:05:26.249314</dc:date>
    <dc:format>image/svg+xml</dc:format>
    <dc:creator>
     <cc:Agent>
      <dc:title>Matplotlib v3.4.3, https://matplotlib.org/</dc:title>
     </cc:Agent>
    </dc:creator>
   </cc:Work>
  </rdf:RDF>
 </metadata>
 <defs>
  <style type="text/css">*{stroke-linecap:butt;stroke-linejoin:round;}</style>
 </defs>
 <g id="figure_1">
  <g id="patch_1">
   <path d="M 0 345.6 
L 460.8 345.6 
L 460.8 0 
L 0 0 
z
" style="fill:#ffffff;"/>
  </g>
  <g id="axes_1">
   <g id="patch_2">
    <path d="M 57.6 307.584 
L 414.72 307.584 
L 414.72 41.472 
L 57.6 41.472 
z
" style="fill:#ffffff;"/>
   </g>
   <g id="matplotlib.axis_1">
    <g id="xtick_1">
     <g id="line2d_1">
      <defs>
       <path d="M 0 0 
L 0 3.5 
" id="m9a5564d10e" style="stroke:#000000;stroke-width:0.8;"/>
      </defs>
      <g>
       <use style="stroke:#000000;stroke-width:0.8;" x="81.16319" xlink:href="#m9a5564d10e" y="307.584"/>
      </g>
     </g>
     <g id="text_1">
      <!-- −6 -->
      <g transform="translate(73.792096 322.182437)scale(0.1 -0.1)">
       <defs>
        <path d="M 678 2272 
L 4684 2272 
L 4684 1741 
L 678 1741 
L 678 2272 
z
" id="DejaVuSans-2212" transform="scale(0.015625)"/>
        <path d="M 2113 2584 
Q 1688 2584 1439 2293 
Q 1191 2003 1191 1497 
Q 1191 994 1439 701 
Q 1688 409 2113 409 
Q 2538 409 2786 701 
Q 3034 994 3034 1497 
Q 3034 2003 2786 2293 
Q 2538 2584 2113 2584 
z
M 3366 4563 
L 3366 3988 
Q 3128 4100 2886 4159 
Q 2644 4219 2406 4219 
Q 1781 4219 1451 3797 
Q 1122 3375 1075 2522 
Q 1259 2794 1537 2939 
Q 1816 3084 2150 3084 
Q 2853 3084 3261 2657 
Q 3669 2231 3669 1497 
Q 3669 778 3244 343 
Q 2819 -91 2113 -91 
Q 1303 -91 875 529 
Q 447 1150 447 2328 
Q 447 3434 972 4092 
Q 1497 4750 2381 4750 
Q 2619 4750 2861 4703 
Q 3103 4656 3366 4563 
z
" id="DejaVuSans-36" transform="scale(0.015625)"/>
       </defs>
       <use xlink:href="#DejaVuSans-2212"/>
       <use x="83.789062" xlink:href="#DejaVuSans-36"/>
      </g>
     </g>
    </g>
    <g id="xtick_2">
     <g id="line2d_2">
      <g>
       <use style="stroke:#000000;stroke-width:0.8;" x="132.934682" xlink:href="#m9a5564d10e" y="307.584"/>
      </g>
     </g>
     <g id="text_2">
      <!-- −4 -->
      <g transform="translate(125.563588 322.182437)scale(0.1 -0.1)">
       <defs>
        <path d="M 2419 4116 
L 825 1625 
L 2419 1625 
L 2419 4116 
z
M 2253 4666 
L 3047 4666 
L 3047 1625 
L 3713 1625 
L 3713 1100 
L 3047 1100 
L 3047 0 
L 2419 0 
L 2419 1100 
L 313 1100 
L 313 1709 
L 2253 4666 
z
" id="DejaVuSans-34" transform="scale(0.015625)"/>
       </defs>
       <use xlink:href="#DejaVuSans-2212"/>
       <use x="83.789062" xlink:href="#DejaVuSans-34"/>
      </g>
     </g>
    </g>
    <g id="xtick_3">
     <g id="line2d_3">
      <g>
       <use style="stroke:#000000;stroke-width:0.8;" x="184.706174" xlink:href="#m9a5564d10e" y="307.584"/>
      </g>
     </g>
     <g id="text_3">
      <!-- −2 -->
      <g transform="translate(177.33508 322.182437)scale(0.1 -0.1)">
       <defs>
        <path d="M 1228 531 
L 3431 531 
L 3431 0 
L 469 0 
L 469 531 
Q 828 903 1448 1529 
Q 2069 2156 2228 2338 
Q 2531 2678 2651 2914 
Q 2772 3150 2772 3378 
Q 2772 3750 2511 3984 
Q 2250 4219 1831 4219 
Q 1534 4219 1204 4116 
Q 875 4013 500 3803 
L 500 4441 
Q 881 4594 1212 4672 
Q 1544 4750 1819 4750 
Q 2544 4750 2975 4387 
Q 3406 4025 3406 3419 
Q 3406 3131 3298 2873 
Q 3191 2616 2906 2266 
Q 2828 2175 2409 1742 
Q 1991 1309 1228 531 
z
" id="DejaVuSans-32" transform="scale(0.015625)"/>
       </defs>
       <use xlink:href="#DejaVuSans-2212"/>
       <use x="83.789062" xlink:href="#DejaVuSans-32"/>
      </g>
     </g>
    </g>
    <g id="xtick_4">
     <g id="line2d_4">
      <g>
       <use style="stroke:#000000;stroke-width:0.8;" x="236.477666" xlink:href="#m9a5564d10e" y="307.584"/>
      </g>
     </g>
     <g id="text_4">
      <!-- 0 -->
      <g transform="translate(233.296416 322.182437)scale(0.1 -0.1)">
       <defs>
        <path d="M 2034 4250 
Q 1547 4250 1301 3770 
Q 1056 3291 1056 2328 
Q 1056 1369 1301 889 
Q 1547 409 2034 409 
Q 2525 409 2770 889 
Q 3016 1369 3016 2328 
Q 3016 3291 2770 3770 
Q 2525 4250 2034 4250 
z
M 2034 4750 
Q 2819 4750 3233 4129 
Q 3647 3509 3647 2328 
Q 3647 1150 3233 529 
Q 2819 -91 2034 -91 
Q 1250 -91 836 529 
Q 422 1150 422 2328 
Q 422 3509 836 4129 
Q 1250 4750 2034 4750 
z
" id="DejaVuSans-30" transform="scale(0.015625)"/>
       </defs>
       <use xlink:href="#DejaVuSans-30"/>
      </g>
     </g>
    </g>
    <g id="xtick_5">
     <g id="line2d_5">
      <g>
       <use style="stroke:#000000;stroke-width:0.8;" x="288.249158" xlink:href="#m9a5564d10e" y="307.584"/>
      </g>
     </g>
     <g id="text_5">
      <!-- 2 -->
      <g transform="translate(285.067908 322.182437)scale(0.1 -0.1)">
       <use xlink:href="#DejaVuSans-32"/>
      </g>
     </g>
    </g>
    <g id="xtick_6">
     <g id="line2d_6">
      <g>
       <use style="stroke:#000000;stroke-width:0.8;" x="340.02065" xlink:href="#m9a5564d10e" y="307.584"/>
      </g>
     </g>
     <g id="text_6">
      <!-- 4 -->
      <g transform="translate(336.8394 322.182437)scale(0.1 -0.1)">
       <use xlink:href="#DejaVuSans-34"/>
      </g>
     </g>
    </g>
    <g id="xtick_7">
     <g id="line2d_7">
      <g>
       <use style="stroke:#000000;stroke-width:0.8;" x="391.792142" xlink:href="#m9a5564d10e" y="307.584"/>
      </g>
     </g>
     <g id="text_7">
      <!-- 6 -->
      <g transform="translate(388.610892 322.182437)scale(0.1 -0.1)">
       <use xlink:href="#DejaVuSans-36"/>
      </g>
     </g>
    </g>
   </g>
   <g id="matplotlib.axis_2">
    <g id="ytick_1">
     <g id="line2d_8">
      <defs>
       <path d="M 0 0 
L -3.5 0 
" id="m6adc2b3852" style="stroke:#000000;stroke-width:0.8;"/>
      </defs>
      <g>
       <use style="stroke:#000000;stroke-width:0.8;" x="57.6" xlink:href="#m6adc2b3852" y="307.584"/>
      </g>
     </g>
     <g id="text_8">
      <!-- $\mathdefault{10^{-14}}$ -->
      <g transform="translate(22.7 311.383219)scale(0.1 -0.1)">
       <defs>
        <path d="M 794 531 
L 1825 531 
L 1825 4091 
L 703 3866 
L 703 4441 
L 1819 4666 
L 2450 4666 
L 2450 531 
L 3481 531 
L 3481 0 
L 794 0 
L 794 531 
z
" id="DejaVuSans-31" transform="scale(0.015625)"/>
       </defs>
       <use transform="translate(0 0.684375)" xlink:href="#DejaVuSans-31"/>
       <use transform="translate(63.623047 0.684375)" xlink:href="#DejaVuSans-30"/>
       <use transform="translate(128.203125 38.965625)scale(0.7)" xlink:href="#DejaVuSans-2212"/>
       <use transform="translate(186.855469 38.965625)scale(0.7)" xlink:href="#DejaVuSans-31"/>
       <use transform="translate(231.391602 38.965625)scale(0.7)" xlink:href="#DejaVuSans-34"/>
      </g>
     </g>
    </g>
    <g id="ytick_2">
     <g id="line2d_9">
      <g>
       <use style="stroke:#000000;stroke-width:0.8;" x="57.6" xlink:href="#m6adc2b3852" y="269.568"/>
      </g>
     </g>
     <g id="text_9">
      <!-- $\mathdefault{10^{-12}}$ -->
      <g transform="translate(22.7 273.367219)scale(0.1 -0.1)">
       <use transform="translate(0 0.765625)" xlink:href="#DejaVuSans-31"/>
       <use transform="translate(63.623047 0.765625)" xlink:href="#DejaVuSans-30"/>
       <use transform="translate(128.203125 39.046875)scale(0.7)" xlink:href="#DejaVuSans-2212"/>
       <use transform="translate(186.855469 39.046875)scale(0.7)" xlink:href="#DejaVuSans-31"/>
       <use transform="translate(231.391602 39.046875)scale(0.7)" xlink:href="#DejaVuSans-32"/>
      </g>
     </g>
    </g>
    <g id="ytick_3">
     <g id="line2d_10">
      <g>
       <use style="stroke:#000000;stroke-width:0.8;" x="57.6" xlink:href="#m6adc2b3852" y="231.552"/>
      </g>
     </g>
     <g id="text_10">
      <!-- $\mathdefault{10^{-10}}$ -->
      <g transform="translate(22.7 235.351219)scale(0.1 -0.1)">
       <use transform="translate(0 0.765625)" xlink:href="#DejaVuSans-31"/>
       <use transform="translate(63.623047 0.765625)" xlink:href="#DejaVuSans-30"/>
       <use transform="translate(128.203125 39.046875)scale(0.7)" xlink:href="#DejaVuSans-2212"/>
       <use transform="translate(186.855469 39.046875)scale(0.7)" xlink:href="#DejaVuSans-31"/>
       <use transform="translate(231.391602 39.046875)scale(0.7)" xlink:href="#DejaVuSans-30"/>
      </g>
     </g>
    </g>
    <g id="ytick_4">
     <g id="line2d_11">
      <g>
       <use style="stroke:#000000;stroke-width:0.8;" x="57.6" xlink:href="#m6adc2b3852" y="193.536"/>
      </g>
     </g>
     <g id="text_11">
      <!-- $\mathdefault{10^{-8}}$ -->
      <g transform="translate(27.1 197.335219)scale(0.1 -0.1)">
       <defs>
        <path d="M 2034 2216 
Q 1584 2216 1326 1975 
Q 1069 1734 1069 1313 
Q 1069 891 1326 650 
Q 1584 409 2034 409 
Q 2484 409 2743 651 
Q 3003 894 3003 1313 
Q 3003 1734 2745 1975 
Q 2488 2216 2034 2216 
z
M 1403 2484 
Q 997 2584 770 2862 
Q 544 3141 544 3541 
Q 544 4100 942 4425 
Q 1341 4750 2034 4750 
Q 2731 4750 3128 4425 
Q 3525 4100 3525 3541 
Q 3525 3141 3298 2862 
Q 3072 2584 2669 2484 
Q 3125 2378 3379 2068 
Q 3634 1759 3634 1313 
Q 3634 634 3220 271 
Q 2806 -91 2034 -91 
Q 1263 -91 848 271 
Q 434 634 434 1313 
Q 434 1759 690 2068 
Q 947 2378 1403 2484 
z
M 1172 3481 
Q 1172 3119 1398 2916 
Q 1625 2713 2034 2713 
Q 2441 2713 2670 2916 
Q 2900 3119 2900 3481 
Q 2900 3844 2670 4047 
Q 2441 4250 2034 4250 
Q 1625 4250 1398 4047 
Q 1172 3844 1172 3481 
z
" id="DejaVuSans-38" transform="scale(0.015625)"/>
       </defs>
       <use transform="translate(0 0.765625)" xlink:href="#DejaVuSans-31"/>
       <use transform="translate(63.623047 0.765625)" xlink:href="#DejaVuSans-30"/>
       <use transform="translate(128.203125 39.046875)scale(0.7)" xlink:href="#DejaVuSans-2212"/>
       <use transform="translate(186.855469 39.046875)scale(0.7)" xlink:href="#DejaVuSans-38"/>
      </g>
     </g>
    </g>
    <g id="ytick_5">
     <g id="line2d_12">
      <g>
       <use style="stroke:#000000;stroke-width:0.8;" x="57.6" xlink:href="#m6adc2b3852" y="155.52"/>
      </g>
     </g>
     <g id="text_12">
      <!-- $\mathdefault{10^{-6}}$ -->
      <g transform="translate(27.1 159.319219)scale(0.1 -0.1)">
       <use transform="translate(0 0.765625)" xlink:href="#DejaVuSans-31"/>
       <use transform="translate(63.623047 0.765625)" xlink:href="#DejaVuSans-30"/>
       <use transform="translate(128.203125 39.046875)scale(0.7)" xlink:href="#DejaVuSans-2212"/>
       <use transform="translate(186.855469 39.046875)scale(0.7)" xlink:href="#DejaVuSans-36"/>
      </g>
     </g>
    </g>
    <g id="ytick_6">
     <g id="line2d_13">
      <g>
       <use style="stroke:#000000;stroke-width:0.8;" x="57.6" xlink:href="#m6adc2b3852" y="117.504"/>
      </g>
     </g>
     <g id="text_13">
      <!-- $\mathdefault{10^{-4}}$ -->
      <g transform="translate(27.1 121.303219)scale(0.1 -0.1)">
       <use transform="translate(0 0.684375)" xlink:href="#DejaVuSans-31"/>
       <use transform="translate(63.623047 0.684375)" xlink:href="#DejaVuSans-30"/>
       <use transform="translate(128.203125 38.965625)scale(0.7)" xlink:href="#DejaVuSans-2212"/>
       <use transform="translate(186.855469 38.965625)scale(0.7)" xlink:href="#DejaVuSans-34"/>
      </g>
     </g>
    </g>
    <g id="ytick_7">
     <g id="line2d_14">
      <g>
       <use style="stroke:#000000;stroke-width:0.8;" x="57.6" xlink:href="#m6adc2b3852" y="79.488"/>
      </g>
     </g>
     <g id="text_14">
      <!-- $\mathdefault{10^{-2}}$ -->
      <g transform="translate(27.1 83.287219)scale(0.1 -0.1)">
       <use transform="translate(0 0.765625)" xlink:href="#DejaVuSans-31"/>
       <use transform="translate(63.623047 0.765625)" xlink:href="#DejaVuSans-30"/>
       <use transform="translate(128.203125 39.046875)scale(0.7)" xlink:href="#DejaVuSans-2212"/>
       <use transform="translate(186.855469 39.046875)scale(0.7)" xlink:href="#DejaVuSans-32"/>
      </g>
     </g>
    </g>
    <g id="ytick_8">
     <g id="line2d_15">
      <g>
       <use style="stroke:#000000;stroke-width:0.8;" x="57.6" xlink:href="#m6adc2b3852" y="41.472"/>
      </g>
     </g>
     <g id="text_15">
      <!-- $\mathdefault{10^{0}}$ -->
      <g transform="translate(33 45.271219)scale(0.1 -0.1)">
       <use transform="translate(0 0.765625)" xlink:href="#DejaVuSans-31"/>
       <use transform="translate(63.623047 0.765625)" xlink:href="#DejaVuSans-30"/>
       <use transform="translate(128.203125 39.046875)scale(0.7)" xlink:href="#DejaVuSans-30"/>
      </g>
     </g>
    </g>
   </g>
   <g id="line2d_16">
    <path clip-path="url(#p88b8b1a6ba)" d="M 96.070835 346.6 
L 96.704672 345.75139 
L 97.340004 345.844401 
L 97.975335 345.707641 
L 98.610667 345.896378 
L 99.245999 345.220105 
L 99.881331 345.25027 
L 100.516663 344.046762 
L 102.422658 335.287287 
L 104.328653 327.974032 
L 105.599317 323.821945 
L 106.86998 320.237128 
L 108.140644 317.101347 
L 109.411308 314.394937 
L 110.681971 312.095337 
L 111.952635 310.294873 
L 112.587967 309.589024 
L 113.223298 309.058545 
L 113.85863 308.705564 
L 114.493962 308.571047 
L 115.129294 308.672766 
L 116.399957 309.146556 
L 117.035289 308.573519 
L 117.670621 306.623827 
L 120.84728 292.54463 
L 122.117943 288.138367 
L 123.388607 284.329144 
L 124.659271 281.011313 
L 125.929934 278.132395 
L 127.200598 275.685863 
L 128.471261 273.703854 
L 129.741925 272.271134 
L 130.377257 271.808238 
L 131.012589 271.553726 
L 131.64792 271.546349 
L 132.283252 271.821421 
L 133.553916 272.826083 
L 134.189247 272.274665 
L 134.824579 269.944885 
L 136.730575 260.431461 
L 138.001238 255.239931 
L 139.271902 250.877995 
L 140.542565 247.129665 
L 141.813229 243.8787 
L 143.083893 241.072845 
L 144.354556 238.705682 
L 145.62522 236.815255 
L 146.895883 235.500235 
L 147.531215 235.116207 
L 148.166547 234.965811 
L 148.801879 235.10688 
L 149.43721 235.610726 
L 150.707874 237.467443 
L 151.343206 236.971261 
L 151.978538 234.000096 
L 153.249201 226.751392 
L 154.519865 220.900043 
L 155.790528 216.145205 
L 157.061192 212.127485 
L 158.331856 208.666819 
L 159.602519 205.679411 
L 160.873183 203.139197 
L 162.143846 201.067079 
L 163.41451 199.540226 
L 164.049842 199.029225 
L 164.685173 198.730858 
L 165.320505 198.699006 
L 165.955837 199.015132 
L 166.591169 199.798075 
L 167.861832 202.700678 
L 168.497164 201.787001 
L 170.40316 190.015421 
L 171.673823 184.194034 
L 172.944487 179.523918 
L 174.21515 175.594014 
L 175.485814 172.216736 
L 176.756477 169.307013 
L 178.027141 166.839097 
L 179.297805 164.836527 
L 180.568468 163.386235 
L 181.2038 162.924521 
L 181.839132 162.693574 
L 182.474464 162.765748 
L 183.109795 163.263499 
L 183.745127 164.409796 
L 184.380459 166.620216 
L 185.015791 169.940518 
L 185.651123 167.721107 
L 186.286454 161.641695 
L 186.921786 156.866303 
L 188.19245 149.857665 
L 189.463113 144.536612 
L 190.733777 140.133784 
L 192.00444 136.359436 
L 193.275104 133.094386 
L 194.545768 130.302783 
L 195.816431 128.002645 
L 197.087095 126.261312 
L 197.722427 125.639873 
L 198.357758 125.221027 
L 198.99309 125.050716 
L 199.628422 125.204119 
L 200.263754 125.813371 
L 200.899086 127.133445 
L 201.534417 129.706692 
L 202.169749 134.060219 
L 202.805081 131.235986 
L 203.440413 124.641537 
L 204.075745 119.918357 
L 204.711076 116.29347 
L 205.98174 110.816455 
L 207.252403 106.713096 
L 208.523067 103.441433 
L 209.793731 100.713049 
L 211.064394 98.41271 
L 212.335058 96.598495 
L 212.97039 95.925816 
L 213.605721 95.443427 
L 214.241053 95.174757 
L 214.876385 95.136837 
L 215.511717 95.336861 
L 216.147049 95.772762 
L 216.78238 96.445106 
L 217.417712 97.392762 
L 218.053044 98.772554 
L 218.688376 101.035408 
L 219.323708 105.266762 
L 219.959039 106.073953 
L 220.594371 98.122345 
L 221.229703 92.540697 
L 221.865035 88.489467 
L 222.500366 85.398608 
L 223.135698 83.009223 
L 223.77103 81.151439 
L 225.041694 78.45485 
L 226.312357 76.196172 
L 226.947689 74.845272 
L 227.583021 73.131774 
L 229.489016 67.077507 
L 230.124348 66.11744 
L 230.75968 65.791622 
L 234.571671 65.478423 
L 235.842334 65.205333 
L 236.477666 43.150712 
L 237.112998 65.205333 
L 240.289657 65.791534 
L 242.195652 65.791622 
L 242.830984 66.11744 
L 243.466316 67.077507 
L 244.101647 68.833328 
L 245.372311 73.131774 
L 246.007643 74.845272 
L 247.278306 77.343015 
L 248.54897 79.679081 
L 249.184302 81.151439 
L 249.819634 83.009223 
L 250.454965 85.398608 
L 251.090297 88.489467 
L 251.725629 92.540697 
L 252.360961 98.122345 
L 252.996292 106.073953 
L 253.631624 105.266762 
L 254.266956 101.035408 
L 254.902288 98.772554 
L 255.53762 97.392762 
L 256.172951 96.445106 
L 256.808283 95.772762 
L 257.443615 95.336861 
L 258.078947 95.136837 
L 258.714279 95.174757 
L 259.34961 95.443427 
L 259.984942 95.925816 
L 260.620274 96.598495 
L 261.890938 98.41271 
L 263.161601 100.713049 
L 264.432265 103.441433 
L 265.702928 106.713096 
L 266.973592 110.816455 
L 268.244255 116.29347 
L 268.879587 119.918357 
L 269.514919 124.641537 
L 270.150251 131.235986 
L 270.785583 134.060219 
L 271.420914 129.706692 
L 272.056246 127.133445 
L 272.691578 125.813371 
L 273.32691 125.204119 
L 273.962242 125.050716 
L 274.597573 125.221027 
L 275.232905 125.639873 
L 275.868237 126.261312 
L 277.138901 128.002645 
L 278.409564 130.302783 
L 279.680228 133.094386 
L 280.950891 136.359436 
L 282.221555 140.133784 
L 283.492218 144.536612 
L 284.762882 149.857665 
L 285.398214 153.062873 
L 286.033546 156.866303 
L 286.668877 161.641695 
L 287.304209 167.721107 
L 287.939541 169.940518 
L 288.574873 166.620216 
L 289.210205 164.409796 
L 289.845536 163.263499 
L 290.480868 162.765748 
L 291.1162 162.693574 
L 291.751532 162.924521 
L 292.386864 163.386235 
L 293.657527 164.836527 
L 294.928191 166.839097 
L 296.198854 169.307013 
L 297.469518 172.216736 
L 298.740181 175.594014 
L 300.010845 179.523918 
L 301.281509 184.194034 
L 302.552172 190.015421 
L 303.822836 197.775787 
L 304.458168 201.787001 
L 305.093499 202.700678 
L 306.364163 199.798075 
L 306.999495 199.015132 
L 307.634827 198.699006 
L 308.270158 198.730858 
L 308.90549 199.029225 
L 309.540822 199.540226 
L 310.811486 201.067079 
L 312.082149 203.139197 
L 313.352813 205.679411 
L 314.623476 208.666819 
L 315.89414 212.127485 
L 317.164803 216.145205 
L 318.435467 220.900043 
L 319.706131 226.751392 
L 321.612126 236.97126 
L 322.247458 237.467444 
L 323.518121 235.610725 
L 324.153453 235.10688 
L 324.788785 234.965811 
L 325.424117 235.116207 
L 326.059448 235.500235 
L 326.69478 236.076333 
L 327.965444 237.696473 
L 329.236107 239.83318 
L 330.506771 242.42152 
L 331.777435 245.446472 
L 333.048098 248.936241 
L 334.318762 252.971582 
L 335.589425 257.713758 
L 336.860089 263.42963 
L 338.130753 269.944885 
L 338.766084 272.27468 
L 339.401416 272.82608 
L 340.67208 271.821428 
L 341.307411 271.54636 
L 341.942743 271.553734 
L 342.578075 271.808242 
L 343.213407 272.271116 
L 344.48407 273.703841 
L 345.754734 275.685864 
L 347.025398 278.132367 
L 348.296061 281.011326 
L 349.566725 284.329138 
L 350.837388 288.138476 
L 352.108052 292.544187 
L 353.378716 297.724705 
L 355.284711 306.622218 
L 355.920043 308.576664 
L 356.555374 309.145964 
L 358.46137 308.571047 
L 359.096702 308.705908 
L 359.732033 309.057276 
L 360.367365 309.589998 
L 361.638029 311.128562 
L 362.908692 313.183197 
L 364.179356 315.687649 
L 365.45002 318.611895 
L 366.720683 321.970525 
L 367.991347 325.807248 
L 369.897342 332.6767 
L 371.803337 340.889968 
L 372.438669 343.809166 
L 373.074001 345.11424 
L 373.709333 345.254694 
L 374.344665 346.028508 
L 375.615328 345.777666 
L 376.25066 345.824327 
L 376.769221 346.6 
L 376.769221 346.6 
" style="fill:none;stroke:#1f77b4;stroke-linecap:square;stroke-width:1.5;"/>
   </g>
   <g id="patch_3">
    <path d="M 57.6 307.584 
L 57.6 41.472 
" style="fill:none;stroke:#000000;stroke-linecap:square;stroke-linejoin:miter;stroke-width:0.8;"/>
   </g>
   <g id="patch_4">
    <path d="M 414.72 307.584 
L 414.72 41.472 
" style="fill:none;stroke:#000000;stroke-linecap:square;stroke-linejoin:miter;stroke-width:0.8;"/>
   </g>
   <g id="patch_5">
    <path d="M 57.6 307.584 
L 414.72 307.584 
" style="fill:none;stroke:#000000;stroke-linecap:square;stroke-linejoin:miter;stroke-width:0.8;"/>
   </g>
   <g id="patch_6">
    <path d="M 57.6 41.472 
L 414.72 41.472 
" style="fill:none;stroke:#000000;stroke-linecap:square;stroke-linejoin:miter;stroke-width:0.8;"/>
   </g>
  </g>
 </g>
 <defs>
  <clipPath id="p88b8b1a6ba">
   <rect height="266.112" width="357.12" x="57.6" y="41.472"/>
  </clipPath>
 </defs>
</svg>
