<?xml version="1.0" encoding="utf-8" standalone="no"?>
<!DOCTYPE svg PUBLIC "-//W3C//DTD SVG 1.1//EN"
  "http://www.w3.org/Graphics/SVG/1.1/DTD/svg11.dtd">
<svg height="288pt" version="1.1" viewBox="0 0 432 288" width="432pt" xmlns="http://www.w3.org/2000/svg" xmlns:xlink="http://www.w3.org/1999/xlink">
 <metadata>
  <rdf:RDF xmlns:cc="http://creativecommons.org/ns#" xmlns:dc="http://purl.org/dc/elements/1.1/" xmlns:rdf="http://www.w3.org/1999/02/22-rdf-syntax-ns#">
   <cc:Work>
    <dc:type rdf:resource="http://purl.org/dc/dcmitype/StillImage"/>
    <dc:date>2022-05-12T10:41:46.737859</dc:date>
    <dc:format>image/svg+xml</dc:format>
    <dc:creator>
     <cc:Agent>
      <dc:title>Matplotlib v3.4.3, https://matplotlib.org/</dc:title>
     </cc:Agent>
    </dc:creator>
   </cc:Work>
  </rdf:RDF>
 </metadata>
 <defs>
  <style type="text/css">*{stroke-linecap:butt;stroke-linejoin:round;}</style>
 </defs>
 <g id="figure_1">
  <g id="patch_1">
   <path d="M 0 288 
L 432 288 
L 432 0 
L 0 0 
z
" style="fill:none;"/>
  </g>
  <g id="axes_1">
   <g id="patch_2">
    <path d="M 54 252 
L 388.8 252 
L 388.8 34.56 
L 54 34.56 
z
" style="fill:#ffffff;"/>
   </g>
   <g id="matplotlib.axis_1">
    <g id="xtick_1">
     <g id="line2d_1">
      <defs>
       <path d="M 0 0 
L 0 3.5 
" id="m9da0ab5dcb" style="stroke:#000000;stroke-width:0.8;"/>
      </defs>
      <g>
       <use style="stroke:#000000;stroke-width:0.8;" x="76.090491" xlink:href="#m9da0ab5dcb" y="252"/>
      </g>
     </g>
     <g id="text_1">
      <!-- −6 -->
      <g transform="translate(68.719397 266.598437)scale(0.1 -0.1)">
       <defs>
        <path d="M 678 2272 
L 4684 2272 
L 4684 1741 
L 678 1741 
L 678 2272 
z
" id="DejaVuSans-2212" transform="scale(0.015625)"/>
        <path d="M 2113 2584 
Q 1688 2584 1439 2293 
Q 1191 2003 1191 1497 
Q 1191 994 1439 701 
Q 1688 409 2113 409 
Q 2538 409 2786 701 
Q 3034 994 3034 1497 
Q 3034 2003 2786 2293 
Q 2538 2584 2113 2584 
z
M 3366 4563 
L 3366 3988 
Q 3128 4100 2886 4159 
Q 2644 4219 2406 4219 
Q 1781 4219 1451 3797 
Q 1122 3375 1075 2522 
Q 1259 2794 1537 2939 
Q 1816 3084 2150 3084 
Q 2853 3084 3261 2657 
Q 3669 2231 3669 1497 
Q 3669 778 3244 343 
Q 2819 -91 2113 -91 
Q 1303 -91 875 529 
Q 447 1150 447 2328 
Q 447 3434 972 4092 
Q 1497 4750 2381 4750 
Q 2619 4750 2861 4703 
Q 3103 4656 3366 4563 
z
" id="DejaVuSans-36" transform="scale(0.015625)"/>
       </defs>
       <use xlink:href="#DejaVuSans-2212"/>
       <use x="83.789062" xlink:href="#DejaVuSans-36"/>
      </g>
     </g>
    </g>
    <g id="xtick_2">
     <g id="line2d_2">
      <g>
       <use style="stroke:#000000;stroke-width:0.8;" x="124.626264" xlink:href="#m9da0ab5dcb" y="252"/>
      </g>
     </g>
     <g id="text_2">
      <!-- −4 -->
      <g transform="translate(117.255171 266.598437)scale(0.1 -0.1)">
       <defs>
        <path d="M 2419 4116 
L 825 1625 
L 2419 1625 
L 2419 4116 
z
M 2253 4666 
L 3047 4666 
L 3047 1625 
L 3713 1625 
L 3713 1100 
L 3047 1100 
L 3047 0 
L 2419 0 
L 2419 1100 
L 313 1100 
L 313 1709 
L 2253 4666 
z
" id="DejaVuSans-34" transform="scale(0.015625)"/>
       </defs>
       <use xlink:href="#DejaVuSans-2212"/>
       <use x="83.789062" xlink:href="#DejaVuSans-34"/>
      </g>
     </g>
    </g>
    <g id="xtick_3">
     <g id="line2d_3">
      <g>
       <use style="stroke:#000000;stroke-width:0.8;" x="173.162038" xlink:href="#m9da0ab5dcb" y="252"/>
      </g>
     </g>
     <g id="text_3">
      <!-- −2 -->
      <g transform="translate(165.790944 266.598437)scale(0.1 -0.1)">
       <defs>
        <path d="M 1228 531 
L 3431 531 
L 3431 0 
L 469 0 
L 469 531 
Q 828 903 1448 1529 
Q 2069 2156 2228 2338 
Q 2531 2678 2651 2914 
Q 2772 3150 2772 3378 
Q 2772 3750 2511 3984 
Q 2250 4219 1831 4219 
Q 1534 4219 1204 4116 
Q 875 4013 500 3803 
L 500 4441 
Q 881 4594 1212 4672 
Q 1544 4750 1819 4750 
Q 2544 4750 2975 4387 
Q 3406 4025 3406 3419 
Q 3406 3131 3298 2873 
Q 3191 2616 2906 2266 
Q 2828 2175 2409 1742 
Q 1991 1309 1228 531 
z
" id="DejaVuSans-32" transform="scale(0.015625)"/>
       </defs>
       <use xlink:href="#DejaVuSans-2212"/>
       <use x="83.789062" xlink:href="#DejaVuSans-32"/>
      </g>
     </g>
    </g>
    <g id="xtick_4">
     <g id="line2d_4">
      <g>
       <use style="stroke:#000000;stroke-width:0.8;" x="221.697812" xlink:href="#m9da0ab5dcb" y="252"/>
      </g>
     </g>
     <g id="text_4">
      <!-- 0 -->
      <g transform="translate(218.516562 266.598437)scale(0.1 -0.1)">
       <defs>
        <path d="M 2034 4250 
Q 1547 4250 1301 3770 
Q 1056 3291 1056 2328 
Q 1056 1369 1301 889 
Q 1547 409 2034 409 
Q 2525 409 2770 889 
Q 3016 1369 3016 2328 
Q 3016 3291 2770 3770 
Q 2525 4250 2034 4250 
z
M 2034 4750 
Q 2819 4750 3233 4129 
Q 3647 3509 3647 2328 
Q 3647 1150 3233 529 
Q 2819 -91 2034 -91 
Q 1250 -91 836 529 
Q 422 1150 422 2328 
Q 422 3509 836 4129 
Q 1250 4750 2034 4750 
z
" id="DejaVuSans-30" transform="scale(0.015625)"/>
       </defs>
       <use xlink:href="#DejaVuSans-30"/>
      </g>
     </g>
    </g>
    <g id="xtick_5">
     <g id="line2d_5">
      <g>
       <use style="stroke:#000000;stroke-width:0.8;" x="270.233585" xlink:href="#m9da0ab5dcb" y="252"/>
      </g>
     </g>
     <g id="text_5">
      <!-- 2 -->
      <g transform="translate(267.052335 266.598437)scale(0.1 -0.1)">
       <use xlink:href="#DejaVuSans-32"/>
      </g>
     </g>
    </g>
    <g id="xtick_6">
     <g id="line2d_6">
      <g>
       <use style="stroke:#000000;stroke-width:0.8;" x="318.769359" xlink:href="#m9da0ab5dcb" y="252"/>
      </g>
     </g>
     <g id="text_6">
      <!-- 4 -->
      <g transform="translate(315.588109 266.598437)scale(0.1 -0.1)">
       <use xlink:href="#DejaVuSans-34"/>
      </g>
     </g>
    </g>
    <g id="xtick_7">
     <g id="line2d_7">
      <g>
       <use style="stroke:#000000;stroke-width:0.8;" x="367.305133" xlink:href="#m9da0ab5dcb" y="252"/>
      </g>
     </g>
     <g id="text_7">
      <!-- 6 -->
      <g transform="translate(364.123883 266.598437)scale(0.1 -0.1)">
       <use xlink:href="#DejaVuSans-36"/>
      </g>
     </g>
    </g>
   </g>
   <g id="matplotlib.axis_2">
    <g id="ytick_1">
     <g id="line2d_8">
      <defs>
       <path d="M 0 0 
L -3.5 0 
" id="md3ef607d39" style="stroke:#000000;stroke-width:0.8;"/>
      </defs>
      <g>
       <use style="stroke:#000000;stroke-width:0.8;" x="54" xlink:href="#md3ef607d39" y="227.317599"/>
      </g>
     </g>
     <g id="text_8">
      <!-- $\mathdefault{10^{-13}}$ -->
      <g transform="translate(19.1 231.116818)scale(0.1 -0.1)">
       <defs>
        <path d="M 794 531 
L 1825 531 
L 1825 4091 
L 703 3866 
L 703 4441 
L 1819 4666 
L 2450 4666 
L 2450 531 
L 3481 531 
L 3481 0 
L 794 0 
L 794 531 
z
" id="DejaVuSans-31" transform="scale(0.015625)"/>
        <path d="M 2597 2516 
Q 3050 2419 3304 2112 
Q 3559 1806 3559 1356 
Q 3559 666 3084 287 
Q 2609 -91 1734 -91 
Q 1441 -91 1130 -33 
Q 819 25 488 141 
L 488 750 
Q 750 597 1062 519 
Q 1375 441 1716 441 
Q 2309 441 2620 675 
Q 2931 909 2931 1356 
Q 2931 1769 2642 2001 
Q 2353 2234 1838 2234 
L 1294 2234 
L 1294 2753 
L 1863 2753 
Q 2328 2753 2575 2939 
Q 2822 3125 2822 3475 
Q 2822 3834 2567 4026 
Q 2313 4219 1838 4219 
Q 1578 4219 1281 4162 
Q 984 4106 628 3988 
L 628 4550 
Q 988 4650 1302 4700 
Q 1616 4750 1894 4750 
Q 2613 4750 3031 4423 
Q 3450 4097 3450 3541 
Q 3450 3153 3228 2886 
Q 3006 2619 2597 2516 
z
" id="DejaVuSans-33" transform="scale(0.015625)"/>
       </defs>
       <use transform="translate(0 0.765625)" xlink:href="#DejaVuSans-31"/>
       <use transform="translate(63.623047 0.765625)" xlink:href="#DejaVuSans-30"/>
       <use transform="translate(128.203125 39.046875)scale(0.7)" xlink:href="#DejaVuSans-2212"/>
       <use transform="translate(186.855469 39.046875)scale(0.7)" xlink:href="#DejaVuSans-31"/>
       <use transform="translate(231.391602 39.046875)scale(0.7)" xlink:href="#DejaVuSans-33"/>
      </g>
     </g>
    </g>
    <g id="ytick_2">
     <g id="line2d_9">
      <g>
       <use style="stroke:#000000;stroke-width:0.8;" x="54" xlink:href="#md3ef607d39" y="198.766062"/>
      </g>
     </g>
     <g id="text_9">
      <!-- $\mathdefault{10^{-11}}$ -->
      <g transform="translate(19.1 202.56528)scale(0.1 -0.1)">
       <use transform="translate(0 0.684375)" xlink:href="#DejaVuSans-31"/>
       <use transform="translate(63.623047 0.684375)" xlink:href="#DejaVuSans-30"/>
       <use transform="translate(128.203125 38.965625)scale(0.7)" xlink:href="#DejaVuSans-2212"/>
       <use transform="translate(186.855469 38.965625)scale(0.7)" xlink:href="#DejaVuSans-31"/>
       <use transform="translate(231.391602 38.965625)scale(0.7)" xlink:href="#DejaVuSans-31"/>
      </g>
     </g>
    </g>
    <g id="ytick_3">
     <g id="line2d_10">
      <g>
       <use style="stroke:#000000;stroke-width:0.8;" x="54" xlink:href="#md3ef607d39" y="170.214524"/>
      </g>
     </g>
     <g id="text_10">
      <!-- $\mathdefault{10^{-9}}$ -->
      <g transform="translate(23.5 174.013743)scale(0.1 -0.1)">
       <defs>
        <path d="M 703 97 
L 703 672 
Q 941 559 1184 500 
Q 1428 441 1663 441 
Q 2288 441 2617 861 
Q 2947 1281 2994 2138 
Q 2813 1869 2534 1725 
Q 2256 1581 1919 1581 
Q 1219 1581 811 2004 
Q 403 2428 403 3163 
Q 403 3881 828 4315 
Q 1253 4750 1959 4750 
Q 2769 4750 3195 4129 
Q 3622 3509 3622 2328 
Q 3622 1225 3098 567 
Q 2575 -91 1691 -91 
Q 1453 -91 1209 -44 
Q 966 3 703 97 
z
M 1959 2075 
Q 2384 2075 2632 2365 
Q 2881 2656 2881 3163 
Q 2881 3666 2632 3958 
Q 2384 4250 1959 4250 
Q 1534 4250 1286 3958 
Q 1038 3666 1038 3163 
Q 1038 2656 1286 2365 
Q 1534 2075 1959 2075 
z
" id="DejaVuSans-39" transform="scale(0.015625)"/>
       </defs>
       <use transform="translate(0 0.765625)" xlink:href="#DejaVuSans-31"/>
       <use transform="translate(63.623047 0.765625)" xlink:href="#DejaVuSans-30"/>
       <use transform="translate(128.203125 39.046875)scale(0.7)" xlink:href="#DejaVuSans-2212"/>
       <use transform="translate(186.855469 39.046875)scale(0.7)" xlink:href="#DejaVuSans-39"/>
      </g>
     </g>
    </g>
    <g id="ytick_4">
     <g id="line2d_11">
      <g>
       <use style="stroke:#000000;stroke-width:0.8;" x="54" xlink:href="#md3ef607d39" y="141.662987"/>
      </g>
     </g>
     <g id="text_11">
      <!-- $\mathdefault{10^{-7}}$ -->
      <g transform="translate(23.5 145.462206)scale(0.1 -0.1)">
       <defs>
        <path d="M 525 4666 
L 3525 4666 
L 3525 4397 
L 1831 0 
L 1172 0 
L 2766 4134 
L 525 4134 
L 525 4666 
z
" id="DejaVuSans-37" transform="scale(0.015625)"/>
       </defs>
       <use transform="translate(0 0.684375)" xlink:href="#DejaVuSans-31"/>
       <use transform="translate(63.623047 0.684375)" xlink:href="#DejaVuSans-30"/>
       <use transform="translate(128.203125 38.965625)scale(0.7)" xlink:href="#DejaVuSans-2212"/>
       <use transform="translate(186.855469 38.965625)scale(0.7)" xlink:href="#DejaVuSans-37"/>
      </g>
     </g>
    </g>
    <g id="ytick_5">
     <g id="line2d_12">
      <g>
       <use style="stroke:#000000;stroke-width:0.8;" x="54" xlink:href="#md3ef607d39" y="113.11145"/>
      </g>
     </g>
     <g id="text_12">
      <!-- $\mathdefault{10^{-5}}$ -->
      <g transform="translate(23.5 116.910669)scale(0.1 -0.1)">
       <defs>
        <path d="M 691 4666 
L 3169 4666 
L 3169 4134 
L 1269 4134 
L 1269 2991 
Q 1406 3038 1543 3061 
Q 1681 3084 1819 3084 
Q 2600 3084 3056 2656 
Q 3513 2228 3513 1497 
Q 3513 744 3044 326 
Q 2575 -91 1722 -91 
Q 1428 -91 1123 -41 
Q 819 9 494 109 
L 494 744 
Q 775 591 1075 516 
Q 1375 441 1709 441 
Q 2250 441 2565 725 
Q 2881 1009 2881 1497 
Q 2881 1984 2565 2268 
Q 2250 2553 1709 2553 
Q 1456 2553 1204 2497 
Q 953 2441 691 2322 
L 691 4666 
z
" id="DejaVuSans-35" transform="scale(0.015625)"/>
       </defs>
       <use transform="translate(0 0.684375)" xlink:href="#DejaVuSans-31"/>
       <use transform="translate(63.623047 0.684375)" xlink:href="#DejaVuSans-30"/>
       <use transform="translate(128.203125 38.965625)scale(0.7)" xlink:href="#DejaVuSans-2212"/>
       <use transform="translate(186.855469 38.965625)scale(0.7)" xlink:href="#DejaVuSans-35"/>
      </g>
     </g>
    </g>
    <g id="ytick_6">
     <g id="line2d_13">
      <g>
       <use style="stroke:#000000;stroke-width:0.8;" x="54" xlink:href="#md3ef607d39" y="84.559913"/>
      </g>
     </g>
     <g id="text_13">
      <!-- $\mathdefault{10^{-3}}$ -->
      <g transform="translate(23.5 88.359131)scale(0.1 -0.1)">
       <use transform="translate(0 0.765625)" xlink:href="#DejaVuSans-31"/>
       <use transform="translate(63.623047 0.765625)" xlink:href="#DejaVuSans-30"/>
       <use transform="translate(128.203125 39.046875)scale(0.7)" xlink:href="#DejaVuSans-2212"/>
       <use transform="translate(186.855469 39.046875)scale(0.7)" xlink:href="#DejaVuSans-33"/>
      </g>
     </g>
    </g>
    <g id="ytick_7">
     <g id="line2d_14">
      <g>
       <use style="stroke:#000000;stroke-width:0.8;" x="54" xlink:href="#md3ef607d39" y="56.008375"/>
      </g>
     </g>
     <g id="text_14">
      <!-- $\mathdefault{10^{-1}}$ -->
      <g transform="translate(23.5 59.807594)scale(0.1 -0.1)">
       <use transform="translate(0 0.684375)" xlink:href="#DejaVuSans-31"/>
       <use transform="translate(63.623047 0.684375)" xlink:href="#DejaVuSans-30"/>
       <use transform="translate(128.203125 38.965625)scale(0.7)" xlink:href="#DejaVuSans-2212"/>
       <use transform="translate(186.855469 38.965625)scale(0.7)" xlink:href="#DejaVuSans-31"/>
      </g>
     </g>
    </g>
   </g>
   <g id="line2d_15">
    <path clip-path="url(#pdd23b12040)" d="M 69.218182 218.4334 
L 69.813805 223.671237 
L 70.409429 224.885017 
L 71.005052 227.379794 
L 71.600676 232.533793 
L 72.1963 232.074265 
L 72.791923 226.678889 
L 73.387547 223.853 
L 73.98317 222.294877 
L 74.578794 221.758025 
L 75.174417 222.4437 
L 75.770041 224.834013 
L 76.365664 229.169277 
L 76.961288 234.355966 
L 77.556912 237.623306 
L 78.152535 239.152986 
L 78.748159 234.995193 
L 79.343782 231.782576 
L 79.939406 230.065962 
L 80.535029 229.171835 
L 81.726276 227.778162 
L 82.917524 226.382604 
L 83.513147 226.068064 
L 84.108771 226.117952 
L 84.704394 226.600424 
L 85.300018 227.602387 
L 85.895641 229.225657 
L 86.491265 231.592914 
L 87.682512 237.590343 
L 88.278136 237.471278 
L 90.66063 231.085817 
L 91.256253 230.09694 
L 91.851877 229.529899 
L 92.4475 229.389143 
L 93.043124 229.67179 
L 93.638748 230.374372 
L 94.234371 231.517603 
L 94.829995 233.156327 
L 95.425618 235.414352 
L 96.616865 242.116364 
L 97.212489 241.803044 
L 97.808112 239.321124 
L 98.403736 237.614121 
L 98.99936 236.515414 
L 100.190607 234.669542 
L 100.78623 233.322404 
L 103.764348 225.142083 
L 104.955595 222.714822 
L 106.742466 219.782789 
L 109.720584 215.199003 
L 114.485572 207.388467 
L 119.25056 200.408475 
L 123.419925 193.504104 
L 125.802419 190.241463 
L 127.58929 187.750851 
L 129.376161 184.794488 
L 132.354279 179.741051 
L 134.141149 177.261802 
L 137.119267 173.38911 
L 138.906138 170.344782 
L 141.288632 166.138436 
L 142.479879 164.367958 
L 144.26675 162.190996 
L 146.05362 160.0699 
L 147.244867 158.213861 
L 151.414232 150.743523 
L 152.605479 149.203306 
L 155.583597 146.023319 
L 156.774844 144.083305 
L 160.348586 137.220721 
L 161.539833 135.590505 
L 162.73108 134.395563 
L 164.517951 132.939983 
L 165.113574 132.251154 
L 165.709198 131.323651 
L 166.900445 128.866949 
L 168.687315 125.005456 
L 169.878563 122.924985 
L 171.06981 121.372805 
L 172.261057 120.351535 
L 174.047927 119.247751 
L 174.643551 118.545679 
L 175.239175 117.465239 
L 177.026045 113.002105 
L 178.217292 110.245446 
L 179.408539 108.06067 
L 180.599787 106.511139 
L 181.19541 105.992567 
L 181.791034 105.650485 
L 183.577904 105.119245 
L 184.173528 104.409514 
L 184.769151 103.074739 
L 187.151646 96.347911 
L 188.342893 93.859405 
L 189.53414 92.09287 
L 190.129763 91.50482 
L 190.725387 91.146836 
L 191.32101 91.051693 
L 191.916634 91.238809 
L 193.107881 91.952757 
L 193.703505 91.46385 
L 194.299128 89.957108 
L 195.490375 86.25231 
L 196.681622 83.239135 
L 197.87287 80.947493 
L 198.468493 80.08883 
L 199.064117 79.469635 
L 199.65974 79.137467 
L 200.255364 79.147264 
L 200.850987 79.568997 
L 201.446611 80.496222 
L 202.637858 83.708379 
L 203.233482 83.563305 
L 205.020352 77.005976 
L 206.211599 73.552948 
L 207.402846 70.975341 
L 207.99847 70.146873 
L 208.594094 69.737609 
L 209.189717 69.889554 
L 209.785341 70.800213 
L 210.380964 72.762478 
L 210.976588 76.453458 
L 211.572211 85.646925 
L 213.359082 73.120504 
L 215.741576 59.285895 
L 216.3372 57.932374 
L 216.932823 57.499341 
L 219.315318 57.336716 
L 221.102188 56.097619 
L 221.697812 44.443636 
L 222.293435 56.097619 
L 223.484682 56.931659 
L 224.080306 57.336716 
L 224.67593 57.552705 
L 226.4628 57.499341 
L 227.058424 57.932374 
L 227.654047 59.285895 
L 228.249671 61.943892 
L 230.632165 76.338719 
L 231.823412 85.646925 
L 232.419036 76.453458 
L 233.014659 72.762478 
L 233.610283 70.800213 
L 234.205906 69.889554 
L 234.80153 69.737609 
L 235.397154 70.146873 
L 235.992777 70.975341 
L 236.588401 72.130855 
L 237.779648 75.190495 
L 238.970895 79.024836 
L 240.162142 83.563305 
L 240.757766 83.708379 
L 241.949013 80.496222 
L 242.544636 79.568997 
L 243.14026 79.147264 
L 243.735883 79.137467 
L 244.331507 79.469635 
L 244.92713 80.08883 
L 245.522754 80.947493 
L 246.714001 83.239135 
L 247.905248 86.25231 
L 249.692119 91.46385 
L 250.287742 91.952757 
L 252.074613 91.051693 
L 252.670237 91.146836 
L 253.26586 91.50482 
L 253.861484 92.09287 
L 254.457107 92.8835 
L 255.648354 95.013808 
L 256.839601 97.86429 
L 259.222096 104.409514 
L 259.817719 105.119245 
L 260.413343 105.360528 
L 261.60459 105.650485 
L 262.200213 105.992567 
L 262.795837 106.511139 
L 263.987084 108.06067 
L 265.178331 110.245446 
L 266.369578 113.002105 
L 268.156449 117.465239 
L 268.752073 118.545679 
L 269.347696 119.247751 
L 270.538943 119.999695 
L 271.73019 120.799541 
L 272.921437 122.080917 
L 274.112685 123.902059 
L 275.303932 126.221904 
L 277.686426 131.323651 
L 278.282049 132.251154 
L 279.473297 133.461979 
L 281.260167 134.943517 
L 282.451414 136.348569 
L 283.642661 138.203812 
L 285.429532 141.68005 
L 287.216403 145.134979 
L 288.40765 146.75453 
L 291.385768 149.929331 
L 292.577015 151.64868 
L 294.363885 154.834617 
L 296.150756 158.213861 
L 297.342003 160.0699 
L 299.128874 162.190996 
L 300.915745 164.367958 
L 302.106992 166.138436 
L 303.893862 169.251509 
L 305.680733 172.441583 
L 306.87198 174.253378 
L 311.636969 180.676578 
L 314.019463 184.794487 
L 315.806333 187.750851 
L 317.593204 190.241463 
L 319.975698 193.504103 
L 321.762569 196.339833 
L 325.33631 202.305415 
L 328.314428 206.529297 
L 330.101299 209.204622 
L 333.079416 214.202202 
L 335.461911 218.004579 
L 337.844405 221.668301 
L 339.035652 223.8645 
L 340.226899 226.567298 
L 341.418146 229.870554 
L 342.609393 233.322367 
L 343.205017 234.669498 
L 344.991888 237.613667 
L 345.587511 239.321125 
L 346.183135 241.803525 
L 346.778758 242.114283 
L 347.970005 235.414509 
L 348.565629 233.156528 
L 349.161252 231.518083 
L 349.756876 230.37457 
L 350.3525 229.67177 
L 350.948123 229.389281 
L 351.543747 229.529616 
L 352.13937 230.09717 
L 352.734994 231.085895 
L 353.926241 234.08035 
L 355.117488 237.471278 
L 355.713112 237.590238 
L 357.499982 229.225539 
L 358.095606 227.602207 
L 358.691229 226.600564 
L 359.286853 226.118027 
L 359.882476 226.068133 
L 360.4781 226.382504 
L 361.073724 226.993359 
L 363.456218 230.065812 
L 364.051841 231.782491 
L 364.647465 234.995209 
L 365.243088 239.153242 
L 365.838712 237.622865 
L 366.434336 234.355733 
L 367.625583 224.833741 
L 368.221206 222.443661 
L 368.81683 221.758149 
L 369.412453 222.294836 
L 370.008077 223.852763 
L 370.6037 226.678706 
L 371.199324 232.074516 
L 371.794948 232.534162 
L 372.390571 227.379978 
L 372.986195 224.884996 
L 373.581818 223.671301 
L 373.581818 223.671301 
" style="fill:none;stroke:#1f77b4;stroke-linecap:square;stroke-width:1.5;"/>
   </g>
   <g id="patch_3">
    <path d="M 54 252 
L 54 34.56 
" style="fill:none;stroke:#000000;stroke-linecap:square;stroke-linejoin:miter;stroke-width:0.8;"/>
   </g>
   <g id="patch_4">
    <path d="M 388.8 252 
L 388.8 34.56 
" style="fill:none;stroke:#000000;stroke-linecap:square;stroke-linejoin:miter;stroke-width:0.8;"/>
   </g>
   <g id="patch_5">
    <path d="M 54 252 
L 388.8 252 
" style="fill:none;stroke:#000000;stroke-linecap:square;stroke-linejoin:miter;stroke-width:0.8;"/>
   </g>
   <g id="patch_6">
    <path d="M 54 34.56 
L 388.8 34.56 
" style="fill:none;stroke:#000000;stroke-linecap:square;stroke-linejoin:miter;stroke-width:0.8;"/>
   </g>
  </g>
 </g>
 <defs>
  <clipPath id="pdd23b12040">
   <rect height="217.44" width="334.8" x="54" y="34.56"/>
  </clipPath>
 </defs>
</svg>
