<?xml version="1.0" encoding="utf-8" standalone="no"?>
<!DOCTYPE svg PUBLIC "-//W3C//DTD SVG 1.1//EN"
  "http://www.w3.org/Graphics/SVG/1.1/DTD/svg11.dtd">
<svg height="345.6pt" version="1.1" viewBox="0 0 460.8 345.6" width="460.8pt" xmlns="http://www.w3.org/2000/svg" xmlns:xlink="http://www.w3.org/1999/xlink">
 <metadata>
  <rdf:RDF xmlns:cc="http://creativecommons.org/ns#" xmlns:dc="http://purl.org/dc/elements/1.1/" xmlns:rdf="http://www.w3.org/1999/02/22-rdf-syntax-ns#">
   <cc:Work>
    <dc:type rdf:resource="http://purl.org/dc/dcmitype/StillImage"/>
    <dc:date>2022-05-12T11:05:25.888263</dc:date>
    <dc:format>image/svg+xml</dc:format>
    <dc:creator>
     <cc:Agent>
      <dc:title>Matplotlib v3.4.3, https://matplotlib.org/</dc:title>
     </cc:Agent>
    </dc:creator>
   </cc:Work>
  </rdf:RDF>
 </metadata>
 <defs>
  <style type="text/css">*{stroke-linecap:butt;stroke-linejoin:round;}</style>
 </defs>
 <g id="figure_1">
  <g id="patch_1">
   <path d="M 0 345.6 
L 460.8 345.6 
L 460.8 0 
L 0 0 
z
" style="fill:#ffffff;"/>
  </g>
  <g id="axes_1">
   <g id="patch_2">
    <path d="M 57.6 307.584 
L 414.72 307.584 
L 414.72 41.472 
L 57.6 41.472 
z
" style="fill:#ffffff;"/>
   </g>
   <g id="matplotlib.axis_1">
    <g id="xtick_1">
     <g id="line2d_1">
      <defs>
       <path d="M 0 0 
L 0 3.5 
" id="m4161145426" style="stroke:#000000;stroke-width:0.8;"/>
      </defs>
      <g>
       <use style="stroke:#000000;stroke-width:0.8;" x="81.16319" xlink:href="#m4161145426" y="307.584"/>
      </g>
     </g>
     <g id="text_1">
      <!-- −6 -->
      <g transform="translate(73.792096 322.182437)scale(0.1 -0.1)">
       <defs>
        <path d="M 678 2272 
L 4684 2272 
L 4684 1741 
L 678 1741 
L 678 2272 
z
" id="DejaVuSans-2212" transform="scale(0.015625)"/>
        <path d="M 2113 2584 
Q 1688 2584 1439 2293 
Q 1191 2003 1191 1497 
Q 1191 994 1439 701 
Q 1688 409 2113 409 
Q 2538 409 2786 701 
Q 3034 994 3034 1497 
Q 3034 2003 2786 2293 
Q 2538 2584 2113 2584 
z
M 3366 4563 
L 3366 3988 
Q 3128 4100 2886 4159 
Q 2644 4219 2406 4219 
Q 1781 4219 1451 3797 
Q 1122 3375 1075 2522 
Q 1259 2794 1537 2939 
Q 1816 3084 2150 3084 
Q 2853 3084 3261 2657 
Q 3669 2231 3669 1497 
Q 3669 778 3244 343 
Q 2819 -91 2113 -91 
Q 1303 -91 875 529 
Q 447 1150 447 2328 
Q 447 3434 972 4092 
Q 1497 4750 2381 4750 
Q 2619 4750 2861 4703 
Q 3103 4656 3366 4563 
z
" id="DejaVuSans-36" transform="scale(0.015625)"/>
       </defs>
       <use xlink:href="#DejaVuSans-2212"/>
       <use x="83.789062" xlink:href="#DejaVuSans-36"/>
      </g>
     </g>
    </g>
    <g id="xtick_2">
     <g id="line2d_2">
      <g>
       <use style="stroke:#000000;stroke-width:0.8;" x="132.934682" xlink:href="#m4161145426" y="307.584"/>
      </g>
     </g>
     <g id="text_2">
      <!-- −4 -->
      <g transform="translate(125.563588 322.182437)scale(0.1 -0.1)">
       <defs>
        <path d="M 2419 4116 
L 825 1625 
L 2419 1625 
L 2419 4116 
z
M 2253 4666 
L 3047 4666 
L 3047 1625 
L 3713 1625 
L 3713 1100 
L 3047 1100 
L 3047 0 
L 2419 0 
L 2419 1100 
L 313 1100 
L 313 1709 
L 2253 4666 
z
" id="DejaVuSans-34" transform="scale(0.015625)"/>
       </defs>
       <use xlink:href="#DejaVuSans-2212"/>
       <use x="83.789062" xlink:href="#DejaVuSans-34"/>
      </g>
     </g>
    </g>
    <g id="xtick_3">
     <g id="line2d_3">
      <g>
       <use style="stroke:#000000;stroke-width:0.8;" x="184.706174" xlink:href="#m4161145426" y="307.584"/>
      </g>
     </g>
     <g id="text_3">
      <!-- −2 -->
      <g transform="translate(177.33508 322.182437)scale(0.1 -0.1)">
       <defs>
        <path d="M 1228 531 
L 3431 531 
L 3431 0 
L 469 0 
L 469 531 
Q 828 903 1448 1529 
Q 2069 2156 2228 2338 
Q 2531 2678 2651 2914 
Q 2772 3150 2772 3378 
Q 2772 3750 2511 3984 
Q 2250 4219 1831 4219 
Q 1534 4219 1204 4116 
Q 875 4013 500 3803 
L 500 4441 
Q 881 4594 1212 4672 
Q 1544 4750 1819 4750 
Q 2544 4750 2975 4387 
Q 3406 4025 3406 3419 
Q 3406 3131 3298 2873 
Q 3191 2616 2906 2266 
Q 2828 2175 2409 1742 
Q 1991 1309 1228 531 
z
" id="DejaVuSans-32" transform="scale(0.015625)"/>
       </defs>
       <use xlink:href="#DejaVuSans-2212"/>
       <use x="83.789062" xlink:href="#DejaVuSans-32"/>
      </g>
     </g>
    </g>
    <g id="xtick_4">
     <g id="line2d_4">
      <g>
       <use style="stroke:#000000;stroke-width:0.8;" x="236.477666" xlink:href="#m4161145426" y="307.584"/>
      </g>
     </g>
     <g id="text_4">
      <!-- 0 -->
      <g transform="translate(233.296416 322.182437)scale(0.1 -0.1)">
       <defs>
        <path d="M 2034 4250 
Q 1547 4250 1301 3770 
Q 1056 3291 1056 2328 
Q 1056 1369 1301 889 
Q 1547 409 2034 409 
Q 2525 409 2770 889 
Q 3016 1369 3016 2328 
Q 3016 3291 2770 3770 
Q 2525 4250 2034 4250 
z
M 2034 4750 
Q 2819 4750 3233 4129 
Q 3647 3509 3647 2328 
Q 3647 1150 3233 529 
Q 2819 -91 2034 -91 
Q 1250 -91 836 529 
Q 422 1150 422 2328 
Q 422 3509 836 4129 
Q 1250 4750 2034 4750 
z
" id="DejaVuSans-30" transform="scale(0.015625)"/>
       </defs>
       <use xlink:href="#DejaVuSans-30"/>
      </g>
     </g>
    </g>
    <g id="xtick_5">
     <g id="line2d_5">
      <g>
       <use style="stroke:#000000;stroke-width:0.8;" x="288.249158" xlink:href="#m4161145426" y="307.584"/>
      </g>
     </g>
     <g id="text_5">
      <!-- 2 -->
      <g transform="translate(285.067908 322.182437)scale(0.1 -0.1)">
       <use xlink:href="#DejaVuSans-32"/>
      </g>
     </g>
    </g>
    <g id="xtick_6">
     <g id="line2d_6">
      <g>
       <use style="stroke:#000000;stroke-width:0.8;" x="340.02065" xlink:href="#m4161145426" y="307.584"/>
      </g>
     </g>
     <g id="text_6">
      <!-- 4 -->
      <g transform="translate(336.8394 322.182437)scale(0.1 -0.1)">
       <use xlink:href="#DejaVuSans-34"/>
      </g>
     </g>
    </g>
    <g id="xtick_7">
     <g id="line2d_7">
      <g>
       <use style="stroke:#000000;stroke-width:0.8;" x="391.792142" xlink:href="#m4161145426" y="307.584"/>
      </g>
     </g>
     <g id="text_7">
      <!-- 6 -->
      <g transform="translate(388.610892 322.182437)scale(0.1 -0.1)">
       <use xlink:href="#DejaVuSans-36"/>
      </g>
     </g>
    </g>
   </g>
   <g id="matplotlib.axis_2">
    <g id="ytick_1">
     <g id="line2d_8">
      <defs>
       <path d="M 0 0 
L -3.5 0 
" id="m5bfaf181ed" style="stroke:#000000;stroke-width:0.8;"/>
      </defs>
      <g>
       <use style="stroke:#000000;stroke-width:0.8;" x="57.6" xlink:href="#m5bfaf181ed" y="307.584"/>
      </g>
     </g>
     <g id="text_8">
      <!-- $\mathdefault{10^{-14}}$ -->
      <g transform="translate(22.7 311.383219)scale(0.1 -0.1)">
       <defs>
        <path d="M 794 531 
L 1825 531 
L 1825 4091 
L 703 3866 
L 703 4441 
L 1819 4666 
L 2450 4666 
L 2450 531 
L 3481 531 
L 3481 0 
L 794 0 
L 794 531 
z
" id="DejaVuSans-31" transform="scale(0.015625)"/>
       </defs>
       <use transform="translate(0 0.684375)" xlink:href="#DejaVuSans-31"/>
       <use transform="translate(63.623047 0.684375)" xlink:href="#DejaVuSans-30"/>
       <use transform="translate(128.203125 38.965625)scale(0.7)" xlink:href="#DejaVuSans-2212"/>
       <use transform="translate(186.855469 38.965625)scale(0.7)" xlink:href="#DejaVuSans-31"/>
       <use transform="translate(231.391602 38.965625)scale(0.7)" xlink:href="#DejaVuSans-34"/>
      </g>
     </g>
    </g>
    <g id="ytick_2">
     <g id="line2d_9">
      <g>
       <use style="stroke:#000000;stroke-width:0.8;" x="57.6" xlink:href="#m5bfaf181ed" y="269.568"/>
      </g>
     </g>
     <g id="text_9">
      <!-- $\mathdefault{10^{-12}}$ -->
      <g transform="translate(22.7 273.367219)scale(0.1 -0.1)">
       <use transform="translate(0 0.765625)" xlink:href="#DejaVuSans-31"/>
       <use transform="translate(63.623047 0.765625)" xlink:href="#DejaVuSans-30"/>
       <use transform="translate(128.203125 39.046875)scale(0.7)" xlink:href="#DejaVuSans-2212"/>
       <use transform="translate(186.855469 39.046875)scale(0.7)" xlink:href="#DejaVuSans-31"/>
       <use transform="translate(231.391602 39.046875)scale(0.7)" xlink:href="#DejaVuSans-32"/>
      </g>
     </g>
    </g>
    <g id="ytick_3">
     <g id="line2d_10">
      <g>
       <use style="stroke:#000000;stroke-width:0.8;" x="57.6" xlink:href="#m5bfaf181ed" y="231.552"/>
      </g>
     </g>
     <g id="text_10">
      <!-- $\mathdefault{10^{-10}}$ -->
      <g transform="translate(22.7 235.351219)scale(0.1 -0.1)">
       <use transform="translate(0 0.765625)" xlink:href="#DejaVuSans-31"/>
       <use transform="translate(63.623047 0.765625)" xlink:href="#DejaVuSans-30"/>
       <use transform="translate(128.203125 39.046875)scale(0.7)" xlink:href="#DejaVuSans-2212"/>
       <use transform="translate(186.855469 39.046875)scale(0.7)" xlink:href="#DejaVuSans-31"/>
       <use transform="translate(231.391602 39.046875)scale(0.7)" xlink:href="#DejaVuSans-30"/>
      </g>
     </g>
    </g>
    <g id="ytick_4">
     <g id="line2d_11">
      <g>
       <use style="stroke:#000000;stroke-width:0.8;" x="57.6" xlink:href="#m5bfaf181ed" y="193.536"/>
      </g>
     </g>
     <g id="text_11">
      <!-- $\mathdefault{10^{-8}}$ -->
      <g transform="translate(27.1 197.335219)scale(0.1 -0.1)">
       <defs>
        <path d="M 2034 2216 
Q 1584 2216 1326 1975 
Q 1069 1734 1069 1313 
Q 1069 891 1326 650 
Q 1584 409 2034 409 
Q 2484 409 2743 651 
Q 3003 894 3003 1313 
Q 3003 1734 2745 1975 
Q 2488 2216 2034 2216 
z
M 1403 2484 
Q 997 2584 770 2862 
Q 544 3141 544 3541 
Q 544 4100 942 4425 
Q 1341 4750 2034 4750 
Q 2731 4750 3128 4425 
Q 3525 4100 3525 3541 
Q 3525 3141 3298 2862 
Q 3072 2584 2669 2484 
Q 3125 2378 3379 2068 
Q 3634 1759 3634 1313 
Q 3634 634 3220 271 
Q 2806 -91 2034 -91 
Q 1263 -91 848 271 
Q 434 634 434 1313 
Q 434 1759 690 2068 
Q 947 2378 1403 2484 
z
M 1172 3481 
Q 1172 3119 1398 2916 
Q 1625 2713 2034 2713 
Q 2441 2713 2670 2916 
Q 2900 3119 2900 3481 
Q 2900 3844 2670 4047 
Q 2441 4250 2034 4250 
Q 1625 4250 1398 4047 
Q 1172 3844 1172 3481 
z
" id="DejaVuSans-38" transform="scale(0.015625)"/>
       </defs>
       <use transform="translate(0 0.765625)" xlink:href="#DejaVuSans-31"/>
       <use transform="translate(63.623047 0.765625)" xlink:href="#DejaVuSans-30"/>
       <use transform="translate(128.203125 39.046875)scale(0.7)" xlink:href="#DejaVuSans-2212"/>
       <use transform="translate(186.855469 39.046875)scale(0.7)" xlink:href="#DejaVuSans-38"/>
      </g>
     </g>
    </g>
    <g id="ytick_5">
     <g id="line2d_12">
      <g>
       <use style="stroke:#000000;stroke-width:0.8;" x="57.6" xlink:href="#m5bfaf181ed" y="155.52"/>
      </g>
     </g>
     <g id="text_12">
      <!-- $\mathdefault{10^{-6}}$ -->
      <g transform="translate(27.1 159.319219)scale(0.1 -0.1)">
       <use transform="translate(0 0.765625)" xlink:href="#DejaVuSans-31"/>
       <use transform="translate(63.623047 0.765625)" xlink:href="#DejaVuSans-30"/>
       <use transform="translate(128.203125 39.046875)scale(0.7)" xlink:href="#DejaVuSans-2212"/>
       <use transform="translate(186.855469 39.046875)scale(0.7)" xlink:href="#DejaVuSans-36"/>
      </g>
     </g>
    </g>
    <g id="ytick_6">
     <g id="line2d_13">
      <g>
       <use style="stroke:#000000;stroke-width:0.8;" x="57.6" xlink:href="#m5bfaf181ed" y="117.504"/>
      </g>
     </g>
     <g id="text_13">
      <!-- $\mathdefault{10^{-4}}$ -->
      <g transform="translate(27.1 121.303219)scale(0.1 -0.1)">
       <use transform="translate(0 0.684375)" xlink:href="#DejaVuSans-31"/>
       <use transform="translate(63.623047 0.684375)" xlink:href="#DejaVuSans-30"/>
       <use transform="translate(128.203125 38.965625)scale(0.7)" xlink:href="#DejaVuSans-2212"/>
       <use transform="translate(186.855469 38.965625)scale(0.7)" xlink:href="#DejaVuSans-34"/>
      </g>
     </g>
    </g>
    <g id="ytick_7">
     <g id="line2d_14">
      <g>
       <use style="stroke:#000000;stroke-width:0.8;" x="57.6" xlink:href="#m5bfaf181ed" y="79.488"/>
      </g>
     </g>
     <g id="text_14">
      <!-- $\mathdefault{10^{-2}}$ -->
      <g transform="translate(27.1 83.287219)scale(0.1 -0.1)">
       <use transform="translate(0 0.765625)" xlink:href="#DejaVuSans-31"/>
       <use transform="translate(63.623047 0.765625)" xlink:href="#DejaVuSans-30"/>
       <use transform="translate(128.203125 39.046875)scale(0.7)" xlink:href="#DejaVuSans-2212"/>
       <use transform="translate(186.855469 39.046875)scale(0.7)" xlink:href="#DejaVuSans-32"/>
      </g>
     </g>
    </g>
    <g id="ytick_8">
     <g id="line2d_15">
      <g>
       <use style="stroke:#000000;stroke-width:0.8;" x="57.6" xlink:href="#m5bfaf181ed" y="41.472"/>
      </g>
     </g>
     <g id="text_15">
      <!-- $\mathdefault{10^{0}}$ -->
      <g transform="translate(33 45.271219)scale(0.1 -0.1)">
       <use transform="translate(0 0.765625)" xlink:href="#DejaVuSans-31"/>
       <use transform="translate(63.623047 0.765625)" xlink:href="#DejaVuSans-30"/>
       <use transform="translate(128.203125 39.046875)scale(0.7)" xlink:href="#DejaVuSans-30"/>
      </g>
     </g>
    </g>
   </g>
   <g id="line2d_16">
    <path clip-path="url(#p2b7427f197)" d="M 88.567987 346.6 
L 89.08069 345.776192 
L 89.716022 344.448305 
L 90.351354 343.763478 
L 90.986686 343.584763 
L 91.622017 343.550737 
L 92.257349 342.622882 
L 92.892681 340.704721 
L 95.434008 331.49354 
L 96.06934 330.148643 
L 96.704672 329.105113 
L 97.340004 328.678817 
L 98.610667 328.146362 
L 99.245999 327.231103 
L 99.881331 325.573928 
L 101.151994 321.616297 
L 101.787326 319.979415 
L 102.422658 318.729133 
L 104.328653 315.878792 
L 104.963985 314.258899 
L 106.86998 308.07097 
L 107.505312 306.498969 
L 108.140644 305.397073 
L 108.775976 304.817278 
L 109.411308 304.789519 
L 110.046639 305.221772 
L 110.681971 305.417794 
L 111.317303 303.92921 
L 113.223298 295.305501 
L 113.85863 293.296797 
L 114.493962 291.816823 
L 115.129294 290.820944 
L 115.764626 290.234904 
L 117.035289 289.461375 
L 117.670621 288.469651 
L 118.941284 284.904098 
L 119.576616 283.163324 
L 120.211948 281.819219 
L 120.84728 280.946853 
L 122.117943 280.134357 
L 122.753275 279.116374 
L 123.388607 276.919713 
L 124.659271 271.444705 
L 125.294602 269.202358 
L 125.929934 267.472967 
L 126.565266 266.28675 
L 127.200598 265.684474 
L 127.83593 265.735926 
L 128.471261 266.498676 
L 129.106593 267.637812 
L 129.741925 267.21258 
L 131.64792 257.728232 
L 132.283252 255.5726 
L 132.918584 254.027319 
L 133.553916 253.002763 
L 135.459911 251.139113 
L 136.095243 249.723166 
L 138.001238 244.269466 
L 138.63657 243.186527 
L 139.271902 242.743383 
L 139.907234 243.028989 
L 140.542565 243.866853 
L 141.177897 243.687858 
L 141.813229 240.642834 
L 143.083893 233.482315 
L 143.719224 230.920135 
L 144.354556 229.0143 
L 144.989888 227.718966 
L 145.62522 227.036826 
L 146.260552 227.021615 
L 146.895883 227.760675 
L 147.531215 229.164869 
L 148.166547 229.797958 
L 148.801879 227.322901 
L 150.072542 220.854615 
L 150.707874 218.715932 
L 151.343206 217.260006 
L 151.978538 216.362656 
L 153.249201 215.132529 
L 153.884533 213.728019 
L 155.790528 207.043457 
L 156.42586 205.432045 
L 157.061192 204.435669 
L 157.696524 204.188882 
L 158.331856 204.946639 
L 158.967187 207.21243 
L 159.602519 210.33924 
L 160.237851 205.942908 
L 160.873183 200.245256 
L 161.508514 196.227526 
L 162.143846 193.342783 
L 162.779178 191.276873 
L 163.41451 189.893226 
L 164.049842 189.150914 
L 164.685173 189.070381 
L 165.320505 189.696041 
L 165.955837 190.901848 
L 166.591169 191.553669 
L 167.226501 189.745114 
L 168.497164 184.190368 
L 169.132496 182.436022 
L 169.767828 181.472172 
L 170.40316 181.218591 
L 171.038491 181.277572 
L 171.673823 180.348546 
L 172.309155 177.535463 
L 173.579819 171.124028 
L 174.21515 168.743315 
L 174.850482 166.995239 
L 175.485814 165.894536 
L 176.121146 165.523457 
L 176.756477 166.107625 
L 177.391809 168.264574 
L 178.027141 174.418333 
L 178.662473 175.474222 
L 179.297805 165.2635 
L 179.933136 160.128117 
L 180.568468 156.779141 
L 181.2038 154.468888 
L 181.839132 152.936085 
L 182.474464 152.082322 
L 183.109795 151.871683 
L 183.745127 152.231059 
L 184.380459 152.772065 
L 185.015791 152.397268 
L 185.651123 150.484141 
L 186.286454 148.123386 
L 186.921786 146.253475 
L 187.557118 145.217081 
L 188.19245 145.261013 
L 188.827782 146.878795 
L 189.463113 150.552175 
L 190.098445 147.353291 
L 190.733777 140.562877 
L 191.369109 135.841856 
L 192.00444 132.417044 
L 192.639772 129.857379 
L 193.275104 127.974859 
L 193.910436 126.701958 
L 194.545768 126.056733 
L 195.181099 126.15897 
L 195.816431 127.326883 
L 196.451763 130.486508 
L 197.087095 139.754106 
L 198.357758 124.365478 
L 198.99309 120.164328 
L 199.628422 117.421533 
L 200.263754 115.649831 
L 200.899086 114.666411 
L 201.534417 114.357335 
L 202.169749 114.450481 
L 202.805081 114.126888 
L 203.440413 112.442586 
L 204.711076 107.643113 
L 205.346408 106.022749 
L 205.98174 105.242347 
L 206.617072 105.50877 
L 207.252403 107.364191 
L 208.523067 118.007252 
L 209.158399 105.567101 
L 209.793731 100.1738 
L 210.429062 96.786423 
L 211.064394 94.506269 
L 211.699726 93.020725 
L 212.335058 92.194326 
L 212.97039 91.972125 
L 213.605721 92.369007 
L 214.241053 93.524377 
L 214.876385 95.890364 
L 215.511717 101.092446 
L 216.147049 114.499911 
L 216.78238 98.302325 
L 217.417712 93.045009 
L 218.053044 90.311197 
L 218.688376 88.973915 
L 219.323708 88.687314 
L 219.959039 89.208385 
L 220.594371 89.539824 
L 221.229703 87.321686 
L 222.500366 79.903796 
L 223.135698 77.412584 
L 223.77103 75.926818 
L 224.406362 75.427629 
L 225.041694 75.979277 
L 225.677025 77.865337 
L 226.312357 81.842947 
L 226.947689 83.742348 
L 227.583021 76.243022 
L 228.218353 70.434578 
L 228.853684 66.172602 
L 229.489016 63.38883 
L 230.124348 62.197019 
L 230.75968 62.374263 
L 231.395012 63.638809 
L 232.030343 65.969338 
L 232.665675 69.492889 
L 233.301007 71.97824 
L 235.207002 63.100588 
L 235.842334 61.83691 
L 236.477666 43.490528 
L 237.112998 61.83691 
L 237.748329 63.100588 
L 238.383661 65.367131 
L 239.654325 71.97824 
L 240.289657 69.492889 
L 240.924988 65.969338 
L 241.56032 63.638809 
L 242.195652 62.374263 
L 242.830984 62.197019 
L 243.466316 63.38883 
L 244.101647 66.172602 
L 244.736979 70.434578 
L 245.372311 76.243022 
L 246.007643 83.742348 
L 246.642975 81.842947 
L 247.278306 77.865337 
L 247.913638 75.979277 
L 248.54897 75.427629 
L 249.184302 75.926818 
L 249.819634 77.412584 
L 250.454965 79.903796 
L 251.725629 87.321686 
L 252.360961 89.539824 
L 252.996292 89.208385 
L 253.631624 88.687314 
L 254.266956 88.973915 
L 254.902288 90.311197 
L 255.53762 93.045009 
L 256.172951 98.302325 
L 256.808283 114.499911 
L 257.443615 101.092446 
L 258.078947 95.890364 
L 258.714279 93.524377 
L 259.34961 92.369007 
L 259.984942 91.972125 
L 260.620274 92.194326 
L 261.255606 93.020725 
L 261.890938 94.506269 
L 262.526269 96.786423 
L 263.161601 100.1738 
L 263.796933 105.567101 
L 264.432265 118.007252 
L 265.702928 107.364191 
L 266.33826 105.50877 
L 266.973592 105.242347 
L 267.608924 106.022749 
L 268.244255 107.643113 
L 270.150251 114.126888 
L 270.785583 114.450481 
L 271.420914 114.357335 
L 272.056246 114.666411 
L 272.691578 115.649831 
L 273.32691 117.421533 
L 273.962242 120.164328 
L 274.597573 124.365478 
L 275.868237 139.754106 
L 276.503569 130.486508 
L 277.138901 127.326883 
L 277.774232 126.15897 
L 278.409564 126.056733 
L 279.044896 126.701958 
L 279.680228 127.974859 
L 280.31556 129.857379 
L 280.950891 132.417044 
L 281.586223 135.841856 
L 282.221555 140.562877 
L 282.856887 147.353291 
L 283.492218 150.552175 
L 284.12755 146.878795 
L 284.762882 145.261013 
L 285.398214 145.217081 
L 286.033546 146.253475 
L 286.668877 148.123386 
L 287.304209 150.484141 
L 287.939541 152.397268 
L 288.574873 152.772065 
L 289.210205 152.231059 
L 289.845536 151.871683 
L 290.480868 152.082322 
L 291.1162 152.936085 
L 291.751532 154.468888 
L 292.386864 156.779141 
L 293.022195 160.128117 
L 293.657527 165.2635 
L 294.292859 175.474222 
L 294.928191 174.418333 
L 295.563523 168.264574 
L 296.198854 166.107625 
L 296.834186 165.523457 
L 297.469518 165.894536 
L 298.10485 166.995239 
L 298.740181 168.743315 
L 299.375513 171.124028 
L 301.281509 180.348546 
L 301.91684 181.277572 
L 302.552172 181.218591 
L 303.187504 181.472172 
L 303.822836 182.436022 
L 304.458168 184.190368 
L 306.364163 191.553669 
L 306.999495 190.901848 
L 307.634827 189.696041 
L 308.270158 189.070381 
L 308.90549 189.150914 
L 309.540822 189.893226 
L 310.176154 191.276873 
L 310.811486 193.342783 
L 311.446817 196.227526 
L 312.082149 200.245256 
L 312.717481 205.942908 
L 313.352813 210.33924 
L 313.988144 207.21243 
L 314.623476 204.946639 
L 315.258808 204.188882 
L 315.89414 204.435669 
L 316.529472 205.432045 
L 317.164803 207.043457 
L 319.706131 215.132529 
L 321.612126 217.260006 
L 322.247458 218.715932 
L 322.88279 220.854615 
L 323.518121 223.775639 
L 324.153453 227.322902 
L 324.788785 229.797958 
L 325.424117 229.164869 
L 326.059448 227.760675 
L 326.69478 227.021615 
L 327.330112 227.036826 
L 327.965444 227.718966 
L 328.600776 229.0143 
L 329.236107 230.920135 
L 329.871439 233.482315 
L 330.506771 236.768986 
L 331.142103 240.642834 
L 331.777435 243.687857 
L 332.412766 243.866853 
L 333.048098 243.028989 
L 333.68343 242.743383 
L 334.318762 243.186527 
L 334.954094 244.269466 
L 335.589425 245.872502 
L 336.860089 249.723164 
L 337.495421 251.139107 
L 338.130753 251.900639 
L 338.766084 252.376206 
L 339.401416 253.002761 
L 340.036748 254.027315 
L 340.67208 255.572604 
L 341.307411 257.728235 
L 341.942743 260.582029 
L 343.213407 267.212585 
L 343.848739 267.637779 
L 344.48407 266.498665 
L 345.119402 265.735912 
L 345.754734 265.684478 
L 346.390066 266.286759 
L 347.025398 267.472968 
L 347.660729 269.202361 
L 348.296061 271.444702 
L 350.202057 279.116372 
L 350.837388 280.134333 
L 352.108052 280.946824 
L 352.743384 281.819357 
L 353.378716 283.163192 
L 355.284711 288.469345 
L 355.920043 289.461066 
L 357.826038 290.820907 
L 358.46137 291.816823 
L 359.096702 293.296622 
L 359.732033 295.304169 
L 360.367365 297.87669 
L 361.638029 303.929076 
L 362.273361 305.417406 
L 362.908692 305.224643 
L 363.544024 304.790114 
L 364.179356 304.818409 
L 364.814688 305.397712 
L 365.45002 306.499547 
L 366.085351 308.069163 
L 367.356015 312.173744 
L 367.991347 314.258224 
L 368.626679 315.878711 
L 369.26201 316.967373 
L 370.532674 318.731504 
L 371.168006 319.984872 
L 372.438669 323.526582 
L 373.709333 327.233925 
L 374.344665 328.104563 
L 376.25066 329.105155 
L 376.885992 330.160089 
L 377.521324 331.542304 
L 378.156655 333.362524 
L 380.062651 340.831891 
L 380.697983 342.648333 
L 381.333314 343.530624 
L 381.968646 343.506852 
L 383.23931 344.241783 
L 384.375966 346.6 
L 384.375966 346.6 
" style="fill:none;stroke:#1f77b4;stroke-linecap:square;stroke-width:1.5;"/>
   </g>
   <g id="patch_3">
    <path d="M 57.6 307.584 
L 57.6 41.472 
" style="fill:none;stroke:#000000;stroke-linecap:square;stroke-linejoin:miter;stroke-width:0.8;"/>
   </g>
   <g id="patch_4">
    <path d="M 414.72 307.584 
L 414.72 41.472 
" style="fill:none;stroke:#000000;stroke-linecap:square;stroke-linejoin:miter;stroke-width:0.8;"/>
   </g>
   <g id="patch_5">
    <path d="M 57.6 307.584 
L 414.72 307.584 
" style="fill:none;stroke:#000000;stroke-linecap:square;stroke-linejoin:miter;stroke-width:0.8;"/>
   </g>
   <g id="patch_6">
    <path d="M 57.6 41.472 
L 414.72 41.472 
" style="fill:none;stroke:#000000;stroke-linecap:square;stroke-linejoin:miter;stroke-width:0.8;"/>
   </g>
  </g>
 </g>
 <defs>
  <clipPath id="p2b7427f197">
   <rect height="266.112" width="357.12" x="57.6" y="41.472"/>
  </clipPath>
 </defs>
</svg>
