<?xml version="1.0" encoding="utf-8" standalone="no"?>
<!DOCTYPE svg PUBLIC "-//W3C//DTD SVG 1.1//EN"
  "http://www.w3.org/Graphics/SVG/1.1/DTD/svg11.dtd">
<svg height="345.6pt" version="1.1" viewBox="0 0 460.8 345.6" width="460.8pt" xmlns="http://www.w3.org/2000/svg" xmlns:xlink="http://www.w3.org/1999/xlink">
 <metadata>
  <rdf:RDF xmlns:cc="http://creativecommons.org/ns#" xmlns:dc="http://purl.org/dc/elements/1.1/" xmlns:rdf="http://www.w3.org/1999/02/22-rdf-syntax-ns#">
   <cc:Work>
    <dc:type rdf:resource="http://purl.org/dc/dcmitype/StillImage"/>
    <dc:date>2022-05-12T11:05:25.625915</dc:date>
    <dc:format>image/svg+xml</dc:format>
    <dc:creator>
     <cc:Agent>
      <dc:title>Matplotlib v3.4.3, https://matplotlib.org/</dc:title>
     </cc:Agent>
    </dc:creator>
   </cc:Work>
  </rdf:RDF>
 </metadata>
 <defs>
  <style type="text/css">*{stroke-linecap:butt;stroke-linejoin:round;}</style>
 </defs>
 <g id="figure_1">
  <g id="patch_1">
   <path d="M 0 345.6 
L 460.8 345.6 
L 460.8 0 
L 0 0 
z
" style="fill:#ffffff;"/>
  </g>
  <g id="axes_1">
   <g id="patch_2">
    <path d="M 57.6 307.584 
L 414.72 307.584 
L 414.72 41.472 
L 57.6 41.472 
z
" style="fill:#ffffff;"/>
   </g>
   <g id="matplotlib.axis_1">
    <g id="xtick_1">
     <g id="line2d_1">
      <defs>
       <path d="M 0 0 
L 0 3.5 
" id="md162c62753" style="stroke:#000000;stroke-width:0.8;"/>
      </defs>
      <g>
       <use style="stroke:#000000;stroke-width:0.8;" x="81.16319" xlink:href="#md162c62753" y="307.584"/>
      </g>
     </g>
     <g id="text_1">
      <!-- −6 -->
      <g transform="translate(73.792096 322.182437)scale(0.1 -0.1)">
       <defs>
        <path d="M 678 2272 
L 4684 2272 
L 4684 1741 
L 678 1741 
L 678 2272 
z
" id="DejaVuSans-2212" transform="scale(0.015625)"/>
        <path d="M 2113 2584 
Q 1688 2584 1439 2293 
Q 1191 2003 1191 1497 
Q 1191 994 1439 701 
Q 1688 409 2113 409 
Q 2538 409 2786 701 
Q 3034 994 3034 1497 
Q 3034 2003 2786 2293 
Q 2538 2584 2113 2584 
z
M 3366 4563 
L 3366 3988 
Q 3128 4100 2886 4159 
Q 2644 4219 2406 4219 
Q 1781 4219 1451 3797 
Q 1122 3375 1075 2522 
Q 1259 2794 1537 2939 
Q 1816 3084 2150 3084 
Q 2853 3084 3261 2657 
Q 3669 2231 3669 1497 
Q 3669 778 3244 343 
Q 2819 -91 2113 -91 
Q 1303 -91 875 529 
Q 447 1150 447 2328 
Q 447 3434 972 4092 
Q 1497 4750 2381 4750 
Q 2619 4750 2861 4703 
Q 3103 4656 3366 4563 
z
" id="DejaVuSans-36" transform="scale(0.015625)"/>
       </defs>
       <use xlink:href="#DejaVuSans-2212"/>
       <use x="83.789062" xlink:href="#DejaVuSans-36"/>
      </g>
     </g>
    </g>
    <g id="xtick_2">
     <g id="line2d_2">
      <g>
       <use style="stroke:#000000;stroke-width:0.8;" x="132.934682" xlink:href="#md162c62753" y="307.584"/>
      </g>
     </g>
     <g id="text_2">
      <!-- −4 -->
      <g transform="translate(125.563588 322.182437)scale(0.1 -0.1)">
       <defs>
        <path d="M 2419 4116 
L 825 1625 
L 2419 1625 
L 2419 4116 
z
M 2253 4666 
L 3047 4666 
L 3047 1625 
L 3713 1625 
L 3713 1100 
L 3047 1100 
L 3047 0 
L 2419 0 
L 2419 1100 
L 313 1100 
L 313 1709 
L 2253 4666 
z
" id="DejaVuSans-34" transform="scale(0.015625)"/>
       </defs>
       <use xlink:href="#DejaVuSans-2212"/>
       <use x="83.789062" xlink:href="#DejaVuSans-34"/>
      </g>
     </g>
    </g>
    <g id="xtick_3">
     <g id="line2d_3">
      <g>
       <use style="stroke:#000000;stroke-width:0.8;" x="184.706174" xlink:href="#md162c62753" y="307.584"/>
      </g>
     </g>
     <g id="text_3">
      <!-- −2 -->
      <g transform="translate(177.33508 322.182437)scale(0.1 -0.1)">
       <defs>
        <path d="M 1228 531 
L 3431 531 
L 3431 0 
L 469 0 
L 469 531 
Q 828 903 1448 1529 
Q 2069 2156 2228 2338 
Q 2531 2678 2651 2914 
Q 2772 3150 2772 3378 
Q 2772 3750 2511 3984 
Q 2250 4219 1831 4219 
Q 1534 4219 1204 4116 
Q 875 4013 500 3803 
L 500 4441 
Q 881 4594 1212 4672 
Q 1544 4750 1819 4750 
Q 2544 4750 2975 4387 
Q 3406 4025 3406 3419 
Q 3406 3131 3298 2873 
Q 3191 2616 2906 2266 
Q 2828 2175 2409 1742 
Q 1991 1309 1228 531 
z
" id="DejaVuSans-32" transform="scale(0.015625)"/>
       </defs>
       <use xlink:href="#DejaVuSans-2212"/>
       <use x="83.789062" xlink:href="#DejaVuSans-32"/>
      </g>
     </g>
    </g>
    <g id="xtick_4">
     <g id="line2d_4">
      <g>
       <use style="stroke:#000000;stroke-width:0.8;" x="236.477666" xlink:href="#md162c62753" y="307.584"/>
      </g>
     </g>
     <g id="text_4">
      <!-- 0 -->
      <g transform="translate(233.296416 322.182437)scale(0.1 -0.1)">
       <defs>
        <path d="M 2034 4250 
Q 1547 4250 1301 3770 
Q 1056 3291 1056 2328 
Q 1056 1369 1301 889 
Q 1547 409 2034 409 
Q 2525 409 2770 889 
Q 3016 1369 3016 2328 
Q 3016 3291 2770 3770 
Q 2525 4250 2034 4250 
z
M 2034 4750 
Q 2819 4750 3233 4129 
Q 3647 3509 3647 2328 
Q 3647 1150 3233 529 
Q 2819 -91 2034 -91 
Q 1250 -91 836 529 
Q 422 1150 422 2328 
Q 422 3509 836 4129 
Q 1250 4750 2034 4750 
z
" id="DejaVuSans-30" transform="scale(0.015625)"/>
       </defs>
       <use xlink:href="#DejaVuSans-30"/>
      </g>
     </g>
    </g>
    <g id="xtick_5">
     <g id="line2d_5">
      <g>
       <use style="stroke:#000000;stroke-width:0.8;" x="288.249158" xlink:href="#md162c62753" y="307.584"/>
      </g>
     </g>
     <g id="text_5">
      <!-- 2 -->
      <g transform="translate(285.067908 322.182437)scale(0.1 -0.1)">
       <use xlink:href="#DejaVuSans-32"/>
      </g>
     </g>
    </g>
    <g id="xtick_6">
     <g id="line2d_6">
      <g>
       <use style="stroke:#000000;stroke-width:0.8;" x="340.02065" xlink:href="#md162c62753" y="307.584"/>
      </g>
     </g>
     <g id="text_6">
      <!-- 4 -->
      <g transform="translate(336.8394 322.182437)scale(0.1 -0.1)">
       <use xlink:href="#DejaVuSans-34"/>
      </g>
     </g>
    </g>
    <g id="xtick_7">
     <g id="line2d_7">
      <g>
       <use style="stroke:#000000;stroke-width:0.8;" x="391.792142" xlink:href="#md162c62753" y="307.584"/>
      </g>
     </g>
     <g id="text_7">
      <!-- 6 -->
      <g transform="translate(388.610892 322.182437)scale(0.1 -0.1)">
       <use xlink:href="#DejaVuSans-36"/>
      </g>
     </g>
    </g>
   </g>
   <g id="matplotlib.axis_2">
    <g id="ytick_1">
     <g id="line2d_8">
      <defs>
       <path d="M 0 0 
L -3.5 0 
" id="m3394507e16" style="stroke:#000000;stroke-width:0.8;"/>
      </defs>
      <g>
       <use style="stroke:#000000;stroke-width:0.8;" x="57.6" xlink:href="#m3394507e16" y="307.584"/>
      </g>
     </g>
     <g id="text_8">
      <!-- $\mathdefault{10^{-14}}$ -->
      <g transform="translate(22.7 311.383219)scale(0.1 -0.1)">
       <defs>
        <path d="M 794 531 
L 1825 531 
L 1825 4091 
L 703 3866 
L 703 4441 
L 1819 4666 
L 2450 4666 
L 2450 531 
L 3481 531 
L 3481 0 
L 794 0 
L 794 531 
z
" id="DejaVuSans-31" transform="scale(0.015625)"/>
       </defs>
       <use transform="translate(0 0.684375)" xlink:href="#DejaVuSans-31"/>
       <use transform="translate(63.623047 0.684375)" xlink:href="#DejaVuSans-30"/>
       <use transform="translate(128.203125 38.965625)scale(0.7)" xlink:href="#DejaVuSans-2212"/>
       <use transform="translate(186.855469 38.965625)scale(0.7)" xlink:href="#DejaVuSans-31"/>
       <use transform="translate(231.391602 38.965625)scale(0.7)" xlink:href="#DejaVuSans-34"/>
      </g>
     </g>
    </g>
    <g id="ytick_2">
     <g id="line2d_9">
      <g>
       <use style="stroke:#000000;stroke-width:0.8;" x="57.6" xlink:href="#m3394507e16" y="269.568"/>
      </g>
     </g>
     <g id="text_9">
      <!-- $\mathdefault{10^{-12}}$ -->
      <g transform="translate(22.7 273.367219)scale(0.1 -0.1)">
       <use transform="translate(0 0.765625)" xlink:href="#DejaVuSans-31"/>
       <use transform="translate(63.623047 0.765625)" xlink:href="#DejaVuSans-30"/>
       <use transform="translate(128.203125 39.046875)scale(0.7)" xlink:href="#DejaVuSans-2212"/>
       <use transform="translate(186.855469 39.046875)scale(0.7)" xlink:href="#DejaVuSans-31"/>
       <use transform="translate(231.391602 39.046875)scale(0.7)" xlink:href="#DejaVuSans-32"/>
      </g>
     </g>
    </g>
    <g id="ytick_3">
     <g id="line2d_10">
      <g>
       <use style="stroke:#000000;stroke-width:0.8;" x="57.6" xlink:href="#m3394507e16" y="231.552"/>
      </g>
     </g>
     <g id="text_10">
      <!-- $\mathdefault{10^{-10}}$ -->
      <g transform="translate(22.7 235.351219)scale(0.1 -0.1)">
       <use transform="translate(0 0.765625)" xlink:href="#DejaVuSans-31"/>
       <use transform="translate(63.623047 0.765625)" xlink:href="#DejaVuSans-30"/>
       <use transform="translate(128.203125 39.046875)scale(0.7)" xlink:href="#DejaVuSans-2212"/>
       <use transform="translate(186.855469 39.046875)scale(0.7)" xlink:href="#DejaVuSans-31"/>
       <use transform="translate(231.391602 39.046875)scale(0.7)" xlink:href="#DejaVuSans-30"/>
      </g>
     </g>
    </g>
    <g id="ytick_4">
     <g id="line2d_11">
      <g>
       <use style="stroke:#000000;stroke-width:0.8;" x="57.6" xlink:href="#m3394507e16" y="193.536"/>
      </g>
     </g>
     <g id="text_11">
      <!-- $\mathdefault{10^{-8}}$ -->
      <g transform="translate(27.1 197.335219)scale(0.1 -0.1)">
       <defs>
        <path d="M 2034 2216 
Q 1584 2216 1326 1975 
Q 1069 1734 1069 1313 
Q 1069 891 1326 650 
Q 1584 409 2034 409 
Q 2484 409 2743 651 
Q 3003 894 3003 1313 
Q 3003 1734 2745 1975 
Q 2488 2216 2034 2216 
z
M 1403 2484 
Q 997 2584 770 2862 
Q 544 3141 544 3541 
Q 544 4100 942 4425 
Q 1341 4750 2034 4750 
Q 2731 4750 3128 4425 
Q 3525 4100 3525 3541 
Q 3525 3141 3298 2862 
Q 3072 2584 2669 2484 
Q 3125 2378 3379 2068 
Q 3634 1759 3634 1313 
Q 3634 634 3220 271 
Q 2806 -91 2034 -91 
Q 1263 -91 848 271 
Q 434 634 434 1313 
Q 434 1759 690 2068 
Q 947 2378 1403 2484 
z
M 1172 3481 
Q 1172 3119 1398 2916 
Q 1625 2713 2034 2713 
Q 2441 2713 2670 2916 
Q 2900 3119 2900 3481 
Q 2900 3844 2670 4047 
Q 2441 4250 2034 4250 
Q 1625 4250 1398 4047 
Q 1172 3844 1172 3481 
z
" id="DejaVuSans-38" transform="scale(0.015625)"/>
       </defs>
       <use transform="translate(0 0.765625)" xlink:href="#DejaVuSans-31"/>
       <use transform="translate(63.623047 0.765625)" xlink:href="#DejaVuSans-30"/>
       <use transform="translate(128.203125 39.046875)scale(0.7)" xlink:href="#DejaVuSans-2212"/>
       <use transform="translate(186.855469 39.046875)scale(0.7)" xlink:href="#DejaVuSans-38"/>
      </g>
     </g>
    </g>
    <g id="ytick_5">
     <g id="line2d_12">
      <g>
       <use style="stroke:#000000;stroke-width:0.8;" x="57.6" xlink:href="#m3394507e16" y="155.52"/>
      </g>
     </g>
     <g id="text_12">
      <!-- $\mathdefault{10^{-6}}$ -->
      <g transform="translate(27.1 159.319219)scale(0.1 -0.1)">
       <use transform="translate(0 0.765625)" xlink:href="#DejaVuSans-31"/>
       <use transform="translate(63.623047 0.765625)" xlink:href="#DejaVuSans-30"/>
       <use transform="translate(128.203125 39.046875)scale(0.7)" xlink:href="#DejaVuSans-2212"/>
       <use transform="translate(186.855469 39.046875)scale(0.7)" xlink:href="#DejaVuSans-36"/>
      </g>
     </g>
    </g>
    <g id="ytick_6">
     <g id="line2d_13">
      <g>
       <use style="stroke:#000000;stroke-width:0.8;" x="57.6" xlink:href="#m3394507e16" y="117.504"/>
      </g>
     </g>
     <g id="text_13">
      <!-- $\mathdefault{10^{-4}}$ -->
      <g transform="translate(27.1 121.303219)scale(0.1 -0.1)">
       <use transform="translate(0 0.684375)" xlink:href="#DejaVuSans-31"/>
       <use transform="translate(63.623047 0.684375)" xlink:href="#DejaVuSans-30"/>
       <use transform="translate(128.203125 38.965625)scale(0.7)" xlink:href="#DejaVuSans-2212"/>
       <use transform="translate(186.855469 38.965625)scale(0.7)" xlink:href="#DejaVuSans-34"/>
      </g>
     </g>
    </g>
    <g id="ytick_7">
     <g id="line2d_14">
      <g>
       <use style="stroke:#000000;stroke-width:0.8;" x="57.6" xlink:href="#m3394507e16" y="79.488"/>
      </g>
     </g>
     <g id="text_14">
      <!-- $\mathdefault{10^{-2}}$ -->
      <g transform="translate(27.1 83.287219)scale(0.1 -0.1)">
       <use transform="translate(0 0.765625)" xlink:href="#DejaVuSans-31"/>
       <use transform="translate(63.623047 0.765625)" xlink:href="#DejaVuSans-30"/>
       <use transform="translate(128.203125 39.046875)scale(0.7)" xlink:href="#DejaVuSans-2212"/>
       <use transform="translate(186.855469 39.046875)scale(0.7)" xlink:href="#DejaVuSans-32"/>
      </g>
     </g>
    </g>
    <g id="ytick_8">
     <g id="line2d_15">
      <g>
       <use style="stroke:#000000;stroke-width:0.8;" x="57.6" xlink:href="#m3394507e16" y="41.472"/>
      </g>
     </g>
     <g id="text_15">
      <!-- $\mathdefault{10^{0}}$ -->
      <g transform="translate(33 45.271219)scale(0.1 -0.1)">
       <use transform="translate(0 0.765625)" xlink:href="#DejaVuSans-31"/>
       <use transform="translate(63.623047 0.765625)" xlink:href="#DejaVuSans-30"/>
       <use transform="translate(128.203125 39.046875)scale(0.7)" xlink:href="#DejaVuSans-30"/>
      </g>
     </g>
    </g>
   </g>
   <g id="line2d_16">
    <path clip-path="url(#pb990e126dc)" d="M 73.832727 276.746805 
L 74.468059 283.720917 
L 75.103391 285.337049 
L 75.738723 288.658813 
L 76.374054 295.521295 
L 77.009386 294.90944 
L 77.644718 287.725567 
L 78.28005 283.962932 
L 78.915382 281.888312 
L 79.550713 281.1735 
L 80.186045 282.086467 
L 80.821377 285.269138 
L 81.456709 291.041485 
L 82.092041 297.947495 
L 82.727372 302.297915 
L 83.362704 304.334663 
L 83.998036 298.798616 
L 84.633368 294.52106 
L 85.2687 292.23541 
L 85.904031 291.044891 
L 87.174695 289.189234 
L 87.810027 288.144327 
L 88.445358 287.331066 
L 89.08069 286.912261 
L 89.716022 286.978686 
L 90.351354 287.621091 
L 90.986686 288.955192 
L 91.622017 291.116555 
L 92.257349 294.268526 
L 93.528013 302.254025 
L 94.163345 302.095491 
L 96.704672 293.593334 
L 97.340004 292.276657 
L 97.975335 291.521649 
L 98.610667 291.334234 
L 99.245999 291.710575 
L 99.881331 292.646053 
L 100.516663 294.16825 
L 101.151994 296.350191 
L 101.787326 299.356721 
L 103.05799 308.280363 
L 103.693321 307.863181 
L 104.328653 304.558537 
L 104.963985 302.285685 
L 105.599317 300.822771 
L 106.86998 298.365017 
L 107.505312 296.57132 
L 110.681971 285.679329 
L 111.952635 282.447463 
L 113.223298 279.76423 
L 118.305953 269.760801 
L 121.482612 263.226328 
L 124.023939 258.685187 
L 125.929934 255.272602 
L 127.83593 251.409427 
L 131.012589 244.757442 
L 132.918584 241.312073 
L 136.095243 235.893391 
L 138.001238 231.957031 
L 140.542565 226.474088 
L 142.448561 222.960303 
L 146.260552 216.770919 
L 147.531215 214.147437 
L 150.707874 207.116742 
L 151.978538 204.759373 
L 153.249201 202.76308 
L 155.790528 199.036565 
L 157.061192 196.565273 
L 161.508514 186.618615 
L 162.779178 184.567836 
L 164.685173 182.137404 
L 165.955837 180.333726 
L 167.226501 177.750622 
L 171.038491 168.613181 
L 172.309155 166.442569 
L 173.579819 164.85152 
L 175.485814 162.913434 
L 176.121146 161.996267 
L 176.756477 160.761309 
L 178.027141 157.490242 
L 179.933136 152.348714 
L 181.2038 149.578594 
L 182.474464 147.511887 
L 183.745127 146.152079 
L 185.651123 144.682405 
L 186.286454 143.747605 
L 186.921786 142.309014 
L 188.19245 138.406959 
L 189.463113 134.445337 
L 190.733777 131.139839 
L 192.00444 128.645118 
L 192.639772 127.723772 
L 193.275104 127.0333 
L 193.910436 126.577823 
L 195.816431 125.870483 
L 196.451763 124.925485 
L 197.087095 123.14825 
L 199.628422 114.191567 
L 200.899086 110.878154 
L 202.169749 108.526035 
L 202.805081 107.743053 
L 203.440413 107.266403 
L 204.075745 107.139722 
L 204.711076 107.388864 
L 205.98174 108.339477 
L 206.617072 107.688503 
L 207.252403 105.682296 
L 208.523067 100.749405 
L 209.793731 96.737402 
L 211.064394 93.686111 
L 211.699726 92.542812 
L 212.335058 91.718362 
L 212.97039 91.276085 
L 213.605721 91.289129 
L 214.241053 91.850661 
L 214.876385 93.085249 
L 216.147049 97.362194 
L 216.78238 97.169031 
L 218.688376 88.438031 
L 219.959039 83.84037 
L 220.594371 81.946871 
L 221.229703 80.408319 
L 221.865035 79.305225 
L 222.500366 78.760295 
L 223.135698 78.962609 
L 223.77103 80.17514 
L 224.406362 82.787869 
L 225.041694 87.702361 
L 225.677025 99.943343 
L 227.583021 83.264577 
L 230.124348 64.843974 
L 230.75968 63.041779 
L 231.395012 62.465201 
L 232.030343 62.441919 
L 232.665675 62.552618 
L 233.301007 62.536255 
L 233.936339 62.248669 
L 235.842334 60.598827 
L 236.477666 45.081701 
L 237.112998 60.598827 
L 238.383661 61.70934 
L 239.018993 62.248669 
L 239.654325 62.536255 
L 240.289657 62.552618 
L 240.924988 62.441919 
L 241.56032 62.465201 
L 242.195652 63.041779 
L 242.830984 64.843974 
L 243.466316 68.383063 
L 246.007643 87.549588 
L 247.278306 99.943343 
L 247.913638 87.702361 
L 248.54897 82.787869 
L 249.184302 80.17514 
L 249.819634 78.962609 
L 250.454965 78.760295 
L 251.090297 79.305225 
L 251.725629 80.408319 
L 252.360961 81.946871 
L 253.631624 86.020743 
L 254.902288 91.126118 
L 256.172951 97.169031 
L 256.808283 97.362194 
L 258.078947 93.085249 
L 258.714279 91.850661 
L 259.34961 91.289129 
L 259.984942 91.276085 
L 260.620274 91.718362 
L 261.255606 92.542812 
L 261.890938 93.686111 
L 263.161601 96.737402 
L 264.432265 100.749405 
L 266.33826 107.688503 
L 266.973592 108.339477 
L 267.608924 107.933312 
L 268.244255 107.388864 
L 268.879587 107.139722 
L 269.514919 107.266403 
L 270.150251 107.743053 
L 270.785583 108.526035 
L 271.420914 109.578749 
L 272.691578 112.415226 
L 273.962242 116.210606 
L 276.503569 124.925485 
L 277.138901 125.870483 
L 277.774232 126.191748 
L 279.044896 126.577823 
L 279.680228 127.0333 
L 280.31556 127.723772 
L 280.950891 128.645118 
L 282.221555 131.139839 
L 283.492218 134.445337 
L 286.668877 143.747605 
L 287.304209 144.682405 
L 288.574873 145.683609 
L 289.845536 146.748593 
L 290.480868 147.511887 
L 291.751532 149.578594 
L 293.022195 152.348714 
L 294.928191 157.490242 
L 296.198854 160.761309 
L 296.834186 161.996267 
L 297.469518 162.913434 
L 300.646177 166.442569 
L 301.91684 168.613181 
L 303.187504 171.366509 
L 306.364163 179.150912 
L 307.634827 181.307324 
L 310.811486 185.534529 
L 312.082149 187.82382 
L 313.352813 190.567323 
L 316.529472 197.878701 
L 317.800135 200.053201 
L 320.976794 204.759373 
L 322.247458 207.116742 
L 324.153453 211.261758 
L 326.059448 215.5093 
L 327.330112 217.921681 
L 329.871439 221.927359 
L 331.777435 225.228446 
L 333.68343 229.15498 
L 336.860089 235.893391 
L 338.766084 239.209608 
L 341.307411 243.553771 
L 343.213407 247.329508 
L 347.025398 255.272603 
L 349.566725 259.78358 
L 352.108052 264.458807 
L 354.649379 269.760805 
L 357.190706 274.971548 
L 360.367365 281.054034 
L 361.638029 283.978243 
L 362.908692 287.576984 
L 364.179356 291.975227 
L 365.45002 296.57127 
L 366.085351 298.364957 
L 367.991347 302.285081 
L 368.626679 304.558539 
L 369.26201 307.863822 
L 369.897342 308.277592 
L 371.168006 299.35693 
L 371.803337 296.350459 
L 372.438669 294.168891 
L 373.074001 292.646318 
L 373.709333 291.710548 
L 374.344665 291.334418 
L 374.979996 291.521272 
L 375.615328 292.276962 
L 376.25066 293.593437 
L 376.885992 295.413526 
L 378.791987 302.095491 
L 379.427319 302.253886 
L 381.333314 291.116397 
L 381.968646 288.954952 
L 382.603978 287.621278 
L 383.23931 286.978786 
L 383.874642 286.912352 
L 384.509973 287.330934 
L 385.145305 288.144279 
L 386.415969 290.184829 
L 387.0513 291.04465 
L 387.686632 292.23521 
L 388.321964 294.520946 
L 388.957296 298.798638 
L 389.592628 304.335005 
L 390.227959 302.297327 
L 390.863291 297.947185 
L 392.133955 285.268776 
L 392.769287 282.086415 
L 393.404618 281.173665 
L 394.03995 281.888257 
L 394.675282 283.962616 
L 395.310614 287.725322 
L 395.945946 294.909773 
L 396.581277 295.521786 
L 397.216609 288.659056 
L 397.851941 285.337021 
L 398.487273 283.721002 
L 398.487273 283.721002 
" style="fill:none;stroke:#1f77b4;stroke-linecap:square;stroke-width:1.5;"/>
   </g>
   <g id="patch_3">
    <path d="M 57.6 307.584 
L 57.6 41.472 
" style="fill:none;stroke:#000000;stroke-linecap:square;stroke-linejoin:miter;stroke-width:0.8;"/>
   </g>
   <g id="patch_4">
    <path d="M 414.72 307.584 
L 414.72 41.472 
" style="fill:none;stroke:#000000;stroke-linecap:square;stroke-linejoin:miter;stroke-width:0.8;"/>
   </g>
   <g id="patch_5">
    <path d="M 57.6 307.584 
L 414.72 307.584 
" style="fill:none;stroke:#000000;stroke-linecap:square;stroke-linejoin:miter;stroke-width:0.8;"/>
   </g>
   <g id="patch_6">
    <path d="M 57.6 41.472 
L 414.72 41.472 
" style="fill:none;stroke:#000000;stroke-linecap:square;stroke-linejoin:miter;stroke-width:0.8;"/>
   </g>
  </g>
 </g>
 <defs>
  <clipPath id="pb990e126dc">
   <rect height="266.112" width="357.12" x="57.6" y="41.472"/>
  </clipPath>
 </defs>
</svg>
