<?xml version="1.0" encoding="utf-8" standalone="no"?>
<!DOCTYPE svg PUBLIC "-//W3C//DTD SVG 1.1//EN"
  "http://www.w3.org/Graphics/SVG/1.1/DTD/svg11.dtd">
<svg height="647.28pt" version="1.1" viewBox="0 0 789.12 647.28" width="789.12pt" xmlns="http://www.w3.org/2000/svg" xmlns:xlink="http://www.w3.org/1999/xlink">
 <metadata>
  <rdf:RDF xmlns:cc="http://creativecommons.org/ns#" xmlns:dc="http://purl.org/dc/elements/1.1/" xmlns:rdf="http://www.w3.org/1999/02/22-rdf-syntax-ns#">
   <cc:Work>
    <dc:type rdf:resource="http://purl.org/dc/dcmitype/StillImage"/>
    <dc:date>2022-05-12T10:59:37.452438</dc:date>
    <dc:format>image/svg+xml</dc:format>
    <dc:creator>
     <cc:Agent>
      <dc:title>Matplotlib v3.4.3, https://matplotlib.org/</dc:title>
     </cc:Agent>
    </dc:creator>
   </cc:Work>
  </rdf:RDF>
 </metadata>
 <defs>
  <style type="text/css">*{stroke-linecap:butt;stroke-linejoin:round;}</style>
 </defs>
 <g id="figure_1">
  <g id="patch_1">
   <path d="M 0 647.28 
L 789.12 647.28 
L 789.12 0 
L 0 0 
z
" style="fill:#ffffff;"/>
  </g>
  <g id="axes_1">
   <g id="patch_2">
    <path d="M 98.64 304.2216 
L 710.208 304.2216 
L 710.208 77.6736 
L 98.64 77.6736 
z
" style="fill:#ffffff;"/>
   </g>
   <g id="matplotlib.axis_1">
    <g id="xtick_1">
     <g id="line2d_1">
      <defs>
       <path d="M 0 0 
L 0 3.5 
" id="med80aea453" style="stroke:#000000;stroke-width:0.8;"/>
      </defs>
      <g>
       <use style="stroke:#000000;stroke-width:0.8;" x="186.809645" xlink:href="#med80aea453" y="304.2216"/>
      </g>
     </g>
    </g>
    <g id="xtick_2">
     <g id="line2d_2">
      <g>
       <use style="stroke:#000000;stroke-width:0.8;" x="315.870178" xlink:href="#med80aea453" y="304.2216"/>
      </g>
     </g>
    </g>
    <g id="xtick_3">
     <g id="line2d_3">
      <g>
       <use style="stroke:#000000;stroke-width:0.8;" x="444.930711" xlink:href="#med80aea453" y="304.2216"/>
      </g>
     </g>
    </g>
    <g id="xtick_4">
     <g id="line2d_4">
      <g>
       <use style="stroke:#000000;stroke-width:0.8;" x="573.991244" xlink:href="#med80aea453" y="304.2216"/>
      </g>
     </g>
    </g>
    <g id="xtick_5">
     <g id="line2d_5">
      <g>
       <use style="stroke:#000000;stroke-width:0.8;" x="703.051777" xlink:href="#med80aea453" y="304.2216"/>
      </g>
     </g>
    </g>
   </g>
   <g id="matplotlib.axis_2">
    <g id="ytick_1">
     <g id="line2d_6">
      <defs>
       <path d="M 0 0 
L -3.5 0 
" id="m6a4f5a460d" style="stroke:#000000;stroke-width:0.8;"/>
      </defs>
      <g>
       <use style="stroke:#000000;stroke-width:0.8;" x="98.64" xlink:href="#m6a4f5a460d" y="294.52944"/>
      </g>
     </g>
     <g id="text_1">
      <!-- 0.65 -->
      <g transform="translate(69.374375 298.328659)scale(0.1 -0.1)">
       <defs>
        <path d="M 2034 4250 
Q 1547 4250 1301 3770 
Q 1056 3291 1056 2328 
Q 1056 1369 1301 889 
Q 1547 409 2034 409 
Q 2525 409 2770 889 
Q 3016 1369 3016 2328 
Q 3016 3291 2770 3770 
Q 2525 4250 2034 4250 
z
M 2034 4750 
Q 2819 4750 3233 4129 
Q 3647 3509 3647 2328 
Q 3647 1150 3233 529 
Q 2819 -91 2034 -91 
Q 1250 -91 836 529 
Q 422 1150 422 2328 
Q 422 3509 836 4129 
Q 1250 4750 2034 4750 
z
" id="DejaVuSans-30" transform="scale(0.015625)"/>
        <path d="M 684 794 
L 1344 794 
L 1344 0 
L 684 0 
L 684 794 
z
" id="DejaVuSans-2e" transform="scale(0.015625)"/>
        <path d="M 2113 2584 
Q 1688 2584 1439 2293 
Q 1191 2003 1191 1497 
Q 1191 994 1439 701 
Q 1688 409 2113 409 
Q 2538 409 2786 701 
Q 3034 994 3034 1497 
Q 3034 2003 2786 2293 
Q 2538 2584 2113 2584 
z
M 3366 4563 
L 3366 3988 
Q 3128 4100 2886 4159 
Q 2644 4219 2406 4219 
Q 1781 4219 1451 3797 
Q 1122 3375 1075 2522 
Q 1259 2794 1537 2939 
Q 1816 3084 2150 3084 
Q 2853 3084 3261 2657 
Q 3669 2231 3669 1497 
Q 3669 778 3244 343 
Q 2819 -91 2113 -91 
Q 1303 -91 875 529 
Q 447 1150 447 2328 
Q 447 3434 972 4092 
Q 1497 4750 2381 4750 
Q 2619 4750 2861 4703 
Q 3103 4656 3366 4563 
z
" id="DejaVuSans-36" transform="scale(0.015625)"/>
        <path d="M 691 4666 
L 3169 4666 
L 3169 4134 
L 1269 4134 
L 1269 2991 
Q 1406 3038 1543 3061 
Q 1681 3084 1819 3084 
Q 2600 3084 3056 2656 
Q 3513 2228 3513 1497 
Q 3513 744 3044 326 
Q 2575 -91 1722 -91 
Q 1428 -91 1123 -41 
Q 819 9 494 109 
L 494 744 
Q 775 591 1075 516 
Q 1375 441 1709 441 
Q 2250 441 2565 725 
Q 2881 1009 2881 1497 
Q 2881 1984 2565 2268 
Q 2250 2553 1709 2553 
Q 1456 2553 1204 2497 
Q 953 2441 691 2322 
L 691 4666 
z
" id="DejaVuSans-35" transform="scale(0.015625)"/>
       </defs>
       <use xlink:href="#DejaVuSans-30"/>
       <use x="63.623047" xlink:href="#DejaVuSans-2e"/>
       <use x="95.410156" xlink:href="#DejaVuSans-36"/>
       <use x="159.033203" xlink:href="#DejaVuSans-35"/>
      </g>
     </g>
    </g>
    <g id="ytick_2">
     <g id="line2d_7">
      <g>
       <use style="stroke:#000000;stroke-width:0.8;" x="98.64" xlink:href="#m6a4f5a460d" y="245.782721"/>
      </g>
     </g>
     <g id="text_2">
      <!-- 0.70 -->
      <g transform="translate(69.374375 249.58194)scale(0.1 -0.1)">
       <defs>
        <path d="M 525 4666 
L 3525 4666 
L 3525 4397 
L 1831 0 
L 1172 0 
L 2766 4134 
L 525 4134 
L 525 4666 
z
" id="DejaVuSans-37" transform="scale(0.015625)"/>
       </defs>
       <use xlink:href="#DejaVuSans-30"/>
       <use x="63.623047" xlink:href="#DejaVuSans-2e"/>
       <use x="95.410156" xlink:href="#DejaVuSans-37"/>
       <use x="159.033203" xlink:href="#DejaVuSans-30"/>
      </g>
     </g>
    </g>
    <g id="ytick_3">
     <g id="line2d_8">
      <g>
       <use style="stroke:#000000;stroke-width:0.8;" x="98.64" xlink:href="#m6a4f5a460d" y="197.036002"/>
      </g>
     </g>
     <g id="text_3">
      <!-- 0.75 -->
      <g transform="translate(69.374375 200.835221)scale(0.1 -0.1)">
       <use xlink:href="#DejaVuSans-30"/>
       <use x="63.623047" xlink:href="#DejaVuSans-2e"/>
       <use x="95.410156" xlink:href="#DejaVuSans-37"/>
       <use x="159.033203" xlink:href="#DejaVuSans-35"/>
      </g>
     </g>
    </g>
    <g id="ytick_4">
     <g id="line2d_9">
      <g>
       <use style="stroke:#000000;stroke-width:0.8;" x="98.64" xlink:href="#m6a4f5a460d" y="148.289282"/>
      </g>
     </g>
     <g id="text_4">
      <!-- 0.80 -->
      <g transform="translate(69.374375 152.088501)scale(0.1 -0.1)">
       <defs>
        <path d="M 2034 2216 
Q 1584 2216 1326 1975 
Q 1069 1734 1069 1313 
Q 1069 891 1326 650 
Q 1584 409 2034 409 
Q 2484 409 2743 651 
Q 3003 894 3003 1313 
Q 3003 1734 2745 1975 
Q 2488 2216 2034 2216 
z
M 1403 2484 
Q 997 2584 770 2862 
Q 544 3141 544 3541 
Q 544 4100 942 4425 
Q 1341 4750 2034 4750 
Q 2731 4750 3128 4425 
Q 3525 4100 3525 3541 
Q 3525 3141 3298 2862 
Q 3072 2584 2669 2484 
Q 3125 2378 3379 2068 
Q 3634 1759 3634 1313 
Q 3634 634 3220 271 
Q 2806 -91 2034 -91 
Q 1263 -91 848 271 
Q 434 634 434 1313 
Q 434 1759 690 2068 
Q 947 2378 1403 2484 
z
M 1172 3481 
Q 1172 3119 1398 2916 
Q 1625 2713 2034 2713 
Q 2441 2713 2670 2916 
Q 2900 3119 2900 3481 
Q 2900 3844 2670 4047 
Q 2441 4250 2034 4250 
Q 1625 4250 1398 4047 
Q 1172 3844 1172 3481 
z
" id="DejaVuSans-38" transform="scale(0.015625)"/>
       </defs>
       <use xlink:href="#DejaVuSans-30"/>
       <use x="63.623047" xlink:href="#DejaVuSans-2e"/>
       <use x="95.410156" xlink:href="#DejaVuSans-38"/>
       <use x="159.033203" xlink:href="#DejaVuSans-30"/>
      </g>
     </g>
    </g>
    <g id="ytick_5">
     <g id="line2d_10">
      <g>
       <use style="stroke:#000000;stroke-width:0.8;" x="98.64" xlink:href="#m6a4f5a460d" y="99.542563"/>
      </g>
     </g>
     <g id="text_5">
      <!-- 0.85 -->
      <g transform="translate(69.374375 103.341782)scale(0.1 -0.1)">
       <use xlink:href="#DejaVuSans-30"/>
       <use x="63.623047" xlink:href="#DejaVuSans-2e"/>
       <use x="95.410156" xlink:href="#DejaVuSans-38"/>
       <use x="159.033203" xlink:href="#DejaVuSans-35"/>
      </g>
     </g>
    </g>
    <g id="text_6">
     <!-- v -->
     <g transform="translate(63.294688 193.906975)rotate(-90)scale(0.1 -0.1)">
      <defs>
       <path d="M 191 3500 
L 800 3500 
L 1894 563 
L 2988 3500 
L 3597 3500 
L 2284 0 
L 1503 0 
L 191 3500 
z
" id="DejaVuSans-76" transform="scale(0.015625)"/>
      </defs>
      <use xlink:href="#DejaVuSans-76"/>
     </g>
    </g>
   </g>
   <g id="line2d_11"/>
   <g id="line2d_12">
    <path clip-path="url(#p0a1610c1d9)" d="M 445.154152 256.946078 
L 467.329566 256.830713 
L 489.422441 256.490562 
L 511.359393 255.92957 
L 533.070187 255.154217 
L 555.007209 254.147218 
L 576.572905 252.937593 
L 598.206658 251.505858 
L 620.305184 249.820353 
L 642.737769 247.885364 
L 665.819545 245.671815 
L 690.653341 243.064146 
L 710.20901 240.874044 
L 710.20901 240.874044 
" style="fill:none;stroke:#1f77b4;stroke-linecap:square;stroke-width:1.5;"/>
   </g>
   <g id="line2d_13">
    <path clip-path="url(#p0a1610c1d9)" d="M 790.12 245.090705 
L 777.967041 245.129078 
L 764.746316 244.951007 
L 750.884178 244.542823 
L 736.44121 243.898431 
L 720.89493 242.976077 
L 704.860497 241.795839 
L 688.408743 240.360952 
L 671.609446 238.677532 
L 653.893652 236.678534 
L 635.950688 234.433718 
L 617.202418 231.864808 
L 597.709724 228.964864 
L 578.194383 225.839552 
L 558.082507 222.397455 
L 537.458804 218.645065 
L 516.417768 214.59426 
L 494.441204 210.133058 
L 472.292448 205.407697 
L 449.511683 200.315652 
L 426.870066 195.028757 
L 403.433312 189.325044 
L 380.05175 183.405269 
L 356.531225 177.222418 
L 332.860505 170.771069 
L 309.269248 164.112671 
L 285.618658 157.206109 
L 262.192357 150.132015 
L 239.226046 142.964586 
L 226.982427 139.046218 
L 226.982427 139.046218 
" style="fill:none;stroke:#1f77b4;stroke-dasharray:5.55,2.4;stroke-dashoffset:0;stroke-width:1.5;"/>
   </g>
   <g id="line2d_14"/>
   <g id="line2d_15">
    <path clip-path="url(#p0a1610c1d9)" d="M 444.019723 256.945899 
L 422.021874 256.825398 
L 400.09251 256.483433 
L 378.301886 255.923424 
L 356.194562 255.129805 
L 334.37318 254.122612 
L 312.395535 252.882811 
L 290.352105 251.412711 
L 268.335257 249.72076 
L 245.968919 247.779847 
L 222.487259 245.515101 
L 197.281592 242.853194 
L 167.920591 239.516465 
L 95.681874 231.186389 
L 79.182163 229.583904 
L 66.022807 228.521507 
L 55.035936 227.852348 
L 45.792186 227.509385 
L 38.151344 227.442921 
L 31.788638 227.606481 
L 26.768439 227.948338 
L 22.797217 228.432514 
L 19.87296 228.997887 
L 18.648061 229.325487 
L 18.648061 229.325487 
" style="fill:none;stroke:#1f77b4;stroke-linecap:square;stroke-width:1.5;"/>
   </g>
   <g id="line2d_16">
    <path clip-path="url(#p0a1610c1d9)" d="M 18.560582 229.351894 
L 16.886153 229.975184 
L 15.791806 230.609163 
L 15.195003 231.195041 
L 14.931503 231.745183 
L 14.914488 232.284479 
L 15.124129 232.846491 
L 15.606322 233.47117 
L 16.4827 234.203429 
L 17.8019 235.001628 
L 19.750952 235.908585 
L 22.495715 236.919962 
L 26.051687 237.978895 
L 30.52226 239.068776 
L 36.012883 240.167849 
L 42.357181 241.208667 
L 49.856818 242.206003 
L 58.263745 243.092854 
L 67.557833 243.846141 
L 77.711094 244.444252 
L 88.688184 244.867524 
L 100.447135 245.098654 
L 112.94026 245.123017 
L 126.11518 244.928881 
L 139.915891 244.507522 
L 154.84696 243.823371 
L 170.3224 242.885018 
L 186.274121 241.692682 
L 202.634311 240.249582 
L 219.960424 238.494537 
L 237.581246 236.485547 
L 256.067076 234.149631 
L 274.718613 231.569215 
L 294.111517 228.660854 
L 314.176776 225.422065 
L 334.834684 221.85546 
L 355.994966 217.969118 
L 377.556925 213.776897 
L 399.409582 209.298689 
L 421.431801 204.560608 
L 444.079728 199.460015 
L 467.150976 194.033454 
L 490.413184 188.332191 
L 514.115321 182.290459 
L 537.861994 176.005055 
L 561.635204 169.481146 
L 585.170023 162.794018 
L 608.874915 155.825914 
L 632.151107 148.751568 
L 655.087489 141.547746 
L 662.878755 139.046316 
L 662.878755 139.046316 
" style="fill:none;stroke:#1f77b4;stroke-dasharray:5.55,2.4;stroke-dashoffset:0;stroke-width:1.5;"/>
   </g>
   <g id="line2d_17"/>
   <g id="line2d_18">
    <path clip-path="url(#p0a1610c1d9)" d="M 445.15293 293.034423 
L 445.377392 293.21686 
L 445.581098 293.382388 
L 445.761888 293.529262 
L 445.917522 293.655673 
L 446.045728 293.759789 
L 446.144308 293.839834 
L 446.211273 293.8942 
L 446.244998 293.921574 
" style="fill:none;stroke:#2ca02c;stroke-linecap:square;stroke-width:1.5;"/>
   </g>
   <g id="line2d_19">
    <path clip-path="url(#p0a1610c1d9)" d="M 446.244371 293.921056 
L 428.802622 279.617239 
L 411.176019 264.87572 
L 390.914807 247.6311 
L 340.372146 204.447076 
L 326.783109 193.234008 
L 315.175327 183.93853 
L 304.532409 175.696998 
L 294.341432 168.094555 
L 285.159051 161.510876 
L 275.920762 155.159942 
L 267.181705 149.416802 
L 258.40949 143.92033 
L 250.167093 139.007745 
L 241.921462 134.342752 
L 233.691071 129.939748 
L 225.49946 125.813119 
L 217.376514 121.977521 
L 209.360223 118.448216 
L 201.499128 115.241447 
L 193.855743 112.374841 
L 186.511389 109.867813 
L 179.572986 107.741875 
L 173.182429 106.020621 
L 167.528835 104.728915 
L 162.862357 103.890232 
L 159.679288 103.53032 
L 158.089767 103.545749 
L 157.719593 103.71424 
L 157.797088 103.878947 
L 158.221382 104.131358 
L 159.559758 104.606622 
L 162.044845 105.238577 
L 166.358886 106.080642 
L 171.978679 106.944486 
L 179.301136 107.835382 
L 187.64498 108.628633 
L 197.501017 109.339313 
L 208.799499 109.917389 
L 220.644503 110.302467 
L 233.695609 110.507742 
L 247.871827 110.508875 
L 263.08698 110.288529 
L 279.251306 109.836213 
L 297.121647 109.108599 
L 315.739762 108.130006 
L 336.657367 106.800341 
L 358.853369 105.165538 
L 384.503719 103.046085 
L 415.400764 100.257695 
L 508.343463 91.701257 
L 528.110268 90.206979 
L 544.429653 89.18684 
L 558.661606 88.50863 
L 571.765548 88.103975 
L 582.993642 87.971304 
L 585.129985 87.994662 
L 579.10951 88.076829 
L 566.156228 88.353554 
L 552.827009 88.864058 
L 538.405487 89.638512 
L 521.81927 90.753421 
L 501.618253 92.346727 
L 475.982585 94.606052 
L 424.301795 99.451803 
L 387.393418 102.791189 
L 360.475417 105.012822 
L 337.070078 106.729229 
L 315.823518 108.068526 
L 296.076798 109.089313 
L 278.00023 109.802085 
L 260.830316 110.25136 
L 245.588192 110.435345 
L 231.475465 110.397133 
L 217.747779 110.135368 
L 205.412711 109.676152 
L 194.568581 109.060248 
L 184.605617 108.275834 
L 175.800138 107.353792 
L 168.926805 106.422847 
L 163.551644 105.487859 
L 159.859787 104.633397 
L 158.120519 104.041904 
L 157.637242 103.687613 
L 157.6415 103.62763 
L 157.6415 103.62763 
" style="fill:none;stroke:#2ca02c;stroke-dasharray:5.55,2.4;stroke-dashoffset:0;stroke-width:1.5;"/>
   </g>
   <g id="line2d_20">
    <path clip-path="url(#p0a1610c1d9)" d="M 157.658493 103.600386 
L 157.889185 103.492788 
L 158.743528 103.425939 
L 160.587492 103.538557 
L 163.806101 103.979201 
L 168.340433 104.84523 
L 173.764322 106.117679 
L 179.89874 107.790291 
L 186.593255 109.851716 
L 193.723882 112.287882 
L 201.189362 115.083405 
L 208.90726 118.222342 
L 216.81048 121.688547 
L 224.844352 125.465795 
L 232.964283 129.537765 
L 241.133907 133.887965 
L 249.323615 138.49962 
L 257.509405 143.355558 
L 266.298424 148.837942 
L 275.041527 154.560311 
L 283.72411 160.499 
L 292.947397 167.074057 
L 302.684549 174.294996 
L 312.907818 182.159329 
L 324.178305 191.125659 
L 336.440179 201.175286 
L 350.767762 213.211096 
L 371.421712 230.882094 
L 407.933447 262.136929 
L 426.483917 277.695106 
L 444.152674 292.22086 
L 446.247944 293.923964 
L 446.247944 293.923964 
" style="fill:none;stroke:#2ca02c;stroke-linecap:square;stroke-width:1.5;"/>
   </g>
   <g id="line2d_21">
    <path clip-path="url(#p0a1610c1d9)" d="M 446.239243 293.916891 
L 428.695532 279.52853 
L 411.063456 264.780715 
L 390.799435 247.532224 
L 340.252499 204.347059 
L 326.662242 193.135752 
L 315.05335 183.842463 
L 304.409379 175.603466 
L 294.755737 168.39772 
L 285.034151 161.423152 
L 275.795067 155.075487 
L 267.055371 149.335714 
L 258.282672 143.84288 
L 250.040014 138.933945 
L 241.794371 134.272827 
L 233.564287 129.873925 
L 225.373391 125.751626 
L 217.25168 121.920595 
L 209.23729 118.396108 
L 201.37895 115.194426 
L 193.739429 112.333201 
L 186.40039 109.831882 
L 179.469221 107.712013 
L 173.088454 105.997218 
L 167.448053 104.712366 
L 162.799224 103.880873 
L 159.637615 103.527801 
L 158.070751 103.548924 
L 157.717781 103.720944 
L 157.806746 103.887679 
L 158.354532 104.190055 
L 159.809637 104.679443 
L 162.740685 105.39036 
L 167.311512 106.24178 
L 173.152241 107.102484 
L 180.668629 107.979659 
L 189.162587 108.75254 
L 199.139722 109.437571 
L 210.53181 109.986831 
L 223.250793 110.360647 
L 236.369605 110.524603 
L 250.590472 110.485416 
L 265.830188 110.226776 
L 282.853153 109.707752 
L 300.711133 108.936449 
L 320.137968 107.869394 
L 340.989031 106.49806 
L 363.90288 104.765938 
L 390.184485 102.549636 
L 423.070925 99.538996 
L 500.366387 92.364195 
L 521.79976 90.657495 
L 539.055477 89.497249 
L 554.164752 88.698482 
L 567.683647 88.204556 
L 579.612259 87.985122 
L 585.128275 87.992802 
L 576.130384 88.121239 
L 563.050697 88.452776 
L 549.441288 89.026861 
L 534.204623 89.900678 
L 516.730276 91.133908 
L 495.535504 92.863786 
L 467.343075 95.403498 
L 419.411089 99.907324 
L 419.411089 99.907324 
" style="fill:none;stroke:#2ca02c;stroke-dasharray:5.55,2.4;stroke-dashoffset:0;stroke-width:1.5;"/>
   </g>
   <g id="line2d_22">
    <path clip-path="url(#p0a1610c1d9)" d="M 445.212041 292.624975 
L 462.555072 278.377759 
L 480.529738 263.319726 
L 501.268558 245.643405 
L 547.787515 205.876218 
L 561.708278 194.352957 
L 573.514081 184.864798 
L 584.296109 176.483014 
L 594.000674 169.205427 
L 603.811953 162.131382 
L 613.097764 155.718263 
L 621.829987 149.951176 
L 630.611344 144.419466 
L 638.793716 139.513741 
L 646.984484 134.848584 
L 655.160716 130.441266 
L 663.294082 126.308638 
L 671.349764 122.467242 
L 679.285064 118.933428 
L 687.047632 115.723437 
L 694.573242 112.853438 
L 701.782997 110.339436 
L 708.57996 108.196983 
L 714.845311 106.440519 
L 720.831675 104.994395 
L 725.816075 104.019005 
L 729.544933 103.51241 
L 731.532881 103.436776 
L 732.183246 103.580762 
L 732.207772 103.606573 
L 732.207772 103.606573 
" style="fill:none;stroke:#d62728;stroke-linecap:square;stroke-width:1.5;"/>
   </g>
   <g id="line2d_23">
    <path clip-path="url(#p0a1610c1d9)" d="M 732.222466 103.634249 
L 732.146091 103.799538 
L 731.717256 104.052779 
L 730.367169 104.52857 
L 727.866184 105.160326 
L 723.516824 106.003867 
L 717.812375 106.874264 
L 710.303569 107.778311 
L 701.652269 108.587225 
L 692.096482 109.265044 
L 681.033924 109.826912 
L 668.531656 110.227161 
L 655.561666 110.422336 
L 641.391956 110.41749 
L 626.118209 110.19223 
L 609.84379 109.734085 
L 591.775254 108.996378 
L 572.94184 108.005199 
L 552.591374 106.715566 
L 530.047538 105.064358 
L 503.934495 102.917846 
L 472.427351 100.090636 
L 382.927083 91.90739 
L 363.059674 90.39706 
L 346.221864 89.333734 
L 331.642106 88.631472 
L 318.36955 88.212786 
L 304.730469 87.993972 
L 335.954081 88.710067 
L 350.515098 89.479766 
L 367.154835 90.591078 
L 386.639182 92.12357 
L 411.235988 94.290994 
L 453.857017 98.313749 
L 497.689315 102.373961 
L 525.521932 104.730948 
L 549.253651 106.525011 
L 570.951835 107.943248 
L 590.390829 108.996876 
L 608.253698 109.753254 
L 625.273975 110.255544 
L 641.344469 110.503964 
L 656.357845 110.506217 
L 670.206376 110.277996 
L 682.782617 109.84364 
L 693.982218 109.236829 
L 703.710839 108.500934 
L 712.486335 107.62138 
L 720.001385 106.641498 
L 725.554818 105.70668 
L 729.48792 104.834073 
L 731.558998 104.167646 
L 732.129311 103.800039 
L 732.098224 103.655108 
L 731.752254 103.542695 
L 730.805247 103.503447 
L 728.698171 103.664901 
L 725.199033 104.182382 
L 720.458418 105.129154 
L 714.9413 106.463862 
L 708.834081 108.166629 
L 702.279741 110.217346 
L 695.387638 112.59711 
L 688.241838 115.288638 
L 680.907513 118.276225 
L 673.435663 121.545522 
L 665.323062 125.345876 
L 657.137781 129.439027 
L 648.910558 133.810263 
L 640.665608 138.445183 
L 632.421946 143.329401 
L 623.64674 148.797543 
L 614.903432 154.514416 
L 606.201942 160.460971 
L 597.010025 167.00851 
L 587.342792 174.171283 
L 577.214374 181.954684 
L 566.110623 190.777812 
L 554.055597 200.644937 
L 539.522088 212.842971 
L 519.017321 230.38107 
L 481.500254 262.496922 
L 462.806762 278.167966 
L 445.264051 292.582499 
L 443.613806 293.923693 
L 443.613806 293.923693 
" style="fill:none;stroke:#d62728;stroke-dasharray:5.55,2.4;stroke-dashoffset:0;stroke-width:1.5;"/>
   </g>
   <g id="line2d_24">
    <path clip-path="url(#p0a1610c1d9)" d="M 443.621229 293.917675 
L 443.662798 293.883931 
L 443.737272 293.823467 
L 443.842927 293.737675 
L 443.97771 293.628214 
L 444.139396 293.496881 
L 444.325711 293.345511 
L 444.534435 293.175896 
L 444.763464 292.989734 
" style="fill:none;stroke:#d62728;stroke-linecap:square;stroke-width:1.5;"/>
   </g>
   <g id="line2d_25">
    <defs>
     <path d="M 0 3 
C 0.795609 3 1.55874 2.683901 2.12132 2.12132 
C 2.683901 1.55874 3 0.795609 3 0 
C 3 -0.795609 2.683901 -1.55874 2.12132 -2.12132 
C 1.55874 -2.683901 0.795609 -3 0 -3 
C -0.795609 -3 -1.55874 -2.683901 -2.12132 -2.12132 
C -2.683901 -1.55874 -3 -0.795609 -3 0 
C -3 0.795609 -2.683901 1.55874 -2.12132 2.12132 
C -1.55874 2.683901 -0.795609 3 0 3 
z
" id="m4016f99562" style="stroke:#000000;"/>
    </defs>
    <g clip-path="url(#p0a1610c1d9)">
     <use style="stroke:#000000;" x="445.15293" xlink:href="#m4016f99562" y="293.034423"/>
    </g>
   </g>
   <g id="line2d_26">
    <g clip-path="url(#p0a1610c1d9)">
     <use style="stroke:#000000;" x="159.021346" xlink:href="#m4016f99562" y="103.502752"/>
    </g>
   </g>
   <g id="line2d_27">
    <g clip-path="url(#p0a1610c1d9)">
     <use style="stroke:#000000;" x="576.258353" xlink:href="#m4016f99562" y="88.119111"/>
    </g>
   </g>
   <g id="line2d_28">
    <g clip-path="url(#p0a1610c1d9)">
     <use style="stroke:#000000;" x="157.658493" xlink:href="#m4016f99562" y="103.600386"/>
    </g>
   </g>
   <g id="patch_3">
    <path d="M 98.64 304.2216 
L 98.64 77.6736 
" style="fill:none;stroke:#000000;stroke-linecap:square;stroke-linejoin:miter;stroke-width:0.8;"/>
   </g>
   <g id="patch_4">
    <path d="M 710.208 304.2216 
L 710.208 77.6736 
" style="fill:none;stroke:#000000;stroke-linecap:square;stroke-linejoin:miter;stroke-width:0.8;"/>
   </g>
   <g id="patch_5">
    <path d="M 98.64 304.2216 
L 710.208 304.2216 
" style="fill:none;stroke:#000000;stroke-linecap:square;stroke-linejoin:miter;stroke-width:0.8;"/>
   </g>
   <g id="patch_6">
    <path d="M 98.64 77.6736 
L 710.208 77.6736 
" style="fill:none;stroke:#000000;stroke-linecap:square;stroke-linejoin:miter;stroke-width:0.8;"/>
   </g>
  </g>
  <g id="axes_2">
   <g id="patch_7">
    <path d="M 98.64 576.0792 
L 710.208 576.0792 
L 710.208 349.5312 
L 98.64 349.5312 
z
" style="fill:#ffffff;"/>
   </g>
   <g id="matplotlib.axis_3">
    <g id="xtick_6">
     <g id="line2d_29">
      <g>
       <use style="stroke:#000000;stroke-width:0.8;" x="186.809645" xlink:href="#med80aea453" y="576.0792"/>
      </g>
     </g>
     <g id="text_7">
      <!-- −0.02 -->
      <g transform="translate(171.486989 590.677637)scale(0.1 -0.1)">
       <defs>
        <path d="M 678 2272 
L 4684 2272 
L 4684 1741 
L 678 1741 
L 678 2272 
z
" id="DejaVuSans-2212" transform="scale(0.015625)"/>
        <path d="M 1228 531 
L 3431 531 
L 3431 0 
L 469 0 
L 469 531 
Q 828 903 1448 1529 
Q 2069 2156 2228 2338 
Q 2531 2678 2651 2914 
Q 2772 3150 2772 3378 
Q 2772 3750 2511 3984 
Q 2250 4219 1831 4219 
Q 1534 4219 1204 4116 
Q 875 4013 500 3803 
L 500 4441 
Q 881 4594 1212 4672 
Q 1544 4750 1819 4750 
Q 2544 4750 2975 4387 
Q 3406 4025 3406 3419 
Q 3406 3131 3298 2873 
Q 3191 2616 2906 2266 
Q 2828 2175 2409 1742 
Q 1991 1309 1228 531 
z
" id="DejaVuSans-32" transform="scale(0.015625)"/>
       </defs>
       <use xlink:href="#DejaVuSans-2212"/>
       <use x="83.789062" xlink:href="#DejaVuSans-30"/>
       <use x="147.412109" xlink:href="#DejaVuSans-2e"/>
       <use x="179.199219" xlink:href="#DejaVuSans-30"/>
       <use x="242.822266" xlink:href="#DejaVuSans-32"/>
      </g>
     </g>
    </g>
    <g id="xtick_7">
     <g id="line2d_30">
      <g>
       <use style="stroke:#000000;stroke-width:0.8;" x="315.870178" xlink:href="#med80aea453" y="576.0792"/>
      </g>
     </g>
     <g id="text_8">
      <!-- −0.01 -->
      <g transform="translate(300.547522 590.677637)scale(0.1 -0.1)">
       <defs>
        <path d="M 794 531 
L 1825 531 
L 1825 4091 
L 703 3866 
L 703 4441 
L 1819 4666 
L 2450 4666 
L 2450 531 
L 3481 531 
L 3481 0 
L 794 0 
L 794 531 
z
" id="DejaVuSans-31" transform="scale(0.015625)"/>
       </defs>
       <use xlink:href="#DejaVuSans-2212"/>
       <use x="83.789062" xlink:href="#DejaVuSans-30"/>
       <use x="147.412109" xlink:href="#DejaVuSans-2e"/>
       <use x="179.199219" xlink:href="#DejaVuSans-30"/>
       <use x="242.822266" xlink:href="#DejaVuSans-31"/>
      </g>
     </g>
    </g>
    <g id="xtick_8">
     <g id="line2d_31">
      <g>
       <use style="stroke:#000000;stroke-width:0.8;" x="444.930711" xlink:href="#med80aea453" y="576.0792"/>
      </g>
     </g>
     <g id="text_9">
      <!-- 0.00 -->
      <g transform="translate(433.797898 590.677637)scale(0.1 -0.1)">
       <use xlink:href="#DejaVuSans-30"/>
       <use x="63.623047" xlink:href="#DejaVuSans-2e"/>
       <use x="95.410156" xlink:href="#DejaVuSans-30"/>
       <use x="159.033203" xlink:href="#DejaVuSans-30"/>
      </g>
     </g>
    </g>
    <g id="xtick_9">
     <g id="line2d_32">
      <g>
       <use style="stroke:#000000;stroke-width:0.8;" x="573.991244" xlink:href="#med80aea453" y="576.0792"/>
      </g>
     </g>
     <g id="text_10">
      <!-- 0.01 -->
      <g transform="translate(562.858432 590.677637)scale(0.1 -0.1)">
       <use xlink:href="#DejaVuSans-30"/>
       <use x="63.623047" xlink:href="#DejaVuSans-2e"/>
       <use x="95.410156" xlink:href="#DejaVuSans-30"/>
       <use x="159.033203" xlink:href="#DejaVuSans-31"/>
      </g>
     </g>
    </g>
    <g id="xtick_10">
     <g id="line2d_33">
      <g>
       <use style="stroke:#000000;stroke-width:0.8;" x="703.051777" xlink:href="#med80aea453" y="576.0792"/>
      </g>
     </g>
     <g id="text_11">
      <!-- 0.02 -->
      <g transform="translate(691.918965 590.677637)scale(0.1 -0.1)">
       <use xlink:href="#DejaVuSans-30"/>
       <use x="63.623047" xlink:href="#DejaVuSans-2e"/>
       <use x="95.410156" xlink:href="#DejaVuSans-30"/>
       <use x="159.033203" xlink:href="#DejaVuSans-32"/>
      </g>
     </g>
    </g>
    <g id="text_12">
     <!-- eta -->
     <g transform="translate(396.323219 604.355762)scale(0.1 -0.1)">
      <defs>
       <path d="M 3597 1894 
L 3597 1613 
L 953 1613 
Q 991 1019 1311 708 
Q 1631 397 2203 397 
Q 2534 397 2845 478 
Q 3156 559 3463 722 
L 3463 178 
Q 3153 47 2828 -22 
Q 2503 -91 2169 -91 
Q 1331 -91 842 396 
Q 353 884 353 1716 
Q 353 2575 817 3079 
Q 1281 3584 2069 3584 
Q 2775 3584 3186 3129 
Q 3597 2675 3597 1894 
z
M 3022 2063 
Q 3016 2534 2758 2815 
Q 2500 3097 2075 3097 
Q 1594 3097 1305 2825 
Q 1016 2553 972 2059 
L 3022 2063 
z
" id="DejaVuSans-65" transform="scale(0.015625)"/>
       <path d="M 1172 4494 
L 1172 3500 
L 2356 3500 
L 2356 3053 
L 1172 3053 
L 1172 1153 
Q 1172 725 1289 603 
Q 1406 481 1766 481 
L 2356 481 
L 2356 0 
L 1766 0 
Q 1100 0 847 248 
Q 594 497 594 1153 
L 594 3053 
L 172 3053 
L 172 3500 
L 594 3500 
L 594 4494 
L 1172 4494 
z
" id="DejaVuSans-74" transform="scale(0.015625)"/>
       <path d="M 2194 1759 
Q 1497 1759 1228 1600 
Q 959 1441 959 1056 
Q 959 750 1161 570 
Q 1363 391 1709 391 
Q 2188 391 2477 730 
Q 2766 1069 2766 1631 
L 2766 1759 
L 2194 1759 
z
M 3341 1997 
L 3341 0 
L 2766 0 
L 2766 531 
Q 2569 213 2275 61 
Q 1981 -91 1556 -91 
Q 1019 -91 701 211 
Q 384 513 384 1019 
Q 384 1609 779 1909 
Q 1175 2209 1959 2209 
L 2766 2209 
L 2766 2266 
Q 2766 2663 2505 2880 
Q 2244 3097 1772 3097 
Q 1472 3097 1187 3025 
Q 903 2953 641 2809 
L 641 3341 
Q 956 3463 1253 3523 
Q 1550 3584 1831 3584 
Q 2591 3584 2966 3190 
Q 3341 2797 3341 1997 
z
" id="DejaVuSans-61" transform="scale(0.015625)"/>
      </defs>
      <use xlink:href="#DejaVuSans-65"/>
      <use x="61.523438" xlink:href="#DejaVuSans-74"/>
      <use x="100.732422" xlink:href="#DejaVuSans-61"/>
     </g>
    </g>
   </g>
   <g id="matplotlib.axis_4">
    <g id="ytick_6">
     <g id="line2d_34">
      <g>
       <use style="stroke:#000000;stroke-width:0.8;" x="98.64" xlink:href="#m6a4f5a460d" y="538.345479"/>
      </g>
     </g>
     <g id="text_13">
      <!-- 0.070 -->
      <g transform="translate(63.011875 542.144697)scale(0.1 -0.1)">
       <use xlink:href="#DejaVuSans-30"/>
       <use x="63.623047" xlink:href="#DejaVuSans-2e"/>
       <use x="95.410156" xlink:href="#DejaVuSans-30"/>
       <use x="159.033203" xlink:href="#DejaVuSans-37"/>
       <use x="222.65625" xlink:href="#DejaVuSans-30"/>
      </g>
     </g>
    </g>
    <g id="ytick_7">
     <g id="line2d_35">
      <g>
       <use style="stroke:#000000;stroke-width:0.8;" x="98.64" xlink:href="#m6a4f5a460d" y="490.314307"/>
      </g>
     </g>
     <g id="text_14">
      <!-- 0.072 -->
      <g transform="translate(63.011875 494.113525)scale(0.1 -0.1)">
       <use xlink:href="#DejaVuSans-30"/>
       <use x="63.623047" xlink:href="#DejaVuSans-2e"/>
       <use x="95.410156" xlink:href="#DejaVuSans-30"/>
       <use x="159.033203" xlink:href="#DejaVuSans-37"/>
       <use x="222.65625" xlink:href="#DejaVuSans-32"/>
      </g>
     </g>
    </g>
    <g id="ytick_8">
     <g id="line2d_36">
      <g>
       <use style="stroke:#000000;stroke-width:0.8;" x="98.64" xlink:href="#m6a4f5a460d" y="442.283135"/>
      </g>
     </g>
     <g id="text_15">
      <!-- 0.074 -->
      <g transform="translate(63.011875 446.082353)scale(0.1 -0.1)">
       <defs>
        <path d="M 2419 4116 
L 825 1625 
L 2419 1625 
L 2419 4116 
z
M 2253 4666 
L 3047 4666 
L 3047 1625 
L 3713 1625 
L 3713 1100 
L 3047 1100 
L 3047 0 
L 2419 0 
L 2419 1100 
L 313 1100 
L 313 1709 
L 2253 4666 
z
" id="DejaVuSans-34" transform="scale(0.015625)"/>
       </defs>
       <use xlink:href="#DejaVuSans-30"/>
       <use x="63.623047" xlink:href="#DejaVuSans-2e"/>
       <use x="95.410156" xlink:href="#DejaVuSans-30"/>
       <use x="159.033203" xlink:href="#DejaVuSans-37"/>
       <use x="222.65625" xlink:href="#DejaVuSans-34"/>
      </g>
     </g>
    </g>
    <g id="ytick_9">
     <g id="line2d_37">
      <g>
       <use style="stroke:#000000;stroke-width:0.8;" x="98.64" xlink:href="#m6a4f5a460d" y="394.251963"/>
      </g>
     </g>
     <g id="text_16">
      <!-- 0.076 -->
      <g transform="translate(63.011875 398.051182)scale(0.1 -0.1)">
       <use xlink:href="#DejaVuSans-30"/>
       <use x="63.623047" xlink:href="#DejaVuSans-2e"/>
       <use x="95.410156" xlink:href="#DejaVuSans-30"/>
       <use x="159.033203" xlink:href="#DejaVuSans-37"/>
       <use x="222.65625" xlink:href="#DejaVuSans-36"/>
      </g>
     </g>
    </g>
    <g id="text_17">
     <!-- L2* -->
     <g transform="translate(56.932188 471.272387)rotate(-90)scale(0.1 -0.1)">
      <defs>
       <path d="M 628 4666 
L 1259 4666 
L 1259 531 
L 3531 531 
L 3531 0 
L 628 0 
L 628 4666 
z
" id="DejaVuSans-4c" transform="scale(0.015625)"/>
       <path d="M 3009 3897 
L 1888 3291 
L 3009 2681 
L 2828 2375 
L 1778 3009 
L 1778 1831 
L 1422 1831 
L 1422 3009 
L 372 2375 
L 191 2681 
L 1313 3291 
L 191 3897 
L 372 4206 
L 1422 3572 
L 1422 4750 
L 1778 4750 
L 1778 3572 
L 2828 4206 
L 3009 3897 
z
" id="DejaVuSans-2a" transform="scale(0.015625)"/>
      </defs>
      <use xlink:href="#DejaVuSans-4c"/>
      <use x="55.712891" xlink:href="#DejaVuSans-32"/>
      <use x="119.335938" xlink:href="#DejaVuSans-2a"/>
     </g>
    </g>
   </g>
   <g id="line2d_38"/>
   <g id="line2d_39">
    <path clip-path="url(#pc84f813e82)" d="M 445.154152 51.420366 
L 586.603802 -1 
L 586.603802 -1 
" style="fill:none;stroke:#1f77b4;stroke-linecap:square;stroke-width:1.5;"/>
   </g>
   <g id="line2d_40">
    <path clip-path="url(#pc84f813e82)" d="M 0 0 
" style="fill:none;stroke:#1f77b4;stroke-dasharray:5.55,2.4;stroke-dashoffset:0;stroke-width:1.5;"/>
   </g>
   <g id="line2d_41"/>
   <g id="line2d_42">
    <path clip-path="url(#pc84f813e82)" d="M 444.019723 51.840098 
L 399.559099 68.40917 
L 365.638046 81.280189 
L 336.437289 92.592729 
L 310.372041 102.924644 
L 286.397339 112.665888 
L 264.481298 121.806943 
L 244.096825 130.544618 
L 224.751508 139.077897 
L 206.876031 147.200718 
L 189.985944 155.114236 
L 174.059399 162.81704 
L 159.071725 170.308202 
L 144.996882 177.587139 
L 131.808546 184.653493 
L 119.480837 191.507035 
L 107.98873 198.147592 
L 97.308188 204.574995 
L 87.416087 210.789048 
L 78.586856 216.589729 
L 70.471444 222.177539 
L 63.046839 227.552332 
L 56.289518 232.713985 
L 50.175102 237.662434 
L 44.678071 242.397703 
L 39.771537 246.919935 
L 35.427094 251.229427 
L 31.614752 255.326651 
L 28.302953 259.212278 
L 25.45867 262.887191 
L 23.047578 266.352493 
L 20.924072 269.800587 
L 19.193269 273.039938 
L 18.648061 274.178992 
L 18.648061 274.178992 
" style="fill:none;stroke:#1f77b4;stroke-linecap:square;stroke-width:1.5;"/>
   </g>
   <g id="line2d_43">
    <path clip-path="url(#pc84f813e82)" d="M 18.560582 274.36861 
L 17.294793 277.393511 
L 16.342193 280.213203 
L 15.623384 283.016154 
L 15.145449 285.801222 
L 14.922888 288.383436 
L 14.921882 290.948031 
L 15.147918 293.493965 
L 15.606322 296.020166 
L 16.302211 298.525534 
L 17.240454 301.008943 
L 18.425625 303.469244 
L 19.861962 305.905275 
L 21.553317 308.315861 
L 23.503116 310.699823 
L 25.714314 313.055983 
L 28.189353 315.383172 
L 31.1361 317.843129 
L 34.389467 320.267113 
L 38.198532 322.811525 
L 42.357181 325.311899 
L 46.864134 327.766738 
L 52.031661 330.323548 
L 57.585256 332.825827 
L 63.879809 335.41431 
L 70.591906 337.938634 
L 78.118306 340.53223 
L 86.515103 343.182325 
L 95.379715 345.749359 
L 105.168067 348.354629 
L 115.922101 350.984586 
L 127.676725 353.625467 
L 140.458397 356.263485 
L 154.283831 358.885031 
L 169.158902 361.476864 
L 185.077676 364.026298 
L 202.634311 366.607733 
L 221.210129 369.11286 
L 241.388676 371.606869 
L 263.126242 374.064251 
L 286.347174 376.460922 
L 310.941911 378.774572 
L 337.40898 381.03736 
L 365.542667 383.21451 
L 395.071144 385.274366 
L 426.254035 387.224528 
L 458.598338 389.025304 
L 492.573074 390.69293 
L 527.677035 392.191229 
L 563.375112 393.493035 
L 600.007023 394.605001 
L 636.760335 395.49753 
L 662.878755 395.996738 
L 662.878755 395.996738 
" style="fill:none;stroke:#1f77b4;stroke-dasharray:5.55,2.4;stroke-dashoffset:0;stroke-width:1.5;"/>
   </g>
   <g id="line2d_44">
    <path clip-path="url(#pc84f813e82)" d="M 98.004152 570.874113 
L 132.751157 564.543138 
L 166.284174 558.212076 
L 198.619567 551.880932 
L 229.773707 545.54971 
L 258.672837 539.452907 
L 286.506407 533.356039 
L 313.289046 527.259109 
L 338.064129 521.39662 
L 361.89411 515.53408 
L 384.792004 509.67149 
L 406.770829 503.808855 
L 427.017928 498.180683 
L 446.441535 492.552472 
L 465.053174 486.924226 
L 482.138067 481.530458 
L 498.497978 476.13666 
L 514.143053 470.742834 
L 528.448373 465.583497 
L 542.117834 460.424138 
L 555.160319 455.264757 
L 567.584712 450.105356 
L 578.875935 445.180456 
L 589.619805 440.255539 
L 599.82405 435.330608 
L 609.047761 430.640183 
L 617.795705 425.949747 
L 626.074563 421.259299 
L 633.891013 416.568841 
L 640.894419 412.112897 
L 647.492257 407.656945 
L 653.690254 403.200985 
L 659.49414 398.745018 
L 659.49414 398.745018 
" style="fill:none;stroke:#ff7f0e;stroke-linecap:square;stroke-width:1.5;"/>
   </g>
   <g id="line2d_45">
    <path clip-path="url(#pc84f813e82)" d="M 659.788799 398.510493 
L 664.909641 394.289044 
L 669.687046 390.06759 
L 674.125886 385.846131 
L 678.231031 381.624668 
L 681.806101 377.637727 
L 685.091971 373.650782 
L 688.092747 369.663835 
L 690.812532 365.676884 
L 693.255431 361.689932 
L 695.425546 357.702977 
L 697.222498 353.950547 
L 698.784873 350.198116 
L 700.116093 346.445684 
L 701.21958 342.693251 
L 702.098755 338.940817 
L 702.757041 335.188383 
L 703.197861 331.435948 
L 703.424636 327.683512 
L 703.440788 323.931077 
L 703.230997 319.944115 
L 702.791402 315.957152 
L 702.126106 311.970191 
L 701.239216 307.983229 
L 700.063186 303.761742 
L 698.6482 299.540255 
L 696.999129 295.31877 
L 695.009876 290.862759 
L 692.770968 286.406749 
L 690.288135 281.950742 
L 687.417407 277.260209 
L 684.289438 272.569679 
L 680.735528 267.644624 
L 676.913118 262.719573 
L 672.629134 257.559997 
L 667.854083 252.1659 
L 662.786125 246.771805 
L 657.19653 241.143189 
L 651.059118 235.280051 
L 644.349176 229.182393 
L 637.043773 222.850214 
L 629.122086 216.283515 
L 620.565736 209.482297 
L 611.359139 202.446561 
L 601.165766 194.941781 
L 590.278952 187.202485 
L 578.349504 178.994147 
L 565.348812 170.316769 
L 550.891651 160.935828 
L 534.568215 150.616801 
L 515.955705 139.125167 
L 494.246079 125.991881 
L 465.874045 109.106237 
L 387.999986 62.905244 
L 366.438826 49.771954 
L 348.36987 38.51484 
L 332.224202 28.19581 
L 317.954655 18.814865 
L 305.149557 10.137483 
L 293.424635 1.929141 
L 289.338955 -1 
L 289.338955 -1 
" style="fill:none;stroke:#ff7f0e;stroke-dasharray:5.55,2.4;stroke-dashoffset:0;stroke-width:1.5;"/>
   </g>
   <g id="line2d_46">
    <path clip-path="url(#pc84f813e82)" d="M 0 0 
" style="fill:none;stroke:#ff7f0e;stroke-linecap:square;stroke-width:1.5;"/>
   </g>
   <g id="line2d_47"/>
   <g id="line2d_48">
    <path clip-path="url(#pc84f813e82)" d="M 445.15293 428.639593 
L 445.377392 428.517411 
L 445.581098 428.401491 
L 445.761888 428.29262 
L 445.917522 428.191642 
L 446.045728 428.099444 
L 446.144308 428.016921 
L 446.211273 427.944934 
L 446.244998 427.884251 
" style="fill:none;stroke:#2ca02c;stroke-linecap:square;stroke-width:1.5;"/>
   </g>
   <g id="line2d_49">
    <path clip-path="url(#pc84f813e82)" d="M 446.244371 427.835485 
L 446.035109 427.763541 
L 445.076257 427.874324 
L 442.54197 428.459507 
L 436.451692 430.1484 
L 421.291999 434.651296 
L 384.894655 445.466176 
L 359.996463 452.615212 
L 336.205374 459.214706 
L 313.053691 465.409725 
L 289.487481 471.488777 
L 264.443409 477.718893 
L 235.334882 484.721013 
L 178.685671 498.271257 
L 168.95149 500.869816 
L 163.41672 502.549311 
L 160.250589 503.706579 
L 158.609891 504.499821 
L 157.882134 505.060965 
L 157.715523 505.432818 
L 157.842349 505.707456 
L 158.221382 505.94782 
L 159.018902 506.188448 
L 160.67195 506.424225 
L 163.326702 506.569734 
L 167.648949 506.575935 
L 174.107088 506.352439 
L 183.040618 505.817231 
L 195.325363 504.84577 
L 210.351388 503.428679 
L 227.942959 501.548711 
L 247.871827 499.198274 
L 269.886302 496.37434 
L 292.872011 493.19774 
L 316.582021 489.690286 
L 339.973958 486.003448 
L 362.911061 482.166079 
L 385.292576 478.200767 
L 407.042347 474.125855 
L 428.101537 469.95682 
L 448.423694 465.707333 
L 467.971156 461.390182 
L 486.712134 457.018272 
L 503.993118 452.764051 
L 521.065927 448.329776 
L 537.240002 443.898138 
L 553.506452 439.204196 
L 573.577818 433.151461 
L 582.044841 430.701542 
L 584.474241 430.17931 
L 585.085384 430.199553 
L 585.107534 430.347172 
L 584.734902 430.692373 
L 583.479326 431.44856 
L 580.613394 432.881878 
L 575.403008 435.219343 
L 567.60966 438.449211 
L 558.096379 442.141369 
L 546.847323 446.256089 
L 534.357756 450.574394 
L 521.207742 454.885477 
L 506.789521 459.375437 
L 491.708821 463.841219 
L 475.28442 468.469336 
L 458.173749 473.059068 
L 439.638529 477.792585 
L 420.398637 482.470083 
L 400.480902 487.08261 
L 379.920024 491.619358 
L 358.762168 496.066881 
L 336.192409 500.579142 
L 314.037466 504.78564 
L 291.564429 508.831553 
L 268.95481 512.674508 
L 247.37108 516.117139 
L 227.135553 519.118077 
L 209.453722 521.520273 
L 194.568581 523.327944 
L 182.611138 524.567167 
L 173.539417 525.295135 
L 167.103293 525.602626 
L 162.87057 525.604789 
L 160.081268 525.39257 
L 158.605259 525.075733 
L 157.940981 524.754408 
L 157.67306 524.433786 
L 157.6415 524.144003 
L 157.6415 524.144003 
" style="fill:none;stroke:#2ca02c;stroke-dasharray:5.55,2.4;stroke-dashoffset:0;stroke-width:1.5;"/>
   </g>
   <g id="line2d_50">
    <path clip-path="url(#pc84f813e82)" d="M 157.658493 524.067072 
L 157.889185 523.656393 
L 158.475894 523.108836 
L 159.751938 522.292897 
L 161.804166 521.269515 
L 165.09464 519.887213 
L 170.331684 517.954178 
L 177.945137 515.401287 
L 189.290183 511.852218 
L 207.107534 506.539638 
L 296.001865 480.340439 
L 320.637191 472.714553 
L 343.927328 465.275449 
L 365.90616 458.0237 
L 386.05115 451.149852 
L 404.37139 444.669691 
L 419.826919 438.98008 
L 432.410974 434.121577 
L 440.739014 430.690158 
L 444.967713 428.737209 
L 446.162752 427.999226 
L 446.247944 427.871839 
L 446.247944 427.871839 
" style="fill:none;stroke:#2ca02c;stroke-linecap:square;stroke-width:1.5;"/>
   </g>
   <g id="line2d_51">
    <path clip-path="url(#pc84f813e82)" d="M 446.239243 427.82591 
L 446.006329 427.7626 
L 445.016773 427.885393 
L 442.457286 428.481299 
L 436.350934 430.177531 
L 421.181877 434.684358 
L 384.778688 445.500014 
L 359.878423 452.648529 
L 336.085364 459.2474 
L 312.931505 465.441825 
L 289.362982 471.520309 
L 264.316904 477.749824 
L 235.208007 484.751116 
L 179.024895 498.18481 
L 169.231822 500.790425 
L 163.350935 502.571144 
L 160.203874 503.726119 
L 158.580953 504.517162 
L 157.869387 505.07624 
L 157.715965 505.446363 
L 157.854357 505.719448 
L 158.245352 505.958165 
L 159.229735 506.231223 
L 160.986525 506.451704 
L 164.111457 506.586117 
L 169.127292 506.542932 
L 176.483477 506.229699 
L 186.459671 505.568808 
L 199.879123 504.438505 
L 216.036326 502.843944 
L 234.713067 500.774173 
L 255.655362 498.225504 
L 277.743178 495.313858 
L 300.711133 492.063684 
L 324.33342 488.49356 
L 347.587661 484.754428 
L 370.350645 480.872785 
L 392.530801 476.869624 
L 414.058421 472.762192 
L 434.879311 468.565236 
L 454.950385 464.291999 
L 474.236367 459.955138 
L 492.061678 455.725191 
L 509.103558 451.461815 
L 525.920412 447.024003 
L 541.826704 442.598607 
L 558.288647 437.781013 
L 583.37241 430.380402 
L 584.841927 430.154741 
L 585.128275 430.252008 
L 585.033014 430.443791 
L 584.334512 430.956923 
L 582.528201 431.947137 
L 578.596386 433.812403 
L 572.161989 436.591167 
L 563.550134 440.052574 
L 553.215816 443.956012 
L 541.670699 448.074923 
L 528.900393 452.390628 
L 514.860148 456.890652 
L 500.144856 461.370339 
L 484.091667 466.016376 
L 467.343075 470.627307 
L 449.915657 475.197085 
L 431.059439 479.906569 
L 419.411089 482.70411 
L 419.411089 482.70411 
" style="fill:none;stroke:#2ca02c;stroke-dasharray:5.55,2.4;stroke-dashoffset:0;stroke-width:1.5;"/>
   </g>
   <g id="line2d_52">
    <path clip-path="url(#pc84f813e82)" d="M 0 0 
" style="fill:none;stroke:#d62728;stroke-linecap:square;stroke-width:1.5;"/>
   </g>
   <g id="line2d_53">
    <path clip-path="url(#pc84f813e82)" d="M 0 0 
" style="fill:none;stroke:#d62728;stroke-dasharray:5.55,2.4;stroke-dashoffset:0;stroke-width:1.5;"/>
   </g>
   <g id="line2d_54">
    <path clip-path="url(#pc84f813e82)" style="fill:none;stroke:#d62728;stroke-linecap:square;stroke-width:1.5;"/>
   </g>
   <g id="line2d_55">
    <g clip-path="url(#pc84f813e82)">
     <use style="stroke:#000000;" x="445.15293" xlink:href="#m4016f99562" y="428.639593"/>
    </g>
   </g>
   <g id="line2d_56">
    <g clip-path="url(#pc84f813e82)">
     <use style="stroke:#000000;" x="159.021346" xlink:href="#m4016f99562" y="504.271865"/>
    </g>
   </g>
   <g id="line2d_57">
    <g clip-path="url(#pc84f813e82)">
     <use style="stroke:#000000;" x="576.258353" xlink:href="#m4016f99562" y="434.848739"/>
    </g>
   </g>
   <g id="line2d_58">
    <g clip-path="url(#pc84f813e82)">
     <use style="stroke:#000000;" x="157.658493" xlink:href="#m4016f99562" y="524.067072"/>
    </g>
   </g>
   <g id="patch_8">
    <path d="M 98.64 576.0792 
L 98.64 349.5312 
" style="fill:none;stroke:#000000;stroke-linecap:square;stroke-linejoin:miter;stroke-width:0.8;"/>
   </g>
   <g id="patch_9">
    <path d="M 710.208 576.0792 
L 710.208 349.5312 
" style="fill:none;stroke:#000000;stroke-linecap:square;stroke-linejoin:miter;stroke-width:0.8;"/>
   </g>
   <g id="patch_10">
    <path d="M 98.64 576.0792 
L 710.208 576.0792 
" style="fill:none;stroke:#000000;stroke-linecap:square;stroke-linejoin:miter;stroke-width:0.8;"/>
   </g>
   <g id="patch_11">
    <path d="M 98.64 349.5312 
L 710.208 349.5312 
" style="fill:none;stroke:#000000;stroke-linecap:square;stroke-linejoin:miter;stroke-width:0.8;"/>
   </g>
   <g id="legend_1">
    <g id="patch_12">
     <path d="M 631.073625 571.0792 
L 703.208 571.0792 
Q 705.208 571.0792 705.208 569.0792 
L 705.208 511.3667 
Q 705.208 509.3667 703.208 509.3667 
L 631.073625 509.3667 
Q 629.073625 509.3667 629.073625 511.3667 
L 629.073625 569.0792 
Q 629.073625 571.0792 631.073625 571.0792 
z
" style="fill:#ffffff;opacity:0.8;stroke:#cccccc;stroke-linejoin:miter;"/>
    </g>
    <g id="line2d_59">
     <path d="M 633.073625 517.465137 
L 653.073625 517.465137 
" style="fill:none;stroke:#1f77b4;stroke-linecap:square;stroke-width:1.5;"/>
    </g>
    <g id="line2d_60"/>
    <g id="text_18">
     <!-- periodic -->
     <g transform="translate(661.073625 520.965137)scale(0.1 -0.1)">
      <defs>
       <path d="M 1159 525 
L 1159 -1331 
L 581 -1331 
L 581 3500 
L 1159 3500 
L 1159 2969 
Q 1341 3281 1617 3432 
Q 1894 3584 2278 3584 
Q 2916 3584 3314 3078 
Q 3713 2572 3713 1747 
Q 3713 922 3314 415 
Q 2916 -91 2278 -91 
Q 1894 -91 1617 61 
Q 1341 213 1159 525 
z
M 3116 1747 
Q 3116 2381 2855 2742 
Q 2594 3103 2138 3103 
Q 1681 3103 1420 2742 
Q 1159 2381 1159 1747 
Q 1159 1113 1420 752 
Q 1681 391 2138 391 
Q 2594 391 2855 752 
Q 3116 1113 3116 1747 
z
" id="DejaVuSans-70" transform="scale(0.015625)"/>
       <path d="M 2631 2963 
Q 2534 3019 2420 3045 
Q 2306 3072 2169 3072 
Q 1681 3072 1420 2755 
Q 1159 2438 1159 1844 
L 1159 0 
L 581 0 
L 581 3500 
L 1159 3500 
L 1159 2956 
Q 1341 3275 1631 3429 
Q 1922 3584 2338 3584 
Q 2397 3584 2469 3576 
Q 2541 3569 2628 3553 
L 2631 2963 
z
" id="DejaVuSans-72" transform="scale(0.015625)"/>
       <path d="M 603 3500 
L 1178 3500 
L 1178 0 
L 603 0 
L 603 3500 
z
M 603 4863 
L 1178 4863 
L 1178 4134 
L 603 4134 
L 603 4863 
z
" id="DejaVuSans-69" transform="scale(0.015625)"/>
       <path d="M 1959 3097 
Q 1497 3097 1228 2736 
Q 959 2375 959 1747 
Q 959 1119 1226 758 
Q 1494 397 1959 397 
Q 2419 397 2687 759 
Q 2956 1122 2956 1747 
Q 2956 2369 2687 2733 
Q 2419 3097 1959 3097 
z
M 1959 3584 
Q 2709 3584 3137 3096 
Q 3566 2609 3566 1747 
Q 3566 888 3137 398 
Q 2709 -91 1959 -91 
Q 1206 -91 779 398 
Q 353 888 353 1747 
Q 353 2609 779 3096 
Q 1206 3584 1959 3584 
z
" id="DejaVuSans-6f" transform="scale(0.015625)"/>
       <path d="M 2906 2969 
L 2906 4863 
L 3481 4863 
L 3481 0 
L 2906 0 
L 2906 525 
Q 2725 213 2448 61 
Q 2172 -91 1784 -91 
Q 1150 -91 751 415 
Q 353 922 353 1747 
Q 353 2572 751 3078 
Q 1150 3584 1784 3584 
Q 2172 3584 2448 3432 
Q 2725 3281 2906 2969 
z
M 947 1747 
Q 947 1113 1208 752 
Q 1469 391 1925 391 
Q 2381 391 2643 752 
Q 2906 1113 2906 1747 
Q 2906 2381 2643 2742 
Q 2381 3103 1925 3103 
Q 1469 3103 1208 2742 
Q 947 2381 947 1747 
z
" id="DejaVuSans-64" transform="scale(0.015625)"/>
       <path d="M 3122 3366 
L 3122 2828 
Q 2878 2963 2633 3030 
Q 2388 3097 2138 3097 
Q 1578 3097 1268 2742 
Q 959 2388 959 1747 
Q 959 1106 1268 751 
Q 1578 397 2138 397 
Q 2388 397 2633 464 
Q 2878 531 3122 666 
L 3122 134 
Q 2881 22 2623 -34 
Q 2366 -91 2075 -91 
Q 1284 -91 818 406 
Q 353 903 353 1747 
Q 353 2603 823 3093 
Q 1294 3584 2113 3584 
Q 2378 3584 2631 3529 
Q 2884 3475 3122 3366 
z
" id="DejaVuSans-63" transform="scale(0.015625)"/>
      </defs>
      <use xlink:href="#DejaVuSans-70"/>
      <use x="63.476562" xlink:href="#DejaVuSans-65"/>
      <use x="125" xlink:href="#DejaVuSans-72"/>
      <use x="166.113281" xlink:href="#DejaVuSans-69"/>
      <use x="193.896484" xlink:href="#DejaVuSans-6f"/>
      <use x="255.078125" xlink:href="#DejaVuSans-64"/>
      <use x="318.554688" xlink:href="#DejaVuSans-69"/>
      <use x="346.337891" xlink:href="#DejaVuSans-63"/>
     </g>
    </g>
    <g id="line2d_61">
     <path d="M 633.073625 532.143262 
L 653.073625 532.143262 
" style="fill:none;stroke:#ff7f0e;stroke-linecap:square;stroke-width:1.5;"/>
    </g>
    <g id="line2d_62"/>
    <g id="text_19">
     <!-- hss -->
     <g transform="translate(661.073625 535.643262)scale(0.1 -0.1)">
      <defs>
       <path d="M 3513 2113 
L 3513 0 
L 2938 0 
L 2938 2094 
Q 2938 2591 2744 2837 
Q 2550 3084 2163 3084 
Q 1697 3084 1428 2787 
Q 1159 2491 1159 1978 
L 1159 0 
L 581 0 
L 581 4863 
L 1159 4863 
L 1159 2956 
Q 1366 3272 1645 3428 
Q 1925 3584 2291 3584 
Q 2894 3584 3203 3211 
Q 3513 2838 3513 2113 
z
" id="DejaVuSans-68" transform="scale(0.015625)"/>
       <path d="M 2834 3397 
L 2834 2853 
Q 2591 2978 2328 3040 
Q 2066 3103 1784 3103 
Q 1356 3103 1142 2972 
Q 928 2841 928 2578 
Q 928 2378 1081 2264 
Q 1234 2150 1697 2047 
L 1894 2003 
Q 2506 1872 2764 1633 
Q 3022 1394 3022 966 
Q 3022 478 2636 193 
Q 2250 -91 1575 -91 
Q 1294 -91 989 -36 
Q 684 19 347 128 
L 347 722 
Q 666 556 975 473 
Q 1284 391 1588 391 
Q 1994 391 2212 530 
Q 2431 669 2431 922 
Q 2431 1156 2273 1281 
Q 2116 1406 1581 1522 
L 1381 1569 
Q 847 1681 609 1914 
Q 372 2147 372 2553 
Q 372 3047 722 3315 
Q 1072 3584 1716 3584 
Q 2034 3584 2315 3537 
Q 2597 3491 2834 3397 
z
" id="DejaVuSans-73" transform="scale(0.015625)"/>
      </defs>
      <use xlink:href="#DejaVuSans-68"/>
      <use x="63.378906" xlink:href="#DejaVuSans-73"/>
      <use x="115.478516" xlink:href="#DejaVuSans-73"/>
     </g>
    </g>
    <g id="line2d_63">
     <path d="M 633.073625 546.821388 
L 653.073625 546.821388 
" style="fill:none;stroke:#2ca02c;stroke-linecap:square;stroke-width:1.5;"/>
    </g>
    <g id="line2d_64"/>
    <g id="text_20">
     <!-- bs1 -->
     <g transform="translate(661.073625 550.321388)scale(0.1 -0.1)">
      <defs>
       <path d="M 3116 1747 
Q 3116 2381 2855 2742 
Q 2594 3103 2138 3103 
Q 1681 3103 1420 2742 
Q 1159 2381 1159 1747 
Q 1159 1113 1420 752 
Q 1681 391 2138 391 
Q 2594 391 2855 752 
Q 3116 1113 3116 1747 
z
M 1159 2969 
Q 1341 3281 1617 3432 
Q 1894 3584 2278 3584 
Q 2916 3584 3314 3078 
Q 3713 2572 3713 1747 
Q 3713 922 3314 415 
Q 2916 -91 2278 -91 
Q 1894 -91 1617 61 
Q 1341 213 1159 525 
L 1159 0 
L 581 0 
L 581 4863 
L 1159 4863 
L 1159 2969 
z
" id="DejaVuSans-62" transform="scale(0.015625)"/>
      </defs>
      <use xlink:href="#DejaVuSans-62"/>
      <use x="63.476562" xlink:href="#DejaVuSans-73"/>
      <use x="115.576172" xlink:href="#DejaVuSans-31"/>
     </g>
    </g>
    <g id="line2d_65">
     <path d="M 633.073625 561.499513 
L 653.073625 561.499513 
" style="fill:none;stroke:#d62728;stroke-linecap:square;stroke-width:1.5;"/>
    </g>
    <g id="line2d_66"/>
    <g id="text_21">
     <!-- ds1 -->
     <g transform="translate(661.073625 564.999513)scale(0.1 -0.1)">
      <use xlink:href="#DejaVuSans-64"/>
      <use x="63.476562" xlink:href="#DejaVuSans-73"/>
      <use x="115.576172" xlink:href="#DejaVuSans-31"/>
     </g>
    </g>
   </g>
  </g>
 </g>
 <defs>
  <clipPath id="p0a1610c1d9">
   <rect height="226.548" width="611.568" x="98.64" y="77.6736"/>
  </clipPath>
  <clipPath id="pc84f813e82">
   <rect height="226.548" width="611.568" x="98.64" y="349.5312"/>
  </clipPath>
 </defs>
</svg>
