<?xml version="1.0" encoding="utf-8" standalone="no"?>
<!DOCTYPE svg PUBLIC "-//W3C//DTD SVG 1.1//EN"
  "http://www.w3.org/Graphics/SVG/1.1/DTD/svg11.dtd">
<svg height="288pt" version="1.1" viewBox="0 0 432 288" width="432pt" xmlns="http://www.w3.org/2000/svg" xmlns:xlink="http://www.w3.org/1999/xlink">
 <metadata>
  <rdf:RDF xmlns:cc="http://creativecommons.org/ns#" xmlns:dc="http://purl.org/dc/elements/1.1/" xmlns:rdf="http://www.w3.org/1999/02/22-rdf-syntax-ns#">
   <cc:Work>
    <dc:type rdf:resource="http://purl.org/dc/dcmitype/StillImage"/>
    <dc:date>2022-05-12T10:41:47.092948</dc:date>
    <dc:format>image/svg+xml</dc:format>
    <dc:creator>
     <cc:Agent>
      <dc:title>Matplotlib v3.4.3, https://matplotlib.org/</dc:title>
     </cc:Agent>
    </dc:creator>
   </cc:Work>
  </rdf:RDF>
 </metadata>
 <defs>
  <style type="text/css">*{stroke-linecap:butt;stroke-linejoin:round;}</style>
 </defs>
 <g id="figure_1">
  <g id="patch_1">
   <path d="M 0 288 
L 432 288 
L 432 0 
L 0 0 
z
" style="fill:none;"/>
  </g>
  <g id="axes_1">
   <g id="patch_2">
    <path d="M 54 252 
L 388.8 252 
L 388.8 34.56 
L 54 34.56 
z
" style="fill:#ffffff;"/>
   </g>
   <g id="matplotlib.axis_1">
    <g id="xtick_1">
     <g id="line2d_1">
      <defs>
       <path d="M 0 0 
L 0 3.5 
" id="m28311fc6f8" style="stroke:#000000;stroke-width:0.8;"/>
      </defs>
      <g>
       <use style="stroke:#000000;stroke-width:0.8;" x="76.090491" xlink:href="#m28311fc6f8" y="252"/>
      </g>
     </g>
     <g id="text_1">
      <!-- −6 -->
      <g transform="translate(68.719397 266.598437)scale(0.1 -0.1)">
       <defs>
        <path d="M 678 2272 
L 4684 2272 
L 4684 1741 
L 678 1741 
L 678 2272 
z
" id="DejaVuSans-2212" transform="scale(0.015625)"/>
        <path d="M 2113 2584 
Q 1688 2584 1439 2293 
Q 1191 2003 1191 1497 
Q 1191 994 1439 701 
Q 1688 409 2113 409 
Q 2538 409 2786 701 
Q 3034 994 3034 1497 
Q 3034 2003 2786 2293 
Q 2538 2584 2113 2584 
z
M 3366 4563 
L 3366 3988 
Q 3128 4100 2886 4159 
Q 2644 4219 2406 4219 
Q 1781 4219 1451 3797 
Q 1122 3375 1075 2522 
Q 1259 2794 1537 2939 
Q 1816 3084 2150 3084 
Q 2853 3084 3261 2657 
Q 3669 2231 3669 1497 
Q 3669 778 3244 343 
Q 2819 -91 2113 -91 
Q 1303 -91 875 529 
Q 447 1150 447 2328 
Q 447 3434 972 4092 
Q 1497 4750 2381 4750 
Q 2619 4750 2861 4703 
Q 3103 4656 3366 4563 
z
" id="DejaVuSans-36" transform="scale(0.015625)"/>
       </defs>
       <use xlink:href="#DejaVuSans-2212"/>
       <use x="83.789062" xlink:href="#DejaVuSans-36"/>
      </g>
     </g>
    </g>
    <g id="xtick_2">
     <g id="line2d_2">
      <g>
       <use style="stroke:#000000;stroke-width:0.8;" x="124.626264" xlink:href="#m28311fc6f8" y="252"/>
      </g>
     </g>
     <g id="text_2">
      <!-- −4 -->
      <g transform="translate(117.255171 266.598437)scale(0.1 -0.1)">
       <defs>
        <path d="M 2419 4116 
L 825 1625 
L 2419 1625 
L 2419 4116 
z
M 2253 4666 
L 3047 4666 
L 3047 1625 
L 3713 1625 
L 3713 1100 
L 3047 1100 
L 3047 0 
L 2419 0 
L 2419 1100 
L 313 1100 
L 313 1709 
L 2253 4666 
z
" id="DejaVuSans-34" transform="scale(0.015625)"/>
       </defs>
       <use xlink:href="#DejaVuSans-2212"/>
       <use x="83.789062" xlink:href="#DejaVuSans-34"/>
      </g>
     </g>
    </g>
    <g id="xtick_3">
     <g id="line2d_3">
      <g>
       <use style="stroke:#000000;stroke-width:0.8;" x="173.162038" xlink:href="#m28311fc6f8" y="252"/>
      </g>
     </g>
     <g id="text_3">
      <!-- −2 -->
      <g transform="translate(165.790944 266.598437)scale(0.1 -0.1)">
       <defs>
        <path d="M 1228 531 
L 3431 531 
L 3431 0 
L 469 0 
L 469 531 
Q 828 903 1448 1529 
Q 2069 2156 2228 2338 
Q 2531 2678 2651 2914 
Q 2772 3150 2772 3378 
Q 2772 3750 2511 3984 
Q 2250 4219 1831 4219 
Q 1534 4219 1204 4116 
Q 875 4013 500 3803 
L 500 4441 
Q 881 4594 1212 4672 
Q 1544 4750 1819 4750 
Q 2544 4750 2975 4387 
Q 3406 4025 3406 3419 
Q 3406 3131 3298 2873 
Q 3191 2616 2906 2266 
Q 2828 2175 2409 1742 
Q 1991 1309 1228 531 
z
" id="DejaVuSans-32" transform="scale(0.015625)"/>
       </defs>
       <use xlink:href="#DejaVuSans-2212"/>
       <use x="83.789062" xlink:href="#DejaVuSans-32"/>
      </g>
     </g>
    </g>
    <g id="xtick_4">
     <g id="line2d_4">
      <g>
       <use style="stroke:#000000;stroke-width:0.8;" x="221.697812" xlink:href="#m28311fc6f8" y="252"/>
      </g>
     </g>
     <g id="text_4">
      <!-- 0 -->
      <g transform="translate(218.516562 266.598437)scale(0.1 -0.1)">
       <defs>
        <path d="M 2034 4250 
Q 1547 4250 1301 3770 
Q 1056 3291 1056 2328 
Q 1056 1369 1301 889 
Q 1547 409 2034 409 
Q 2525 409 2770 889 
Q 3016 1369 3016 2328 
Q 3016 3291 2770 3770 
Q 2525 4250 2034 4250 
z
M 2034 4750 
Q 2819 4750 3233 4129 
Q 3647 3509 3647 2328 
Q 3647 1150 3233 529 
Q 2819 -91 2034 -91 
Q 1250 -91 836 529 
Q 422 1150 422 2328 
Q 422 3509 836 4129 
Q 1250 4750 2034 4750 
z
" id="DejaVuSans-30" transform="scale(0.015625)"/>
       </defs>
       <use xlink:href="#DejaVuSans-30"/>
      </g>
     </g>
    </g>
    <g id="xtick_5">
     <g id="line2d_5">
      <g>
       <use style="stroke:#000000;stroke-width:0.8;" x="270.233585" xlink:href="#m28311fc6f8" y="252"/>
      </g>
     </g>
     <g id="text_5">
      <!-- 2 -->
      <g transform="translate(267.052335 266.598437)scale(0.1 -0.1)">
       <use xlink:href="#DejaVuSans-32"/>
      </g>
     </g>
    </g>
    <g id="xtick_6">
     <g id="line2d_6">
      <g>
       <use style="stroke:#000000;stroke-width:0.8;" x="318.769359" xlink:href="#m28311fc6f8" y="252"/>
      </g>
     </g>
     <g id="text_6">
      <!-- 4 -->
      <g transform="translate(315.588109 266.598437)scale(0.1 -0.1)">
       <use xlink:href="#DejaVuSans-34"/>
      </g>
     </g>
    </g>
    <g id="xtick_7">
     <g id="line2d_7">
      <g>
       <use style="stroke:#000000;stroke-width:0.8;" x="367.305133" xlink:href="#m28311fc6f8" y="252"/>
      </g>
     </g>
     <g id="text_7">
      <!-- 6 -->
      <g transform="translate(364.123883 266.598437)scale(0.1 -0.1)">
       <use xlink:href="#DejaVuSans-36"/>
      </g>
     </g>
    </g>
   </g>
   <g id="matplotlib.axis_2">
    <g id="ytick_1">
     <g id="line2d_8">
      <defs>
       <path d="M 0 0 
L -3.5 0 
" id="meb2d02c67e" style="stroke:#000000;stroke-width:0.8;"/>
      </defs>
      <g>
       <use style="stroke:#000000;stroke-width:0.8;" x="54" xlink:href="#meb2d02c67e" y="227.537209"/>
      </g>
     </g>
     <g id="text_8">
      <!-- $\mathdefault{10^{-13}}$ -->
      <g transform="translate(19.1 231.336427)scale(0.1 -0.1)">
       <defs>
        <path d="M 794 531 
L 1825 531 
L 1825 4091 
L 703 3866 
L 703 4441 
L 1819 4666 
L 2450 4666 
L 2450 531 
L 3481 531 
L 3481 0 
L 794 0 
L 794 531 
z
" id="DejaVuSans-31" transform="scale(0.015625)"/>
        <path d="M 2597 2516 
Q 3050 2419 3304 2112 
Q 3559 1806 3559 1356 
Q 3559 666 3084 287 
Q 2609 -91 1734 -91 
Q 1441 -91 1130 -33 
Q 819 25 488 141 
L 488 750 
Q 750 597 1062 519 
Q 1375 441 1716 441 
Q 2309 441 2620 675 
Q 2931 909 2931 1356 
Q 2931 1769 2642 2001 
Q 2353 2234 1838 2234 
L 1294 2234 
L 1294 2753 
L 1863 2753 
Q 2328 2753 2575 2939 
Q 2822 3125 2822 3475 
Q 2822 3834 2567 4026 
Q 2313 4219 1838 4219 
Q 1578 4219 1281 4162 
Q 984 4106 628 3988 
L 628 4550 
Q 988 4650 1302 4700 
Q 1616 4750 1894 4750 
Q 2613 4750 3031 4423 
Q 3450 4097 3450 3541 
Q 3450 3153 3228 2886 
Q 3006 2619 2597 2516 
z
" id="DejaVuSans-33" transform="scale(0.015625)"/>
       </defs>
       <use transform="translate(0 0.765625)" xlink:href="#DejaVuSans-31"/>
       <use transform="translate(63.623047 0.765625)" xlink:href="#DejaVuSans-30"/>
       <use transform="translate(128.203125 39.046875)scale(0.7)" xlink:href="#DejaVuSans-2212"/>
       <use transform="translate(186.855469 39.046875)scale(0.7)" xlink:href="#DejaVuSans-31"/>
       <use transform="translate(231.391602 39.046875)scale(0.7)" xlink:href="#DejaVuSans-33"/>
      </g>
     </g>
    </g>
    <g id="ytick_2">
     <g id="line2d_9">
      <g>
       <use style="stroke:#000000;stroke-width:0.8;" x="54" xlink:href="#meb2d02c67e" y="198.952095"/>
      </g>
     </g>
     <g id="text_9">
      <!-- $\mathdefault{10^{-11}}$ -->
      <g transform="translate(19.1 202.751314)scale(0.1 -0.1)">
       <use transform="translate(0 0.684375)" xlink:href="#DejaVuSans-31"/>
       <use transform="translate(63.623047 0.684375)" xlink:href="#DejaVuSans-30"/>
       <use transform="translate(128.203125 38.965625)scale(0.7)" xlink:href="#DejaVuSans-2212"/>
       <use transform="translate(186.855469 38.965625)scale(0.7)" xlink:href="#DejaVuSans-31"/>
       <use transform="translate(231.391602 38.965625)scale(0.7)" xlink:href="#DejaVuSans-31"/>
      </g>
     </g>
    </g>
    <g id="ytick_3">
     <g id="line2d_10">
      <g>
       <use style="stroke:#000000;stroke-width:0.8;" x="54" xlink:href="#meb2d02c67e" y="170.366982"/>
      </g>
     </g>
     <g id="text_10">
      <!-- $\mathdefault{10^{-9}}$ -->
      <g transform="translate(23.5 174.166201)scale(0.1 -0.1)">
       <defs>
        <path d="M 703 97 
L 703 672 
Q 941 559 1184 500 
Q 1428 441 1663 441 
Q 2288 441 2617 861 
Q 2947 1281 2994 2138 
Q 2813 1869 2534 1725 
Q 2256 1581 1919 1581 
Q 1219 1581 811 2004 
Q 403 2428 403 3163 
Q 403 3881 828 4315 
Q 1253 4750 1959 4750 
Q 2769 4750 3195 4129 
Q 3622 3509 3622 2328 
Q 3622 1225 3098 567 
Q 2575 -91 1691 -91 
Q 1453 -91 1209 -44 
Q 966 3 703 97 
z
M 1959 2075 
Q 2384 2075 2632 2365 
Q 2881 2656 2881 3163 
Q 2881 3666 2632 3958 
Q 2384 4250 1959 4250 
Q 1534 4250 1286 3958 
Q 1038 3666 1038 3163 
Q 1038 2656 1286 2365 
Q 1534 2075 1959 2075 
z
" id="DejaVuSans-39" transform="scale(0.015625)"/>
       </defs>
       <use transform="translate(0 0.765625)" xlink:href="#DejaVuSans-31"/>
       <use transform="translate(63.623047 0.765625)" xlink:href="#DejaVuSans-30"/>
       <use transform="translate(128.203125 39.046875)scale(0.7)" xlink:href="#DejaVuSans-2212"/>
       <use transform="translate(186.855469 39.046875)scale(0.7)" xlink:href="#DejaVuSans-39"/>
      </g>
     </g>
    </g>
    <g id="ytick_4">
     <g id="line2d_11">
      <g>
       <use style="stroke:#000000;stroke-width:0.8;" x="54" xlink:href="#meb2d02c67e" y="141.781868"/>
      </g>
     </g>
     <g id="text_11">
      <!-- $\mathdefault{10^{-7}}$ -->
      <g transform="translate(23.5 145.581087)scale(0.1 -0.1)">
       <defs>
        <path d="M 525 4666 
L 3525 4666 
L 3525 4397 
L 1831 0 
L 1172 0 
L 2766 4134 
L 525 4134 
L 525 4666 
z
" id="DejaVuSans-37" transform="scale(0.015625)"/>
       </defs>
       <use transform="translate(0 0.684375)" xlink:href="#DejaVuSans-31"/>
       <use transform="translate(63.623047 0.684375)" xlink:href="#DejaVuSans-30"/>
       <use transform="translate(128.203125 38.965625)scale(0.7)" xlink:href="#DejaVuSans-2212"/>
       <use transform="translate(186.855469 38.965625)scale(0.7)" xlink:href="#DejaVuSans-37"/>
      </g>
     </g>
    </g>
    <g id="ytick_5">
     <g id="line2d_12">
      <g>
       <use style="stroke:#000000;stroke-width:0.8;" x="54" xlink:href="#meb2d02c67e" y="113.196755"/>
      </g>
     </g>
     <g id="text_12">
      <!-- $\mathdefault{10^{-5}}$ -->
      <g transform="translate(23.5 116.995974)scale(0.1 -0.1)">
       <defs>
        <path d="M 691 4666 
L 3169 4666 
L 3169 4134 
L 1269 4134 
L 1269 2991 
Q 1406 3038 1543 3061 
Q 1681 3084 1819 3084 
Q 2600 3084 3056 2656 
Q 3513 2228 3513 1497 
Q 3513 744 3044 326 
Q 2575 -91 1722 -91 
Q 1428 -91 1123 -41 
Q 819 9 494 109 
L 494 744 
Q 775 591 1075 516 
Q 1375 441 1709 441 
Q 2250 441 2565 725 
Q 2881 1009 2881 1497 
Q 2881 1984 2565 2268 
Q 2250 2553 1709 2553 
Q 1456 2553 1204 2497 
Q 953 2441 691 2322 
L 691 4666 
z
" id="DejaVuSans-35" transform="scale(0.015625)"/>
       </defs>
       <use transform="translate(0 0.684375)" xlink:href="#DejaVuSans-31"/>
       <use transform="translate(63.623047 0.684375)" xlink:href="#DejaVuSans-30"/>
       <use transform="translate(128.203125 38.965625)scale(0.7)" xlink:href="#DejaVuSans-2212"/>
       <use transform="translate(186.855469 38.965625)scale(0.7)" xlink:href="#DejaVuSans-35"/>
      </g>
     </g>
    </g>
    <g id="ytick_6">
     <g id="line2d_13">
      <g>
       <use style="stroke:#000000;stroke-width:0.8;" x="54" xlink:href="#meb2d02c67e" y="84.611641"/>
      </g>
     </g>
     <g id="text_13">
      <!-- $\mathdefault{10^{-3}}$ -->
      <g transform="translate(23.5 88.41086)scale(0.1 -0.1)">
       <use transform="translate(0 0.765625)" xlink:href="#DejaVuSans-31"/>
       <use transform="translate(63.623047 0.765625)" xlink:href="#DejaVuSans-30"/>
       <use transform="translate(128.203125 39.046875)scale(0.7)" xlink:href="#DejaVuSans-2212"/>
       <use transform="translate(186.855469 39.046875)scale(0.7)" xlink:href="#DejaVuSans-33"/>
      </g>
     </g>
    </g>
    <g id="ytick_7">
     <g id="line2d_14">
      <g>
       <use style="stroke:#000000;stroke-width:0.8;" x="54" xlink:href="#meb2d02c67e" y="56.026528"/>
      </g>
     </g>
     <g id="text_14">
      <!-- $\mathdefault{10^{-1}}$ -->
      <g transform="translate(23.5 59.825747)scale(0.1 -0.1)">
       <use transform="translate(0 0.684375)" xlink:href="#DejaVuSans-31"/>
       <use transform="translate(63.623047 0.684375)" xlink:href="#DejaVuSans-30"/>
       <use transform="translate(128.203125 38.965625)scale(0.7)" xlink:href="#DejaVuSans-2212"/>
       <use transform="translate(186.855469 38.965625)scale(0.7)" xlink:href="#DejaVuSans-31"/>
      </g>
     </g>
    </g>
   </g>
   <g id="line2d_15">
    <path clip-path="url(#pf7e7816fed)" d="M 69.218182 219.002193 
L 69.813805 224.232044 
L 70.409429 225.447995 
L 71.005052 227.947681 
L 71.600676 233.119356 
L 72.1963 232.663272 
L 72.791923 227.252779 
L 73.387547 224.421481 
L 73.98317 222.860168 
L 74.578794 222.324372 
L 75.174417 223.012157 
L 75.770041 225.372683 
L 77.556912 237.556519 
L 78.152535 238.910792 
L 79.343782 232.352307 
L 79.939406 230.657033 
L 80.535029 229.746112 
L 81.726276 228.318561 
L 82.917524 226.936569 
L 83.513147 226.625284 
L 84.108771 226.67214 
L 84.704394 227.143608 
L 85.300018 228.121965 
L 85.895641 229.704203 
L 86.491265 231.990225 
L 87.682512 237.761061 
L 88.278136 237.882769 
L 90.66063 231.669351 
L 91.256253 230.692983 
L 91.851877 230.130893 
L 92.4475 229.991908 
L 93.043124 230.269679 
L 93.638748 230.966829 
L 94.234371 232.100369 
L 94.829995 233.723577 
L 95.425618 235.948477 
L 96.616865 242.115821 
L 97.212489 241.67434 
L 97.808112 239.415674 
L 98.403736 237.786321 
L 100.78623 233.253309 
L 103.764348 225.293323 
L 104.955595 222.906726 
L 106.742466 219.991078 
L 109.720584 215.384939 
L 114.485572 207.58606 
L 119.25056 200.580642 
L 123.419925 193.684232 
L 125.802419 190.426849 
L 127.58929 187.917873 
L 129.376161 184.942994 
L 131.758655 180.832229 
L 133.545526 178.207494 
L 137.119267 173.53799 
L 138.906138 170.473368 
L 141.288632 166.278265 
L 142.479879 164.519423 
L 144.26675 162.351704 
L 146.05362 160.211421 
L 147.244867 158.332774 
L 151.414232 150.87465 
L 152.605479 149.346532 
L 155.583597 146.147367 
L 156.774844 144.180565 
L 160.348586 137.330104 
L 161.539833 135.714265 
L 162.73108 134.530311 
L 164.517951 133.062584 
L 165.113574 132.357308 
L 165.709198 131.411981 
L 166.900445 128.93632 
L 168.687315 125.085426 
L 169.878563 123.019334 
L 171.06981 121.482071 
L 172.261057 120.473374 
L 174.047927 119.355156 
L 174.643551 118.631356 
L 175.239175 117.529388 
L 177.026045 113.053711 
L 178.217292 110.309339 
L 179.408539 108.138852 
L 180.599787 106.604721 
L 181.19541 106.094125 
L 181.791034 105.75942 
L 183.577904 105.213312 
L 184.173528 104.473293 
L 184.769151 103.112935 
L 187.151646 96.389352 
L 188.342893 93.913378 
L 189.53414 92.161354 
L 190.129763 91.581918 
L 190.725387 91.233442 
L 191.32101 91.148215 
L 191.916634 91.343908 
L 193.107881 92.040384 
L 193.703505 91.510641 
L 194.299128 89.976591 
L 195.490375 86.269479 
L 196.681622 83.265054 
L 197.87287 80.986306 
L 198.468493 80.135906 
L 199.064117 79.525609 
L 199.65974 79.202612 
L 200.255364 79.221825 
L 200.850987 79.653479 
L 201.446611 80.591139 
L 202.637858 83.790519 
L 203.233482 83.582064 
L 205.020352 77.009152 
L 206.211599 73.566927 
L 207.402846 71.006808 
L 207.99847 70.187631 
L 208.594094 69.788053 
L 209.189717 69.949819 
L 209.785341 70.869487 
L 210.380964 72.838211 
L 210.976588 76.529606 
L 211.572211 85.701795 
L 213.359082 73.107721 
L 215.741576 59.309777 
L 216.3372 57.963847 
L 216.932823 57.531593 
L 219.315318 57.350263 
L 221.102188 56.125895 
L 221.697812 44.443636 
L 222.293435 56.125895 
L 223.484682 56.949099 
L 224.080306 57.350263 
L 224.67593 57.567522 
L 226.4628 57.531593 
L 227.058424 57.963847 
L 227.654047 59.309777 
L 228.249671 61.953304 
L 230.632165 76.373984 
L 231.823412 85.701795 
L 232.419036 76.529606 
L 233.014659 72.838211 
L 233.610283 70.869487 
L 234.205906 69.949819 
L 234.80153 69.788053 
L 235.397154 70.187631 
L 235.992777 71.006808 
L 236.588401 72.153324 
L 237.779648 75.197591 
L 238.970895 79.026388 
L 240.162142 83.582064 
L 240.757766 83.790519 
L 241.949013 80.591139 
L 242.544636 79.653479 
L 243.14026 79.221825 
L 243.735883 79.202612 
L 244.331507 79.525609 
L 244.92713 80.135906 
L 245.522754 80.986306 
L 246.714001 83.265054 
L 247.905248 86.269479 
L 249.692119 91.510641 
L 250.287742 92.040384 
L 250.883366 91.754287 
L 251.47899 91.343908 
L 252.074613 91.148215 
L 252.670237 91.233442 
L 253.26586 91.581918 
L 253.861484 92.161354 
L 254.457107 92.944328 
L 255.648354 95.061429 
L 256.839601 97.89963 
L 259.222096 104.473293 
L 259.817719 105.213312 
L 260.413343 105.471566 
L 261.60459 105.75942 
L 262.200213 106.094125 
L 262.795837 106.604721 
L 263.987084 108.138852 
L 265.178331 110.309339 
L 266.369578 113.053711 
L 268.156449 117.529388 
L 268.752073 118.631356 
L 269.347696 119.355156 
L 270.538943 120.124035 
L 271.73019 120.915757 
L 272.921437 122.182766 
L 274.112685 123.989031 
L 275.303932 126.295767 
L 277.686426 131.411981 
L 278.282049 132.357308 
L 278.877673 133.062584 
L 281.855791 135.714265 
L 283.047038 137.330104 
L 284.238285 139.384407 
L 287.812026 146.147367 
L 289.003273 147.523136 
L 290.790144 149.346532 
L 291.981391 150.87465 
L 293.172638 152.75889 
L 294.959509 156.096408 
L 296.74638 159.329987 
L 297.937627 160.985073 
L 300.915745 164.519423 
L 302.106992 166.278265 
L 303.893862 169.379542 
L 306.276357 173.53799 
L 308.063227 175.962486 
L 310.445721 179.027245 
L 312.232592 181.814456 
L 316.401957 188.799461 
L 321.166945 195.527004 
L 326.527557 204.235255 
L 330.101299 209.39527 
L 333.079416 214.38496 
L 335.461911 218.206704 
L 337.844405 221.87026 
L 339.035652 224.040318 
L 340.226899 226.683631 
L 341.418146 229.882227 
L 342.609393 233.253602 
L 343.205017 234.64212 
L 344.991888 237.786343 
L 345.587511 239.415697 
L 346.183135 241.674792 
L 346.778758 242.116364 
L 347.970005 235.948444 
L 348.565629 233.7235 
L 349.161252 232.100204 
L 349.756876 230.967251 
L 350.3525 230.269776 
L 350.948123 229.991932 
L 351.543747 230.130705 
L 352.13937 230.692987 
L 352.734994 231.669294 
L 353.926241 234.62552 
L 355.117488 237.882769 
L 355.713112 237.761013 
L 357.499982 229.704155 
L 358.095606 228.122173 
L 358.691229 227.143551 
L 359.286853 226.672305 
L 359.882476 226.625353 
L 360.4781 226.936615 
L 361.073724 227.539148 
L 363.456218 230.657107 
L 364.051841 232.352068 
L 365.243088 238.910814 
L 365.838712 237.557181 
L 366.434336 234.483658 
L 367.625583 225.372239 
L 368.221206 223.012057 
L 368.81683 222.324372 
L 369.412453 222.860168 
L 370.008077 224.42136 
L 370.6037 227.252584 
L 371.199324 232.663007 
L 371.794948 233.118968 
L 372.390571 227.947681 
L 372.986195 225.447929 
L 373.581818 224.231842 
L 373.581818 224.231842 
" style="fill:none;stroke:#1f77b4;stroke-linecap:square;stroke-width:1.5;"/>
   </g>
   <g id="patch_3">
    <path d="M 54 252 
L 54 34.56 
" style="fill:none;stroke:#000000;stroke-linecap:square;stroke-linejoin:miter;stroke-width:0.8;"/>
   </g>
   <g id="patch_4">
    <path d="M 388.8 252 
L 388.8 34.56 
" style="fill:none;stroke:#000000;stroke-linecap:square;stroke-linejoin:miter;stroke-width:0.8;"/>
   </g>
   <g id="patch_5">
    <path d="M 54 252 
L 388.8 252 
" style="fill:none;stroke:#000000;stroke-linecap:square;stroke-linejoin:miter;stroke-width:0.8;"/>
   </g>
   <g id="patch_6">
    <path d="M 54 34.56 
L 388.8 34.56 
" style="fill:none;stroke:#000000;stroke-linecap:square;stroke-linejoin:miter;stroke-width:0.8;"/>
   </g>
  </g>
 </g>
 <defs>
  <clipPath id="pf7e7816fed">
   <rect height="217.44" width="334.8" x="54" y="34.56"/>
  </clipPath>
 </defs>
</svg>
