<?xml version="1.0" encoding="utf-8" standalone="no"?>
<!DOCTYPE svg PUBLIC "-//W3C//DTD SVG 1.1//EN"
  "http://www.w3.org/Graphics/SVG/1.1/DTD/svg11.dtd">
<svg height="712.08pt" version="1.1" viewBox="0 0 750.24 712.08" width="750.24pt" xmlns="http://www.w3.org/2000/svg" xmlns:xlink="http://www.w3.org/1999/xlink">
 <metadata>
  <rdf:RDF xmlns:cc="http://creativecommons.org/ns#" xmlns:dc="http://purl.org/dc/elements/1.1/" xmlns:rdf="http://www.w3.org/1999/02/22-rdf-syntax-ns#">
   <cc:Work>
    <dc:type rdf:resource="http://purl.org/dc/dcmitype/StillImage"/>
    <dc:date>2022-05-13T15:36:14.872026</dc:date>
    <dc:format>image/svg+xml</dc:format>
    <dc:creator>
     <cc:Agent>
      <dc:title>Matplotlib v3.4.3, https://matplotlib.org/</dc:title>
     </cc:Agent>
    </dc:creator>
   </cc:Work>
  </rdf:RDF>
 </metadata>
 <defs>
  <style type="text/css">*{stroke-linecap:butt;stroke-linejoin:round;}</style>
 </defs>
 <g id="figure_1">
  <g id="patch_1">
   <path d="M 0 712.08 
L 750.24 712.08 
L 750.24 0 
L 0 0 
z
" style="fill:#ffffff;"/>
  </g>
  <g id="axes_1">
   <g id="patch_2">
    <path d="M 93.78 334.6776 
L 675.216 334.6776 
L 675.216 85.4496 
L 93.78 85.4496 
z
" style="fill:#ffffff;"/>
   </g>
   <g id="matplotlib.axis_1">
    <g id="xtick_1">
     <g id="line2d_1">
      <defs>
       <path d="M 0 0 
L 0 3.5 
" id="m809d0cbffd" style="stroke:#000000;stroke-width:0.8;"/>
      </defs>
      <g>
       <use style="stroke:#000000;stroke-width:0.8;" x="103.658384" xlink:href="#m809d0cbffd" y="334.6776"/>
      </g>
     </g>
    </g>
    <g id="xtick_2">
     <g id="line2d_2">
      <g>
       <use style="stroke:#000000;stroke-width:0.8;" x="173.247123" xlink:href="#m809d0cbffd" y="334.6776"/>
      </g>
     </g>
    </g>
    <g id="xtick_3">
     <g id="line2d_3">
      <g>
       <use style="stroke:#000000;stroke-width:0.8;" x="242.835861" xlink:href="#m809d0cbffd" y="334.6776"/>
      </g>
     </g>
    </g>
    <g id="xtick_4">
     <g id="line2d_4">
      <g>
       <use style="stroke:#000000;stroke-width:0.8;" x="312.4246" xlink:href="#m809d0cbffd" y="334.6776"/>
      </g>
     </g>
    </g>
    <g id="xtick_5">
     <g id="line2d_5">
      <g>
       <use style="stroke:#000000;stroke-width:0.8;" x="382.013338" xlink:href="#m809d0cbffd" y="334.6776"/>
      </g>
     </g>
    </g>
    <g id="xtick_6">
     <g id="line2d_6">
      <g>
       <use style="stroke:#000000;stroke-width:0.8;" x="451.602077" xlink:href="#m809d0cbffd" y="334.6776"/>
      </g>
     </g>
    </g>
    <g id="xtick_7">
     <g id="line2d_7">
      <g>
       <use style="stroke:#000000;stroke-width:0.8;" x="521.190815" xlink:href="#m809d0cbffd" y="334.6776"/>
      </g>
     </g>
    </g>
    <g id="xtick_8">
     <g id="line2d_8">
      <g>
       <use style="stroke:#000000;stroke-width:0.8;" x="590.779554" xlink:href="#m809d0cbffd" y="334.6776"/>
      </g>
     </g>
    </g>
    <g id="xtick_9">
     <g id="line2d_9">
      <g>
       <use style="stroke:#000000;stroke-width:0.8;" x="660.368292" xlink:href="#m809d0cbffd" y="334.6776"/>
      </g>
     </g>
    </g>
   </g>
   <g id="matplotlib.axis_2">
    <g id="ytick_1">
     <g id="line2d_10">
      <defs>
       <path d="M 0 0 
L -3.5 0 
" id="mdc2862b396" style="stroke:#000000;stroke-width:0.8;"/>
      </defs>
      <g>
       <use style="stroke:#000000;stroke-width:0.8;" x="93.78" xlink:href="#mdc2862b396" y="324.015146"/>
      </g>
     </g>
     <g id="text_1">
      <!-- 0.65 -->
      <g transform="translate(64.514375 327.814365)scale(0.1 -0.1)">
       <defs>
        <path d="M 2034 4250 
Q 1547 4250 1301 3770 
Q 1056 3291 1056 2328 
Q 1056 1369 1301 889 
Q 1547 409 2034 409 
Q 2525 409 2770 889 
Q 3016 1369 3016 2328 
Q 3016 3291 2770 3770 
Q 2525 4250 2034 4250 
z
M 2034 4750 
Q 2819 4750 3233 4129 
Q 3647 3509 3647 2328 
Q 3647 1150 3233 529 
Q 2819 -91 2034 -91 
Q 1250 -91 836 529 
Q 422 1150 422 2328 
Q 422 3509 836 4129 
Q 1250 4750 2034 4750 
z
" id="DejaVuSans-30" transform="scale(0.015625)"/>
        <path d="M 684 794 
L 1344 794 
L 1344 0 
L 684 0 
L 684 794 
z
" id="DejaVuSans-2e" transform="scale(0.015625)"/>
        <path d="M 2113 2584 
Q 1688 2584 1439 2293 
Q 1191 2003 1191 1497 
Q 1191 994 1439 701 
Q 1688 409 2113 409 
Q 2538 409 2786 701 
Q 3034 994 3034 1497 
Q 3034 2003 2786 2293 
Q 2538 2584 2113 2584 
z
M 3366 4563 
L 3366 3988 
Q 3128 4100 2886 4159 
Q 2644 4219 2406 4219 
Q 1781 4219 1451 3797 
Q 1122 3375 1075 2522 
Q 1259 2794 1537 2939 
Q 1816 3084 2150 3084 
Q 2853 3084 3261 2657 
Q 3669 2231 3669 1497 
Q 3669 778 3244 343 
Q 2819 -91 2113 -91 
Q 1303 -91 875 529 
Q 447 1150 447 2328 
Q 447 3434 972 4092 
Q 1497 4750 2381 4750 
Q 2619 4750 2861 4703 
Q 3103 4656 3366 4563 
z
" id="DejaVuSans-36" transform="scale(0.015625)"/>
        <path d="M 691 4666 
L 3169 4666 
L 3169 4134 
L 1269 4134 
L 1269 2991 
Q 1406 3038 1543 3061 
Q 1681 3084 1819 3084 
Q 2600 3084 3056 2656 
Q 3513 2228 3513 1497 
Q 3513 744 3044 326 
Q 2575 -91 1722 -91 
Q 1428 -91 1123 -41 
Q 819 9 494 109 
L 494 744 
Q 775 591 1075 516 
Q 1375 441 1709 441 
Q 2250 441 2565 725 
Q 2881 1009 2881 1497 
Q 2881 1984 2565 2268 
Q 2250 2553 1709 2553 
Q 1456 2553 1204 2497 
Q 953 2441 691 2322 
L 691 4666 
z
" id="DejaVuSans-35" transform="scale(0.015625)"/>
       </defs>
       <use xlink:href="#DejaVuSans-30"/>
       <use x="63.623047" xlink:href="#DejaVuSans-2e"/>
       <use x="95.410156" xlink:href="#DejaVuSans-36"/>
       <use x="159.033203" xlink:href="#DejaVuSans-35"/>
      </g>
     </g>
    </g>
    <g id="ytick_2">
     <g id="line2d_11">
      <g>
       <use style="stroke:#000000;stroke-width:0.8;" x="93.78" xlink:href="#mdc2862b396" y="270.388333"/>
      </g>
     </g>
     <g id="text_2">
      <!-- 0.70 -->
      <g transform="translate(64.514375 274.187552)scale(0.1 -0.1)">
       <defs>
        <path d="M 525 4666 
L 3525 4666 
L 3525 4397 
L 1831 0 
L 1172 0 
L 2766 4134 
L 525 4134 
L 525 4666 
z
" id="DejaVuSans-37" transform="scale(0.015625)"/>
       </defs>
       <use xlink:href="#DejaVuSans-30"/>
       <use x="63.623047" xlink:href="#DejaVuSans-2e"/>
       <use x="95.410156" xlink:href="#DejaVuSans-37"/>
       <use x="159.033203" xlink:href="#DejaVuSans-30"/>
      </g>
     </g>
    </g>
    <g id="ytick_3">
     <g id="line2d_12">
      <g>
       <use style="stroke:#000000;stroke-width:0.8;" x="93.78" xlink:href="#mdc2862b396" y="216.761519"/>
      </g>
     </g>
     <g id="text_3">
      <!-- 0.75 -->
      <g transform="translate(64.514375 220.560738)scale(0.1 -0.1)">
       <use xlink:href="#DejaVuSans-30"/>
       <use x="63.623047" xlink:href="#DejaVuSans-2e"/>
       <use x="95.410156" xlink:href="#DejaVuSans-37"/>
       <use x="159.033203" xlink:href="#DejaVuSans-35"/>
      </g>
     </g>
    </g>
    <g id="ytick_4">
     <g id="line2d_13">
      <g>
       <use style="stroke:#000000;stroke-width:0.8;" x="93.78" xlink:href="#mdc2862b396" y="163.134706"/>
      </g>
     </g>
     <g id="text_4">
      <!-- 0.80 -->
      <g transform="translate(64.514375 166.933924)scale(0.1 -0.1)">
       <defs>
        <path d="M 2034 2216 
Q 1584 2216 1326 1975 
Q 1069 1734 1069 1313 
Q 1069 891 1326 650 
Q 1584 409 2034 409 
Q 2484 409 2743 651 
Q 3003 894 3003 1313 
Q 3003 1734 2745 1975 
Q 2488 2216 2034 2216 
z
M 1403 2484 
Q 997 2584 770 2862 
Q 544 3141 544 3541 
Q 544 4100 942 4425 
Q 1341 4750 2034 4750 
Q 2731 4750 3128 4425 
Q 3525 4100 3525 3541 
Q 3525 3141 3298 2862 
Q 3072 2584 2669 2484 
Q 3125 2378 3379 2068 
Q 3634 1759 3634 1313 
Q 3634 634 3220 271 
Q 2806 -91 2034 -91 
Q 1263 -91 848 271 
Q 434 634 434 1313 
Q 434 1759 690 2068 
Q 947 2378 1403 2484 
z
M 1172 3481 
Q 1172 3119 1398 2916 
Q 1625 2713 2034 2713 
Q 2441 2713 2670 2916 
Q 2900 3119 2900 3481 
Q 2900 3844 2670 4047 
Q 2441 4250 2034 4250 
Q 1625 4250 1398 4047 
Q 1172 3844 1172 3481 
z
" id="DejaVuSans-38" transform="scale(0.015625)"/>
       </defs>
       <use xlink:href="#DejaVuSans-30"/>
       <use x="63.623047" xlink:href="#DejaVuSans-2e"/>
       <use x="95.410156" xlink:href="#DejaVuSans-38"/>
       <use x="159.033203" xlink:href="#DejaVuSans-30"/>
      </g>
     </g>
    </g>
    <g id="ytick_5">
     <g id="line2d_14">
      <g>
       <use style="stroke:#000000;stroke-width:0.8;" x="93.78" xlink:href="#mdc2862b396" y="109.507892"/>
      </g>
     </g>
     <g id="text_5">
      <!-- 0.85 -->
      <g transform="translate(64.514375 113.307111)scale(0.1 -0.1)">
       <use xlink:href="#DejaVuSans-30"/>
       <use x="63.623047" xlink:href="#DejaVuSans-2e"/>
       <use x="95.410156" xlink:href="#DejaVuSans-38"/>
       <use x="159.033203" xlink:href="#DejaVuSans-35"/>
      </g>
     </g>
    </g>
    <g id="text_6">
     <!-- v -->
     <g transform="translate(58.434688 213.022975)rotate(-90)scale(0.1 -0.1)">
      <defs>
       <path d="M 191 3500 
L 800 3500 
L 1894 563 
L 2988 3500 
L 3597 3500 
L 2284 0 
L 1503 0 
L 191 3500 
z
" id="DejaVuSans-76" transform="scale(0.015625)"/>
      </defs>
      <use xlink:href="#DejaVuSans-76"/>
     </g>
    </g>
   </g>
   <g id="line2d_15"/>
   <g id="line2d_16">
    <path clip-path="url(#p6d5595036e)" d="M 382.061529 282.669268 
L 386.611252 282.554304 
L 391.145575 282.215442 
L 395.650839 281.656242 
L 400.227691 280.859949 
L 404.746828 279.846893 
L 409.306159 278.595672 
L 413.887878 277.106656 
L 418.579093 275.34363 
L 423.352644 273.307727 
L 428.278437 270.962916 
L 433.599027 268.176165 
L 439.586764 264.778346 
L 448.851783 259.218526 
L 455.713201 255.212006 
L 459.720582 253.120449 
L 462.767312 251.767889 
L 465.270467 250.89176 
L 467.339446 250.397691 
L 469.064463 250.210901 
L 470.476809 250.274798 
L 471.644651 250.542755 
L 472.617173 250.993359 
L 473.399274 251.604351 
L 473.959602 252.293569 
L 473.959602 252.293569 
" style="fill:none;stroke:#1f77b4;stroke-linecap:square;stroke-width:1.5;"/>
   </g>
   <g id="line2d_17">
    <path clip-path="url(#p6d5595036e)" d="M 473.97838 252.322659 
L 474.4174 253.211484 
L 474.688075 254.274445 
L 474.760419 255.466251 
L 474.614894 256.813516 
L 474.233921 258.251113 
L 473.607076 259.748693 
L 472.725442 261.272095 
L 471.624445 262.734093 
L 470.274679 264.14918 
L 468.733734 265.435826 
L 467.027309 266.570106 
L 465.182083 267.535121 
L 463.143084 268.349067 
L 461.005493 268.966682 
L 458.701382 269.40263 
L 456.239004 269.639616 
L 453.627749 269.66296 
L 450.877959 269.460819 
L 448.000717 269.024307 
L 445.007652 268.347525 
L 441.784869 267.385626 
L 438.463405 266.160513 
L 434.924379 264.612827 
L 431.308738 262.790835 
L 427.494011 260.621526 
L 423.489831 258.088209 
L 419.308386 255.178872 
L 414.964384 251.886819 
L 410.334803 248.092125 
L 405.580864 243.903949 
L 400.588374 239.203249 
L 395.389815 233.994661 
L 390.024225 228.297619 
L 384.537345 222.148028 
L 378.857988 215.450272 
L 372.945692 208.129622 
L 366.912949 200.302677 
L 360.692366 191.860419 
L 354.417296 182.964207 
L 348.097683 173.616438 
L 341.761431 163.84394 
L 335.47882 153.742559 
L 335.006726 152.966307 
L 335.006726 152.966307 
" style="fill:none;stroke:#1f77b4;stroke-dasharray:5.55,2.4;stroke-dashoffset:0;stroke-width:1.5;"/>
   </g>
   <g id="line2d_18"/>
   <g id="line2d_19">
    <path clip-path="url(#p6d5595036e)" d="M 381.816858 282.66907 
L 377.303628 282.548644 
L 372.803088 282.207649 
L 368.328306 281.649156 
L 363.778808 280.855928 
L 359.282747 279.847615 
L 354.742485 278.602252 
L 350.175542 277.119518 
L 345.494913 275.362607 
L 340.727577 273.331882 
L 335.803698 270.990628 
L 330.575364 268.256768 
L 324.574908 264.857402 
L 315.604735 259.477737 
L 308.466831 255.297041 
L 304.437435 253.184181 
L 301.372827 251.8133 
L 298.854094 250.920926 
L 296.771439 250.412683 
L 295.034229 250.213538 
L 293.611086 250.266863 
L 292.433419 250.525605 
L 291.451649 250.967965 
L 290.660793 251.571595 
L 290.073622 252.283544 
L 290.073622 252.283544 
" style="fill:none;stroke:#1f77b4;stroke-linecap:square;stroke-width:1.5;"/>
   </g>
   <g id="line2d_20">
    <path clip-path="url(#p6d5595036e)" d="M 290.054755 252.312595 
L 289.613404 253.200333 
L 289.340509 254.262089 
L 289.265932 255.452422 
L 289.408839 256.797711 
L 289.786513 258.232756 
L 290.408946 259.727183 
L 291.284572 261.246934 
L 292.377769 262.705173 
L 293.717317 264.116663 
L 295.24571 265.400494 
L 296.937232 266.53324 
L 298.839473 267.532765 
L 300.865723 268.342945 
L 303.076475 268.979798 
L 305.368949 269.408802 
L 307.816644 269.641113 
L 310.410359 269.662584 
L 313.140032 269.461799 
L 315.994935 269.030167 
L 319.084828 268.330237 
L 322.285102 267.371144 
L 325.582649 266.152703 
L 329.095961 264.615812 
L 332.819832 262.736118 
L 336.61003 260.575016 
L 340.589237 258.053392 
L 344.745957 255.158758 
L 349.066212 251.88373 
L 353.673097 248.108092 
L 358.406915 243.939376 
L 363.382061 239.257875 
L 368.566905 234.066815 
L 373.923097 228.384187 
L 379.405327 222.244585 
L 385.084936 215.551447 
L 391.002517 208.229066 
L 397.045218 200.393562 
L 403.178892 192.075912 
L 409.482744 183.147521 
L 415.838065 173.753732 
L 422.173472 163.988408 
L 428.460436 153.886029 
L 429.019899 152.966415 
L 429.019899 152.966415 
" style="fill:none;stroke:#1f77b4;stroke-dasharray:5.55,2.4;stroke-dashoffset:0;stroke-width:1.5;"/>
   </g>
   <g id="line2d_21"/>
   <g id="line2d_22">
    <path clip-path="url(#p6d5595036e)" d="M 382.061266 322.37046 
L 382.109677 322.571162 
L 382.153612 322.753261 
L 382.192604 322.914838 
L 382.226171 323.053905 
L 382.253822 323.168444 
L 382.275084 323.256502 
L 382.289527 323.316311 
L 382.296801 323.346425 
" style="fill:none;stroke:#2ca02c;stroke-linecap:square;stroke-width:1.5;"/>
   </g>
   <g id="line2d_23">
    <path clip-path="url(#p6d5595036e)" d="M 382.296665 323.345856 
L 375.778427 295.881572 
L 367.977479 261.970106 
L 358.225982 219.669157 
L 353.684856 200.977551 
L 349.882723 186.225346 
L 346.500698 173.94746 
L 343.322544 163.220051 
L 340.362851 153.98358 
L 337.518047 145.818983 
L 334.804285 138.701296 
L 332.24008 132.594383 
L 329.846362 127.45468 
L 327.646667 123.233743 
L 325.567118 119.721689 
L 323.75716 117.09436 
L 322.259247 115.292947 
L 321.119527 114.247534 
L 320.416696 113.875145 
L 320.131254 113.927643 
L 320.068604 114.163911 
L 320.224789 114.662006 
L 320.705026 115.414297 
L 321.588165 116.385255 
L 322.816555 117.414963 
L 324.336877 118.412603 
L 326.233477 119.377895 
L 328.334652 120.184604 
L 330.586935 120.811225 
L 333.121272 121.277014 
L 335.744052 121.535487 
L 338.607473 121.595985 
L 341.696397 121.436648 
L 344.994338 121.042253 
L 348.483733 120.404281 
L 352.328622 119.471704 
L 356.503903 118.222513 
L 360.978479 116.650415 
L 366.06222 114.621878 
L 372.015917 111.99287 
L 379.967733 108.214495 
L 392.424901 102.290518 
L 397.40135 100.190623 
L 401.314137 98.774458 
L 404.634568 97.804518 
L 407.515634 97.187291 
L 410.140636 96.850232 
L 412.227177 96.795128 
L 412.251213 96.803916 
L 411.895202 96.838538 
L 408.575979 97.137801 
L 405.856879 97.629704 
L 402.91038 98.39039 
L 399.511887 99.503727 
L 395.493117 101.06398 
L 390.497346 103.251185 
L 382.810072 106.887911 
L 370.845593 112.528803 
L 364.718689 115.155786 
L 359.505798 117.147778 
L 354.936803 118.658114 
L 350.880471 119.77721 
L 346.98587 120.622141 
L 343.474598 121.161523 
L 340.175221 121.447479 
L 337.109497 121.492735 
L 334.297539 121.318467 
L 331.579335 120.920409 
L 329.164797 120.341594 
L 326.914111 119.568551 
L 324.882166 118.624083 
L 323.132412 117.555178 
L 321.730848 116.438929 
L 320.734548 115.382072 
L 320.177479 114.509593 
L 320.051425 114.00192 
L 320.051425 114.00192 
" style="fill:none;stroke:#2ca02c;stroke-dasharray:5.55,2.4;stroke-dashoffset:0;stroke-width:1.5;"/>
   </g>
   <g id="line2d_24">
    <path clip-path="url(#p6d5595036e)" d="M 320.05509 113.971949 
L 320.205389 113.790278 
L 320.5066 113.824589 
L 321.065173 114.14115 
L 321.957798 114.921955 
L 323.150826 116.263184 
L 324.639665 118.270026 
L 326.410945 121.040838 
L 328.445384 124.666166 
L 330.591263 128.956036 
L 332.945283 134.178663 
L 335.352083 140.054651 
L 337.92312 146.913074 
L 340.640446 154.798329 
L 343.486315 163.738292 
L 346.57751 174.207818 
L 349.892688 186.259074 
L 353.538927 200.395524 
L 357.737736 217.617787 
L 363.165009 240.898697 
L 380.063691 314.043801 
L 382.297436 323.349055 
L 382.297436 323.349055 
" style="fill:none;stroke:#2ca02c;stroke-linecap:square;stroke-width:1.5;"/>
   </g>
   <g id="line2d_25">
    <path clip-path="url(#p6d5595036e)" d="M 382.295559 323.341274 
L 375.75437 295.778503 
L 367.952369 261.859943 
L 358.200068 219.559827 
L 353.658515 200.872249 
L 349.856005 186.125078 
L 346.473666 173.852813 
L 343.295274 163.131573 
L 340.33545 153.901568 
L 337.490654 145.743833 
L 334.777081 138.633321 
L 332.213301 132.533845 
L 329.820306 127.401807 
L 327.621713 123.18875 
L 325.543847 119.685225 
L 323.736265 117.066676 
L 322.241607 115.274226 
L 321.106205 114.237774 
L 320.408463 113.873439 
L 320.127597 113.931639 
L 320.06919 114.172199 
L 320.231008 114.674768 
L 320.717594 115.430584 
L 321.607289 116.403505 
L 322.841403 117.433355 
L 324.366393 118.429735 
L 326.266866 119.392676 
L 328.370905 120.196497 
L 330.625261 120.820041 
L 333.161158 121.282553 
L 335.784986 121.537903 
L 338.649104 121.595317 
L 341.738414 121.433016 
L 345.036461 121.035845 
L 348.525716 120.395341 
L 352.370223 119.460414 
L 356.54488 118.209151 
L 361.0186 116.635348 
L 366.101186 114.605473 
L 372.053345 111.975662 
L 380.002911 108.197423 
L 392.317621 102.338486 
L 397.301711 100.229804 
L 401.221576 98.804867 
L 404.549183 97.826247 
L 407.438115 97.200738 
L 410.074372 96.855686 
L 412.189085 96.790661 
L 412.250844 96.80187 
L 411.755164 96.846512 
L 408.649291 97.127651 
L 405.939219 97.611654 
L 402.999758 98.364262 
L 399.6078 99.469397 
L 395.595547 101.021612 
L 390.606771 103.201193 
L 382.928745 106.830746 
L 376.509322 109.909169 
L 376.509322 109.909169 
" style="fill:none;stroke:#2ca02c;stroke-dasharray:5.55,2.4;stroke-dashoffset:0;stroke-width:1.5;"/>
   </g>
   <g id="line2d_26"/>
   <g id="line2d_27">
    <path clip-path="url(#p6d5595036e)" d="M 330.648794 128.960155 
L 333.005734 134.216871 
L 335.466158 140.259579 
L 338.110112 147.366 
L 340.909423 155.563572 
L 343.836362 164.853064 
L 346.961289 175.545975 
L 350.25108 187.609207 
L 353.940883 202.014109 
L 358.220916 219.665965 
L 363.933492 244.260368 
L 373.967173 288.085844 
L 373.967173 288.085844 
" style="fill:none;stroke:#d62728;stroke-linecap:square;stroke-width:1.5;"/>
   </g>
   <g id="line2d_28">
    <path clip-path="url(#p6d5595036e)" d="M 373.966232 288.081769 
L 363.819655 243.76387 
L 357.305506 215.820629 
L 352.849317 197.665565 
L 349.122255 183.38201 
L 345.775451 171.397144 
L 342.675479 161.082551 
L 339.762309 152.121616 
L 336.968065 144.219288 
L 334.314621 137.361674 
L 331.825592 131.518122 
L 329.430187 126.45309 
L 327.252673 122.35069 
L 325.233487 119.011536 
L 323.505721 116.560727 
L 322.035878 114.84496 
L 320.959045 113.905566 
L 320.333317 113.60964 
L 320.082633 113.673822 
L 320.025092 113.918263 
L 320.191179 114.422113 
L 320.722175 115.224 
L 321.655459 116.208711 
L 322.987928 117.269659 
L 324.578529 118.245097 
L 326.358813 119.085535 
L 328.410945 119.808424 
L 330.578515 120.343891 
L 332.972004 120.709084 
L 335.575848 120.875905 
L 338.372373 120.82182 
L 341.341518 120.530322 
L 344.460375 119.991723 
L 347.702319 119.204433 
L 351.178275 118.128451 
L 354.968068 116.712486 
L 359.071599 114.93517 
L 364.025317 112.531888 
L 365.260337 111.903032 
L 358.642643 115.131485 
L 354.340816 116.963199 
L 350.549593 118.340068 
L 346.953428 119.406134 
L 343.611529 120.161009 
L 340.563815 120.629023 
L 337.677462 120.856762 
L 334.974747 120.857552 
L 332.321321 120.63173 
L 329.899513 120.19924 
L 327.729692 119.594462 
L 325.699533 118.800833 
L 323.864276 117.838462 
L 322.295937 116.754938 
L 321.081385 115.639968 
L 320.306715 114.633282 
L 320.027489 113.942043 
L 320.023766 113.838268 
L 320.023766 113.838268 
" style="fill:none;stroke:#d62728;stroke-dasharray:5.55,2.4;stroke-dashoffset:0;stroke-width:1.5;"/>
   </g>
   <g id="line2d_29">
    <path clip-path="url(#p6d5595036e)" d="M 320.026801 113.80764 
L 320.16991 113.6181 
L 320.460448 113.641139 
L 320.993601 113.92981 
L 321.900285 114.708884 
L 323.08421 116.029581 
L 324.611488 118.082761 
L 326.370403 120.834018 
L 328.324201 124.307932 
L 330.440005 128.520273 
L 332.795907 133.727514 
L 335.25764 139.725922 
L 337.904805 146.791818 
L 340.606197 154.642735 
L 343.542001 163.886424 
L 346.580979 174.203423 
L 349.885774 186.231303 
L 353.503779 200.264172 
L 357.722801 217.568856 
L 363.156303 240.871221 
L 373.967289 288.086345 
L 373.967289 288.086345 
" style="fill:none;stroke:#d62728;stroke-linecap:square;stroke-width:1.5;"/>
   </g>
   <g id="line2d_30">
    <path clip-path="url(#p6d5595036e)" d="M 373.96602 288.080854 
L 363.890209 244.07184 
L 357.302193 215.806774 
L 352.845855 197.651885 
L 349.118651 183.368657 
L 345.771711 171.384232 
L 342.67161 161.070175 
L 339.758326 152.109862 
L 336.963982 144.208245 
L 334.310462 137.351427 
L 331.821389 131.508749 
L 329.425987 126.444708 
L 327.248542 122.343384 
L 325.22952 119.005453 
L 323.50205 116.555975 
L 322.032709 114.841721 
L 320.95662 113.903914 
L 320.331798 113.609418 
L 320.081936 113.674614 
L 320.025233 113.919886 
L 320.192395 114.424547 
L 320.724592 115.227013 
L 321.658956 116.211914 
L 322.992303 117.272712 
L 324.583541 118.247797 
L 326.364284 119.087785 
L 328.416764 119.810154 
L 330.584574 120.345099 
L 332.97823 120.709756 
L 335.582175 120.876044 
L 338.378741 120.821443 
L 341.347869 120.529459 
L 344.466656 119.990414 
L 347.708474 119.202732 
L 351.184238 118.126414 
L 354.973735 116.710195 
L 359.076765 114.932794 
L 364.028693 112.530181 
L 365.260311 111.903045 
L 358.637045 115.134031 
L 354.33471 116.965607 
L 350.543204 118.342178 
L 347.104841 119.366356 
L 343.764827 120.131721 
L 340.717671 120.610794 
L 337.830654 120.850331 
L 335.125984 120.863374 
L 332.468942 120.650747 
L 330.041739 120.231279 
L 327.864525 119.638815 
L 325.823955 118.856854 
L 323.974286 117.904191 
L 322.386428 116.826235 
L 321.146575 115.709607 
L 320.341715 114.691024 
L 320.032774 113.978796 
L 320.023852 113.836917 
L 320.023852 113.836917 
" style="fill:none;stroke:#d62728;stroke-dasharray:5.55,2.4;stroke-dashoffset:0;stroke-width:1.5;"/>
   </g>
   <g id="line2d_31">
    <path clip-path="url(#p6d5595036e)" d="M 320.026978 113.806375 
L 320.170945 113.617765 
L 320.462162 113.641703 
L 320.99601 113.931493 
L 321.903379 114.711948 
L 323.087829 116.034021 
L 324.615508 118.088605 
L 326.374691 120.841179 
L 328.328651 124.316313 
L 330.444535 128.529772 
L 332.800454 133.738074 
L 335.262151 139.737425 
L 337.909238 146.804176 
L 340.610522 154.655815 
L 343.54619 163.90013 
L 346.585015 174.217614 
L 349.889641 186.245842 
L 353.507465 200.278884 
L 357.72629 217.583511 
L 363.159562 240.885417 
L 373.967389 288.086774 
L 373.967389 288.086774 
" style="fill:none;stroke:#d62728;stroke-linecap:square;stroke-width:1.5;"/>
   </g>
   <g id="line2d_32">
    <path clip-path="url(#p6d5595036e)" d="M 373.965801 288.079906 
L 363.887167 244.058563 
L 357.298985 215.793357 
L 352.842505 197.638644 
L 349.115164 183.355738 
L 348.861647 182.418797 
L 348.861647 182.418797 
" style="fill:none;stroke:#d62728;stroke-dasharray:5.55,2.4;stroke-dashoffset:0;stroke-width:1.5;"/>
   </g>
   <g id="line2d_33">
    <path clip-path="url(#p6d5595036e)" d="M 359.837386 226.538003 
L 366.727257 256.490935 
L 373.199831 284.754318 
L 373.199831 284.754318 
" style="fill:none;stroke:#9467bd;stroke-linecap:square;stroke-width:1.5;"/>
   </g>
   <g id="line2d_34">
    <path clip-path="url(#p6d5595036e)" d="M 373.198196 284.747157 
L 355.118286 206.788514 
L 351.076236 190.762919 
L 347.508551 177.503487 
L 344.245477 166.212501 
L 341.21054 156.488077 
L 338.307899 147.923363 
L 335.568734 140.523037 
L 332.951218 134.087952 
L 330.484753 128.61223 
L 328.20219 124.076657 
L 326.139849 120.449631 
L 324.260287 117.578115 
L 322.69217 115.559559 
L 321.423759 114.26433 
L 320.578906 113.684881 
L 320.16898 113.616249 
L 320.032122 113.77759 
L 320.076702 114.147252 
L 320.404892 114.787294 
L 321.122099 115.680832 
L 322.206082 116.68009 
L 323.631183 117.692565 
L 325.371343 118.645245 
L 327.287014 119.439356 
L 329.460662 120.092243 
L 331.747378 120.547686 
L 334.251099 120.817275 
L 336.955255 120.876078 
L 339.83967 120.705 
L 342.880242 120.291919 
L 346.048092 119.633152 
L 349.441422 118.694433 
L 352.995329 117.479623 
L 356.939332 115.888534 
L 361.401953 113.834894 
L 361.668995 113.704918 
L 356.790751 115.951788 
L 352.808483 117.548484 
L 349.129716 118.790052 
L 345.775774 119.698755 
L 342.519776 120.353315 
L 339.547279 120.733601 
L 336.737489 120.880855 
L 334.11278 120.809551 
L 331.552012 120.518703 
L 329.22234 120.033659 
L 327.014875 119.342091 
L 325.089361 118.50961 
L 323.362227 117.522408 
L 321.901255 116.427153 
L 320.853541 115.382752 
L 320.206264 114.451558 
L 320.022957 113.86993 
L 320.023884 113.837424 
L 320.023884 113.837424 
" style="fill:none;stroke:#9467bd;stroke-dasharray:5.55,2.4;stroke-dashoffset:0;stroke-width:1.5;"/>
   </g>
   <g id="line2d_35">
    <path clip-path="url(#p6d5595036e)" d="M 320.026927 113.806894 
L 320.169772 113.617612 
L 320.458308 113.639836 
L 320.980578 113.920106 
L 321.847163 114.65592 
L 323.021119 115.951788 
L 324.56255 118.010994 
L 326.358622 120.813505 
L 328.365317 124.384564 
L 330.542902 128.735663 
L 332.856419 133.867429 
L 335.357473 139.980314 
L 337.931663 146.866403 
L 340.70694 154.947962 
L 343.571715 163.984529 
L 346.637121 174.402685 
L 349.92585 186.38488 
L 353.573465 200.546317 
L 357.79338 217.869535 
L 363.256387 241.308518 
L 373.199328 284.752154 
L 373.199328 284.752154 
" style="fill:none;stroke:#9467bd;stroke-linecap:square;stroke-width:1.5;"/>
   </g>
   <g id="line2d_36">
    <path clip-path="url(#p6d5595036e)" d="M 373.199037 284.750812 
L 355.237471 207.275066 
L 351.145021 191.02724 
L 347.58136 177.764858 
L 344.322252 166.468414 
L 341.291165 156.736371 
L 338.392251 148.161866 
L 335.656527 140.749759 
L 333.04207 134.300677 
L 330.578034 128.808658 
L 328.296925 124.25431 
L 326.234541 120.605739 
L 324.352483 117.708288 
L 322.778017 115.659573 
L 321.496852 114.327958 
L 320.631802 113.709562 
L 320.173705 113.614731 
L 320.033358 113.772239 
L 320.073792 114.138363 
L 320.397266 114.775622 
L 321.109914 115.667824 
L 322.19019 116.667201 
L 323.612358 117.680762 
L 325.350193 118.635128 
L 327.264105 119.431171 
L 329.436345 120.086202 
L 331.722019 120.543791 
L 334.224968 120.815581 
L 336.928619 120.876576 
L 339.812796 120.707624 
L 342.8534 120.296539 
L 346.021566 119.639572 
L 349.415567 118.702435 
L 352.970658 117.488809 
L 356.917146 115.898124 
L 361.346735 113.861661 
L 361.669292 113.704776 
L 356.814601 115.941518 
L 352.834806 117.53875 
L 349.157189 118.781694 
L 345.656614 119.726809 
L 342.399536 120.372876 
L 339.427124 120.744284 
L 336.618482 120.882177 
L 333.996004 120.801276 
L 331.438823 120.500281 
L 329.114085 120.00538 
L 326.913457 119.304063 
L 324.996642 118.463074 
L 323.281165 117.468984 
L 321.835875 116.3702 
L 320.807546 115.32812 
L 320.184243 114.407746 
L 320.023546 113.843426 
L 320.023546 113.843426 
" style="fill:none;stroke:#9467bd;stroke-dasharray:5.55,2.4;stroke-dashoffset:0;stroke-width:1.5;"/>
   </g>
   <g id="line2d_37">
    <path clip-path="url(#p6d5595036e)" d="M 320.026189 113.81252 
L 320.165247 113.619147 
L 320.450843 113.637436 
L 320.970247 113.912981 
L 321.834262 114.643333 
L 323.006396 115.933908 
L 324.46299 117.867623 
L 326.168856 120.49899 
L 328.086391 123.862232 
L 330.266441 128.156992 
L 332.58587 133.241008 
L 335.013068 139.104391 
L 337.600308 145.946754 
L 340.314697 153.765061 
L 343.198737 162.768987 
L 346.216035 172.927292 
L 349.46483 184.657784 
L 353.020473 198.345934 
L 357.10885 215.002234 
L 358.283795 219.935431 
L 358.283795 219.935431 
" style="fill:none;stroke:#9467bd;stroke-linecap:square;stroke-width:1.5;"/>
   </g>
   <g id="line2d_38"/>
   <g id="line2d_39">
    <path clip-path="url(#p6d5595036e)" d="M 355.858463 209.829873 
L 360.649577 230.011499 
L 368.57467 264.533921 
L 373.121458 284.362112 
L 373.121458 284.362112 
" style="fill:none;stroke:#8c564b;stroke-linecap:square;stroke-width:1.5;"/>
   </g>
   <g id="line2d_40">
    <path clip-path="url(#p6d5595036e)" d="M 373.122335 284.365757 
L 357.220566 215.46887 
L 352.791901 197.471136 
L 349.041659 183.125718 
L 345.6575 171.031726 
L 342.525583 160.639115 
L 339.549227 151.522044 
L 336.768975 143.701848 
L 334.115257 136.884244 
L 331.621095 131.069776 
L 329.259962 126.115659 
L 327.065432 122.018695 
L 325.077883 118.768986 
L 323.347579 116.350724 
L 321.937891 114.737668 
L 320.918872 113.87004 
L 320.324271 113.600535 
L 320.080802 113.671099 
L 320.028341 113.917616 
L 320.188919 114.404148 
L 320.709709 115.196971 
L 321.6398 116.184031 
L 322.914021 117.208455 
L 324.50295 118.196015 
L 326.284116 119.047775 
L 328.330866 119.779061 
L 330.514867 120.327378 
L 332.929877 120.70269 
L 335.560975 120.875982 
L 338.258447 120.831208 
L 341.124584 120.564798 
L 344.133926 120.067212 
L 347.385294 119.303242 
L 350.83102 118.262251 
L 354.510362 116.916504 
L 358.612537 115.17024 
L 361.291073 113.911337 
L 354.70081 116.82888 
L 350.89932 118.228067 
L 347.352045 119.30238 
L 344.015847 120.082717 
L 340.939622 120.582231 
L 338.016308 120.839454 
L 335.272274 120.865389 
L 332.72966 120.678929 
L 330.279896 120.279105 
L 328.075427 119.702117 
L 326.017963 118.937746 
L 324.147502 118.000829 
L 322.59975 116.984714 
L 321.329064 115.892247 
L 320.471316 114.883731 
L 320.061642 114.095928 
L 320.023627 113.865506 
L 320.023627 113.865506 
" style="fill:none;stroke:#8c564b;stroke-dasharray:5.55,2.4;stroke-dashoffset:0;stroke-width:1.5;"/>
   </g>
   <g id="line2d_41">
    <path clip-path="url(#p6d5595036e)" d="M 320.024612 113.833303 
L 320.14733 113.62342 
L 320.419305 113.624719 
L 320.917246 113.873744 
L 321.730506 114.540131 
L 322.869088 115.765523 
L 324.374433 117.737997 
L 326.128361 120.429593 
L 328.081043 123.850141 
L 330.190876 127.998979 
L 332.489601 133.020098 
L 334.939 138.919802 
L 337.505074 145.689304 
L 340.214582 153.473675 
L 343.08576 162.415331 
L 346.12956 172.642097 
L 349.39768 184.426113 
L 352.969791 198.162651 
L 357.062315 214.815927 
L 362.267345 236.989976 
L 373.121132 284.360707 
L 373.121132 284.360707 
" style="fill:none;stroke:#8c564b;stroke-linecap:square;stroke-width:1.5;"/>
   </g>
   <g id="line2d_42">
    <path clip-path="url(#p6d5595036e)" d="M 373.122516 284.366556 
L 357.369623 216.090987 
L 352.911667 197.943975 
L 349.126623 183.440224 
L 345.74807 171.344012 
L 342.621897 160.946702 
L 339.651445 151.822518 
L 336.877048 143.993005 
L 334.229153 137.163629 
L 331.740557 131.33486 
L 329.384561 126.363274 
L 327.194233 122.244944 
L 325.209004 118.968744 
L 323.47728 116.516868 
L 322.058984 114.860482 
L 320.967874 113.903089 
L 320.323117 113.600389 
L 320.080278 113.671737 
L 320.028464 113.918875 
L 320.189805 114.405941 
L 320.711389 115.199082 
L 321.642141 116.186187 
L 322.916871 117.210473 
L 324.506205 118.197792 
L 326.287685 119.049262 
L 328.334694 119.780218 
L 328.784166 119.911007 
L 328.784166 119.911007 
" style="fill:none;stroke:#8c564b;stroke-dasharray:5.55,2.4;stroke-dashoffset:0;stroke-width:1.5;"/>
   </g>
   <g id="line2d_43">
    <path clip-path="url(#p6d5595036e)" d="M 353.871371 201.743384 
L 358.227029 219.571812 
L 363.745897 243.154601 
L 372.137632 280.102909 
L 373.138043 284.566279 
L 373.138043 284.566279 
" style="fill:none;stroke:#e377c2;stroke-linecap:square;stroke-width:1.5;"/>
   </g>
   <g id="line2d_44">
    <path clip-path="url(#p6d5595036e)" d="M 373.135576 284.557437 
L 370.794984 274.176774 
L 361.320392 232.480305 
L 356.268396 211.295109 
L 352.011239 194.370856 
L 348.258028 180.335866 
L 344.846764 168.419762 
L 341.707745 158.238614 
L 338.744373 149.366627 
L 335.958795 141.714878 
L 333.350107 135.177751 
L 330.863399 129.534689 
L 328.582931 124.88879 
L 326.445237 121.025305 
L 324.545133 118.033395 
L 322.938497 115.885348 
L 321.637126 114.480374 
L 320.724881 113.779883 
L 320.241309 113.62752 
L 320.054189 113.762591 
L 320.065899 114.094591 
L 320.356124 114.715197 
L 321.037885 115.602893 
L 322.106346 116.620102 
L 323.488791 117.633241 
L 325.168618 118.588116 
L 327.042163 119.402486 
L 329.187841 120.087196 
L 331.488069 120.583662 
L 333.913801 120.883789 
L 336.557083 120.985662 
L 339.395673 120.865306 
L 342.400523 120.507178 
L 345.537394 119.905866 
L 348.890269 119.031387 
L 352.399582 117.885288 
L 356.182957 116.415001 
L 360.300893 114.573349 
L 361.258088 114.100635 
L 357.874033 115.612129 
L 353.523866 117.376644 
L 349.712723 118.682813 
L 346.173116 119.659004 
L 342.851031 120.340346 
L 339.793253 120.742859 
L 336.901938 120.902135 
L 334.207102 120.832674 
L 331.61187 120.538947 
L 329.266818 120.050825 
L 327.078135 119.366891 
L 325.078702 118.50194 
L 323.388104 117.53387 
L 321.944434 116.456118 
L 320.867837 115.38875 
L 320.208865 114.441878 
L 320.027802 113.882204 
L 320.027802 113.882204 
" style="fill:none;stroke:#e377c2;stroke-dasharray:5.55,2.4;stroke-dashoffset:0;stroke-width:1.5;"/>
   </g>
   <g id="line2d_45">
    <path clip-path="url(#p6d5595036e)" d="M 320.027576 113.849358 
L 320.137336 113.628251 
L 320.397826 113.61672 
L 320.874451 113.843208 
L 321.69054 114.500665 
L 322.841567 115.73312 
L 324.27646 117.603009 
L 326.000668 120.229448 
L 327.960503 123.642319 
L 330.108935 127.853642 
L 332.406075 132.8638 
L 334.867017 138.786329 
L 337.454446 145.61166 
L 340.179505 153.443529 
L 343.047933 162.376619 
L 346.098698 172.617015 
L 349.393145 184.470352 
L 353.038313 198.439811 
L 355.897614 209.929274 
L 355.897614 209.929274 
" style="fill:none;stroke:#e377c2;stroke-linecap:square;stroke-width:1.5;"/>
   </g>
   <g id="line2d_46">
    <path clip-path="url(#p6d5595036e)" d="M 368.335712 263.753664 
L 373.693618 290.361913 
L 373.693618 290.361913 
" style="fill:none;stroke:#7f7f7f;stroke-linecap:square;stroke-width:1.5;"/>
   </g>
   <g id="line2d_47">
    <path clip-path="url(#p6d5595036e)" d="M 373.689291 290.364285 
L 373.415288 289.240924 
L 371.567581 280.65874 
L 368.06104 263.225759 
L 363.391884 240.254564 
L 360.244732 225.930445 
L 357.120615 212.73966 
L 353.833496 199.822112 
L 350.362451 187.077611 
L 346.784257 174.776527 
L 343.270746 163.477926 
L 339.954913 153.541263 
L 336.850198 144.923903 
L 334.000326 137.650941 
L 331.377771 131.545495 
L 328.944007 126.428938 
L 326.737241 122.292864 
L 324.75764 119.042314 
L 323.057466 116.6629 
L 321.709209 115.130821 
L 320.759348 114.35002 
L 320.243502 114.162919 
L 320.055079 114.291118 
L 320.060969 114.614043 
L 320.318498 115.202211 
L 320.951322 116.077573 
L 321.983829 117.120741 
L 323.385118 118.208419 
L 325.018116 119.195329 
L 326.859203 120.056437 
L 328.892156 120.770649 
L 331.099915 121.318894 
L 333.570948 121.697455 
L 336.176579 121.865659 
L 338.878977 121.82071 
L 341.759425 121.553908 
L 344.781112 121.05555 
L 348.022187 120.295857 
L 351.427765 119.269567 
L 355.026769 117.953987 
L 358.797911 116.337486 
L 361.296684 115.058492 
L 361.290906 115.045052 
L 361.19699 115.061275 
L 359.906065 115.546111 
L 353.357902 118.046324 
L 349.462864 119.277839 
L 345.949436 120.163353 
L 342.64612 120.770131 
L 339.603019 121.110134 
L 336.733985 121.214118 
L 334.074039 121.098181 
L 331.53658 120.769589 
L 329.157873 120.235938 
L 326.968328 119.51284 
L 324.99297 118.621575 
L 323.256192 117.587905 
L 321.852602 116.499204 
L 320.801175 115.416328 
L 320.187917 114.490774 
L 320.038151 113.998117 
L 320.038151 113.998117 
" style="fill:none;stroke:#7f7f7f;stroke-dasharray:5.55,2.4;stroke-dashoffset:0;stroke-width:1.5;"/>
   </g>
   <g id="line2d_48">
    <path clip-path="url(#p6d5595036e)" d="M 320.037533 113.965543 
L 320.141414 113.742612 
L 320.395601 113.728328 
L 320.900587 113.975591 
L 321.714021 114.64821 
L 322.90062 115.946729 
L 324.395106 117.94005 
L 326.133985 120.649173 
L 328.067378 124.080588 
L 330.200172 128.326389 
L 332.533544 133.484934 
L 335.026399 139.555324 
L 337.680801 146.621707 
L 340.529503 154.858645 
L 343.59499 164.426854 
L 346.92044 175.560945 
L 350.53274 188.453604 
L 354.41277 203.140332 
L 358.356203 218.938983 
L 362.096667 234.834985 
L 365.622044 250.789577 
L 368.916708 266.59515 
L 368.916708 266.59515 
" style="fill:none;stroke:#7f7f7f;stroke-linecap:square;stroke-width:1.5;"/>
   </g>
   <g id="patch_3">
    <path d="M 93.78 334.6776 
L 93.78 85.4496 
" style="fill:none;stroke:#000000;stroke-linecap:square;stroke-linejoin:miter;stroke-width:0.8;"/>
   </g>
   <g id="patch_4">
    <path d="M 675.216 334.6776 
L 675.216 85.4496 
" style="fill:none;stroke:#000000;stroke-linecap:square;stroke-linejoin:miter;stroke-width:0.8;"/>
   </g>
   <g id="patch_5">
    <path d="M 93.78 334.6776 
L 675.216 334.6776 
" style="fill:none;stroke:#000000;stroke-linecap:square;stroke-linejoin:miter;stroke-width:0.8;"/>
   </g>
   <g id="patch_6">
    <path d="M 93.78 85.4496 
L 675.216 85.4496 
" style="fill:none;stroke:#000000;stroke-linecap:square;stroke-linejoin:miter;stroke-width:0.8;"/>
   </g>
  </g>
  <g id="axes_2">
   <g id="patch_7">
    <path d="M 93.78 633.7512 
L 675.216 633.7512 
L 675.216 384.5232 
L 93.78 384.5232 
z
" style="fill:#ffffff;"/>
   </g>
   <g id="matplotlib.axis_3">
    <g id="xtick_10">
     <g id="line2d_49">
      <g>
       <use style="stroke:#000000;stroke-width:0.8;" x="103.658384" xlink:href="#m809d0cbffd" y="633.7512"/>
      </g>
     </g>
     <g id="text_7">
      <!-- −0.100 -->
      <g transform="translate(85.154478 648.349638)scale(0.1 -0.1)">
       <defs>
        <path d="M 678 2272 
L 4684 2272 
L 4684 1741 
L 678 1741 
L 678 2272 
z
" id="DejaVuSans-2212" transform="scale(0.015625)"/>
        <path d="M 794 531 
L 1825 531 
L 1825 4091 
L 703 3866 
L 703 4441 
L 1819 4666 
L 2450 4666 
L 2450 531 
L 3481 531 
L 3481 0 
L 794 0 
L 794 531 
z
" id="DejaVuSans-31" transform="scale(0.015625)"/>
       </defs>
       <use xlink:href="#DejaVuSans-2212"/>
       <use x="83.789062" xlink:href="#DejaVuSans-30"/>
       <use x="147.412109" xlink:href="#DejaVuSans-2e"/>
       <use x="179.199219" xlink:href="#DejaVuSans-31"/>
       <use x="242.822266" xlink:href="#DejaVuSans-30"/>
       <use x="306.445312" xlink:href="#DejaVuSans-30"/>
      </g>
     </g>
    </g>
    <g id="xtick_11">
     <g id="line2d_50">
      <g>
       <use style="stroke:#000000;stroke-width:0.8;" x="173.247123" xlink:href="#m809d0cbffd" y="633.7512"/>
      </g>
     </g>
     <g id="text_8">
      <!-- −0.075 -->
      <g transform="translate(154.743216 648.349638)scale(0.1 -0.1)">
       <use xlink:href="#DejaVuSans-2212"/>
       <use x="83.789062" xlink:href="#DejaVuSans-30"/>
       <use x="147.412109" xlink:href="#DejaVuSans-2e"/>
       <use x="179.199219" xlink:href="#DejaVuSans-30"/>
       <use x="242.822266" xlink:href="#DejaVuSans-37"/>
       <use x="306.445312" xlink:href="#DejaVuSans-35"/>
      </g>
     </g>
    </g>
    <g id="xtick_12">
     <g id="line2d_51">
      <g>
       <use style="stroke:#000000;stroke-width:0.8;" x="242.835861" xlink:href="#m809d0cbffd" y="633.7512"/>
      </g>
     </g>
     <g id="text_9">
      <!-- −0.050 -->
      <g transform="translate(224.331955 648.349638)scale(0.1 -0.1)">
       <use xlink:href="#DejaVuSans-2212"/>
       <use x="83.789062" xlink:href="#DejaVuSans-30"/>
       <use x="147.412109" xlink:href="#DejaVuSans-2e"/>
       <use x="179.199219" xlink:href="#DejaVuSans-30"/>
       <use x="242.822266" xlink:href="#DejaVuSans-35"/>
       <use x="306.445312" xlink:href="#DejaVuSans-30"/>
      </g>
     </g>
    </g>
    <g id="xtick_13">
     <g id="line2d_52">
      <g>
       <use style="stroke:#000000;stroke-width:0.8;" x="312.4246" xlink:href="#m809d0cbffd" y="633.7512"/>
      </g>
     </g>
     <g id="text_10">
      <!-- −0.025 -->
      <g transform="translate(293.920693 648.349638)scale(0.1 -0.1)">
       <defs>
        <path d="M 1228 531 
L 3431 531 
L 3431 0 
L 469 0 
L 469 531 
Q 828 903 1448 1529 
Q 2069 2156 2228 2338 
Q 2531 2678 2651 2914 
Q 2772 3150 2772 3378 
Q 2772 3750 2511 3984 
Q 2250 4219 1831 4219 
Q 1534 4219 1204 4116 
Q 875 4013 500 3803 
L 500 4441 
Q 881 4594 1212 4672 
Q 1544 4750 1819 4750 
Q 2544 4750 2975 4387 
Q 3406 4025 3406 3419 
Q 3406 3131 3298 2873 
Q 3191 2616 2906 2266 
Q 2828 2175 2409 1742 
Q 1991 1309 1228 531 
z
" id="DejaVuSans-32" transform="scale(0.015625)"/>
       </defs>
       <use xlink:href="#DejaVuSans-2212"/>
       <use x="83.789062" xlink:href="#DejaVuSans-30"/>
       <use x="147.412109" xlink:href="#DejaVuSans-2e"/>
       <use x="179.199219" xlink:href="#DejaVuSans-30"/>
       <use x="242.822266" xlink:href="#DejaVuSans-32"/>
       <use x="306.445312" xlink:href="#DejaVuSans-35"/>
      </g>
     </g>
    </g>
    <g id="xtick_14">
     <g id="line2d_53">
      <g>
       <use style="stroke:#000000;stroke-width:0.8;" x="382.013338" xlink:href="#m809d0cbffd" y="633.7512"/>
      </g>
     </g>
     <g id="text_11">
      <!-- 0.000 -->
      <g transform="translate(367.699276 648.349638)scale(0.1 -0.1)">
       <use xlink:href="#DejaVuSans-30"/>
       <use x="63.623047" xlink:href="#DejaVuSans-2e"/>
       <use x="95.410156" xlink:href="#DejaVuSans-30"/>
       <use x="159.033203" xlink:href="#DejaVuSans-30"/>
       <use x="222.65625" xlink:href="#DejaVuSans-30"/>
      </g>
     </g>
    </g>
    <g id="xtick_15">
     <g id="line2d_54">
      <g>
       <use style="stroke:#000000;stroke-width:0.8;" x="451.602077" xlink:href="#m809d0cbffd" y="633.7512"/>
      </g>
     </g>
     <g id="text_12">
      <!-- 0.025 -->
      <g transform="translate(437.288014 648.349638)scale(0.1 -0.1)">
       <use xlink:href="#DejaVuSans-30"/>
       <use x="63.623047" xlink:href="#DejaVuSans-2e"/>
       <use x="95.410156" xlink:href="#DejaVuSans-30"/>
       <use x="159.033203" xlink:href="#DejaVuSans-32"/>
       <use x="222.65625" xlink:href="#DejaVuSans-35"/>
      </g>
     </g>
    </g>
    <g id="xtick_16">
     <g id="line2d_55">
      <g>
       <use style="stroke:#000000;stroke-width:0.8;" x="521.190815" xlink:href="#m809d0cbffd" y="633.7512"/>
      </g>
     </g>
     <g id="text_13">
      <!-- 0.050 -->
      <g transform="translate(506.876753 648.349638)scale(0.1 -0.1)">
       <use xlink:href="#DejaVuSans-30"/>
       <use x="63.623047" xlink:href="#DejaVuSans-2e"/>
       <use x="95.410156" xlink:href="#DejaVuSans-30"/>
       <use x="159.033203" xlink:href="#DejaVuSans-35"/>
       <use x="222.65625" xlink:href="#DejaVuSans-30"/>
      </g>
     </g>
    </g>
    <g id="xtick_17">
     <g id="line2d_56">
      <g>
       <use style="stroke:#000000;stroke-width:0.8;" x="590.779554" xlink:href="#m809d0cbffd" y="633.7512"/>
      </g>
     </g>
     <g id="text_14">
      <!-- 0.075 -->
      <g transform="translate(576.465491 648.349638)scale(0.1 -0.1)">
       <use xlink:href="#DejaVuSans-30"/>
       <use x="63.623047" xlink:href="#DejaVuSans-2e"/>
       <use x="95.410156" xlink:href="#DejaVuSans-30"/>
       <use x="159.033203" xlink:href="#DejaVuSans-37"/>
       <use x="222.65625" xlink:href="#DejaVuSans-35"/>
      </g>
     </g>
    </g>
    <g id="xtick_18">
     <g id="line2d_57">
      <g>
       <use style="stroke:#000000;stroke-width:0.8;" x="660.368292" xlink:href="#m809d0cbffd" y="633.7512"/>
      </g>
     </g>
     <g id="text_15">
      <!-- 0.100 -->
      <g transform="translate(646.054229 648.349638)scale(0.1 -0.1)">
       <use xlink:href="#DejaVuSans-30"/>
       <use x="63.623047" xlink:href="#DejaVuSans-2e"/>
       <use x="95.410156" xlink:href="#DejaVuSans-31"/>
       <use x="159.033203" xlink:href="#DejaVuSans-30"/>
       <use x="222.65625" xlink:href="#DejaVuSans-30"/>
      </g>
     </g>
    </g>
    <g id="text_16">
     <!-- eta -->
     <g transform="translate(376.397219 662.027762)scale(0.1 -0.1)">
      <defs>
       <path d="M 3597 1894 
L 3597 1613 
L 953 1613 
Q 991 1019 1311 708 
Q 1631 397 2203 397 
Q 2534 397 2845 478 
Q 3156 559 3463 722 
L 3463 178 
Q 3153 47 2828 -22 
Q 2503 -91 2169 -91 
Q 1331 -91 842 396 
Q 353 884 353 1716 
Q 353 2575 817 3079 
Q 1281 3584 2069 3584 
Q 2775 3584 3186 3129 
Q 3597 2675 3597 1894 
z
M 3022 2063 
Q 3016 2534 2758 2815 
Q 2500 3097 2075 3097 
Q 1594 3097 1305 2825 
Q 1016 2553 972 2059 
L 3022 2063 
z
" id="DejaVuSans-65" transform="scale(0.015625)"/>
       <path d="M 1172 4494 
L 1172 3500 
L 2356 3500 
L 2356 3053 
L 1172 3053 
L 1172 1153 
Q 1172 725 1289 603 
Q 1406 481 1766 481 
L 2356 481 
L 2356 0 
L 1766 0 
Q 1100 0 847 248 
Q 594 497 594 1153 
L 594 3053 
L 172 3053 
L 172 3500 
L 594 3500 
L 594 4494 
L 1172 4494 
z
" id="DejaVuSans-74" transform="scale(0.015625)"/>
       <path d="M 2194 1759 
Q 1497 1759 1228 1600 
Q 959 1441 959 1056 
Q 959 750 1161 570 
Q 1363 391 1709 391 
Q 2188 391 2477 730 
Q 2766 1069 2766 1631 
L 2766 1759 
L 2194 1759 
z
M 3341 1997 
L 3341 0 
L 2766 0 
L 2766 531 
Q 2569 213 2275 61 
Q 1981 -91 1556 -91 
Q 1019 -91 701 211 
Q 384 513 384 1019 
Q 384 1609 779 1909 
Q 1175 2209 1959 2209 
L 2766 2209 
L 2766 2266 
Q 2766 2663 2505 2880 
Q 2244 3097 1772 3097 
Q 1472 3097 1187 3025 
Q 903 2953 641 2809 
L 641 3341 
Q 956 3463 1253 3523 
Q 1550 3584 1831 3584 
Q 2591 3584 2966 3190 
Q 3341 2797 3341 1997 
z
" id="DejaVuSans-61" transform="scale(0.015625)"/>
      </defs>
      <use xlink:href="#DejaVuSans-65"/>
      <use x="61.523438" xlink:href="#DejaVuSans-74"/>
      <use x="100.732422" xlink:href="#DejaVuSans-61"/>
     </g>
    </g>
   </g>
   <g id="matplotlib.axis_4">
    <g id="ytick_6">
     <g id="line2d_58">
      <g>
       <use style="stroke:#000000;stroke-width:0.8;" x="93.78" xlink:href="#mdc2862b396" y="624.289275"/>
      </g>
     </g>
     <g id="text_17">
      <!-- 0.06 -->
      <g transform="translate(64.514375 628.088494)scale(0.1 -0.1)">
       <use xlink:href="#DejaVuSans-30"/>
       <use x="63.623047" xlink:href="#DejaVuSans-2e"/>
       <use x="95.410156" xlink:href="#DejaVuSans-30"/>
       <use x="159.033203" xlink:href="#DejaVuSans-36"/>
      </g>
     </g>
    </g>
    <g id="ytick_7">
     <g id="line2d_59">
      <g>
       <use style="stroke:#000000;stroke-width:0.8;" x="93.78" xlink:href="#mdc2862b396" y="578.449873"/>
      </g>
     </g>
     <g id="text_18">
      <!-- 0.07 -->
      <g transform="translate(64.514375 582.249092)scale(0.1 -0.1)">
       <use xlink:href="#DejaVuSans-30"/>
       <use x="63.623047" xlink:href="#DejaVuSans-2e"/>
       <use x="95.410156" xlink:href="#DejaVuSans-30"/>
       <use x="159.033203" xlink:href="#DejaVuSans-37"/>
      </g>
     </g>
    </g>
    <g id="ytick_8">
     <g id="line2d_60">
      <g>
       <use style="stroke:#000000;stroke-width:0.8;" x="93.78" xlink:href="#mdc2862b396" y="532.610472"/>
      </g>
     </g>
     <g id="text_19">
      <!-- 0.08 -->
      <g transform="translate(64.514375 536.40969)scale(0.1 -0.1)">
       <use xlink:href="#DejaVuSans-30"/>
       <use x="63.623047" xlink:href="#DejaVuSans-2e"/>
       <use x="95.410156" xlink:href="#DejaVuSans-30"/>
       <use x="159.033203" xlink:href="#DejaVuSans-38"/>
      </g>
     </g>
    </g>
    <g id="ytick_9">
     <g id="line2d_61">
      <g>
       <use style="stroke:#000000;stroke-width:0.8;" x="93.78" xlink:href="#mdc2862b396" y="486.77107"/>
      </g>
     </g>
     <g id="text_20">
      <!-- 0.09 -->
      <g transform="translate(64.514375 490.570288)scale(0.1 -0.1)">
       <defs>
        <path d="M 703 97 
L 703 672 
Q 941 559 1184 500 
Q 1428 441 1663 441 
Q 2288 441 2617 861 
Q 2947 1281 2994 2138 
Q 2813 1869 2534 1725 
Q 2256 1581 1919 1581 
Q 1219 1581 811 2004 
Q 403 2428 403 3163 
Q 403 3881 828 4315 
Q 1253 4750 1959 4750 
Q 2769 4750 3195 4129 
Q 3622 3509 3622 2328 
Q 3622 1225 3098 567 
Q 2575 -91 1691 -91 
Q 1453 -91 1209 -44 
Q 966 3 703 97 
z
M 1959 2075 
Q 2384 2075 2632 2365 
Q 2881 2656 2881 3163 
Q 2881 3666 2632 3958 
Q 2384 4250 1959 4250 
Q 1534 4250 1286 3958 
Q 1038 3666 1038 3163 
Q 1038 2656 1286 2365 
Q 1534 2075 1959 2075 
z
" id="DejaVuSans-39" transform="scale(0.015625)"/>
       </defs>
       <use xlink:href="#DejaVuSans-30"/>
       <use x="63.623047" xlink:href="#DejaVuSans-2e"/>
       <use x="95.410156" xlink:href="#DejaVuSans-30"/>
       <use x="159.033203" xlink:href="#DejaVuSans-39"/>
      </g>
     </g>
    </g>
    <g id="ytick_10">
     <g id="line2d_62">
      <g>
       <use style="stroke:#000000;stroke-width:0.8;" x="93.78" xlink:href="#mdc2862b396" y="440.931668"/>
      </g>
     </g>
     <g id="text_21">
      <!-- 0.10 -->
      <g transform="translate(64.514375 444.730886)scale(0.1 -0.1)">
       <use xlink:href="#DejaVuSans-30"/>
       <use x="63.623047" xlink:href="#DejaVuSans-2e"/>
       <use x="95.410156" xlink:href="#DejaVuSans-31"/>
       <use x="159.033203" xlink:href="#DejaVuSans-30"/>
      </g>
     </g>
    </g>
    <g id="ytick_11">
     <g id="line2d_63">
      <g>
       <use style="stroke:#000000;stroke-width:0.8;" x="93.78" xlink:href="#mdc2862b396" y="395.092266"/>
      </g>
     </g>
     <g id="text_22">
      <!-- 0.11 -->
      <g transform="translate(64.514375 398.891485)scale(0.1 -0.1)">
       <use xlink:href="#DejaVuSans-30"/>
       <use x="63.623047" xlink:href="#DejaVuSans-2e"/>
       <use x="95.410156" xlink:href="#DejaVuSans-31"/>
       <use x="159.033203" xlink:href="#DejaVuSans-31"/>
      </g>
     </g>
    </g>
    <g id="text_23">
     <!-- L2* -->
     <g transform="translate(58.434688 517.604388)rotate(-90)scale(0.1 -0.1)">
      <defs>
       <path d="M 628 4666 
L 1259 4666 
L 1259 531 
L 3531 531 
L 3531 0 
L 628 0 
L 628 4666 
z
" id="DejaVuSans-4c" transform="scale(0.015625)"/>
       <path d="M 3009 3897 
L 1888 3291 
L 3009 2681 
L 2828 2375 
L 1778 3009 
L 1778 1831 
L 1422 1831 
L 1422 3009 
L 372 2375 
L 191 2681 
L 1313 3291 
L 191 3897 
L 372 4206 
L 1422 3572 
L 1422 4750 
L 1778 4750 
L 1778 3572 
L 2828 4206 
L 3009 3897 
z
" id="DejaVuSans-2a" transform="scale(0.015625)"/>
      </defs>
      <use xlink:href="#DejaVuSans-4c"/>
      <use x="55.712891" xlink:href="#DejaVuSans-32"/>
      <use x="119.335938" xlink:href="#DejaVuSans-2a"/>
     </g>
    </g>
   </g>
   <g id="line2d_64"/>
   <g id="line2d_65">
    <path clip-path="url(#p1dbc5547fa)" d="M 382.061529 485.508748 
L 421.087044 472.615828 
L 433.409552 468.261901 
L 443.275059 464.548547 
L 451.376821 461.269274 
L 457.897696 458.399537 
L 463.009477 455.918708 
L 466.931472 453.778404 
L 469.813037 451.963553 
L 471.851917 450.430113 
L 473.225286 449.136391 
L 473.959602 448.232087 
L 473.959602 448.232087 
" style="fill:none;stroke:#1f77b4;stroke-linecap:square;stroke-width:1.5;"/>
   </g>
   <g id="line2d_66">
    <path clip-path="url(#p1dbc5547fa)" d="M 473.97838 448.205017 
L 474.521953 447.218025 
L 474.745695 446.363291 
L 474.721097 445.609016 
L 474.479354 444.902096 
L 473.993038 444.195428 
L 473.227828 443.4933 
L 472.110015 442.779276 
L 470.525255 442.041994 
L 468.373171 441.294968 
L 465.478707 440.536411 
L 461.708 439.7877 
L 456.843924 439.058136 
L 450.652318 438.36475 
L 442.91231 437.730963 
L 433.326 437.177327 
L 421.542369 436.728397 
L 407.395269 436.418675 
L 390.688016 436.280753 
L 371.661232 436.350236 
L 351.157992 436.649327 
L 335.006726 437.038303 
L 335.006726 437.038303 
" style="fill:none;stroke:#1f77b4;stroke-dasharray:5.55,2.4;stroke-dashoffset:0;stroke-width:1.5;"/>
   </g>
   <g id="line2d_67"/>
   <g id="line2d_68">
    <path clip-path="url(#p1dbc5547fa)" d="M 381.816858 485.588864 
L 362.423807 492.055564 
L 349.316268 496.656347 
L 338.59715 500.650261 
L 329.442985 504.294328 
L 321.482817 507.699115 
L 314.639469 510.862411 
L 308.757145 513.82202 
L 303.90906 516.501007 
L 299.939382 518.937904 
L 296.771439 521.132866 
L 294.32319 523.086514 
L 292.468882 524.83738 
L 291.104931 526.423588 
L 290.191211 527.810063 
L 290.073622 528.027478 
L 290.073622 528.027478 
" style="fill:none;stroke:#1f77b4;stroke-linecap:square;stroke-width:1.5;"/>
   </g>
   <g id="line2d_69">
    <path clip-path="url(#p1dbc5547fa)" d="M 290.054755 528.063671 
L 289.529962 529.32224 
L 289.29184 530.457486 
L 289.291755 531.50638 
L 289.508124 532.50427 
L 289.947126 533.484502 
L 290.644712 534.477878 
L 291.633893 535.479982 
L 292.947654 536.485869 
L 294.673365 537.519993 
L 296.870801 538.572918 
L 299.673779 539.661384 
L 303.165088 540.769435 
L 307.41495 541.87989 
L 312.583728 542.996981 
L 318.843059 544.117198 
L 326.356052 545.229346 
L 335.249745 546.315366 
L 345.719921 547.364541 
L 357.990283 548.363479 
L 372.061994 549.279282 
L 387.778547 550.075992 
L 404.972317 550.722537 
L 422.977632 551.176224 
L 429.019899 551.279264 
L 429.019899 551.279264 
" style="fill:none;stroke:#1f77b4;stroke-dasharray:5.55,2.4;stroke-dashoffset:0;stroke-width:1.5;"/>
   </g>
   <g id="line2d_70">
    <path clip-path="url(#p1dbc5547fa)" d="M 93.35073 609.135276 
L 129.713292 605.824729 
L 163.177935 602.558655 
L 193.910657 599.337089 
L 221.688529 596.204811 
L 247.102358 593.117105 
L 269.966472 590.11875 
L 290.795559 587.165017 
L 309.436968 584.300682 
L 326.336406 581.481009 
L 341.37039 578.75077 
L 354.706279 576.109981 
L 366.697151 573.513895 
L 377.254917 571.007283 
L 386.67999 568.545392 
L 394.905227 566.172993 
L 402.183883 563.845329 
L 408.467087 561.607168 
L 413.860179 559.458516 
L 418.554011 557.354613 
L 422.521311 555.340227 
L 425.918143 553.370596 
L 428.289912 551.803838 
L 428.289912 551.803838 
" style="fill:none;stroke:#ff7f0e;stroke-linecap:square;stroke-width:1.5;"/>
   </g>
   <g id="line2d_71">
    <path clip-path="url(#p1dbc5547fa)" d="M 428.353464 551.759073 
L 430.761509 549.923723 
L 432.747078 548.133133 
L 434.3112 546.432069 
L 435.542118 544.775767 
L 436.471956 543.164228 
L 437.146132 541.552688 
L 437.56446 539.985912 
L 437.756806 538.419136 
L 437.727025 536.807594 
L 437.474745 535.196053 
L 436.992443 533.539747 
L 436.249313 531.793912 
L 435.219814 529.958549 
L 433.880051 528.033657 
L 432.168055 525.974472 
L 430.046741 523.780996 
L 427.430601 521.408464 
L 424.273892 518.856877 
L 420.474635 516.081471 
L 415.919257 513.037484 
L 410.414754 509.635387 
L 403.676515 505.740888 
L 395.0015 500.995876 
L 381.047601 493.654546 
L 365.084379 485.19411 
L 356.695014 480.493858 
L 350.266103 476.64412 
L 345.081155 473.286783 
L 340.846646 470.287556 
L 337.365072 467.556912 
L 334.518688 465.050086 
L 332.203966 462.722316 
L 330.37043 460.573602 
L 328.934006 458.559181 
L 327.832327 456.634287 
L 327.057957 454.843687 
L 326.556672 453.142617 
L 326.297583 451.48631 
L 326.271133 449.874769 
L 326.466835 448.307993 
L 326.888637 446.741217 
L 327.544263 445.174442 
L 328.441439 443.607668 
L 329.624387 441.996131 
L 331.123847 440.339832 
L 332.972634 438.63877 
L 335.20573 436.892949 
L 335.706788 436.534832 
L 335.706788 436.534832 
" style="fill:none;stroke:#ff7f0e;stroke-dasharray:5.55,2.4;stroke-dashoffset:0;stroke-width:1.5;"/>
   </g>
   <g id="line2d_72">
    <path clip-path="url(#p1dbc5547fa)" d="M 335.770462 436.490067 
L 338.583034 434.654723 
L 341.88179 432.774621 
L 345.710741 430.849764 
L 350.222573 428.835389 
L 355.385098 426.776265 
L 361.384194 424.627629 
L 368.173466 422.434251 
L 375.976244 420.151372 
L 384.729779 417.82376 
L 394.699497 415.406661 
L 405.803901 412.944843 
L 418.355546 410.393555 
L 432.251523 407.797568 
L 447.856963 405.112135 
L 465.044586 402.382027 
L 484.237973 399.562506 
L 505.282204 396.698343 
L 528.66562 393.744808 
L 554.202052 390.746676 
L 582.451369 387.659225 
L 613.192184 384.527233 
L 646.576753 381.35073 
L 675.540434 378.75603 
L 675.540434 378.75603 
" style="fill:none;stroke:#ff7f0e;stroke-linecap:square;stroke-width:1.5;"/>
   </g>
   <g id="line2d_73"/>
   <g id="line2d_74">
    <path clip-path="url(#p1dbc5547fa)" d="M 382.061266 557.509921 
L 382.109677 557.4866 
L 382.153612 557.464474 
L 382.192604 557.443694 
L 382.226171 557.42442 
L 382.253822 557.406821 
L 382.275084 557.39107 
L 382.289527 557.377329 
L 382.296801 557.365747 
" style="fill:none;stroke:#2ca02c;stroke-linecap:square;stroke-width:1.5;"/>
   </g>
   <g id="line2d_75">
    <path clip-path="url(#p1dbc5547fa)" d="M 382.296665 557.356439 
L 382.144499 557.349478 
L 380.824299 557.636652 
L 373.148276 559.655748 
L 360.470163 562.883102 
L 348.95341 565.584125 
L 335.981442 568.387758 
L 321.892122 571.451473 
L 320.23421 572.003747 
L 320.077382 572.199933 
L 320.084982 572.210165 
L 320.314169 572.305003 
L 321.205239 572.38284 
L 323.721364 572.338117 
L 328.964755 571.993797 
L 337.348104 571.208624 
L 348.116601 569.970712 
L 359.555011 568.433471 
L 370.842419 566.694294 
L 381.375726 564.847412 
L 390.883373 562.956614 
L 399.324646 561.056493 
L 407.301796 559.031287 
L 412.249628 557.814894 
L 412.166002 557.901743 
L 411.277084 558.319662 
L 408.263965 559.455995 
L 403.153474 561.134717 
L 396.724758 563.004465 
L 389.16073 564.965613 
L 380.545487 566.963767 
L 370.845593 568.978676 
L 360.258833 570.945906 
L 349.130386 572.786236 
L 338.252852 574.362527 
L 329.164797 575.4652 
L 323.362566 575.965554 
L 320.791373 575.998413 
L 320.086251 575.832298 
L 320.051425 575.739187 
L 320.051425 575.739187 
" style="fill:none;stroke:#2ca02c;stroke-dasharray:5.55,2.4;stroke-dashoffset:0;stroke-width:1.5;"/>
   </g>
   <g id="line2d_76">
    <path clip-path="url(#p1dbc5547fa)" d="M 320.05509 575.724503 
L 320.231386 575.541601 
L 320.94922 575.190524 
L 322.877503 574.530137 
L 327.35177 573.265476 
L 340.912068 569.750642 
L 354.950603 565.993669 
L 366.159077 562.763769 
L 375.437624 559.867361 
L 381.269751 557.839422 
L 382.297436 557.363378 
L 382.297436 557.363378 
" style="fill:none;stroke:#2ca02c;stroke-linecap:square;stroke-width:1.5;"/>
   </g>
   <g id="line2d_77">
    <path clip-path="url(#p1dbc5547fa)" d="M 382.295559 557.354611 
L 382.133962 557.350775 
L 380.803674 557.64176 
L 372.911045 559.718246 
L 360.332624 562.916699 
L 348.810225 565.616311 
L 335.718307 568.442855 
L 321.946846 571.436919 
L 320.228385 572.00701 
L 320.078963 572.202343 
L 320.087065 572.212515 
L 320.321973 572.306649 
L 321.221917 572.383306 
L 323.749213 572.336886 
L 329.001672 571.990826 
L 337.389476 571.204302 
L 348.158609 569.965472 
L 359.595422 568.427648 
L 370.880163 566.688084 
L 381.410494 564.840913 
L 390.915441 562.949821 
L 399.354805 561.049273 
L 407.331034 559.023472 
L 412.250844 557.817689 
L 412.155632 557.908259 
L 411.252738 558.329827 
L 408.233977 559.466549 
L 403.1212 561.144689 
L 396.689748 563.014078 
L 389.12226 564.975047 
L 380.503206 566.973051 
L 376.509322 567.829408 
L 376.509322 567.829408 
" style="fill:none;stroke:#2ca02c;stroke-dasharray:5.55,2.4;stroke-dashoffset:0;stroke-width:1.5;"/>
   </g>
   <g id="line2d_78"/>
   <g id="line2d_79">
    <path clip-path="url(#p1dbc5547fa)" d="M 330.648794 563.81411 
L 353.4115 557.059919 
L 363.544175 553.771034 
L 371.354696 551.017085 
L 373.960595 549.923521 
L 373.967173 549.912243 
L 373.967173 549.912243 
" style="fill:none;stroke:#d62728;stroke-linecap:square;stroke-width:1.5;"/>
   </g>
   <g id="line2d_80">
    <path clip-path="url(#p1dbc5547fa)" d="M 373.966232 549.903409 
L 373.819288 549.90111 
L 372.55673 550.201649 
L 365.648597 552.172563 
L 352.849317 555.738742 
L 341.04584 558.784687 
L 321.690511 563.724541 
L 320.211089 564.322363 
L 320.029273 564.563525 
L 320.191179 564.673099 
L 320.834081 564.770888 
L 322.604043 564.775578 
L 326.482933 564.532704 
L 333.545469 563.846854 
L 344.608497 562.53572 
L 365.25868 560.036183 
L 365.177731 560.11699 
L 364.425824 560.379721 
L 361.515987 561.107788 
L 354.932518 562.504908 
L 345.208048 564.337297 
L 334.659444 566.103454 
L 326.491652 567.265934 
L 322.021792 567.708537 
L 320.343326 567.693282 
L 320.024094 567.532605 
L 320.023766 567.504695 
L 320.023766 567.504695 
" style="fill:none;stroke:#d62728;stroke-dasharray:5.55,2.4;stroke-dashoffset:0;stroke-width:1.5;"/>
   </g>
   <g id="line2d_81">
    <path clip-path="url(#p1dbc5547fa)" d="M 320.026801 567.490126 
L 320.195003 567.304618 
L 320.883632 566.941139 
L 322.83313 566.208062 
L 327.389443 564.77546 
L 343.042081 560.207454 
L 354.992916 556.562251 
L 364.863336 553.323158 
L 372.096235 550.735156 
L 373.967289 549.91181 
L 373.967289 549.91181 
" style="fill:none;stroke:#d62728;stroke-linecap:square;stroke-width:1.5;"/>
   </g>
   <g id="line2d_82">
    <path clip-path="url(#p1dbc5547fa)" d="M 373.96602 549.903085 
L 373.817556 549.901356 
L 372.55395 550.202394 
L 365.645501 552.173454 
L 352.845855 555.739669 
L 341.041906 558.785669 
L 321.687527 563.725516 
L 320.209882 564.323134 
L 320.02951 564.564091 
L 320.192395 564.67351 
L 320.836667 564.77106 
L 322.608209 564.775439 
L 326.48843 564.532257 
L 333.551724 563.846176 
L 344.614774 562.534927 
L 365.252971 560.028202 
L 365.222084 560.090447 
L 365.201531 560.103623 
L 364.571062 560.33659 
L 361.993579 560.997136 
L 355.80487 562.329297 
L 346.313686 564.139133 
L 335.759157 565.930628 
L 327.166787 567.181006 
L 322.291933 567.692246 
L 320.421354 567.704975 
L 320.0273 567.545376 
L 320.023852 567.50408 
L 320.023852 567.50408 
" style="fill:none;stroke:#d62728;stroke-dasharray:5.55,2.4;stroke-dashoffset:0;stroke-width:1.5;"/>
   </g>
   <g id="line2d_83">
    <path clip-path="url(#p1dbc5547fa)" d="M 320.026978 567.489494 
L 320.196118 567.303812 
L 320.885926 566.940129 
L 322.836658 566.206859 
L 327.393828 564.774147 
L 343.046295 560.206209 
L 354.996531 556.561107 
L 364.866526 553.322069 
L 372.098993 550.734092 
L 373.967389 549.911394 
L 373.967389 549.911394 
" style="fill:none;stroke:#d62728;stroke-linecap:square;stroke-width:1.5;"/>
   </g>
   <g id="line2d_84">
    <path clip-path="url(#p1dbc5547fa)" d="M 373.965801 549.902775 
L 373.773748 549.908145 
L 372.290872 550.273548 
L 363.518251 552.782977 
L 351.450668 556.111636 
L 348.861647 556.792842 
L 348.861647 556.792842 
" style="fill:none;stroke:#d62728;stroke-dasharray:5.55,2.4;stroke-dashoffset:0;stroke-width:1.5;"/>
   </g>
   <g id="line2d_85">
    <path clip-path="url(#p1dbc5547fa)" d="M 359.837386 545.76454 
L 368.370253 542.553243 
L 372.948567 540.633663 
L 373.199831 540.470739 
L 373.199831 540.470739 
" style="fill:none;stroke:#9467bd;stroke-linecap:square;stroke-width:1.5;"/>
   </g>
   <g id="line2d_86">
    <path clip-path="url(#p1dbc5547fa)" d="M 373.198196 540.462421 
L 373.03237 540.471334 
L 371.60814 540.873401 
L 362.396625 543.841253 
L 351.24957 547.289811 
L 340.119996 550.490339 
L 321.609194 555.758955 
L 320.193851 556.379552 
L 320.033379 556.620222 
L 320.233106 556.728144 
L 321.000319 556.799536 
L 323.069195 556.719666 
L 327.521874 556.294421 
L 336.138349 555.220769 
L 352.737553 552.891899 
L 360.950105 551.83641 
L 361.668846 551.866742 
L 361.656529 551.896671 
L 361.345967 552.045717 
L 359.674469 552.525959 
L 354.713024 553.680396 
L 345.481195 555.587805 
L 334.11278 557.714966 
L 325.55435 559.113107 
L 321.512985 559.582286 
L 320.206264 559.559526 
L 320.023884 559.412548 
L 320.023884 559.412548 
" style="fill:none;stroke:#9467bd;stroke-dasharray:5.55,2.4;stroke-dashoffset:0;stroke-width:1.5;"/>
   </g>
   <g id="line2d_87">
    <path clip-path="url(#p1dbc5547fa)" d="M 320.026927 559.39837 
L 320.194784 559.213215 
L 320.926508 558.817337 
L 322.943631 558.018352 
L 327.753266 556.391696 
L 356.609126 546.920439 
L 365.732691 543.574496 
L 372.081675 541.03455 
L 373.199328 540.472484 
L 373.199328 540.472484 
" style="fill:none;stroke:#9467bd;stroke-linecap:square;stroke-width:1.5;"/>
   </g>
   <g id="line2d_88">
    <path clip-path="url(#p1dbc5547fa)" d="M 373.199037 540.46367 
L 373.038365 540.470175 
L 371.66022 540.857315 
L 363.050116 543.631898 
L 351.777699 547.132119 
L 340.748902 550.314876 
L 321.435653 555.821869 
L 320.150321 556.411021 
L 320.039357 556.629796 
L 320.257455 556.734075 
L 321.048571 556.800277 
L 323.142716 556.71444 
L 327.735263 556.270551 
L 336.519706 555.169761 
L 353.864685 552.732262 
L 361.00385 551.832861 
L 361.669292 551.874115 
L 361.658436 551.894571 
L 361.355437 552.042269 
L 359.693663 552.521033 
L 354.738411 553.674838 
L 345.509296 555.582269 
L 334.140263 557.710115 
L 325.576704 559.109901 
L 321.527025 559.581391 
L 320.184243 559.553709 
L 320.023546 559.415179 
L 320.023546 559.415179 
" style="fill:none;stroke:#9467bd;stroke-dasharray:5.55,2.4;stroke-dashoffset:0;stroke-width:1.5;"/>
   </g>
   <g id="line2d_89">
    <path clip-path="url(#p1dbc5547fa)" d="M 320.026189 559.401089 
L 320.189908 559.216822 
L 320.916405 558.821954 
L 322.928995 558.023671 
L 327.736664 556.397081 
L 356.71224 546.883947 
L 358.283795 546.324321 
L 358.283795 546.324321 
" style="fill:none;stroke:#9467bd;stroke-linecap:square;stroke-width:1.5;"/>
   </g>
   <g id="line2d_90"/>
   <g id="line2d_91">
    <path clip-path="url(#p1dbc5547fa)" d="M 355.858463 538.323569 
L 364.734795 534.799606 
L 371.530769 531.880855 
L 373.121458 531.063276 
L 373.121458 531.063276 
" style="fill:none;stroke:#8c564b;stroke-linecap:square;stroke-width:1.5;"/>
   </g>
   <g id="line2d_92">
    <path clip-path="url(#p1dbc5547fa)" d="M 373.122335 531.054206 
L 372.991486 531.060131 
L 371.768403 531.443575 
L 363.77011 534.307385 
L 353.03327 538.019412 
L 342.867165 541.292673 
L 326.934169 546.137059 
L 321.636612 547.886916 
L 320.179954 548.557605 
L 320.039435 548.791388 
L 320.243168 548.885492 
L 321.022274 548.929023 
L 323.163442 548.780406 
L 327.997761 548.186161 
L 338.128923 546.684489 
L 360.877659 543.27462 
L 361.290729 543.313827 
L 361.250043 543.366772 
L 360.746301 543.570349 
L 358.401062 544.217945 
L 351.968484 545.725985 
L 340.38091 548.199709 
L 328.433592 550.539401 
L 322.434372 551.519446 
L 320.392481 551.666101 
L 320.024737 551.531665 
L 320.023627 551.518983 
L 320.023627 551.518983 
" style="fill:none;stroke:#8c564b;stroke-dasharray:5.55,2.4;stroke-dashoffset:0;stroke-width:1.5;"/>
   </g>
   <g id="line2d_93">
    <path clip-path="url(#p1dbc5547fa)" d="M 320.024612 551.505759 
L 320.170458 551.326476 
L 320.865848 550.928559 
L 322.869088 550.085312 
L 327.722707 548.324825 
L 353.897609 539.070296 
L 362.951085 535.528278 
L 370.426569 532.378899 
L 373.121132 531.063977 
L 373.121132 531.063977 
" style="fill:none;stroke:#8c564b;stroke-linecap:square;stroke-width:1.5;"/>
   </g>
   <g id="line2d_94">
    <path clip-path="url(#p1dbc5547fa)" d="M 373.122516 531.054711 
L 372.993137 531.059779 
L 371.769703 531.443129 
L 363.804043 534.29528 
L 353.072365 538.006371 
L 342.914266 541.278004 
L 327.390383 545.996491 
L 321.753752 547.842734 
L 320.204451 548.540316 
L 320.039703 548.791777 
L 320.244181 548.885704 
L 321.024229 548.928993 
L 323.166368 548.780115 
L 328.001553 548.185641 
L 328.784166 548.077226 
L 328.784166 548.077226 
" style="fill:none;stroke:#8c564b;stroke-dasharray:5.55,2.4;stroke-dashoffset:0;stroke-width:1.5;"/>
   </g>
   <g id="line2d_95">
    <path clip-path="url(#p1dbc5547fa)" d="M 353.871371 530.492516 
L 362.635676 526.802133 
L 369.941868 523.495918 
L 373.122242 521.864261 
L 373.138043 521.841565 
L 373.138043 521.841565 
" style="fill:none;stroke:#e377c2;stroke-linecap:square;stroke-width:1.5;"/>
   </g>
   <g id="line2d_96">
    <path clip-path="url(#p1dbc5547fa)" d="M 373.135576 521.834019 
L 372.936957 521.868253 
L 371.294257 522.471412 
L 352.227489 529.782389 
L 342.352963 533.226753 
L 327.89996 537.993348 
L 321.747018 540.146209 
L 320.188929 540.885496 
L 320.047669 541.11539 
L 320.237523 541.198936 
L 320.986915 541.221515 
L 323.1031 541.019828 
L 328.145067 540.276894 
L 340.519411 538.179272 
L 359.230846 535.044969 
L 361.236511 534.876781 
L 361.251446 534.917508 
L 361.187455 534.965848 
L 360.494466 535.225146 
L 357.545252 536.03404 
L 349.712723 537.916435 
L 335.223944 541.155998 
L 324.612557 543.338595 
L 320.970613 543.896612 
L 320.085506 543.863445 
L 320.027802 543.793866 
L 320.027802 543.793866 
" style="fill:none;stroke:#e377c2;stroke-dasharray:5.55,2.4;stroke-dashoffset:0;stroke-width:1.5;"/>
   </g>
   <g id="line2d_97">
    <path clip-path="url(#p1dbc5547fa)" d="M 320.027576 543.781515 
L 320.15921 543.607481 
L 320.825643 543.208598 
L 322.841567 542.314129 
L 327.785939 540.406293 
L 351.626545 531.399669 
L 355.897614 529.66102 
L 355.897614 529.66102 
" style="fill:none;stroke:#e377c2;stroke-linecap:square;stroke-width:1.5;"/>
   </g>
   <g id="line2d_98">
    <path clip-path="url(#p1dbc5547fa)" d="M 368.335712 515.395862 
L 373.165607 512.805739 
L 373.693618 512.440684 
L 373.693618 512.440684 
" style="fill:none;stroke:#7f7f7f;stroke-linecap:square;stroke-width:1.5;"/>
   </g>
   <g id="line2d_99">
    <path clip-path="url(#p1dbc5547fa)" d="M 373.689291 512.433392 
L 373.4653 512.485123 
L 371.822831 513.171893 
L 356.829598 519.712934 
L 348.646543 522.865276 
L 337.501259 526.907417 
L 321.560725 532.672699 
L 320.145644 533.397976 
L 320.051988 533.598696 
L 320.060969 533.607571 
L 320.318498 533.677225 
L 321.282546 533.641881 
L 323.953663 533.274447 
L 330.583846 532.093515 
L 359.998434 526.704975 
L 361.298995 526.638917 
L 361.16599 526.736839 
L 360.153519 527.088932 
L 356.362612 528.125974 
L 346.202488 530.63754 
L 327.938436 534.921341 
L 321.852602 536.169127 
L 320.235757 536.321144 
L 320.038151 536.223836 
L 320.038151 536.223836 
" style="fill:none;stroke:#7f7f7f;stroke-dasharray:5.55,2.4;stroke-dashoffset:0;stroke-width:1.5;"/>
   </g>
   <g id="line2d_100">
    <path clip-path="url(#p1dbc5547fa)" d="M 320.037533 536.212206 
L 320.162676 536.041961 
L 320.807353 535.64213 
L 322.792393 534.716854 
L 327.831993 532.656325 
L 350.71839 523.468289 
L 359.397244 519.678212 
L 366.075055 516.529572 
L 368.916708 515.097928 
L 368.916708 515.097928 
" style="fill:none;stroke:#7f7f7f;stroke-linecap:square;stroke-width:1.5;"/>
   </g>
   <g id="patch_8">
    <path d="M 93.78 633.7512 
L 93.78 384.5232 
" style="fill:none;stroke:#000000;stroke-linecap:square;stroke-linejoin:miter;stroke-width:0.8;"/>
   </g>
   <g id="patch_9">
    <path d="M 675.216 633.7512 
L 675.216 384.5232 
" style="fill:none;stroke:#000000;stroke-linecap:square;stroke-linejoin:miter;stroke-width:0.8;"/>
   </g>
   <g id="patch_10">
    <path d="M 93.78 633.7512 
L 675.216 633.7512 
" style="fill:none;stroke:#000000;stroke-linecap:square;stroke-linejoin:miter;stroke-width:0.8;"/>
   </g>
   <g id="patch_11">
    <path d="M 93.78 384.5232 
L 675.216 384.5232 
" style="fill:none;stroke:#000000;stroke-linecap:square;stroke-linejoin:miter;stroke-width:0.8;"/>
   </g>
   <g id="legend_1">
    <g id="patch_12">
     <path d="M 596.081625 509.9482 
L 668.216 509.9482 
Q 670.216 509.9482 670.216 507.9482 
L 670.216 391.5232 
Q 670.216 389.5232 668.216 389.5232 
L 596.081625 389.5232 
Q 594.081625 389.5232 594.081625 391.5232 
L 594.081625 507.9482 
Q 594.081625 509.9482 596.081625 509.9482 
z
" style="fill:#ffffff;opacity:0.8;stroke:#cccccc;stroke-linejoin:miter;"/>
    </g>
    <g id="line2d_101">
     <path d="M 598.081625 397.621638 
L 618.081625 397.621638 
" style="fill:none;stroke:#1f77b4;stroke-linecap:square;stroke-width:1.5;"/>
    </g>
    <g id="line2d_102"/>
    <g id="text_24">
     <!-- periodic -->
     <g transform="translate(626.081625 401.121638)scale(0.1 -0.1)">
      <defs>
       <path d="M 1159 525 
L 1159 -1331 
L 581 -1331 
L 581 3500 
L 1159 3500 
L 1159 2969 
Q 1341 3281 1617 3432 
Q 1894 3584 2278 3584 
Q 2916 3584 3314 3078 
Q 3713 2572 3713 1747 
Q 3713 922 3314 415 
Q 2916 -91 2278 -91 
Q 1894 -91 1617 61 
Q 1341 213 1159 525 
z
M 3116 1747 
Q 3116 2381 2855 2742 
Q 2594 3103 2138 3103 
Q 1681 3103 1420 2742 
Q 1159 2381 1159 1747 
Q 1159 1113 1420 752 
Q 1681 391 2138 391 
Q 2594 391 2855 752 
Q 3116 1113 3116 1747 
z
" id="DejaVuSans-70" transform="scale(0.015625)"/>
       <path d="M 2631 2963 
Q 2534 3019 2420 3045 
Q 2306 3072 2169 3072 
Q 1681 3072 1420 2755 
Q 1159 2438 1159 1844 
L 1159 0 
L 581 0 
L 581 3500 
L 1159 3500 
L 1159 2956 
Q 1341 3275 1631 3429 
Q 1922 3584 2338 3584 
Q 2397 3584 2469 3576 
Q 2541 3569 2628 3553 
L 2631 2963 
z
" id="DejaVuSans-72" transform="scale(0.015625)"/>
       <path d="M 603 3500 
L 1178 3500 
L 1178 0 
L 603 0 
L 603 3500 
z
M 603 4863 
L 1178 4863 
L 1178 4134 
L 603 4134 
L 603 4863 
z
" id="DejaVuSans-69" transform="scale(0.015625)"/>
       <path d="M 1959 3097 
Q 1497 3097 1228 2736 
Q 959 2375 959 1747 
Q 959 1119 1226 758 
Q 1494 397 1959 397 
Q 2419 397 2687 759 
Q 2956 1122 2956 1747 
Q 2956 2369 2687 2733 
Q 2419 3097 1959 3097 
z
M 1959 3584 
Q 2709 3584 3137 3096 
Q 3566 2609 3566 1747 
Q 3566 888 3137 398 
Q 2709 -91 1959 -91 
Q 1206 -91 779 398 
Q 353 888 353 1747 
Q 353 2609 779 3096 
Q 1206 3584 1959 3584 
z
" id="DejaVuSans-6f" transform="scale(0.015625)"/>
       <path d="M 2906 2969 
L 2906 4863 
L 3481 4863 
L 3481 0 
L 2906 0 
L 2906 525 
Q 2725 213 2448 61 
Q 2172 -91 1784 -91 
Q 1150 -91 751 415 
Q 353 922 353 1747 
Q 353 2572 751 3078 
Q 1150 3584 1784 3584 
Q 2172 3584 2448 3432 
Q 2725 3281 2906 2969 
z
M 947 1747 
Q 947 1113 1208 752 
Q 1469 391 1925 391 
Q 2381 391 2643 752 
Q 2906 1113 2906 1747 
Q 2906 2381 2643 2742 
Q 2381 3103 1925 3103 
Q 1469 3103 1208 2742 
Q 947 2381 947 1747 
z
" id="DejaVuSans-64" transform="scale(0.015625)"/>
       <path d="M 3122 3366 
L 3122 2828 
Q 2878 2963 2633 3030 
Q 2388 3097 2138 3097 
Q 1578 3097 1268 2742 
Q 959 2388 959 1747 
Q 959 1106 1268 751 
Q 1578 397 2138 397 
Q 2388 397 2633 464 
Q 2878 531 3122 666 
L 3122 134 
Q 2881 22 2623 -34 
Q 2366 -91 2075 -91 
Q 1284 -91 818 406 
Q 353 903 353 1747 
Q 353 2603 823 3093 
Q 1294 3584 2113 3584 
Q 2378 3584 2631 3529 
Q 2884 3475 3122 3366 
z
" id="DejaVuSans-63" transform="scale(0.015625)"/>
      </defs>
      <use xlink:href="#DejaVuSans-70"/>
      <use x="63.476562" xlink:href="#DejaVuSans-65"/>
      <use x="125" xlink:href="#DejaVuSans-72"/>
      <use x="166.113281" xlink:href="#DejaVuSans-69"/>
      <use x="193.896484" xlink:href="#DejaVuSans-6f"/>
      <use x="255.078125" xlink:href="#DejaVuSans-64"/>
      <use x="318.554688" xlink:href="#DejaVuSans-69"/>
      <use x="346.337891" xlink:href="#DejaVuSans-63"/>
     </g>
    </g>
    <g id="line2d_103">
     <path d="M 598.081625 412.299763 
L 618.081625 412.299763 
" style="fill:none;stroke:#ff7f0e;stroke-linecap:square;stroke-width:1.5;"/>
    </g>
    <g id="line2d_104"/>
    <g id="text_25">
     <!-- hss -->
     <g transform="translate(626.081625 415.799763)scale(0.1 -0.1)">
      <defs>
       <path d="M 3513 2113 
L 3513 0 
L 2938 0 
L 2938 2094 
Q 2938 2591 2744 2837 
Q 2550 3084 2163 3084 
Q 1697 3084 1428 2787 
Q 1159 2491 1159 1978 
L 1159 0 
L 581 0 
L 581 4863 
L 1159 4863 
L 1159 2956 
Q 1366 3272 1645 3428 
Q 1925 3584 2291 3584 
Q 2894 3584 3203 3211 
Q 3513 2838 3513 2113 
z
" id="DejaVuSans-68" transform="scale(0.015625)"/>
       <path d="M 2834 3397 
L 2834 2853 
Q 2591 2978 2328 3040 
Q 2066 3103 1784 3103 
Q 1356 3103 1142 2972 
Q 928 2841 928 2578 
Q 928 2378 1081 2264 
Q 1234 2150 1697 2047 
L 1894 2003 
Q 2506 1872 2764 1633 
Q 3022 1394 3022 966 
Q 3022 478 2636 193 
Q 2250 -91 1575 -91 
Q 1294 -91 989 -36 
Q 684 19 347 128 
L 347 722 
Q 666 556 975 473 
Q 1284 391 1588 391 
Q 1994 391 2212 530 
Q 2431 669 2431 922 
Q 2431 1156 2273 1281 
Q 2116 1406 1581 1522 
L 1381 1569 
Q 847 1681 609 1914 
Q 372 2147 372 2553 
Q 372 3047 722 3315 
Q 1072 3584 1716 3584 
Q 2034 3584 2315 3537 
Q 2597 3491 2834 3397 
z
" id="DejaVuSans-73" transform="scale(0.015625)"/>
      </defs>
      <use xlink:href="#DejaVuSans-68"/>
      <use x="63.378906" xlink:href="#DejaVuSans-73"/>
      <use x="115.478516" xlink:href="#DejaVuSans-73"/>
     </g>
    </g>
    <g id="line2d_105">
     <path d="M 598.081625 426.977888 
L 618.081625 426.977888 
" style="fill:none;stroke:#2ca02c;stroke-linecap:square;stroke-width:1.5;"/>
    </g>
    <g id="line2d_106"/>
    <g id="text_26">
     <!-- bs1 -->
     <g transform="translate(626.081625 430.477888)scale(0.1 -0.1)">
      <defs>
       <path d="M 3116 1747 
Q 3116 2381 2855 2742 
Q 2594 3103 2138 3103 
Q 1681 3103 1420 2742 
Q 1159 2381 1159 1747 
Q 1159 1113 1420 752 
Q 1681 391 2138 391 
Q 2594 391 2855 752 
Q 3116 1113 3116 1747 
z
M 1159 2969 
Q 1341 3281 1617 3432 
Q 1894 3584 2278 3584 
Q 2916 3584 3314 3078 
Q 3713 2572 3713 1747 
Q 3713 922 3314 415 
Q 2916 -91 2278 -91 
Q 1894 -91 1617 61 
Q 1341 213 1159 525 
L 1159 0 
L 581 0 
L 581 4863 
L 1159 4863 
L 1159 2969 
z
" id="DejaVuSans-62" transform="scale(0.015625)"/>
      </defs>
      <use xlink:href="#DejaVuSans-62"/>
      <use x="63.476562" xlink:href="#DejaVuSans-73"/>
      <use x="115.576172" xlink:href="#DejaVuSans-31"/>
     </g>
    </g>
    <g id="line2d_107">
     <path d="M 598.081625 441.656013 
L 618.081625 441.656013 
" style="fill:none;stroke:#d62728;stroke-linecap:square;stroke-width:1.5;"/>
    </g>
    <g id="line2d_108"/>
    <g id="text_27">
     <!-- bs2 -->
     <g transform="translate(626.081625 445.156013)scale(0.1 -0.1)">
      <use xlink:href="#DejaVuSans-62"/>
      <use x="63.476562" xlink:href="#DejaVuSans-73"/>
      <use x="115.576172" xlink:href="#DejaVuSans-32"/>
     </g>
    </g>
    <g id="line2d_109">
     <path d="M 598.081625 456.334137 
L 618.081625 456.334137 
" style="fill:none;stroke:#9467bd;stroke-linecap:square;stroke-width:1.5;"/>
    </g>
    <g id="line2d_110"/>
    <g id="text_28">
     <!-- bs3 -->
     <g transform="translate(626.081625 459.834137)scale(0.1 -0.1)">
      <defs>
       <path d="M 2597 2516 
Q 3050 2419 3304 2112 
Q 3559 1806 3559 1356 
Q 3559 666 3084 287 
Q 2609 -91 1734 -91 
Q 1441 -91 1130 -33 
Q 819 25 488 141 
L 488 750 
Q 750 597 1062 519 
Q 1375 441 1716 441 
Q 2309 441 2620 675 
Q 2931 909 2931 1356 
Q 2931 1769 2642 2001 
Q 2353 2234 1838 2234 
L 1294 2234 
L 1294 2753 
L 1863 2753 
Q 2328 2753 2575 2939 
Q 2822 3125 2822 3475 
Q 2822 3834 2567 4026 
Q 2313 4219 1838 4219 
Q 1578 4219 1281 4162 
Q 984 4106 628 3988 
L 628 4550 
Q 988 4650 1302 4700 
Q 1616 4750 1894 4750 
Q 2613 4750 3031 4423 
Q 3450 4097 3450 3541 
Q 3450 3153 3228 2886 
Q 3006 2619 2597 2516 
z
" id="DejaVuSans-33" transform="scale(0.015625)"/>
      </defs>
      <use xlink:href="#DejaVuSans-62"/>
      <use x="63.476562" xlink:href="#DejaVuSans-73"/>
      <use x="115.576172" xlink:href="#DejaVuSans-33"/>
     </g>
    </g>
    <g id="line2d_111">
     <path d="M 598.081625 471.012263 
L 618.081625 471.012263 
" style="fill:none;stroke:#8c564b;stroke-linecap:square;stroke-width:1.5;"/>
    </g>
    <g id="line2d_112"/>
    <g id="text_29">
     <!-- bs4 -->
     <g transform="translate(626.081625 474.512263)scale(0.1 -0.1)">
      <defs>
       <path d="M 2419 4116 
L 825 1625 
L 2419 1625 
L 2419 4116 
z
M 2253 4666 
L 3047 4666 
L 3047 1625 
L 3713 1625 
L 3713 1100 
L 3047 1100 
L 3047 0 
L 2419 0 
L 2419 1100 
L 313 1100 
L 313 1709 
L 2253 4666 
z
" id="DejaVuSans-34" transform="scale(0.015625)"/>
      </defs>
      <use xlink:href="#DejaVuSans-62"/>
      <use x="63.476562" xlink:href="#DejaVuSans-73"/>
      <use x="115.576172" xlink:href="#DejaVuSans-34"/>
     </g>
    </g>
    <g id="line2d_113">
     <path d="M 598.081625 485.690388 
L 618.081625 485.690388 
" style="fill:none;stroke:#e377c2;stroke-linecap:square;stroke-width:1.5;"/>
    </g>
    <g id="line2d_114"/>
    <g id="text_30">
     <!-- bs5 -->
     <g transform="translate(626.081625 489.190388)scale(0.1 -0.1)">
      <use xlink:href="#DejaVuSans-62"/>
      <use x="63.476562" xlink:href="#DejaVuSans-73"/>
      <use x="115.576172" xlink:href="#DejaVuSans-35"/>
     </g>
    </g>
    <g id="line2d_115">
     <path d="M 598.081625 500.368513 
L 618.081625 500.368513 
" style="fill:none;stroke:#7f7f7f;stroke-linecap:square;stroke-width:1.5;"/>
    </g>
    <g id="line2d_116"/>
    <g id="text_31">
     <!-- bs6 -->
     <g transform="translate(626.081625 503.868513)scale(0.1 -0.1)">
      <use xlink:href="#DejaVuSans-62"/>
      <use x="63.476562" xlink:href="#DejaVuSans-73"/>
      <use x="115.576172" xlink:href="#DejaVuSans-36"/>
     </g>
    </g>
   </g>
  </g>
 </g>
 <defs>
  <clipPath id="p6d5595036e">
   <rect height="249.228" width="581.436" x="93.78" y="85.4496"/>
  </clipPath>
  <clipPath id="p1dbc5547fa">
   <rect height="249.228" width="581.436" x="93.78" y="384.5232"/>
  </clipPath>
 </defs>
</svg>
