<?xml version="1.0" encoding="utf-8" standalone="no"?>
<!DOCTYPE svg PUBLIC "-//W3C//DTD SVG 1.1//EN"
  "http://www.w3.org/Graphics/SVG/1.1/DTD/svg11.dtd">
<svg height="647.28pt" version="1.1" viewBox="0 0 720.72 647.28" width="720.72pt" xmlns="http://www.w3.org/2000/svg" xmlns:xlink="http://www.w3.org/1999/xlink">
 <metadata>
  <rdf:RDF xmlns:cc="http://creativecommons.org/ns#" xmlns:dc="http://purl.org/dc/elements/1.1/" xmlns:rdf="http://www.w3.org/1999/02/22-rdf-syntax-ns#">
   <cc:Work>
    <dc:type rdf:resource="http://purl.org/dc/dcmitype/StillImage"/>
    <dc:date>2022-05-13T16:42:54.901312</dc:date>
    <dc:format>image/svg+xml</dc:format>
    <dc:creator>
     <cc:Agent>
      <dc:title>Matplotlib v3.4.3, https://matplotlib.org/</dc:title>
     </cc:Agent>
    </dc:creator>
   </cc:Work>
  </rdf:RDF>
 </metadata>
 <defs>
  <style type="text/css">*{stroke-linecap:butt;stroke-linejoin:round;}</style>
 </defs>
 <g id="figure_1">
  <g id="patch_1">
   <path d="M 0 647.28 
L 720.72 647.28 
L 720.72 0 
L 0 0 
z
" style="fill:#ffffff;"/>
  </g>
  <g id="axes_1">
   <g id="patch_2">
    <path d="M 90.09 304.2216 
L 648.648 304.2216 
L 648.648 77.6736 
L 90.09 77.6736 
z
" style="fill:#ffffff;"/>
   </g>
   <g id="matplotlib.axis_1">
    <g id="xtick_1">
     <g id="line2d_1">
      <defs>
       <path d="M 0 0 
L 0 3.5 
" id="m146423cf94" style="stroke:#000000;stroke-width:0.8;"/>
      </defs>
      <g>
       <use style="stroke:#000000;stroke-width:0.8;" x="171.259362" xlink:href="#m146423cf94" y="304.2216"/>
      </g>
     </g>
    </g>
    <g id="xtick_2">
     <g id="line2d_2">
      <g>
       <use style="stroke:#000000;stroke-width:0.8;" x="264.021112" xlink:href="#m146423cf94" y="304.2216"/>
      </g>
     </g>
    </g>
    <g id="xtick_3">
     <g id="line2d_3">
      <g>
       <use style="stroke:#000000;stroke-width:0.8;" x="356.782862" xlink:href="#m146423cf94" y="304.2216"/>
      </g>
     </g>
    </g>
    <g id="xtick_4">
     <g id="line2d_4">
      <g>
       <use style="stroke:#000000;stroke-width:0.8;" x="449.544612" xlink:href="#m146423cf94" y="304.2216"/>
      </g>
     </g>
    </g>
    <g id="xtick_5">
     <g id="line2d_5">
      <g>
       <use style="stroke:#000000;stroke-width:0.8;" x="542.306362" xlink:href="#m146423cf94" y="304.2216"/>
      </g>
     </g>
    </g>
    <g id="xtick_6">
     <g id="line2d_6">
      <g>
       <use style="stroke:#000000;stroke-width:0.8;" x="635.068112" xlink:href="#m146423cf94" y="304.2216"/>
      </g>
     </g>
    </g>
   </g>
   <g id="matplotlib.axis_2">
    <g id="ytick_1">
     <g id="line2d_7">
      <defs>
       <path d="M 0 0 
L -3.5 0 
" id="m1337c80b1f" style="stroke:#000000;stroke-width:0.8;"/>
      </defs>
      <g>
       <use style="stroke:#000000;stroke-width:0.8;" x="90.09" xlink:href="#m1337c80b1f" y="294.52944"/>
      </g>
     </g>
     <g id="text_1">
      <!-- 0.65 -->
      <g transform="translate(60.824375 298.328659)scale(0.1 -0.1)">
       <defs>
        <path d="M 2034 4250 
Q 1547 4250 1301 3770 
Q 1056 3291 1056 2328 
Q 1056 1369 1301 889 
Q 1547 409 2034 409 
Q 2525 409 2770 889 
Q 3016 1369 3016 2328 
Q 3016 3291 2770 3770 
Q 2525 4250 2034 4250 
z
M 2034 4750 
Q 2819 4750 3233 4129 
Q 3647 3509 3647 2328 
Q 3647 1150 3233 529 
Q 2819 -91 2034 -91 
Q 1250 -91 836 529 
Q 422 1150 422 2328 
Q 422 3509 836 4129 
Q 1250 4750 2034 4750 
z
" id="DejaVuSans-30" transform="scale(0.015625)"/>
        <path d="M 684 794 
L 1344 794 
L 1344 0 
L 684 0 
L 684 794 
z
" id="DejaVuSans-2e" transform="scale(0.015625)"/>
        <path d="M 2113 2584 
Q 1688 2584 1439 2293 
Q 1191 2003 1191 1497 
Q 1191 994 1439 701 
Q 1688 409 2113 409 
Q 2538 409 2786 701 
Q 3034 994 3034 1497 
Q 3034 2003 2786 2293 
Q 2538 2584 2113 2584 
z
M 3366 4563 
L 3366 3988 
Q 3128 4100 2886 4159 
Q 2644 4219 2406 4219 
Q 1781 4219 1451 3797 
Q 1122 3375 1075 2522 
Q 1259 2794 1537 2939 
Q 1816 3084 2150 3084 
Q 2853 3084 3261 2657 
Q 3669 2231 3669 1497 
Q 3669 778 3244 343 
Q 2819 -91 2113 -91 
Q 1303 -91 875 529 
Q 447 1150 447 2328 
Q 447 3434 972 4092 
Q 1497 4750 2381 4750 
Q 2619 4750 2861 4703 
Q 3103 4656 3366 4563 
z
" id="DejaVuSans-36" transform="scale(0.015625)"/>
        <path d="M 691 4666 
L 3169 4666 
L 3169 4134 
L 1269 4134 
L 1269 2991 
Q 1406 3038 1543 3061 
Q 1681 3084 1819 3084 
Q 2600 3084 3056 2656 
Q 3513 2228 3513 1497 
Q 3513 744 3044 326 
Q 2575 -91 1722 -91 
Q 1428 -91 1123 -41 
Q 819 9 494 109 
L 494 744 
Q 775 591 1075 516 
Q 1375 441 1709 441 
Q 2250 441 2565 725 
Q 2881 1009 2881 1497 
Q 2881 1984 2565 2268 
Q 2250 2553 1709 2553 
Q 1456 2553 1204 2497 
Q 953 2441 691 2322 
L 691 4666 
z
" id="DejaVuSans-35" transform="scale(0.015625)"/>
       </defs>
       <use xlink:href="#DejaVuSans-30"/>
       <use x="63.623047" xlink:href="#DejaVuSans-2e"/>
       <use x="95.410156" xlink:href="#DejaVuSans-36"/>
       <use x="159.033203" xlink:href="#DejaVuSans-35"/>
      </g>
     </g>
    </g>
    <g id="ytick_2">
     <g id="line2d_8">
      <g>
       <use style="stroke:#000000;stroke-width:0.8;" x="90.09" xlink:href="#m1337c80b1f" y="245.782721"/>
      </g>
     </g>
     <g id="text_2">
      <!-- 0.70 -->
      <g transform="translate(60.824375 249.58194)scale(0.1 -0.1)">
       <defs>
        <path d="M 525 4666 
L 3525 4666 
L 3525 4397 
L 1831 0 
L 1172 0 
L 2766 4134 
L 525 4134 
L 525 4666 
z
" id="DejaVuSans-37" transform="scale(0.015625)"/>
       </defs>
       <use xlink:href="#DejaVuSans-30"/>
       <use x="63.623047" xlink:href="#DejaVuSans-2e"/>
       <use x="95.410156" xlink:href="#DejaVuSans-37"/>
       <use x="159.033203" xlink:href="#DejaVuSans-30"/>
      </g>
     </g>
    </g>
    <g id="ytick_3">
     <g id="line2d_9">
      <g>
       <use style="stroke:#000000;stroke-width:0.8;" x="90.09" xlink:href="#m1337c80b1f" y="197.036002"/>
      </g>
     </g>
     <g id="text_3">
      <!-- 0.75 -->
      <g transform="translate(60.824375 200.835221)scale(0.1 -0.1)">
       <use xlink:href="#DejaVuSans-30"/>
       <use x="63.623047" xlink:href="#DejaVuSans-2e"/>
       <use x="95.410156" xlink:href="#DejaVuSans-37"/>
       <use x="159.033203" xlink:href="#DejaVuSans-35"/>
      </g>
     </g>
    </g>
    <g id="ytick_4">
     <g id="line2d_10">
      <g>
       <use style="stroke:#000000;stroke-width:0.8;" x="90.09" xlink:href="#m1337c80b1f" y="148.289282"/>
      </g>
     </g>
     <g id="text_4">
      <!-- 0.80 -->
      <g transform="translate(60.824375 152.088501)scale(0.1 -0.1)">
       <defs>
        <path d="M 2034 2216 
Q 1584 2216 1326 1975 
Q 1069 1734 1069 1313 
Q 1069 891 1326 650 
Q 1584 409 2034 409 
Q 2484 409 2743 651 
Q 3003 894 3003 1313 
Q 3003 1734 2745 1975 
Q 2488 2216 2034 2216 
z
M 1403 2484 
Q 997 2584 770 2862 
Q 544 3141 544 3541 
Q 544 4100 942 4425 
Q 1341 4750 2034 4750 
Q 2731 4750 3128 4425 
Q 3525 4100 3525 3541 
Q 3525 3141 3298 2862 
Q 3072 2584 2669 2484 
Q 3125 2378 3379 2068 
Q 3634 1759 3634 1313 
Q 3634 634 3220 271 
Q 2806 -91 2034 -91 
Q 1263 -91 848 271 
Q 434 634 434 1313 
Q 434 1759 690 2068 
Q 947 2378 1403 2484 
z
M 1172 3481 
Q 1172 3119 1398 2916 
Q 1625 2713 2034 2713 
Q 2441 2713 2670 2916 
Q 2900 3119 2900 3481 
Q 2900 3844 2670 4047 
Q 2441 4250 2034 4250 
Q 1625 4250 1398 4047 
Q 1172 3844 1172 3481 
z
" id="DejaVuSans-38" transform="scale(0.015625)"/>
       </defs>
       <use xlink:href="#DejaVuSans-30"/>
       <use x="63.623047" xlink:href="#DejaVuSans-2e"/>
       <use x="95.410156" xlink:href="#DejaVuSans-38"/>
       <use x="159.033203" xlink:href="#DejaVuSans-30"/>
      </g>
     </g>
    </g>
    <g id="ytick_5">
     <g id="line2d_11">
      <g>
       <use style="stroke:#000000;stroke-width:0.8;" x="90.09" xlink:href="#m1337c80b1f" y="99.542563"/>
      </g>
     </g>
     <g id="text_5">
      <!-- 0.85 -->
      <g transform="translate(60.824375 103.341782)scale(0.1 -0.1)">
       <use xlink:href="#DejaVuSans-30"/>
       <use x="63.623047" xlink:href="#DejaVuSans-2e"/>
       <use x="95.410156" xlink:href="#DejaVuSans-38"/>
       <use x="159.033203" xlink:href="#DejaVuSans-35"/>
      </g>
     </g>
    </g>
    <g id="text_6">
     <!-- v -->
     <g transform="translate(54.744688 193.906975)rotate(-90)scale(0.1 -0.1)">
      <defs>
       <path d="M 191 3500 
L 800 3500 
L 1894 563 
L 2988 3500 
L 3597 3500 
L 2284 0 
L 1503 0 
L 191 3500 
z
" id="DejaVuSans-76" transform="scale(0.015625)"/>
      </defs>
      <use xlink:href="#DejaVuSans-76"/>
     </g>
    </g>
   </g>
   <g id="line2d_12"/>
   <g id="line2d_13">
    <path clip-path="url(#pa462bd95c3)" d="M 449.705209 256.946078 
L 465.643701 256.830713 
L 481.522867 256.490562 
L 497.289966 255.92957 
L 512.894513 255.154217 
L 528.661662 254.147218 
L 544.16192 252.937593 
L 559.711095 251.505858 
L 575.594324 249.820353 
L 591.717656 247.885364 
L 608.633225 245.626239 
L 626.468248 243.016794 
L 647.321176 239.731237 
L 648.782438 239.494054 
L 648.782438 239.494054 
" style="fill:none;stroke:#1f77b4;stroke-linecap:square;stroke-width:1.5;"/>
   </g>
   <g id="line2d_14">
    <path clip-path="url(#pa462bd95c3)" d="M 721.72 243.752837 
L 714.547061 244.370125 
L 706.686235 244.821461 
L 698.248676 245.080405 
L 689.268861 245.131446 
L 679.785091 244.962062 
L 669.838671 244.562861 
L 659.473077 243.927629 
L 648.313224 243.014848 
L 636.800623 241.844122 
L 624.986199 240.418574 
L 612.46906 238.677532 
L 599.735903 236.678534 
L 586.376503 234.349173 
L 572.898057 231.772004 
L 558.886335 228.864195 
L 544.392976 225.623735 
L 529.477227 222.053828 
L 514.20573 218.163224 
L 498.652304 213.966471 
L 482.897739 209.484107 
L 466.594317 204.609594 
L 450.296776 199.505015 
L 433.704983 194.077253 
L 416.596438 188.242494 
L 399.589415 182.207649 
L 382.21742 175.804975 
L 364.892621 169.181274 
L 347.544059 162.30928 
L 330.276141 155.228548 
L 313.284751 148.021293 
L 296.486753 140.653798 
L 292.895141 139.046218 
L 292.895141 139.046218 
" style="fill:none;stroke:#1f77b4;stroke-dasharray:5.55,2.4;stroke-dashoffset:0;stroke-width:1.5;"/>
   </g>
   <g id="line2d_15"/>
   <g id="line2d_16">
    <path clip-path="url(#pa462bd95c3)" d="M 448.889843 256.945899 
L 433.078975 256.825398 
L 417.317331 256.483433 
L 401.655406 255.923424 
L 385.765854 255.129805 
L 370.081822 254.122612 
L 354.285476 252.882811 
L 338.441847 251.412711 
L 322.617325 249.72076 
L 306.541607 247.779847 
L 289.664257 245.515101 
L 271.547783 242.853194 
L 250.444679 239.516465 
L 198.523386 231.186389 
L 186.664283 229.583904 
L 177.206048 228.521507 
L 169.309278 227.852348 
L 162.665369 227.509385 
L 157.173544 227.442921 
L 152.600374 227.606481 
L 148.992126 227.948338 
L 146.137826 228.432514 
L 144.036027 228.997887 
L 143.155636 229.325487 
L 143.155636 229.325487 
" style="fill:none;stroke:#1f77b4;stroke-linecap:square;stroke-width:1.5;"/>
   </g>
   <g id="line2d_17">
    <path clip-path="url(#pa462bd95c3)" d="M 143.092761 229.351894 
L 141.842877 230.005397 
L 141.071302 230.642465 
L 140.638147 231.266652 
L 140.464486 231.896819 
L 140.516547 232.522693 
L 140.807504 233.21869 
L 141.387528 233.985644 
L 142.311412 234.822523 
L 143.714574 235.771531 
L 145.625126 236.781648 
L 148.114686 237.841218 
L 151.257784 238.934002 
L 155.130572 240.038608 
L 159.616925 241.087564 
L 164.931348 242.096115 
L 170.899179 242.996915 
L 177.506616 243.766748 
L 184.73418 244.383809 
L 192.557053 244.828186 
L 200.945588 245.082285 
L 209.86595 245.131161 
L 219.280841 244.962739 
L 229.150269 244.567947 
L 239.835439 243.911914 
L 250.917291 243.001853 
L 262.346906 241.83763 
L 274.075497 240.422147 
L 286.502805 238.69491 
L 299.147457 236.712606 
L 312.418717 234.402894 
L 325.814544 231.847002 
L 339.748359 228.962056 
L 354.17081 225.745213 
L 369.024817 222.198731 
L 384.245673 218.330347 
L 399.761148 214.153594 
L 415.491598 209.688052 
L 431.785296 204.826641 
L 448.088355 199.730239 
L 464.700848 194.305338 
L 481.456063 188.602842 
L 498.53419 182.556497 
L 515.651532 176.262545 
L 533.111409 169.603161 
L 550.341065 162.794018 
L 567.615038 155.727662 
L 584.648802 148.519193 
L 601.397418 141.190576 
L 606.193911 139.046316 
L 606.193911 139.046316 
" style="fill:none;stroke:#1f77b4;stroke-dasharray:5.55,2.4;stroke-dashoffset:0;stroke-width:1.5;"/>
   </g>
   <g id="line2d_18"/>
   <g id="line2d_19">
    <path clip-path="url(#pa462bd95c3)" d="M 449.704331 293.034423 
L 449.865662 293.21686 
L 450.012075 293.382388 
L 450.142017 293.529262 
L 450.253878 293.655673 
L 450.346026 293.759789 
L 450.41688 293.839834 
L 450.465011 293.8942 
L 450.48925 293.921574 
" style="fill:none;stroke:#2ca02c;stroke-linecap:square;stroke-width:1.5;"/>
   </g>
   <g id="line2d_20">
    <path clip-path="url(#pa462bd95c3)" d="M 450.4888 293.921056 
L 436.952949 278.464293 
L 422.826451 261.985889 
L 406.032264 242.032625 
L 377.006661 207.495521 
L 366.135541 194.945312 
L 357.044968 184.774473 
L 348.633885 175.696998 
L 340.922118 167.701285 
L 333.540393 160.372508 
L 326.501736 153.702063 
L 319.820074 147.67178 
L 313.114542 141.926515 
L 306.792879 136.799058 
L 300.475203 131.960968 
L 294.179735 127.429677 
L 288.318741 123.475877 
L 282.522685 119.82217 
L 276.823172 116.484358 
L 271.260763 113.479465 
L 265.888003 110.826147 
L 260.773688 108.545052 
L 256.008805 106.658979 
L 251.714529 105.192467 
L 248.051965 104.170051 
L 245.38793 103.634221 
L 243.75265 103.503707 
L 243.162689 103.636896 
L 243.124952 103.807848 
L 243.34231 104.040959 
L 244.046625 104.436693 
L 245.607168 105.039966 
L 248.177807 105.794079 
L 251.919486 106.658203 
L 256.918113 107.5697 
L 262.708935 108.397158 
L 269.625645 109.152688 
L 277.068713 109.746229 
L 285.466364 110.1953 
L 294.762444 110.465639 
L 304.894626 110.530628 
L 315.797267 110.371186 
L 327.402708 109.975501 
L 339.641742 109.338751 
L 353.050989 108.41652 
L 367.536539 107.192925 
L 383.573056 105.605691 
L 401.556416 103.589508 
L 422.861846 100.960878 
L 456.127248 96.590783 
L 484.241131 92.981977 
L 500.825142 91.073175 
L 513.864497 89.785883 
L 525.311748 88.877962 
L 535.238803 88.310532 
L 544.205699 88.0177 
L 550.312288 87.994662 
L 542.059388 88.16671 
L 532.729632 88.537313 
L 522.796775 89.159849 
L 511.712494 90.082093 
L 498.570399 91.411427 
L 482.684321 93.254712 
L 460.626844 96.056749 
L 408.189909 102.791189 
L 388.842702 105.012822 
L 372.020207 106.729229 
L 356.749325 108.068526 
L 342.556448 109.089313 
L 329.563986 109.802085 
L 317.223178 110.25136 
L 306.267961 110.435345 
L 296.124494 110.397133 
L 286.257774 110.135368 
L 277.391992 109.676152 
L 269.597817 109.060248 
L 262.436976 108.275834 
L 256.108073 107.353792 
L 251.167892 106.422847 
L 247.304516 105.487859 
L 244.651008 104.633397 
L 243.33265 103.996174 
L 243.051515 103.656715 
L 243.056623 103.62763 
L 243.056623 103.62763 
" style="fill:none;stroke:#2ca02c;stroke-dasharray:5.55,2.4;stroke-dashoffset:0;stroke-width:1.5;"/>
   </g>
   <g id="line2d_21">
    <path clip-path="url(#pa462bd95c3)" d="M 243.068836 103.600386 
L 243.288361 103.477178 
L 243.954289 103.427158 
L 245.338181 103.562344 
L 247.712139 104.031376 
L 251.025382 104.928718 
L 254.96737 106.232255 
L 259.411007 107.935226 
L 264.249713 110.025999 
L 269.395732 112.490365 
L 274.777421 115.312874 
L 280.336462 118.47756 
L 286.025388 121.968269 
L 291.805514 125.768769 
L 297.645291 129.862729 
L 303.971585 134.580857 
L 310.311319 139.599174 
L 316.6438 144.896119 
L 323.402066 150.855307 
L 330.1178 157.080386 
L 337.221403 163.980258 
L 344.690459 171.564393 
L 352.502191 179.828446 
L 361.058853 189.225622 
L 370.317517 199.733874 
L 381.457528 212.729829 
L 397.49877 231.82551 
L 424.04169 263.418212 
L 438.277784 279.992725 
L 450.491368 293.923964 
L 450.491368 293.923964 
" style="fill:none;stroke:#2ca02c;stroke-linecap:square;stroke-width:1.5;"/>
   </g>
   <g id="line2d_22">
    <path clip-path="url(#pa462bd95c3)" d="M 450.485114 293.916891 
L 436.875476 278.374866 
L 422.745109 261.890066 
L 405.587017 241.500284 
L 377.293664 207.831387 
L 366.425735 195.275362 
L 357.33794 185.09678 
L 348.929458 176.009934 
L 341.220011 168.003894 
L 333.840345 160.663794 
L 326.803386 153.981338 
L 320.122976 147.938626 
L 313.418209 142.17993 
L 307.096666 137.03895 
L 300.778345 132.186502 
L 294.481244 127.640021 
L 288.61757 123.67121 
L 282.817415 120.001714 
L 277.11199 116.647287 
L 271.541337 113.62488 
L 266.1573 110.953057 
L 261.027715 108.652358 
L 256.242262 106.745474 
L 251.920352 105.256884 
L 248.220806 104.2112 
L 245.511509 103.652939 
L 243.823277 103.501713 
L 243.185198 103.619814 
L 243.115825 103.782414 
L 243.299907 104.007925 
L 243.958222 104.395005 
L 245.460847 104.990306 
L 247.970759 105.739619 
L 251.653508 106.602963 
L 256.59922 107.517768 
L 262.348438 108.351402 
L 269.231218 109.115336 
L 276.649295 109.718025 
L 285.027674 110.176966 
L 294.309545 110.457414 
L 304.4319 110.532376 
L 315.328482 110.382489 
L 326.931113 109.995724 
L 339.170168 109.367097 
L 352.582098 108.452373 
L 367.072992 107.235373 
L 383.11782 105.653723 
L 400.540497 103.709046 
L 421.335268 101.155782 
L 452.169694 97.114972 
L 483.419809 93.082274 
L 500.058531 91.155588 
L 513.556038 89.813524 
L 525.028122 88.897424 
L 534.982766 88.322182 
L 543.991212 88.021857 
L 550.311059 87.992802 
L 541.964194 88.169363 
L 532.627334 88.542586 
L 522.690337 89.16765 
L 511.60155 90.092347 
L 498.453727 91.424146 
L 482.560398 93.269833 
L 460.492887 96.07423 
L 431.202484 99.907324 
L 431.202484 99.907324 
" style="fill:none;stroke:#2ca02c;stroke-dasharray:5.55,2.4;stroke-dashoffset:0;stroke-width:1.5;"/>
   </g>
   <g id="line2d_23"/>
   <g id="line2d_24">
    <path clip-path="url(#pa462bd95c3)" d="M 278.372339 117.22465 
L 284.082152 120.650589 
L 289.798405 124.333256 
L 295.84489 128.497335 
L 301.837281 132.891274 
L 308.101839 137.763873 
L 314.607682 143.12031 
L 320.992035 148.663417 
L 327.573512 154.666422 
L 334.327057 161.119664 
L 341.539517 168.322681 
L 349.165689 176.263868 
L 357.16281 184.914952 
L 366.056827 194.871392 
L 376.299831 206.685912 
L 389.552264 222.340582 
L 422.730778 261.869741 
L 422.730778 261.869741 
" style="fill:none;stroke:#d62728;stroke-linecap:square;stroke-width:1.5;"/>
   </g>
   <g id="line2d_25">
    <path clip-path="url(#pa462bd95c3)" d="M 422.727643 261.866037 
L 405.505691 241.407902 
L 376.947118 207.443216 
L 365.90488 194.69948 
L 356.663412 184.366536 
L 348.266574 175.311822 
L 340.497114 167.262997 
L 333.115835 159.941336 
L 326.154648 153.348128 
L 319.348677 147.209887 
L 312.716482 141.532404 
L 306.278751 136.316557 
L 300.057815 131.558752 
L 294.077159 127.251399 
L 288.04226 123.174998 
L 282.294016 119.54984 
L 276.54184 116.180676 
L 270.822929 113.096896 
L 265.501162 110.47808 
L 260.325837 108.181366 
L 255.680684 106.354268 
L 251.388358 104.899299 
L 247.863425 103.92351 
L 245.229496 103.3972 
L 243.588703 103.269557 
L 243.006086 103.409306 
L 242.9828 103.585382 
L 243.218947 103.822321 
L 244.064045 104.271212 
L 245.860723 104.924771 
L 248.665728 105.698861 
L 252.516797 106.535433 
L 257.395632 107.372874 
L 263.254927 108.154762 
L 270.036272 108.832865 
L 277.677588 109.367052 
L 286.114434 109.724436 
L 295.278927 109.878708 
L 305.098132 109.809917 
L 315.492331 109.50466 
L 326.372737 108.956748 
L 337.637431 108.168505 
L 349.636328 107.107303 
L 362.596242 105.734858 
L 376.816317 104.002102 
L 393.715258 101.719743 
L 362.224801 105.777364 
L 348.786766 107.189733 
L 336.383551 108.267037 
L 324.766013 109.051851 
L 314.089877 109.559294 
L 303.928587 109.830306 
L 294.368853 109.873796 
L 285.489933 109.705953 
L 276.866774 109.321001 
L 269.113764 108.753336 
L 262.312079 108.043011 
L 256.14597 107.177442 
L 251.171853 106.265339 
L 247.189573 105.316124 
L 244.590539 104.4862 
L 243.260682 103.8519 
L 242.961424 103.508535 
L 242.964448 103.478871 
L 242.964448 103.478871 
" style="fill:none;stroke:#d62728;stroke-dasharray:5.55,2.4;stroke-dashoffset:0;stroke-width:1.5;"/>
   </g>
   <g id="line2d_26">
    <path clip-path="url(#pa462bd95c3)" d="M 242.974564 103.451029 
L 243.180724 103.323831 
L 243.822815 103.266797 
L 245.153029 103.386475 
L 247.399117 103.815058 
L 250.463181 104.62131 
L 254.310761 105.863511 
L 258.884194 107.589475 
L 263.779628 109.685965 
L 268.889154 112.116882 
L 274.134056 114.849712 
L 279.812744 118.06469 
L 285.52759 121.558175 
L 291.24025 125.301361 
L 297.275965 129.522692 
L 303.252383 133.967187 
L 309.496032 138.886559 
L 315.976819 144.28537 
L 322.665291 150.162199 
L 329.533548 156.509291 
L 336.556034 163.312312 
L 343.710163 170.550238 
L 351.27518 178.515339 
L 359.499092 187.498652 
L 368.596429 197.76987 
L 379.283234 210.181316 
L 393.922274 227.55464 
L 422.731166 261.870197 
L 422.731166 261.870197 
" style="fill:none;stroke:#d62728;stroke-linecap:square;stroke-width:1.5;"/>
   </g>
   <g id="line2d_27">
    <path clip-path="url(#pa462bd95c3)" d="M 422.726937 261.865205 
L 405.495634 241.395883 
L 376.936358 207.430631 
L 365.893801 194.686891 
L 356.652029 184.354032 
L 348.254887 175.299467 
L 340.485127 167.250842 
L 333.10355 159.929428 
L 326.142076 153.336504 
L 319.335823 147.19859 
L 312.70336 141.521475 
L 306.265382 136.306033 
L 300.044227 131.548668 
L 294.063387 127.241786 
L 288.028343 123.165915 
L 282.280012 119.54132 
L 276.527824 116.172789 
L 270.809009 113.089724 
L 265.487483 110.471675 
L 260.312617 108.175836 
L 255.668202 106.349688 
L 251.377071 104.895819 
L 247.85389 103.921221 
L 245.222384 103.396155 
L 243.584682 103.269729 
L 243.004975 103.410374 
L 242.983592 103.586934 
L 243.221695 103.824293 
L 244.069691 104.273672 
L 245.869618 104.927578 
L 248.677604 105.701771 
L 252.531209 106.538225 
L 257.412091 107.375377 
L 263.272984 108.156865 
L 270.05554 108.834497 
L 277.697739 109.368179 
L 286.135183 109.725046 
L 295.300026 109.878809 
L 305.119356 109.809527 
L 315.513474 109.503814 
L 326.393604 108.955489 
L 337.657826 108.166888 
L 349.656007 107.105389 
L 362.614816 105.732739 
L 376.832852 103.999971 
L 393.715174 101.719755 
L 362.204929 105.779623 
L 348.765744 107.191752 
L 336.361806 108.268717 
L 324.743814 109.053126 
L 314.067448 109.560128 
L 303.906131 109.830658 
L 294.346587 109.873638 
L 285.468095 109.705269 
L 276.845682 109.319761 
L 269.093767 108.751562 
L 262.293572 108.04076 
L 256.129552 107.174791 
L 251.158072 106.262459 
L 247.179187 105.31326 
L 244.583926 104.483662 
L 243.257849 103.849967 
L 242.961407 103.507229 
L 242.964736 103.477642 
L 242.964736 103.477642 
" style="fill:none;stroke:#d62728;stroke-dasharray:5.55,2.4;stroke-dashoffset:0;stroke-width:1.5;"/>
   </g>
   <g id="line2d_28">
    <path clip-path="url(#pa462bd95c3)" d="M 242.975154 103.44988 
L 243.183068 103.323177 
L 243.827309 103.266852 
L 245.159855 103.387451 
L 247.40821 103.817135 
L 250.474144 104.624525 
L 254.323189 105.86786 
L 258.897714 107.594928 
L 263.793879 109.692411 
L 268.903873 112.124222 
L 274.149051 114.857856 
L 279.827877 118.073603 
L 285.542743 121.567774 
L 291.255334 125.311572 
L 297.290907 129.533477 
L 303.26713 133.978475 
L 309.510534 138.89831 
L 315.991034 144.297534 
L 322.679186 150.174724 
L 329.547098 156.522118 
L 336.569225 163.325379 
L 343.722988 170.563479 
L 351.287624 178.528689 
L 359.511138 187.512035 
L 368.608057 197.783192 
L 379.294401 210.194438 
L 393.932844 227.567268 
L 422.731497 261.870586 
L 422.731497 261.870586 
" style="fill:none;stroke:#d62728;stroke-linecap:square;stroke-width:1.5;"/>
   </g>
   <g id="line2d_29">
    <path clip-path="url(#pa462bd95c3)" d="M 422.726206 261.864343 
L 405.485875 241.384219 
L 376.925934 207.418439 
L 365.883073 194.674702 
L 356.64101 184.341929 
L 348.243577 175.287512 
L 340.473529 167.239083 
L 339.066647 165.818502 
L 339.066647 165.818502 
" style="fill:none;stroke:#d62728;stroke-dasharray:5.55,2.4;stroke-dashoffset:0;stroke-width:1.5;"/>
   </g>
   <g id="line2d_30">
    <path clip-path="url(#pa462bd95c3)" d="M 375.643283 205.922816 
L 388.605673 221.214276 
L 420.173612 258.841387 
L 420.173612 258.841387 
" style="fill:none;stroke:#9467bd;stroke-linecap:square;stroke-width:1.5;"/>
   </g>
   <g id="line2d_31">
    <path clip-path="url(#pa462bd95c3)" d="M 420.168164 258.834878 
L 398.10783 232.553454 
L 377.970948 208.644888 
L 366.726852 195.640468 
L 357.358732 185.138184 
L 348.939002 176.030608 
L 341.177961 167.960818 
L 333.9452 160.752604 
L 326.878494 154.023266 
L 320.220317 147.981712 
L 313.569345 142.247503 
L 307.168648 137.021234 
L 300.814062 132.122605 
L 294.768032 127.735298 
L 288.818343 123.683137 
L 282.988272 119.973011 
L 277.305164 116.611154 
L 271.80163 113.603627 
L 266.517566 110.956979 
L 261.503531 108.679137 
L 256.570563 106.683564 
L 252.095994 105.119418 
L 248.458798 104.068822 
L 245.592599 103.452145 
L 243.815741 103.264645 
L 243.084389 103.357115 
L 242.966837 103.538239 
L 243.140858 103.759736 
L 243.763617 104.131051 
L 245.294097 104.737047 
L 247.955467 105.517962 
L 251.634223 106.358148 
L 256.288897 107.197973 
L 261.873844 107.986782 
L 268.345464 108.681566 
L 275.659725 109.245187 
L 283.767672 109.645506 
L 292.611738 109.855374 
L 302.123549 109.853196 
L 312.222698 109.623772 
L 322.8151 109.159376 
L 334.242116 108.428054 
L 346.322691 107.421894 
L 359.16198 106.12025 
L 372.950382 104.49498 
L 381.747116 103.357655 
L 359.01066 106.136236 
L 346.152864 107.437355 
L 334.157323 108.434485 
L 322.876646 109.156601 
L 311.987841 109.632424 
L 301.609663 109.859969 
L 291.844881 109.847007 
L 282.78537 109.609739 
L 274.513446 109.172119 
L 267.102084 108.565414 
L 260.2292 107.77682 
L 254.426316 106.887313 
L 249.771692 105.959655 
L 246.330563 105.068925 
L 244.126249 104.29781 
L 243.140132 103.761461 
L 242.964841 103.478104 
L 242.964841 103.478104 
" style="fill:none;stroke:#9467bd;stroke-dasharray:5.55,2.4;stroke-dashoffset:0;stroke-width:1.5;"/>
   </g>
   <g id="line2d_32">
    <path clip-path="url(#pa462bd95c3)" d="M 242.974982 103.450352 
L 243.180869 103.323371 
L 243.820758 103.266254 
L 245.293678 103.406534 
L 247.727065 103.890724 
L 250.933755 104.76047 
L 254.799619 106.035375 
L 259.212712 107.721779 
L 264.075348 109.819354 
L 269.305698 112.324539 
L 274.835647 115.231953 
L 280.321284 118.364429 
L 286.011298 121.864773 
L 291.867983 125.727121 
L 297.858106 129.943663 
L 303.952549 134.50466 
L 310.126063 139.398486 
L 316.60217 144.822276 
L 323.101371 150.556806 
L 329.83768 156.798922 
L 336.775909 163.532323 
L 344.096938 170.952684 
L 351.751186 179.029849 
L 360.085488 188.154634 
L 369.389379 198.683095 
L 380.42754 211.529846 
L 395.950218 229.97707 
L 420.171935 258.83942 
L 420.171935 258.83942 
" style="fill:none;stroke:#9467bd;stroke-linecap:square;stroke-width:1.5;"/>
   </g>
   <g id="line2d_33">
    <path clip-path="url(#pa462bd95c3)" d="M 420.170966 258.838201 
L 397.343051 231.638991 
L 377.832621 208.482831 
L 366.58293 195.476567 
L 357.209464 184.973802 
L 348.784386 175.866659 
L 341.017982 167.798024 
L 333.779885 160.591567 
L 326.707693 153.864604 
L 320.044151 147.825909 
L 313.387686 142.09519 
L 306.981639 136.872916 
L 300.621757 131.978926 
L 294.570793 127.59672 
L 288.616468 123.550323 
L 282.782232 119.846688 
L 277.09567 116.492138 
L 271.589741 113.492863 
L 266.304869 110.855601 
L 261.29245 108.588547 
L 256.365338 106.606338 
L 252.142987 105.134435 
L 248.500384 104.079411 
L 245.625184 103.457558 
L 243.836121 103.264892 
L 243.092532 103.353369 
L 242.965459 103.531982 
L 243.131161 103.751656 
L 243.743218 104.121116 
L 245.260615 104.725628 
L 247.909477 105.506048 
L 251.577889 106.34667 
L 256.224133 107.187573 
L 261.802208 107.977885 
L 268.268241 108.674447 
L 275.57803 109.240023 
L 283.682533 109.642394 
L 292.524141 109.854345 
L 302.03446 109.85422 
L 312.133076 109.626759 
L 322.725911 109.164176 
L 334.154473 108.43451 
L 346.238053 107.429715 
L 359.08296 106.128927 
L 372.885638 104.503088 
L 381.748107 103.357527 
L 359.095002 106.12698 
L 346.242752 107.429057 
L 334.250047 108.427651 
L 322.97077 109.151507 
L 312.082299 109.629301 
L 301.703442 109.85898 
L 291.936951 109.848251 
L 282.874651 109.613246 
L 274.598783 109.177842 
L 267.182227 108.573219 
L 260.302293 107.786568 
L 254.490494 106.898562 
L 249.824783 105.971709 
L 246.370237 105.080781 
L 244.150573 104.308195 
L 243.149843 103.769386 
L 242.963714 103.48356 
L 242.963714 103.48356 
" style="fill:none;stroke:#9467bd;stroke-dasharray:5.55,2.4;stroke-dashoffset:0;stroke-width:1.5;"/>
   </g>
   <g id="line2d_34">
    <path clip-path="url(#pa462bd95c3)" d="M 242.972524 103.455465 
L 243.170658 103.326306 
L 243.801112 103.266069 
L 245.263258 103.40198 
L 247.687301 103.881326 
L 250.88732 104.746509 
L 254.748788 106.01729 
L 259.159226 107.70004 
L 264.020477 109.794398 
L 269.250356 112.296758 
L 274.780488 115.201692 
L 280.266738 118.332098 
L 285.957681 121.83062 
L 291.815528 125.691378 
L 297.806981 129.90655 
L 303.902867 134.466388 
L 310.077899 139.359253 
L 316.555624 144.78225 
L 323.056449 150.516187 
L 329.794418 156.75789 
L 336.734313 163.491068 
L 344.057034 170.911404 
L 351.712966 178.988761 
L 360.048988 188.113994 
L 369.354657 198.643227 
L 370.465941 199.921084 
L 370.465941 199.921084 
" style="fill:none;stroke:#9467bd;stroke-linecap:square;stroke-width:1.5;"/>
   </g>
   <g id="line2d_35"/>
   <g id="line2d_36">
    <path clip-path="url(#pa462bd95c3)" d="M 362.383526 190.735142 
L 372.021207 201.716672 
L 383.757543 215.443055 
L 402.439132 237.688727 
L 419.912433 258.484872 
L 419.912433 258.484872 
" style="fill:none;stroke:#8c564b;stroke-linecap:square;stroke-width:1.5;"/>
   </g>
   <g id="line2d_37">
    <path clip-path="url(#pa462bd95c3)" d="M 419.915355 258.488185 
L 373.572811 203.497189 
L 363.139796 191.583144 
L 354.168908 181.667622 
L 346.020823 172.986335 
L 338.368333 165.156287 
L 331.126964 158.06422 
L 324.19715 151.586627 
L 317.461474 145.595095 
L 310.952553 140.101045 
L 304.530746 134.973367 
L 298.400904 130.356172 
L 292.226927 125.985 
L 286.213582 122.00241 
L 280.392292 118.411481 
L 274.798332 115.213279 
L 269.255549 112.298462 
L 264.016435 109.789477 
L 258.917549 107.59733 
L 254.260831 105.839181 
L 250.169157 104.528156 
L 246.821363 103.679793 
L 244.446446 103.294304 
L 243.267591 103.297808 
L 242.976069 103.460317 
L 243.045443 103.655885 
L 243.514821 103.993255 
L 244.648315 104.497114 
L 246.869685 105.216499 
L 250.243322 106.05665 
L 254.569271 106.904521 
L 260.131402 107.757001 
L 266.636362 108.514005 
L 273.662528 109.109505 
L 281.50465 109.554297 
L 290.115307 109.818945 
L 299.429546 109.878883 
L 309.365213 109.71599 
L 319.82457 109.319981 
L 330.694082 108.689734 
L 342.260652 107.798972 
L 354.691118 106.615876 
L 368.113779 105.109874 
L 380.487691 103.54529 
L 355.537182 106.516707 
L 342.706926 107.75041 
L 330.807357 108.673635 
L 319.657388 109.321289 
L 308.944914 109.722346 
L 298.787524 109.878486 
L 289.288285 109.801181 
L 280.535763 109.510479 
L 272.601786 109.033735 
L 265.163551 108.364205 
L 258.705692 107.562628 
L 253.276619 106.675933 
L 248.928676 105.758797 
L 245.726909 104.878082 
L 243.739117 104.116992 
L 243.020645 103.63716 
L 242.963987 103.50363 
L 242.963987 103.50363 
" style="fill:none;stroke:#8c564b;stroke-dasharray:5.55,2.4;stroke-dashoffset:0;stroke-width:1.5;"/>
   </g>
   <g id="line2d_38">
    <path clip-path="url(#pa462bd95c3)" d="M 242.967267 103.474357 
L 243.132081 103.33666 
L 243.72126 103.263242 
L 244.971906 103.357914 
L 247.232044 103.773499 
L 250.390342 104.596173 
L 254.332474 105.867342 
L 258.678572 107.50318 
L 263.551145 109.579555 
L 268.621158 111.980689 
L 274.063014 114.808914 
L 279.588594 117.931498 
L 285.385782 121.468176 
L 291.196969 125.273239 
L 297.208282 129.476778 
L 303.383326 134.072509 
L 309.689948 139.051282 
L 316.100289 144.401258 
L 322.590788 150.108079 
L 329.306452 156.310324 
L 336.21098 162.98914 
L 343.424395 170.27524 
L 351.046593 178.289931 
L 359.297085 187.290937 
L 368.485987 197.652118 
L 379.3563 210.260022 
L 394.217091 227.870036 
L 419.911346 258.483595 
L 419.911346 258.483595 
" style="fill:none;stroke:#8c564b;stroke-linecap:square;stroke-width:1.5;"/>
   </g>
   <g id="line2d_39">
    <path clip-path="url(#pa462bd95c3)" d="M 419.915961 258.488912 
L 374.297632 204.337398 
L 363.772041 192.294432 
L 354.696662 182.241153 
L 346.571349 173.562145 
L 338.942366 165.73202 
L 331.725098 158.63776 
L 324.819975 152.156005 
L 318.109746 146.15836 
L 311.626681 140.656315 
L 305.2315 135.518558 
L 298.945018 130.754921 
L 292.791428 126.372881 
L 286.79829 122.377585 
L 280.996607 118.771945 
L 275.211335 115.440741 
L 269.679756 112.512304 
L 264.449331 109.987282 
L 259.3548 107.774953 
L 254.693634 105.991634 
L 250.580964 104.64831 
L 247.182115 103.758092 
L 244.710192 103.321454 
L 243.403643 103.277047 
L 242.988149 103.434402 
L 243.017559 103.620687 
L 243.361195 103.903666 
L 244.381987 104.393105 
L 246.298489 105.049593 
L 249.279764 105.837052 
L 253.437166 106.701237 
L 258.532869 107.534178 
L 264.532263 108.293202 
L 271.407073 108.940468 
L 272.158471 108.998984 
L 272.158471 108.998984 
" style="fill:none;stroke:#8c564b;stroke-dasharray:5.55,2.4;stroke-dashoffset:0;stroke-width:1.5;"/>
   </g>
   <g id="line2d_40">
    <path clip-path="url(#pa462bd95c3)" d="M 355.761547 183.384532 
L 364.713392 193.287618 
L 374.83368 204.824912 
L 386.827326 218.848833 
L 402.144249 237.120228 
L 419.967704 258.67046 
L 419.967704 258.67046 
" style="fill:none;stroke:#e377c2;stroke-linecap:square;stroke-width:1.5;"/>
   </g>
   <g id="line2d_41">
    <path clip-path="url(#pa462bd95c3)" d="M 419.959481 258.662422 
L 416.667157 254.696125 
L 384.840583 216.327374 
L 373.531367 203.142422 
L 363.654058 191.960564 
L 354.648078 182.094982 
L 346.335568 173.313248 
L 338.490898 165.346928 
L 331.068762 158.124848 
L 324.012126 151.564143 
L 317.250828 145.573986 
L 310.699812 140.059011 
L 304.257091 134.922591 
L 297.944758 130.174849 
L 291.788787 125.823385 
L 285.8191 121.873224 
L 279.906439 118.229909 
L 274.238515 114.997454 
L 268.681297 112.086512 
L 263.448254 109.593954 
L 258.599908 107.519267 
L 254.020872 105.795344 
L 250.011492 104.514891 
L 246.748478 103.691417 
L 244.467091 103.321841 
L 243.298125 103.323697 
L 243.007116 103.484113 
L 243.07128 103.675192 
L 243.50998 103.998745 
L 244.671773 104.521092 
L 246.872914 105.238237 
L 250.127352 106.057863 
L 254.51164 106.928497 
L 259.813584 107.755953 
L 266.027211 108.503028 
L 273.150787 109.133301 
L 281.169223 109.610426 
L 289.646654 109.891729 
L 298.875872 109.97457 
L 308.767641 109.8372 
L 319.20928 109.467005 
L 330.071067 108.862013 
L 341.613946 107.997993 
L 353.998449 106.844194 
L 367.395388 105.36378 
L 380.377771 103.717362 
L 360.694556 106.050461 
L 347.474019 107.389446 
L 335.379656 108.400714 
L 323.916136 109.143286 
L 312.826388 109.63694 
L 302.694381 109.871604 
L 293.193043 109.880268 
L 284.011769 109.667 
L 275.675978 109.254067 
L 267.885014 108.642416 
L 261.086641 107.887667 
L 255.299478 107.032944 
L 250.540614 106.123571 
L 246.850049 105.211474 
L 244.442699 104.416694 
L 243.22355 103.80899 
L 242.977898 103.518809 
L 242.977898 103.518809 
" style="fill:none;stroke:#e377c2;stroke-dasharray:5.55,2.4;stroke-dashoffset:0;stroke-width:1.5;"/>
   </g>
   <g id="line2d_42">
    <path clip-path="url(#pa462bd95c3)" d="M 242.977146 103.488951 
L 243.115949 103.345775 
L 243.580179 103.26585 
L 244.732488 103.325889 
L 246.832411 103.684207 
L 249.903307 104.455068 
L 253.598997 105.614982 
L 257.966126 107.224067 
L 262.680155 109.19869 
L 267.856913 111.616294 
L 273.229764 114.377731 
L 278.755653 117.469709 
L 284.401198 120.881129 
L 290.304347 124.712483 
L 296.263105 128.847126 
L 302.410093 133.387666 
L 308.710399 138.325554 
L 315.134083 143.649435 
L 321.65612 149.345341 
L 328.380213 155.513197 
L 335.39171 162.249066 
L 342.760384 169.641733 
L 350.543101 177.769146 
L 358.989787 186.918739 
L 362.513999 190.825498 
L 362.513999 190.825498 
" style="fill:none;stroke:#e377c2;stroke-linecap:square;stroke-width:1.5;"/>
   </g>
   <g id="line2d_43">
    <path clip-path="url(#pa462bd95c3)" d="M 403.963942 239.751814 
L 414.583247 254.055335 
L 421.819156 263.938685 
L 421.819156 263.938685 
" style="fill:none;stroke:#7f7f7f;stroke-linecap:square;stroke-width:1.5;"/>
   </g>
   <g id="line2d_44">
    <path clip-path="url(#pa462bd95c3)" d="M 421.804738 263.940841 
L 421.336542 263.442577 
L 418.69922 260.222764 
L 413.833189 253.930623 
L 407.033089 244.746136 
L 390.948826 222.897737 
L 384.344549 214.385123 
L 378.007275 206.577787 
L 371.673244 199.124831 
L 365.094263 191.727855 
L 358.205828 184.321107 
L 351.01739 176.920434 
L 343.540566 169.542958 
L 335.87628 162.292765 
L 328.135042 155.276478 
L 320.535891 148.686767 
L 313.114019 142.542806 
L 306.01011 136.944904 
L 299.15347 131.819204 
L 292.576121 127.173817 
L 286.188334 122.932388 
L 280.145414 119.179933 
L 274.218582 115.760831 
L 268.567172 112.758694 
L 263.232121 110.175488 
L 258.264835 108.013518 
L 253.734394 106.277759 
L 249.744855 104.98019 
L 246.475316 104.145069 
L 244.342805 103.802702 
L 243.243973 103.819592 
L 242.999894 103.990296 
L 243.088426 104.184049 
L 243.522173 104.50008 
L 244.703577 105.040205 
L 246.832009 105.753354 
L 250.083178 106.601787 
L 254.397536 107.494294 
L 259.872397 108.386646 
L 266.037999 109.163724 
L 273.164083 109.83218 
L 280.92031 110.334176 
L 289.591695 110.663373 
L 298.728568 110.78328 
L 308.584159 110.684723 
L 319.022728 110.351715 
L 329.886315 109.781375 
L 341.398978 108.952256 
L 353.327227 107.872425 
L 365.972183 106.504062 
L 377.871834 105.001095 
L 380.514092 104.58223 
L 379.825985 104.619694 
L 372.830564 105.363895 
L 354.44623 107.266548 
L 341.070204 108.423435 
L 328.939771 109.253342 
L 317.505571 109.813403 
L 306.953329 110.112866 
L 297.015067 110.178766 
L 287.824687 110.027099 
L 279.111846 109.665141 
L 271.009553 109.103049 
L 263.931532 108.394823 
L 257.592159 107.540719 
L 252.309458 106.612277 
L 248.085813 105.65303 
L 245.12925 104.76682 
L 243.511481 104.071998 
L 243.035902 103.687631 
L 243.012388 103.624173 
L 243.012388 103.624173 
" style="fill:none;stroke:#7f7f7f;stroke-dasharray:5.55,2.4;stroke-dashoffset:0;stroke-width:1.5;"/>
   </g>
   <g id="line2d_45">
    <path clip-path="url(#pa462bd95c3)" d="M 243.010328 103.594564 
L 243.137836 103.450911 
L 243.587626 103.368931 
L 244.709622 103.425621 
L 246.698379 103.763445 
L 249.667114 104.50673 
L 253.451409 105.698973 
L 257.706614 107.276401 
L 262.493368 109.294796 
L 267.558718 111.676359 
L 272.851352 114.410605 
L 278.331768 117.489456 
L 284.105363 120.991903 
L 289.994939 124.827144 
L 296.104094 129.075013 
L 302.398292 133.728145 
L 308.84887 138.776569 
L 315.539615 144.298484 
L 322.538927 150.369645 
L 329.804512 156.970591 
L 337.392148 164.166464 
L 345.342432 172.014098 
L 353.593533 180.471941 
L 361.996816 189.40504 
L 370.257888 198.51035 
L 378.193236 207.58635 
L 385.717184 216.528604 
L 392.956335 225.477835 
L 400.258136 234.86218 
L 405.90011 242.334722 
L 405.90011 242.334722 
" style="fill:none;stroke:#7f7f7f;stroke-linecap:square;stroke-width:1.5;"/>
   </g>
   <g id="patch_3">
    <path d="M 90.09 304.2216 
L 90.09 77.6736 
" style="fill:none;stroke:#000000;stroke-linecap:square;stroke-linejoin:miter;stroke-width:0.8;"/>
   </g>
   <g id="patch_4">
    <path d="M 648.648 304.2216 
L 648.648 77.6736 
" style="fill:none;stroke:#000000;stroke-linecap:square;stroke-linejoin:miter;stroke-width:0.8;"/>
   </g>
   <g id="patch_5">
    <path d="M 90.09 304.2216 
L 648.648 304.2216 
" style="fill:none;stroke:#000000;stroke-linecap:square;stroke-linejoin:miter;stroke-width:0.8;"/>
   </g>
   <g id="patch_6">
    <path d="M 90.09 77.6736 
L 648.648 77.6736 
" style="fill:none;stroke:#000000;stroke-linecap:square;stroke-linejoin:miter;stroke-width:0.8;"/>
   </g>
  </g>
  <g id="axes_2">
   <g id="patch_7">
    <path d="M 90.09 576.0792 
L 648.648 576.0792 
L 648.648 349.5312 
L 90.09 349.5312 
z
" style="fill:#ffffff;"/>
   </g>
   <g id="matplotlib.axis_3">
    <g id="xtick_7">
     <g id="line2d_46">
      <g>
       <use style="stroke:#000000;stroke-width:0.8;" x="171.259362" xlink:href="#m146423cf94" y="576.0792"/>
      </g>
     </g>
     <g id="text_7">
      <!-- −0.03 -->
      <g transform="translate(155.936706 590.677637)scale(0.1 -0.1)">
       <defs>
        <path d="M 678 2272 
L 4684 2272 
L 4684 1741 
L 678 1741 
L 678 2272 
z
" id="DejaVuSans-2212" transform="scale(0.015625)"/>
        <path d="M 2597 2516 
Q 3050 2419 3304 2112 
Q 3559 1806 3559 1356 
Q 3559 666 3084 287 
Q 2609 -91 1734 -91 
Q 1441 -91 1130 -33 
Q 819 25 488 141 
L 488 750 
Q 750 597 1062 519 
Q 1375 441 1716 441 
Q 2309 441 2620 675 
Q 2931 909 2931 1356 
Q 2931 1769 2642 2001 
Q 2353 2234 1838 2234 
L 1294 2234 
L 1294 2753 
L 1863 2753 
Q 2328 2753 2575 2939 
Q 2822 3125 2822 3475 
Q 2822 3834 2567 4026 
Q 2313 4219 1838 4219 
Q 1578 4219 1281 4162 
Q 984 4106 628 3988 
L 628 4550 
Q 988 4650 1302 4700 
Q 1616 4750 1894 4750 
Q 2613 4750 3031 4423 
Q 3450 4097 3450 3541 
Q 3450 3153 3228 2886 
Q 3006 2619 2597 2516 
z
" id="DejaVuSans-33" transform="scale(0.015625)"/>
       </defs>
       <use xlink:href="#DejaVuSans-2212"/>
       <use x="83.789062" xlink:href="#DejaVuSans-30"/>
       <use x="147.412109" xlink:href="#DejaVuSans-2e"/>
       <use x="179.199219" xlink:href="#DejaVuSans-30"/>
       <use x="242.822266" xlink:href="#DejaVuSans-33"/>
      </g>
     </g>
    </g>
    <g id="xtick_8">
     <g id="line2d_47">
      <g>
       <use style="stroke:#000000;stroke-width:0.8;" x="264.021112" xlink:href="#m146423cf94" y="576.0792"/>
      </g>
     </g>
     <g id="text_8">
      <!-- −0.02 -->
      <g transform="translate(248.698456 590.677637)scale(0.1 -0.1)">
       <defs>
        <path d="M 1228 531 
L 3431 531 
L 3431 0 
L 469 0 
L 469 531 
Q 828 903 1448 1529 
Q 2069 2156 2228 2338 
Q 2531 2678 2651 2914 
Q 2772 3150 2772 3378 
Q 2772 3750 2511 3984 
Q 2250 4219 1831 4219 
Q 1534 4219 1204 4116 
Q 875 4013 500 3803 
L 500 4441 
Q 881 4594 1212 4672 
Q 1544 4750 1819 4750 
Q 2544 4750 2975 4387 
Q 3406 4025 3406 3419 
Q 3406 3131 3298 2873 
Q 3191 2616 2906 2266 
Q 2828 2175 2409 1742 
Q 1991 1309 1228 531 
z
" id="DejaVuSans-32" transform="scale(0.015625)"/>
       </defs>
       <use xlink:href="#DejaVuSans-2212"/>
       <use x="83.789062" xlink:href="#DejaVuSans-30"/>
       <use x="147.412109" xlink:href="#DejaVuSans-2e"/>
       <use x="179.199219" xlink:href="#DejaVuSans-30"/>
       <use x="242.822266" xlink:href="#DejaVuSans-32"/>
      </g>
     </g>
    </g>
    <g id="xtick_9">
     <g id="line2d_48">
      <g>
       <use style="stroke:#000000;stroke-width:0.8;" x="356.782862" xlink:href="#m146423cf94" y="576.0792"/>
      </g>
     </g>
     <g id="text_9">
      <!-- −0.01 -->
      <g transform="translate(341.460206 590.677637)scale(0.1 -0.1)">
       <defs>
        <path d="M 794 531 
L 1825 531 
L 1825 4091 
L 703 3866 
L 703 4441 
L 1819 4666 
L 2450 4666 
L 2450 531 
L 3481 531 
L 3481 0 
L 794 0 
L 794 531 
z
" id="DejaVuSans-31" transform="scale(0.015625)"/>
       </defs>
       <use xlink:href="#DejaVuSans-2212"/>
       <use x="83.789062" xlink:href="#DejaVuSans-30"/>
       <use x="147.412109" xlink:href="#DejaVuSans-2e"/>
       <use x="179.199219" xlink:href="#DejaVuSans-30"/>
       <use x="242.822266" xlink:href="#DejaVuSans-31"/>
      </g>
     </g>
    </g>
    <g id="xtick_10">
     <g id="line2d_49">
      <g>
       <use style="stroke:#000000;stroke-width:0.8;" x="449.544612" xlink:href="#m146423cf94" y="576.0792"/>
      </g>
     </g>
     <g id="text_10">
      <!-- 0.00 -->
      <g transform="translate(438.411799 590.677637)scale(0.1 -0.1)">
       <use xlink:href="#DejaVuSans-30"/>
       <use x="63.623047" xlink:href="#DejaVuSans-2e"/>
       <use x="95.410156" xlink:href="#DejaVuSans-30"/>
       <use x="159.033203" xlink:href="#DejaVuSans-30"/>
      </g>
     </g>
    </g>
    <g id="xtick_11">
     <g id="line2d_50">
      <g>
       <use style="stroke:#000000;stroke-width:0.8;" x="542.306362" xlink:href="#m146423cf94" y="576.0792"/>
      </g>
     </g>
     <g id="text_11">
      <!-- 0.01 -->
      <g transform="translate(531.173549 590.677637)scale(0.1 -0.1)">
       <use xlink:href="#DejaVuSans-30"/>
       <use x="63.623047" xlink:href="#DejaVuSans-2e"/>
       <use x="95.410156" xlink:href="#DejaVuSans-30"/>
       <use x="159.033203" xlink:href="#DejaVuSans-31"/>
      </g>
     </g>
    </g>
    <g id="xtick_12">
     <g id="line2d_51">
      <g>
       <use style="stroke:#000000;stroke-width:0.8;" x="635.068112" xlink:href="#m146423cf94" y="576.0792"/>
      </g>
     </g>
     <g id="text_12">
      <!-- 0.02 -->
      <g transform="translate(623.935299 590.677637)scale(0.1 -0.1)">
       <use xlink:href="#DejaVuSans-30"/>
       <use x="63.623047" xlink:href="#DejaVuSans-2e"/>
       <use x="95.410156" xlink:href="#DejaVuSans-30"/>
       <use x="159.033203" xlink:href="#DejaVuSans-32"/>
      </g>
     </g>
    </g>
    <g id="text_13">
     <!-- eta -->
     <g transform="translate(361.268219 604.355762)scale(0.1 -0.1)">
      <defs>
       <path d="M 3597 1894 
L 3597 1613 
L 953 1613 
Q 991 1019 1311 708 
Q 1631 397 2203 397 
Q 2534 397 2845 478 
Q 3156 559 3463 722 
L 3463 178 
Q 3153 47 2828 -22 
Q 2503 -91 2169 -91 
Q 1331 -91 842 396 
Q 353 884 353 1716 
Q 353 2575 817 3079 
Q 1281 3584 2069 3584 
Q 2775 3584 3186 3129 
Q 3597 2675 3597 1894 
z
M 3022 2063 
Q 3016 2534 2758 2815 
Q 2500 3097 2075 3097 
Q 1594 3097 1305 2825 
Q 1016 2553 972 2059 
L 3022 2063 
z
" id="DejaVuSans-65" transform="scale(0.015625)"/>
       <path d="M 1172 4494 
L 1172 3500 
L 2356 3500 
L 2356 3053 
L 1172 3053 
L 1172 1153 
Q 1172 725 1289 603 
Q 1406 481 1766 481 
L 2356 481 
L 2356 0 
L 1766 0 
Q 1100 0 847 248 
Q 594 497 594 1153 
L 594 3053 
L 172 3053 
L 172 3500 
L 594 3500 
L 594 4494 
L 1172 4494 
z
" id="DejaVuSans-74" transform="scale(0.015625)"/>
       <path d="M 2194 1759 
Q 1497 1759 1228 1600 
Q 959 1441 959 1056 
Q 959 750 1161 570 
Q 1363 391 1709 391 
Q 2188 391 2477 730 
Q 2766 1069 2766 1631 
L 2766 1759 
L 2194 1759 
z
M 3341 1997 
L 3341 0 
L 2766 0 
L 2766 531 
Q 2569 213 2275 61 
Q 1981 -91 1556 -91 
Q 1019 -91 701 211 
Q 384 513 384 1019 
Q 384 1609 779 1909 
Q 1175 2209 1959 2209 
L 2766 2209 
L 2766 2266 
Q 2766 2663 2505 2880 
Q 2244 3097 1772 3097 
Q 1472 3097 1187 3025 
Q 903 2953 641 2809 
L 641 3341 
Q 956 3463 1253 3523 
Q 1550 3584 1831 3584 
Q 2591 3584 2966 3190 
Q 3341 2797 3341 1997 
z
" id="DejaVuSans-61" transform="scale(0.015625)"/>
      </defs>
      <use xlink:href="#DejaVuSans-65"/>
      <use x="61.523438" xlink:href="#DejaVuSans-74"/>
      <use x="100.732422" xlink:href="#DejaVuSans-61"/>
     </g>
    </g>
   </g>
   <g id="matplotlib.axis_4">
    <g id="ytick_6">
     <g id="line2d_52">
      <g>
       <use style="stroke:#000000;stroke-width:0.8;" x="90.09" xlink:href="#m1337c80b1f" y="556.788529"/>
      </g>
     </g>
     <g id="text_14">
      <!-- 0.0700 -->
      <g transform="translate(48.099375 560.587748)scale(0.1 -0.1)">
       <use xlink:href="#DejaVuSans-30"/>
       <use x="63.623047" xlink:href="#DejaVuSans-2e"/>
       <use x="95.410156" xlink:href="#DejaVuSans-30"/>
       <use x="159.033203" xlink:href="#DejaVuSans-37"/>
       <use x="222.65625" xlink:href="#DejaVuSans-30"/>
       <use x="286.279297" xlink:href="#DejaVuSans-30"/>
      </g>
     </g>
    </g>
    <g id="ytick_7">
     <g id="line2d_53">
      <g>
       <use style="stroke:#000000;stroke-width:0.8;" x="90.09" xlink:href="#m1337c80b1f" y="526.035267"/>
      </g>
     </g>
     <g id="text_15">
      <!-- 0.0725 -->
      <g transform="translate(48.099375 529.834485)scale(0.1 -0.1)">
       <use xlink:href="#DejaVuSans-30"/>
       <use x="63.623047" xlink:href="#DejaVuSans-2e"/>
       <use x="95.410156" xlink:href="#DejaVuSans-30"/>
       <use x="159.033203" xlink:href="#DejaVuSans-37"/>
       <use x="222.65625" xlink:href="#DejaVuSans-32"/>
       <use x="286.279297" xlink:href="#DejaVuSans-35"/>
      </g>
     </g>
    </g>
    <g id="ytick_8">
     <g id="line2d_54">
      <g>
       <use style="stroke:#000000;stroke-width:0.8;" x="90.09" xlink:href="#m1337c80b1f" y="495.282004"/>
      </g>
     </g>
     <g id="text_16">
      <!-- 0.0750 -->
      <g transform="translate(48.099375 499.081223)scale(0.1 -0.1)">
       <use xlink:href="#DejaVuSans-30"/>
       <use x="63.623047" xlink:href="#DejaVuSans-2e"/>
       <use x="95.410156" xlink:href="#DejaVuSans-30"/>
       <use x="159.033203" xlink:href="#DejaVuSans-37"/>
       <use x="222.65625" xlink:href="#DejaVuSans-35"/>
       <use x="286.279297" xlink:href="#DejaVuSans-30"/>
      </g>
     </g>
    </g>
    <g id="ytick_9">
     <g id="line2d_55">
      <g>
       <use style="stroke:#000000;stroke-width:0.8;" x="90.09" xlink:href="#m1337c80b1f" y="464.528742"/>
      </g>
     </g>
     <g id="text_17">
      <!-- 0.0775 -->
      <g transform="translate(48.099375 468.327961)scale(0.1 -0.1)">
       <use xlink:href="#DejaVuSans-30"/>
       <use x="63.623047" xlink:href="#DejaVuSans-2e"/>
       <use x="95.410156" xlink:href="#DejaVuSans-30"/>
       <use x="159.033203" xlink:href="#DejaVuSans-37"/>
       <use x="222.65625" xlink:href="#DejaVuSans-37"/>
       <use x="286.279297" xlink:href="#DejaVuSans-35"/>
      </g>
     </g>
    </g>
    <g id="ytick_10">
     <g id="line2d_56">
      <g>
       <use style="stroke:#000000;stroke-width:0.8;" x="90.09" xlink:href="#m1337c80b1f" y="433.77548"/>
      </g>
     </g>
     <g id="text_18">
      <!-- 0.0800 -->
      <g transform="translate(48.099375 437.574698)scale(0.1 -0.1)">
       <use xlink:href="#DejaVuSans-30"/>
       <use x="63.623047" xlink:href="#DejaVuSans-2e"/>
       <use x="95.410156" xlink:href="#DejaVuSans-30"/>
       <use x="159.033203" xlink:href="#DejaVuSans-38"/>
       <use x="222.65625" xlink:href="#DejaVuSans-30"/>
       <use x="286.279297" xlink:href="#DejaVuSans-30"/>
      </g>
     </g>
    </g>
    <g id="ytick_11">
     <g id="line2d_57">
      <g>
       <use style="stroke:#000000;stroke-width:0.8;" x="90.09" xlink:href="#m1337c80b1f" y="403.022217"/>
      </g>
     </g>
     <g id="text_19">
      <!-- 0.0825 -->
      <g transform="translate(48.099375 406.821436)scale(0.1 -0.1)">
       <use xlink:href="#DejaVuSans-30"/>
       <use x="63.623047" xlink:href="#DejaVuSans-2e"/>
       <use x="95.410156" xlink:href="#DejaVuSans-30"/>
       <use x="159.033203" xlink:href="#DejaVuSans-38"/>
       <use x="222.65625" xlink:href="#DejaVuSans-32"/>
       <use x="286.279297" xlink:href="#DejaVuSans-35"/>
      </g>
     </g>
    </g>
    <g id="ytick_12">
     <g id="line2d_58">
      <g>
       <use style="stroke:#000000;stroke-width:0.8;" x="90.09" xlink:href="#m1337c80b1f" y="372.268955"/>
      </g>
     </g>
     <g id="text_20">
      <!-- 0.0850 -->
      <g transform="translate(48.099375 376.068174)scale(0.1 -0.1)">
       <use xlink:href="#DejaVuSans-30"/>
       <use x="63.623047" xlink:href="#DejaVuSans-2e"/>
       <use x="95.410156" xlink:href="#DejaVuSans-30"/>
       <use x="159.033203" xlink:href="#DejaVuSans-38"/>
       <use x="222.65625" xlink:href="#DejaVuSans-35"/>
       <use x="286.279297" xlink:href="#DejaVuSans-30"/>
      </g>
     </g>
    </g>
    <g id="text_21">
     <!-- L2* -->
     <g transform="translate(42.019688 471.272387)rotate(-90)scale(0.1 -0.1)">
      <defs>
       <path d="M 628 4666 
L 1259 4666 
L 1259 531 
L 3531 531 
L 3531 0 
L 628 0 
L 628 4666 
z
" id="DejaVuSans-4c" transform="scale(0.015625)"/>
       <path d="M 3009 3897 
L 1888 3291 
L 3009 2681 
L 2828 2375 
L 1778 3009 
L 1778 1831 
L 1422 1831 
L 1422 3009 
L 372 2375 
L 191 2681 
L 1313 3291 
L 191 3897 
L 372 4206 
L 1422 3572 
L 1422 4750 
L 1778 4750 
L 1778 3572 
L 2828 4206 
L 3009 3897 
z
" id="DejaVuSans-2a" transform="scale(0.015625)"/>
      </defs>
      <use xlink:href="#DejaVuSans-4c"/>
      <use x="55.712891" xlink:href="#DejaVuSans-32"/>
      <use x="119.335938" xlink:href="#DejaVuSans-2a"/>
     </g>
    </g>
   </g>
   <g id="line2d_59"/>
   <g id="line2d_60">
    <path clip-path="url(#p8456087d15)" d="M 449.705209 307.374907 
L 560.7828 277.977872 
L 589.687161 270.010478 
L 614.131084 263.044688 
L 635.386947 256.75978 
L 648.782438 252.662079 
L 648.782438 252.662079 
" style="fill:none;stroke:#1f77b4;stroke-linecap:square;stroke-width:1.5;"/>
   </g>
   <g id="line2d_61">
    <path clip-path="url(#p8456087d15)" d="M 721.72 185.664052 
L 713.376498 184.439364 
L 703.507483 183.221454 
L 692.087401 182.042109 
L 679.035864 180.919529 
L 663.906823 179.84482 
L 646.62868 178.843838 
L 626.753563 177.921303 
L 604.304898 177.107179 
L 578.951362 176.414798 
L 550.46892 175.864207 
L 518.817968 175.47887 
L 483.789897 175.280133 
L 446.091774 175.291363 
L 405.900749 175.527696 
L 364.270283 175.995173 
L 321.975161 176.692222 
L 292.895141 177.301282 
L 292.895141 177.301282 
" style="fill:none;stroke:#1f77b4;stroke-dasharray:5.55,2.4;stroke-dashoffset:0;stroke-width:1.5;"/>
   </g>
   <g id="line2d_62"/>
   <g id="line2d_63">
    <path clip-path="url(#p8456087d15)" d="M 448.889843 307.589903 
L 406.60758 318.853846 
L 375.656683 327.324519 
L 349.568709 334.691554 
L 326.797377 341.347099 
L 306.204877 347.591813 
L 287.396049 353.523483 
L 269.997758 359.242336 
L 254.265107 364.642239 
L 239.825099 369.825988 
L 226.624366 374.792979 
L 214.609498 379.542957 
L 203.728793 384.075814 
L 193.932676 388.391475 
L 185.173188 392.489846 
L 177.402918 396.370822 
L 170.75608 399.93276 
L 164.970332 403.278116 
L 159.992075 406.40724 
L 155.764428 409.320743 
L 152.227115 412.019551 
L 149.316769 414.50494 
L 146.872874 416.877087 
L 144.950624 419.038217 
L 143.414106 421.087879 
L 143.155636 421.476715 
L 143.155636 421.476715 
" style="fill:none;stroke:#1f77b4;stroke-linecap:square;stroke-width:1.5;"/>
   </g>
   <g id="line2d_64">
    <path clip-path="url(#p8456087d15)" d="M 143.092761 421.573842 
L 141.984257 423.509217 
L 141.201525 425.334397 
L 140.712537 427.050384 
L 140.484375 428.658357 
L 140.490586 430.253076 
L 140.716852 431.741027 
L 141.162646 433.215566 
L 141.833368 434.675847 
L 142.734086 436.120998 
L 143.948335 437.638904 
L 145.432552 439.137655 
L 147.303195 440.70249 
L 149.616165 442.328234 
L 152.280389 443.92579 
L 155.466897 445.575384 
L 159.235454 447.270338 
L 163.646563 449.003321 
L 168.760188 450.76637 
L 174.634227 452.550951 
L 181.322787 454.34805 
L 188.874306 456.148293 
L 197.654358 458.007048 
L 207.414059 459.843653 
L 218.539958 461.706852 
L 231.09686 463.577151 
L 245.124646 465.435161 
L 260.633591 467.262137 
L 278.043118 469.08415 
L 297.329715 470.873516 
L 318.411484 472.604497 
L 341.609136 474.285626 
L 367.171946 475.912648 
L 395.219 477.469366 
L 425.225744 478.909574 
L 457.29972 480.225861 
L 491.439605 481.402485 
L 527.033841 482.40504 
L 563.509423 483.209763 
L 600.500903 483.802947 
L 606.193911 483.874411 
L 606.193911 483.874411 
" style="fill:none;stroke:#1f77b4;stroke-dasharray:5.55,2.4;stroke-dashoffset:0;stroke-width:1.5;"/>
   </g>
   <g id="line2d_65">
    <path clip-path="url(#p8456087d15)" d="M 89.180707 586.661561 
L 131.297052 581.857602 
L 170.427105 577.173632 
L 207.68396 572.489558 
L 242.217528 567.925498 
L 274.197079 563.481462 
L 304.583878 559.037352 
L 332.649462 554.713285 
L 359.263813 550.389157 
L 383.774073 546.185089 
L 406.964662 541.980971 
L 428.25336 537.896926 
L 447.770446 533.93296 
L 466.180903 529.968959 
L 482.996989 526.125048 
L 498.812389 522.281109 
L 513.197826 518.557268 
L 526.259426 514.953528 
L 538.491701 511.34977 
L 549.543135 507.86612 
L 559.849374 504.382454 
L 569.106854 501.018901 
L 577.401035 497.775464 
L 585.086002 494.532017 
L 591.921579 491.408689 
L 597.981649 488.405482 
L 603.548673 485.402268 
L 603.761232 485.28214 
L 603.761232 485.28214 
" style="fill:none;stroke:#ff7f0e;stroke-linecap:square;stroke-width:1.5;"/>
   </g>
   <g id="line2d_66">
    <path clip-path="url(#p8456087d15)" d="M 603.973016 485.162011 
L 608.825436 482.27892 
L 613.241097 479.395825 
L 617.070611 476.632854 
L 620.372152 473.990009 
L 623.326743 471.347162 
L 625.829255 468.824442 
L 628.027026 466.30172 
L 629.925617 463.778996 
L 631.460737 461.376401 
L 632.734339 458.973804 
L 633.751227 456.571207 
L 634.483864 454.288739 
L 634.99327 452.006271 
L 635.283565 449.723802 
L 635.358867 447.441334 
L 635.210396 445.038735 
L 634.833074 442.636137 
L 634.231706 440.233538 
L 633.364395 437.710811 
L 632.26093 435.188084 
L 630.857691 432.545228 
L 629.127016 429.782243 
L 627.134031 427.01926 
L 624.782634 424.136148 
L 622.046958 421.132908 
L 618.901902 418.00954 
L 615.323348 414.766045 
L 611.138359 411.282294 
L 606.452251 407.678417 
L 601.245772 403.954413 
L 595.316536 399.990155 
L 588.615588 395.785644 
L 581.098157 391.340879 
L 572.72491 386.655862 
L 563.463287 381.730593 
L 553.047051 376.444945 
L 541.17953 370.67879 
L 527.804095 364.43213 
L 512.349508 357.464709 
L 493.941768 349.416145 
L 469.719767 339.085161 
L 397.522724 308.4526 
L 379.340916 300.404032 
L 364.141836 293.436607 
L 351.042752 287.189943 
L 339.705554 281.543913 
L 329.5816 276.258261 
L 320.62009 271.332988 
L 312.557168 266.647968 
L 305.545143 262.323328 
L 299.32827 258.238942 
L 293.693833 254.274682 
L 288.7789 250.550675 
L 284.388411 246.946795 
L 280.629798 243.583172 
L 277.328201 240.339675 
L 274.45958 237.216305 
L 271.998716 234.213064 
L 269.919446 231.329951 
L 268.194887 228.566966 
L 266.797655 225.92411 
L 265.653653 223.281253 
L 264.803751 220.758525 
L 264.219338 218.355927 
L 263.85934 215.953329 
L 263.72856 213.55073 
L 263.821008 211.268262 
L 264.128781 208.985793 
L 264.655996 206.703325 
L 265.406774 204.420857 
L 266.385232 202.13839 
L 267.665686 199.735793 
L 269.207786 197.333198 
L 271.016334 194.930604 
L 273.096134 192.528011 
L 275.577115 190.005291 
L 278.368008 187.482573 
L 281.630258 184.839728 
L 285.245132 182.196886 
L 289.408289 179.433919 
L 293.971146 176.670956 
L 295.228097 175.950183 
L 295.228097 175.950183 
" style="fill:none;stroke:#ff7f0e;stroke-dasharray:5.55,2.4;stroke-dashoffset:0;stroke-width:1.5;"/>
   </g>
   <g id="line2d_67">
    <path clip-path="url(#p8456087d15)" d="M 295.440291 175.830055 
L 300.766398 172.946969 
L 306.797193 169.943762 
L 313.329861 166.940561 
L 320.666301 163.817241 
L 328.566257 160.69393 
L 337.377805 157.450502 
L 347.182222 154.08696 
L 357.678284 150.723431 
L 369.292393 147.239793 
L 381.677188 143.756173 
L 395.315619 140.152448 
L 410.308754 136.428623 
L 426.234402 132.704824 
L 443.670833 128.860931 
L 462.139575 125.017071 
L 482.287447 121.053127 
L 504.238688 116.969105 
L 527.423867 112.885129 
L 552.604693 108.681088 
L 579.143708 104.477102 
L 607.88495 100.153065 
L 638.118149 95.829097 
L 649.407746 94.267682 
L 649.407746 94.267682 
" style="fill:none;stroke:#ff7f0e;stroke-linecap:square;stroke-width:1.5;"/>
   </g>
   <g id="line2d_68"/>
   <g id="line2d_69">
    <path clip-path="url(#p8456087d15)" d="M 449.704331 500.594791 
L 449.865662 500.532206 
L 450.012075 500.47283 
L 450.142017 500.417064 
L 450.253878 500.365341 
L 450.346026 500.318115 
L 450.41688 500.275845 
L 450.465011 500.238971 
L 450.48925 500.207888 
" style="fill:none;stroke:#2ca02c;stroke-linecap:square;stroke-width:1.5;"/>
   </g>
   <g id="line2d_70">
    <path clip-path="url(#p8456087d15)" d="M 450.4888 500.182909 
L 450.338393 500.146058 
L 449.256734 500.25877 
L 445.58214 500.93488 
L 434.257556 503.309857 
L 398.401607 510.864202 
L 374.393555 515.672676 
L 350.935313 520.142135 
L 326.893822 524.49357 
L 299.292482 529.254267 
L 254.811796 536.88563 
L 247.622025 538.35626 
L 244.394888 539.214014 
L 243.27288 539.705564 
L 243.113872 539.959439 
L 243.287866 540.122036 
L 243.932215 540.298365 
L 245.607168 540.459979 
L 249.026105 540.525325 
L 255.28669 540.387228 
L 265.108117 539.926292 
L 279.271101 539.022258 
L 297.126988 537.652991 
L 318.235099 535.805425 
L 340.864175 533.600497 
L 364.534453 531.067235 
L 387.676861 528.368323 
L 410.069599 525.538269 
L 431.563834 522.602594 
L 452.05518 519.581692 
L 471.466927 516.493558 
L 489.284513 513.437388 
L 505.967477 510.355777 
L 521.840628 507.202249 
L 539.038651 503.548425 
L 548.98522 501.496586 
L 550.280232 501.393836 
L 550.296152 501.46945 
L 550.258962 501.506014 
L 549.64051 501.825206 
L 547.323302 502.680696 
L 542.059388 504.348661 
L 533.822515 506.711443 
L 523.192941 509.517818 
L 510.862743 512.533545 
L 497.210409 515.63957 
L 482.201572 518.824057 
L 465.785055 522.0766 
L 447.906892 525.385903 
L 429.087395 528.643288 
L 408.783225 531.929929 
L 387.611311 535.132513 
L 365.689501 538.227853 
L 343.204496 541.182018 
L 321.114314 543.867186 
L 299.902623 546.226141 
L 281.473365 548.061605 
L 266.440439 549.343434 
L 255.693598 550.044879 
L 248.944054 550.274018 
L 245.333127 550.197425 
L 243.650882 549.96656 
L 243.10309 549.697425 
L 243.056623 549.514225 
L 243.056623 549.514225 
" style="fill:none;stroke:#2ca02c;stroke-dasharray:5.55,2.4;stroke-dashoffset:0;stroke-width:1.5;"/>
   </g>
   <g id="line2d_71">
    <path clip-path="url(#p8456087d15)" d="M 243.068836 549.474819 
L 243.288361 549.21979 
L 243.954289 548.832919 
L 245.507771 548.222506 
L 248.656171 547.266161 
L 254.008863 545.893814 
L 263.102897 543.809145 
L 279.471694 540.316759 
L 346.435227 526.219717 
L 370.734504 520.789319 
L 392.746027 515.645969 
L 412.560234 510.795209 
L 429.401109 506.452324 
L 441.810534 503.042105 
L 448.770318 500.927184 
L 450.472809 500.23122 
L 450.491368 500.201531 
L 450.491368 500.201531 
" style="fill:none;stroke:#2ca02c;stroke-linecap:square;stroke-width:1.5;"/>
   </g>
   <g id="line2d_72">
    <path clip-path="url(#p8456087d15)" d="M 450.485114 500.178004 
L 450.214815 500.14724 
L 448.762361 500.338019 
L 443.998958 501.254992 
L 427.99258 504.650151 
L 398.317559 510.881432 
L 374.307559 515.689479 
L 350.847115 520.158511 
L 326.803386 524.509537 
L 299.201272 529.269696 
L 254.743187 536.898606 
L 247.572906 538.367599 
L 244.366183 539.223598 
L 243.262197 539.713528 
L 243.115825 539.966222 
L 243.299907 540.127846 
L 243.958222 540.302781 
L 245.652531 540.462359 
L 249.094526 540.525092 
L 255.379496 540.383925 
L 265.221688 539.919952 
L 279.399635 539.013189 
L 297.263934 537.641734 
L 318.375308 535.792446 
L 341.003845 533.58622 
L 364.67101 531.051958 
L 387.808766 528.352296 
L 410.195978 525.521656 
L 431.684284 522.585496 
L 452.169694 519.56415 
L 471.575878 516.475546 
L 489.388786 513.418817 
L 506.068204 510.336468 
L 521.939198 507.181962 
L 539.134768 503.527587 
L 549.049038 501.486471 
L 550.291199 501.399432 
L 550.286438 501.48064 
L 549.875133 501.720856 
L 548.216949 502.369939 
L 543.84386 503.803784 
L 536.22322 506.043589 
L 526.218155 508.741261 
L 514.546388 511.655689 
L 501.150267 514.765457 
L 486.392543 517.956657 
L 470.225474 521.21843 
L 452.595205 524.539576 
L 434.012908 527.811443 
L 431.202484 528.287811 
L 431.202484 528.287811 
" style="fill:none;stroke:#2ca02c;stroke-dasharray:5.55,2.4;stroke-dashoffset:0;stroke-width:1.5;"/>
   </g>
   <g id="line2d_73"/>
   <g id="line2d_74">
    <path clip-path="url(#p8456087d15)" d="M 278.372339 517.512496 
L 339.987819 502.928886 
L 362.076923 497.393168 
L 382.211366 492.121982 
L 399.938416 487.260074 
L 413.569274 483.308322 
L 420.833171 481.008431 
L 422.708856 480.236185 
L 422.730778 480.205922 
L 422.730778 480.205922 
" style="fill:none;stroke:#d62728;stroke-linecap:square;stroke-width:1.5;"/>
   </g>
   <g id="line2d_75">
    <path clip-path="url(#p8456087d15)" d="M 422.727643 480.182214 
L 422.476952 480.154811 
L 421.088756 480.35861 
L 416.504645 481.316611 
L 402.199494 484.602728 
L 370.309327 491.89997 
L 347.167705 496.954926 
L 323.507153 501.892128 
L 294.709555 507.657983 
L 260.325837 514.557339 
L 250.885723 516.675473 
L 246.081263 517.956361 
L 243.885519 518.734854 
L 243.069813 519.224631 
L 242.968868 519.489181 
L 243.161341 519.682238 
L 243.717577 519.865133 
L 245.115046 520.04475 
L 247.890183 520.139007 
L 252.842515 520.053648 
L 260.844525 519.668108 
L 272.689243 518.858808 
L 289.465879 517.474011 
L 311.528658 515.4157 
L 339.09322 512.612229 
L 390.144246 507.358267 
L 393.273559 507.263992 
L 393.715258 507.398661 
L 393.590233 507.518421 
L 392.819695 507.806699 
L 390.403873 508.418545 
L 384.775067 509.581438 
L 374.374585 511.479534 
L 358.806334 514.078254 
L 339.515743 517.066907 
L 317.833462 520.19627 
L 296.482839 523.054105 
L 277.863674 525.330805 
L 263.628099 526.86366 
L 253.908434 527.707265 
L 247.946991 528.023619 
L 244.748923 527.993269 
L 243.408314 527.796879 
L 242.995409 527.561746 
L 242.964448 527.416422 
L 242.964448 527.416422 
" style="fill:none;stroke:#d62728;stroke-dasharray:5.55,2.4;stroke-dashoffset:0;stroke-width:1.5;"/>
   </g>
   <g id="line2d_76">
    <path clip-path="url(#p8456087d15)" d="M 242.974564 527.377327 
L 243.180724 527.120637 
L 243.822815 526.72388 
L 245.315023 526.091427 
L 248.27999 525.103143 
L 253.44693 523.632228 
L 262.449395 521.326232 
L 278.387918 517.508836 
L 340.001245 502.925591 
L 362.089223 497.390018 
L 382.222756 492.118931 
L 399.949048 487.257081 
L 413.579089 483.305365 
L 420.841172 481.005645 
L 422.710306 480.234751 
L 422.731166 480.20476 
L 422.731166 480.20476 
" style="fill:none;stroke:#d62728;stroke-linecap:square;stroke-width:1.5;"/>
   </g>
   <g id="line2d_77">
    <path clip-path="url(#p8456087d15)" d="M 422.726937 480.181344 
L 422.472452 480.155057 
L 421.080759 480.360076 
L 416.495162 481.318712 
L 402.189347 484.605086 
L 370.298382 491.902415 
L 347.155977 496.957429 
L 323.494471 501.894717 
L 294.695801 507.660699 
L 260.312617 514.560146 
L 250.874629 516.678171 
L 246.073184 517.958823 
L 243.88071 518.737004 
L 243.068089 519.226447 
L 242.969337 519.490739 
L 243.163762 519.683554 
L 243.722272 519.86615 
L 245.12281 520.045338 
L 247.901374 520.139075 
L 252.857095 520.053154 
L 260.862005 519.667078 
L 272.708864 518.857321 
L 289.486787 517.472169 
L 311.549855 515.41363 
L 339.113542 512.610094 
L 389.886216 507.375855 
L 393.162485 507.256969 
L 393.715174 507.399692 
L 393.587781 507.5198 
L 392.81335 507.808619 
L 390.392823 508.421055 
L 384.759838 509.584387 
L 374.356393 511.482706 
L 358.786122 514.081503 
L 339.494156 517.070137 
L 317.811091 520.199382 
L 296.460509 523.056968 
L 277.842474 525.333251 
L 263.609251 526.865507 
L 253.893057 527.708365 
L 247.935814 528.023906 
L 244.742003 527.992795 
L 243.404846 527.795825 
L 242.994467 527.560287 
L 242.964736 527.414772 
L 242.964736 527.414772 
" style="fill:none;stroke:#d62728;stroke-dasharray:5.55,2.4;stroke-dashoffset:0;stroke-width:1.5;"/>
   </g>
   <g id="line2d_78">
    <path clip-path="url(#p8456087d15)" d="M 242.975154 527.37563 
L 243.183068 527.118676 
L 243.827309 526.721604 
L 245.322059 526.088798 
L 248.289718 525.100162 
L 253.744964 523.552135 
L 262.794574 521.241085 
L 278.758998 517.421684 
L 339.391136 503.075269 
L 361.527765 497.533739 
L 381.701734 492.258411 
L 399.7113 487.323995 
L 413.36016 483.371276 
L 420.848937 481.00294 
L 422.711672 480.233368 
L 422.731497 480.203643 
L 422.731497 480.203643 
" style="fill:none;stroke:#d62728;stroke-linecap:square;stroke-width:1.5;"/>
   </g>
   <g id="line2d_79">
    <path clip-path="url(#p8456087d15)" d="M 422.726206 480.180512 
L 422.468051 480.155306 
L 421.072985 480.361503 
L 416.485952 481.320752 
L 402.179503 484.607374 
L 370.28778 491.904783 
L 347.144628 496.959852 
L 339.066647 498.670461 
L 339.066647 498.670461 
" style="fill:none;stroke:#d62728;stroke-dasharray:5.55,2.4;stroke-dashoffset:0;stroke-width:1.5;"/>
   </g>
   <g id="line2d_80">
    <path clip-path="url(#p8456087d15)" d="M 375.643283 469.075286 
L 393.492147 463.748808 
L 408.170285 459.148477 
L 417.187811 456.118962 
L 420.04969 454.974013 
L 420.173612 454.869024 
L 420.173612 454.869024 
" style="fill:none;stroke:#9467bd;stroke-linecap:square;stroke-width:1.5;"/>
   </g>
   <g id="line2d_81">
    <path clip-path="url(#p8456087d15)" d="M 420.168164 454.846702 
L 419.928611 454.830396 
L 418.597372 455.066583 
L 413.979927 456.172393 
L 398.741048 460.127947 
L 370.76048 467.330869 
L 349.129555 472.6621 
L 327.300855 477.808778 
L 302.478966 483.422333 
L 256.315377 493.795191 
L 248.887474 495.713856 
L 245.112855 496.887776 
L 243.448376 497.608495 
L 242.992294 497.993949 
L 242.996483 498.207223 
L 243.255314 498.381817 
L 243.986299 498.552607 
L 245.648086 498.67571 
L 248.92997 498.660309 
L 254.66705 498.38093 
L 263.726059 497.700694 
L 277.759585 496.407322 
L 298.47965 494.25622 
L 328.776621 490.869093 
L 373.95674 485.80758 
L 379.986264 485.339189 
L 381.605228 485.374308 
L 381.747116 485.475551 
L 381.733445 485.502328 
L 381.45305 485.668038 
L 380.31137 486.032535 
L 377.030264 486.811648 
L 369.956841 488.237441 
L 357.225578 490.553529 
L 338.998015 493.632577 
L 316.446787 497.21093 
L 293.297696 500.661477 
L 273.618685 503.379002 
L 259.845537 505.073524 
L 251.224567 505.931644 
L 246.330563 506.216817 
L 244.001788 506.158965 
L 243.140132 505.958262 
L 242.961753 505.737396 
L 242.964841 505.700615 
L 242.964841 505.700615 
" style="fill:none;stroke:#9467bd;stroke-dasharray:5.55,2.4;stroke-dashoffset:0;stroke-width:1.5;"/>
   </g>
   <g id="line2d_82">
    <path clip-path="url(#p8456087d15)" d="M 242.974982 505.662566 
L 243.180869 505.408633 
L 243.820758 505.007544 
L 245.456998 504.297078 
L 248.591785 503.210524 
L 254.265587 501.504989 
L 264.075348 498.817449 
L 282.324023 494.088288 
L 327.773312 482.357382 
L 349.712786 476.430059 
L 369.574966 470.83423 
L 387.892762 465.446337 
L 403.891694 460.516921 
L 414.987098 456.888982 
L 419.550915 455.215464 
L 420.171935 454.873708 
L 420.171935 454.873708 
" style="fill:none;stroke:#9467bd;stroke-linecap:square;stroke-width:1.5;"/>
   </g>
   <g id="line2d_83">
    <path clip-path="url(#p8456087d15)" d="M 420.170966 454.850054 
L 419.944463 454.829097 
L 418.621097 455.061526 
L 414.154784 456.128398 
L 399.559042 459.914 
L 370.966636 467.278955 
L 349.355937 472.607516 
L 327.552231 477.750756 
L 302.761877 483.359411 
L 256.110637 493.845094 
L 248.714052 495.7628 
L 244.990727 496.932197 
L 243.46412 497.599331 
L 242.996415 497.986369 
L 242.992328 498.200863 
L 243.242877 498.376748 
L 243.96336 498.549267 
L 245.612473 498.674583 
L 248.88073 498.661705 
L 254.604846 498.384842 
L 263.652621 497.706868 
L 277.676868 496.415454 
L 298.391009 494.2658 
L 328.688097 490.879223 
L 373.894031 485.813566 
L 379.948547 485.340699 
L 381.651617 485.387045 
L 381.748107 485.470734 
L 381.71193 485.525629 
L 381.266146 485.740543 
L 379.506596 486.241381 
L 375.164326 487.206782 
L 366.402184 488.905389 
L 351.846012 491.484246 
L 331.813201 494.796755 
L 308.615716 498.403799 
L 286.181351 501.671999 
L 268.456714 504.042524 
L 256.581597 505.42745 
L 249.272549 506.076597 
L 245.392765 506.225066 
L 243.590424 506.098555 
L 243.02625 505.877389 
L 242.963714 505.707674 
L 242.963714 505.707674 
" style="fill:none;stroke:#9467bd;stroke-dasharray:5.55,2.4;stroke-dashoffset:0;stroke-width:1.5;"/>
   </g>
   <g id="line2d_84">
    <path clip-path="url(#p8456087d15)" d="M 242.972524 505.669864 
L 243.170658 505.417291 
L 243.801112 505.017781 
L 245.263258 504.372318 
L 248.329823 503.29515 
L 253.686659 501.671243 
L 262.866588 499.139403 
L 279.692432 494.761595 
L 330.250148 481.699944 
L 351.712966 475.877098 
L 370.465941 470.577496 
L 370.465941 470.577496 
" style="fill:none;stroke:#9467bd;stroke-linecap:square;stroke-width:1.5;"/>
   </g>
   <g id="line2d_85"/>
   <g id="line2d_86">
    <path clip-path="url(#p8456087d15)" d="M 362.383526 449.106951 
L 380.45633 443.409048 
L 397.151033 437.917223 
L 410.609438 433.269157 
L 418.166578 430.454562 
L 419.885459 429.654736 
L 419.912433 429.623478 
L 419.912433 429.623478 
" style="fill:none;stroke:#8c564b;stroke-linecap:square;stroke-width:1.5;"/>
   </g>
   <g id="line2d_87">
    <path clip-path="url(#p8456087d15)" d="M 419.915355 429.599138 
L 419.72184 429.58069 
L 418.541407 429.817074 
L 414.265254 430.961075 
L 399.611729 435.189542 
L 373.451407 442.670704 
L 352.968574 448.290727 
L 332.779021 453.598207 
L 310.952553 459.101518 
L 280.188111 466.600068 
L 258.472574 471.978106 
L 249.753998 474.348048 
L 245.458412 475.718518 
L 243.569644 476.522569 
L 243.008244 476.959284 
L 242.994739 477.167607 
L 243.227953 477.331393 
L 243.900207 477.480708 
L 245.412816 477.567705 
L 248.575379 477.492466 
L 254.280312 477.098873 
L 263.827056 476.187842 
L 279.110432 474.482503 
L 303.731498 471.490216 
L 375.004692 462.704426 
L 379.445265 462.384264 
L 380.471368 462.477021 
L 380.447585 462.57716 
L 379.991871 462.793387 
L 378.234419 463.300484 
L 373.645039 464.345777 
L 364.315728 466.214094 
L 348.533518 469.131112 
L 325.708549 473.110992 
L 299.245616 477.49991 
L 275.889473 481.159938 
L 260.433578 483.377442 
L 251.271742 484.490742 
L 246.287586 484.897339 
L 243.954011 484.895492 
L 243.136008 484.724901 
L 242.963987 484.517713 
L 242.963987 484.517713 
" style="fill:none;stroke:#8c564b;stroke-dasharray:5.55,2.4;stroke-dashoffset:0;stroke-width:1.5;"/>
   </g>
   <g id="line2d_88">
    <path clip-path="url(#p8456087d15)" d="M 242.967267 484.482225 
L 243.132081 484.239632 
L 243.72126 483.843755 
L 245.279318 483.128646 
L 248.442724 481.969042 
L 254.094521 480.161666 
L 264.037075 477.243773 
L 283.179592 471.899939 
L 322.419011 460.952495 
L 343.57438 454.800093 
L 362.67968 449.015449 
L 380.828011 443.289328 
L 397.414077 437.828625 
L 410.825383 433.192052 
L 418.259192 430.416906 
L 419.911346 429.62536 
L 419.911346 429.62536 
" style="fill:none;stroke:#8c564b;stroke-linecap:square;stroke-width:1.5;"/>
   </g>
   <g id="line2d_89">
    <path clip-path="url(#p8456087d15)" d="M 419.915961 429.600494 
L 419.726594 429.580243 
L 418.547074 429.815717 
L 414.269125 430.959989 
L 399.611942 435.18948 
L 373.449072 442.671358 
L 352.965116 448.291655 
L 332.774621 453.599339 
L 310.947146 459.102856 
L 280.181228 466.601737 
L 258.46489 471.980094 
L 249.74681 474.350152 
L 245.452895 475.720522 
L 243.566581 476.524266 
L 243.007445 476.960624 
L 242.99539 477.168693 
L 243.230017 477.332216 
L 243.903992 477.481193 
L 245.418575 477.567784 
L 248.583299 477.492082 
L 254.290303 477.098041 
L 263.838949 476.186603 
L 272.158471 475.281532 
L 272.158471 475.281532 
" style="fill:none;stroke:#8c564b;stroke-dasharray:5.55,2.4;stroke-dashoffset:0;stroke-width:1.5;"/>
   </g>
   <g id="line2d_90">
    <path clip-path="url(#p8456087d15)" d="M 355.761547 428.091808 
L 373.610515 422.119702 
L 390.232616 416.327647 
L 404.727326 411.049311 
L 415.217206 407.010835 
L 419.569729 405.142136 
L 419.967704 404.876411 
L 419.967704 404.876411 
" style="fill:none;stroke:#e377c2;stroke-linecap:square;stroke-width:1.5;"/>
   </g>
   <g id="line2d_91">
    <path clip-path="url(#p8456087d15)" d="M 419.959481 404.85616 
L 419.705044 404.863199 
L 418.216487 405.234198 
L 413.068492 406.804061 
L 365.367074 421.733194 
L 346.230478 427.358361 
L 326.399449 432.954063 
L 304.394263 438.926182 
L 250.957978 453.298782 
L 245.920588 454.94227 
L 243.785209 455.833084 
L 243.065832 456.332007 
L 243.023426 456.570476 
L 243.242959 456.720794 
L 243.965827 456.85774 
L 245.684864 456.896923 
L 249.038067 456.718047 
L 255.039271 456.154628 
L 265.379331 454.940202 
L 283.440508 452.567284 
L 320.883668 447.3756 
L 361.994017 441.74027 
L 374.799138 440.181116 
L 379.395008 439.805572 
L 380.367696 439.893819 
L 380.323349 439.995553 
L 379.839178 440.216547 
L 378.064453 440.732782 
L 373.246213 441.856137 
L 363.451293 443.883494 
L 346.196364 447.210507 
L 319.480112 452.120574 
L 288.136506 457.658895 
L 266.124054 461.345958 
L 253.900846 463.188751 
L 247.435094 463.958257 
L 244.442699 464.122819 
L 243.283105 464.012561 
L 242.985439 463.81838 
L 242.977898 463.786854 
L 242.977898 463.786854 
" style="fill:none;stroke:#e377c2;stroke-dasharray:5.55,2.4;stroke-dashoffset:0;stroke-width:1.5;"/>
   </g>
   <g id="line2d_92">
    <path clip-path="url(#p8456087d15)" d="M 242.977146 463.753709 
L 243.115949 463.521442 
L 243.671369 463.129831 
L 245.168203 462.41173 
L 248.325504 461.196014 
L 254.014962 459.273037 
L 264.091118 456.128223 
L 284.401198 450.067107 
L 318.899049 439.742666 
L 339.58083 433.309832 
L 358.276284 427.26465 
L 362.513999 425.860432 
L 362.513999 425.860432 
" style="fill:none;stroke:#e377c2;stroke-linecap:square;stroke-width:1.5;"/>
   </g>
   <g id="line2d_93">
    <path clip-path="url(#p8456087d15)" d="M 403.963942 387.578943 
L 414.531165 383.115874 
L 420.799378 380.266936 
L 421.819156 379.648529 
L 421.819156 379.648529 
" style="fill:none;stroke:#7f7f7f;stroke-linecap:square;stroke-width:1.5;"/>
   </g>
   <g id="line2d_94">
    <path clip-path="url(#p8456087d15)" d="M 421.804738 379.628961 
L 421.4477 379.66806 
L 419.734393 380.175013 
L 414.521911 381.992809 
L 376.933306 395.448275 
L 363.044965 399.989671 
L 346.76547 405.072085 
L 327.069603 410.980619 
L 303.124079 417.923693 
L 252.245434 432.580643 
L 246.475316 434.515093 
L 243.893053 435.589689 
L 243.102649 436.105404 
L 243.004616 436.346975 
L 243.165374 436.494524 
L 243.679181 436.613566 
L 244.950406 436.657217 
L 247.667227 436.502899 
L 252.811404 435.963394 
L 262.037485 434.748175 
L 279.18456 432.233207 
L 368.334249 418.895407 
L 377.179465 417.825132 
L 380.075451 417.644368 
L 380.514092 417.75042 
L 380.507696 417.774823 
L 380.264244 417.933539 
L 379.010291 418.353318 
L 375.296855 419.293542 
L 366.993356 421.125897 
L 351.260572 424.345057 
L 323.440848 429.789024 
L 283.589396 437.359633 
L 261.536739 441.355897 
L 251.173895 443.033143 
L 246.009928 443.666474 
L 243.849321 443.746333 
L 243.118108 443.602088 
L 243.012388 443.47218 
L 243.012388 443.47218 
" style="fill:none;stroke:#7f7f7f;stroke-dasharray:5.55,2.4;stroke-dashoffset:0;stroke-width:1.5;"/>
   </g>
   <g id="line2d_95">
    <path clip-path="url(#p8456087d15)" d="M 243.010328 443.440971 
L 243.137836 443.216852 
L 243.676697 442.826819 
L 245.128874 442.10548 
L 248.244403 440.851333 
L 253.989651 438.807288 
L 264.318344 435.395612 
L 286.416227 428.382523 
L 317.981052 418.305213 
L 339.142103 411.310683 
L 357.892315 404.882753 
L 374.176509 399.07091 
L 388.011243 393.903025 
L 400.084429 389.158914 
L 405.90011 386.779418 
L 405.90011 386.779418 
" style="fill:none;stroke:#7f7f7f;stroke-linecap:square;stroke-width:1.5;"/>
   </g>
   <g id="patch_8">
    <path d="M 90.09 576.0792 
L 90.09 349.5312 
" style="fill:none;stroke:#000000;stroke-linecap:square;stroke-linejoin:miter;stroke-width:0.8;"/>
   </g>
   <g id="patch_9">
    <path d="M 648.648 576.0792 
L 648.648 349.5312 
" style="fill:none;stroke:#000000;stroke-linecap:square;stroke-linejoin:miter;stroke-width:0.8;"/>
   </g>
   <g id="patch_10">
    <path d="M 90.09 576.0792 
L 648.648 576.0792 
" style="fill:none;stroke:#000000;stroke-linecap:square;stroke-linejoin:miter;stroke-width:0.8;"/>
   </g>
   <g id="patch_11">
    <path d="M 90.09 349.5312 
L 648.648 349.5312 
" style="fill:none;stroke:#000000;stroke-linecap:square;stroke-linejoin:miter;stroke-width:0.8;"/>
   </g>
  </g>
 </g>
 <defs>
  <clipPath id="pa462bd95c3">
   <rect height="226.548" width="558.558" x="90.09" y="77.6736"/>
  </clipPath>
  <clipPath id="p8456087d15">
   <rect height="226.548" width="558.558" x="90.09" y="349.5312"/>
  </clipPath>
 </defs>
</svg>
