<?xml version="1.0" encoding="utf-8" standalone="no"?>
<!DOCTYPE svg PUBLIC "-//W3C//DTD SVG 1.1//EN"
  "http://www.w3.org/Graphics/SVG/1.1/DTD/svg11.dtd">
<svg height="288pt" version="1.1" viewBox="0 0 432 288" width="432pt" xmlns="http://www.w3.org/2000/svg" xmlns:xlink="http://www.w3.org/1999/xlink">
 <metadata>
  <rdf:RDF xmlns:cc="http://creativecommons.org/ns#" xmlns:dc="http://purl.org/dc/elements/1.1/" xmlns:rdf="http://www.w3.org/1999/02/22-rdf-syntax-ns#">
   <cc:Work>
    <dc:type rdf:resource="http://purl.org/dc/dcmitype/StillImage"/>
    <dc:date>2022-05-12T10:41:46.939485</dc:date>
    <dc:format>image/svg+xml</dc:format>
    <dc:creator>
     <cc:Agent>
      <dc:title>Matplotlib v3.4.3, https://matplotlib.org/</dc:title>
     </cc:Agent>
    </dc:creator>
   </cc:Work>
  </rdf:RDF>
 </metadata>
 <defs>
  <style type="text/css">*{stroke-linecap:butt;stroke-linejoin:round;}</style>
 </defs>
 <g id="figure_1">
  <g id="patch_1">
   <path d="M 0 288 
L 432 288 
L 432 0 
L 0 0 
z
" style="fill:none;"/>
  </g>
  <g id="axes_1">
   <g id="patch_2">
    <path d="M 54 252 
L 388.8 252 
L 388.8 34.56 
L 54 34.56 
z
" style="fill:#ffffff;"/>
   </g>
   <g id="matplotlib.axis_1">
    <g id="xtick_1">
     <g id="line2d_1">
      <defs>
       <path d="M 0 0 
L 0 3.5 
" id="m893653e03c" style="stroke:#000000;stroke-width:0.8;"/>
      </defs>
      <g>
       <use style="stroke:#000000;stroke-width:0.8;" x="69.218182" xlink:href="#m893653e03c" y="252"/>
      </g>
     </g>
     <g id="text_1">
      <!-- 0 -->
      <g transform="translate(66.036932 266.598437)scale(0.1 -0.1)">
       <defs>
        <path d="M 2034 4250 
Q 1547 4250 1301 3770 
Q 1056 3291 1056 2328 
Q 1056 1369 1301 889 
Q 1547 409 2034 409 
Q 2525 409 2770 889 
Q 3016 1369 3016 2328 
Q 3016 3291 2770 3770 
Q 2525 4250 2034 4250 
z
M 2034 4750 
Q 2819 4750 3233 4129 
Q 3647 3509 3647 2328 
Q 3647 1150 3233 529 
Q 2819 -91 2034 -91 
Q 1250 -91 836 529 
Q 422 1150 422 2328 
Q 422 3509 836 4129 
Q 1250 4750 2034 4750 
z
" id="DejaVuSans-30" transform="scale(0.015625)"/>
       </defs>
       <use xlink:href="#DejaVuSans-30"/>
      </g>
     </g>
    </g>
    <g id="xtick_2">
     <g id="line2d_2">
      <g>
       <use style="stroke:#000000;stroke-width:0.8;" x="128.780537" xlink:href="#m893653e03c" y="252"/>
      </g>
     </g>
     <g id="text_2">
      <!-- 50 -->
      <g transform="translate(122.418037 266.598437)scale(0.1 -0.1)">
       <defs>
        <path d="M 691 4666 
L 3169 4666 
L 3169 4134 
L 1269 4134 
L 1269 2991 
Q 1406 3038 1543 3061 
Q 1681 3084 1819 3084 
Q 2600 3084 3056 2656 
Q 3513 2228 3513 1497 
Q 3513 744 3044 326 
Q 2575 -91 1722 -91 
Q 1428 -91 1123 -41 
Q 819 9 494 109 
L 494 744 
Q 775 591 1075 516 
Q 1375 441 1709 441 
Q 2250 441 2565 725 
Q 2881 1009 2881 1497 
Q 2881 1984 2565 2268 
Q 2250 2553 1709 2553 
Q 1456 2553 1204 2497 
Q 953 2441 691 2322 
L 691 4666 
z
" id="DejaVuSans-35" transform="scale(0.015625)"/>
       </defs>
       <use xlink:href="#DejaVuSans-35"/>
       <use x="63.623047" xlink:href="#DejaVuSans-30"/>
      </g>
     </g>
    </g>
    <g id="xtick_3">
     <g id="line2d_3">
      <g>
       <use style="stroke:#000000;stroke-width:0.8;" x="188.342893" xlink:href="#m893653e03c" y="252"/>
      </g>
     </g>
     <g id="text_3">
      <!-- 100 -->
      <g transform="translate(178.799143 266.598437)scale(0.1 -0.1)">
       <defs>
        <path d="M 794 531 
L 1825 531 
L 1825 4091 
L 703 3866 
L 703 4441 
L 1819 4666 
L 2450 4666 
L 2450 531 
L 3481 531 
L 3481 0 
L 794 0 
L 794 531 
z
" id="DejaVuSans-31" transform="scale(0.015625)"/>
       </defs>
       <use xlink:href="#DejaVuSans-31"/>
       <use x="63.623047" xlink:href="#DejaVuSans-30"/>
       <use x="127.246094" xlink:href="#DejaVuSans-30"/>
      </g>
     </g>
    </g>
    <g id="xtick_4">
     <g id="line2d_4">
      <g>
       <use style="stroke:#000000;stroke-width:0.8;" x="247.905248" xlink:href="#m893653e03c" y="252"/>
      </g>
     </g>
     <g id="text_4">
      <!-- 150 -->
      <g transform="translate(238.361498 266.598437)scale(0.1 -0.1)">
       <use xlink:href="#DejaVuSans-31"/>
       <use x="63.623047" xlink:href="#DejaVuSans-35"/>
       <use x="127.246094" xlink:href="#DejaVuSans-30"/>
      </g>
     </g>
    </g>
    <g id="xtick_5">
     <g id="line2d_5">
      <g>
       <use style="stroke:#000000;stroke-width:0.8;" x="307.467604" xlink:href="#m893653e03c" y="252"/>
      </g>
     </g>
     <g id="text_5">
      <!-- 200 -->
      <g transform="translate(297.923854 266.598437)scale(0.1 -0.1)">
       <defs>
        <path d="M 1228 531 
L 3431 531 
L 3431 0 
L 469 0 
L 469 531 
Q 828 903 1448 1529 
Q 2069 2156 2228 2338 
Q 2531 2678 2651 2914 
Q 2772 3150 2772 3378 
Q 2772 3750 2511 3984 
Q 2250 4219 1831 4219 
Q 1534 4219 1204 4116 
Q 875 4013 500 3803 
L 500 4441 
Q 881 4594 1212 4672 
Q 1544 4750 1819 4750 
Q 2544 4750 2975 4387 
Q 3406 4025 3406 3419 
Q 3406 3131 3298 2873 
Q 3191 2616 2906 2266 
Q 2828 2175 2409 1742 
Q 1991 1309 1228 531 
z
" id="DejaVuSans-32" transform="scale(0.015625)"/>
       </defs>
       <use xlink:href="#DejaVuSans-32"/>
       <use x="63.623047" xlink:href="#DejaVuSans-30"/>
       <use x="127.246094" xlink:href="#DejaVuSans-30"/>
      </g>
     </g>
    </g>
    <g id="xtick_6">
     <g id="line2d_6">
      <g>
       <use style="stroke:#000000;stroke-width:0.8;" x="367.029959" xlink:href="#m893653e03c" y="252"/>
      </g>
     </g>
     <g id="text_6">
      <!-- 250 -->
      <g transform="translate(357.486209 266.598437)scale(0.1 -0.1)">
       <use xlink:href="#DejaVuSans-32"/>
       <use x="63.623047" xlink:href="#DejaVuSans-35"/>
       <use x="127.246094" xlink:href="#DejaVuSans-30"/>
      </g>
     </g>
    </g>
   </g>
   <g id="matplotlib.axis_2">
    <g id="ytick_1">
     <g id="line2d_7">
      <defs>
       <path d="M 0 0 
L -3.5 0 
" id="m1b11755060" style="stroke:#000000;stroke-width:0.8;"/>
      </defs>
      <g>
       <use style="stroke:#000000;stroke-width:0.8;" x="54" xlink:href="#m1b11755060" y="249.886357"/>
      </g>
     </g>
     <g id="text_7">
      <!-- −0.6 -->
      <g transform="translate(22.717187 253.685576)scale(0.1 -0.1)">
       <defs>
        <path d="M 678 2272 
L 4684 2272 
L 4684 1741 
L 678 1741 
L 678 2272 
z
" id="DejaVuSans-2212" transform="scale(0.015625)"/>
        <path d="M 684 794 
L 1344 794 
L 1344 0 
L 684 0 
L 684 794 
z
" id="DejaVuSans-2e" transform="scale(0.015625)"/>
        <path d="M 2113 2584 
Q 1688 2584 1439 2293 
Q 1191 2003 1191 1497 
Q 1191 994 1439 701 
Q 1688 409 2113 409 
Q 2538 409 2786 701 
Q 3034 994 3034 1497 
Q 3034 2003 2786 2293 
Q 2538 2584 2113 2584 
z
M 3366 4563 
L 3366 3988 
Q 3128 4100 2886 4159 
Q 2644 4219 2406 4219 
Q 1781 4219 1451 3797 
Q 1122 3375 1075 2522 
Q 1259 2794 1537 2939 
Q 1816 3084 2150 3084 
Q 2853 3084 3261 2657 
Q 3669 2231 3669 1497 
Q 3669 778 3244 343 
Q 2819 -91 2113 -91 
Q 1303 -91 875 529 
Q 447 1150 447 2328 
Q 447 3434 972 4092 
Q 1497 4750 2381 4750 
Q 2619 4750 2861 4703 
Q 3103 4656 3366 4563 
z
" id="DejaVuSans-36" transform="scale(0.015625)"/>
       </defs>
       <use xlink:href="#DejaVuSans-2212"/>
       <use x="83.789062" xlink:href="#DejaVuSans-30"/>
       <use x="147.412109" xlink:href="#DejaVuSans-2e"/>
       <use x="179.199219" xlink:href="#DejaVuSans-36"/>
      </g>
     </g>
    </g>
    <g id="ytick_2">
     <g id="line2d_8">
      <g>
       <use style="stroke:#000000;stroke-width:0.8;" x="54" xlink:href="#m1b11755060" y="214.352362"/>
      </g>
     </g>
     <g id="text_8">
      <!-- −0.4 -->
      <g transform="translate(22.717187 218.151581)scale(0.1 -0.1)">
       <defs>
        <path d="M 2419 4116 
L 825 1625 
L 2419 1625 
L 2419 4116 
z
M 2253 4666 
L 3047 4666 
L 3047 1625 
L 3713 1625 
L 3713 1100 
L 3047 1100 
L 3047 0 
L 2419 0 
L 2419 1100 
L 313 1100 
L 313 1709 
L 2253 4666 
z
" id="DejaVuSans-34" transform="scale(0.015625)"/>
       </defs>
       <use xlink:href="#DejaVuSans-2212"/>
       <use x="83.789062" xlink:href="#DejaVuSans-30"/>
       <use x="147.412109" xlink:href="#DejaVuSans-2e"/>
       <use x="179.199219" xlink:href="#DejaVuSans-34"/>
      </g>
     </g>
    </g>
    <g id="ytick_3">
     <g id="line2d_9">
      <g>
       <use style="stroke:#000000;stroke-width:0.8;" x="54" xlink:href="#m1b11755060" y="178.818367"/>
      </g>
     </g>
     <g id="text_9">
      <!-- −0.2 -->
      <g transform="translate(22.717187 182.617585)scale(0.1 -0.1)">
       <use xlink:href="#DejaVuSans-2212"/>
       <use x="83.789062" xlink:href="#DejaVuSans-30"/>
       <use x="147.412109" xlink:href="#DejaVuSans-2e"/>
       <use x="179.199219" xlink:href="#DejaVuSans-32"/>
      </g>
     </g>
    </g>
    <g id="ytick_4">
     <g id="line2d_10">
      <g>
       <use style="stroke:#000000;stroke-width:0.8;" x="54" xlink:href="#m1b11755060" y="143.284371"/>
      </g>
     </g>
     <g id="text_10">
      <!-- 0.0 -->
      <g transform="translate(31.096875 147.08359)scale(0.1 -0.1)">
       <use xlink:href="#DejaVuSans-30"/>
       <use x="63.623047" xlink:href="#DejaVuSans-2e"/>
       <use x="95.410156" xlink:href="#DejaVuSans-30"/>
      </g>
     </g>
    </g>
    <g id="ytick_5">
     <g id="line2d_11">
      <g>
       <use style="stroke:#000000;stroke-width:0.8;" x="54" xlink:href="#m1b11755060" y="107.750376"/>
      </g>
     </g>
     <g id="text_11">
      <!-- 0.2 -->
      <g transform="translate(31.096875 111.549595)scale(0.1 -0.1)">
       <use xlink:href="#DejaVuSans-30"/>
       <use x="63.623047" xlink:href="#DejaVuSans-2e"/>
       <use x="95.410156" xlink:href="#DejaVuSans-32"/>
      </g>
     </g>
    </g>
    <g id="ytick_6">
     <g id="line2d_12">
      <g>
       <use style="stroke:#000000;stroke-width:0.8;" x="54" xlink:href="#m1b11755060" y="72.216381"/>
      </g>
     </g>
     <g id="text_12">
      <!-- 0.4 -->
      <g transform="translate(31.096875 76.0156)scale(0.1 -0.1)">
       <use xlink:href="#DejaVuSans-30"/>
       <use x="63.623047" xlink:href="#DejaVuSans-2e"/>
       <use x="95.410156" xlink:href="#DejaVuSans-34"/>
      </g>
     </g>
    </g>
    <g id="ytick_7">
     <g id="line2d_13">
      <g>
       <use style="stroke:#000000;stroke-width:0.8;" x="54" xlink:href="#m1b11755060" y="36.682386"/>
      </g>
     </g>
     <g id="text_13">
      <!-- 0.6 -->
      <g transform="translate(31.096875 40.481604)scale(0.1 -0.1)">
       <use xlink:href="#DejaVuSans-30"/>
       <use x="63.623047" xlink:href="#DejaVuSans-2e"/>
       <use x="95.410156" xlink:href="#DejaVuSans-36"/>
      </g>
     </g>
    </g>
   </g>
   <g id="line2d_14">
    <path clip-path="url(#p9977f7b39a)" d="M 69.218182 241.877919 
L 69.813805 242.062353 
L 70.409429 241.00221 
L 71.005052 238.185298 
L 71.600676 233.068772 
L 72.1963 225.195143 
L 72.791923 214.338299 
L 73.98317 184.689144 
L 75.770041 133.962462 
L 76.961288 107.838187 
L 77.556912 98.299663 
L 78.152535 90.723791 
L 79.343782 79.353662 
L 81.130653 66.13062 
L 82.3219 58.701312 
L 83.513147 52.693073 
L 84.704394 48.104876 
L 85.300018 46.343634 
L 85.895641 45.052505 
L 86.491265 44.453399 
L 87.086888 44.899673 
L 87.682512 46.864046 
L 88.278136 50.887453 
L 88.873759 57.48247 
L 89.469383 66.997474 
L 90.065006 79.468937 
L 91.256253 111.308301 
L 93.043124 160.751817 
L 94.234371 184.263468 
L 94.829995 192.656474 
L 96.021242 204.951467 
L 97.212489 214.35525 
L 98.99936 226.310977 
L 100.190607 232.652815 
L 101.381854 237.55072 
L 101.977477 239.482738 
L 102.573101 241.003757 
L 103.168724 241.946026 
L 103.764348 242.014687 
L 104.359972 240.785985 
L 104.955595 237.739961 
L 105.551219 232.336768 
L 106.146842 224.137146 
L 106.742466 212.949857 
L 107.933713 182.817137 
L 109.720584 132.270817 
L 110.911831 106.667504 
L 111.507454 97.370016 
L 112.698701 83.96273 
L 113.889948 74.156803 
L 115.676819 61.843311 
L 116.868066 55.179801 
L 118.059313 49.976871 
L 119.25056 46.173994 
L 119.846184 44.946451 
L 120.441808 44.443636 
L 121.037431 45.033394 
L 121.633055 47.199352 
L 122.228678 51.4849 
L 122.824302 58.391622 
L 123.419925 68.240335 
L 124.015549 81.024821 
L 125.206796 113.235332 
L 126.993667 162.309455 
L 127.58929 174.999704 
L 128.184914 185.295264 
L 128.780537 193.475483 
L 129.971784 205.522332 
L 131.163031 214.839135 
L 132.354279 223.033203 
L 133.545526 230.018134 
L 134.736773 235.543147 
L 135.92802 239.674102 
L 136.523643 241.141273 
L 137.119267 242.003483 
L 137.714891 241.951107 
L 138.310514 240.547351 
L 138.906138 237.265426 
L 139.501761 231.569987 
L 140.097385 223.041866 
L 140.693008 211.526412 
L 141.884255 180.930772 
L 143.671126 130.604672 
L 144.862373 105.525653 
L 145.457997 96.464061 
L 146.649244 83.355723 
L 147.840491 73.660134 
L 149.627362 61.435622 
L 150.818609 54.853082 
L 152.009856 49.728249 
L 153.201103 46.010264 
L 153.796727 44.849206 
L 154.39235 44.447239 
L 154.987974 45.186507 
L 155.583597 47.560863 
L 156.179221 52.11489 
L 156.774844 59.337433 
L 157.370468 69.519889 
L 158.561715 98.129381 
L 160.944209 163.838361 
L 161.539833 176.259627 
L 162.135456 186.30072 
L 162.73108 194.274499 
L 163.922327 206.08545 
L 165.113574 215.320024 
L 166.304821 223.456853 
L 167.496068 230.36362 
L 168.687315 235.808632 
L 169.878563 239.86034 
L 170.474186 241.271454 
L 171.06981 242.049783 
L 171.665433 241.870942 
L 172.261057 240.285545 
L 172.85668 236.760979 
L 173.452304 230.767963 
L 174.047927 221.909296 
L 174.643551 210.068562 
L 175.834798 179.031678 
L 177.621669 128.964826 
L 178.812916 104.412219 
L 179.408539 95.58108 
L 180.599787 82.758649 
L 181.791034 73.166846 
L 183.577904 61.032073 
L 184.769151 54.530953 
L 185.960399 49.483763 
L 187.151646 45.852687 
L 187.747269 44.761195 
L 188.342893 44.464811 
L 188.938516 45.359747 
L 189.53414 47.949335 
L 190.129763 52.778024 
L 190.725387 60.32014 
L 191.32101 70.835823 
L 192.512258 99.96738 
L 194.894752 165.338111 
L 195.490375 177.489777 
L 196.085999 187.280453 
L 196.681622 195.054293 
L 197.87287 206.641308 
L 199.064117 215.797965 
L 200.255364 223.876681 
L 201.446611 230.704469 
L 202.637858 236.069945 
L 203.829105 240.04128 
L 204.424729 241.393958 
L 205.020352 242.084398 
L 205.615976 241.773502 
L 206.211599 239.999801 
L 206.807223 236.225927 
L 207.402846 229.930273 
L 207.99847 220.739488 
L 208.594094 208.576975 
L 209.785341 177.12151 
L 211.572211 127.352003 
L 212.763458 103.326741 
L 213.359082 94.720339 
L 214.550329 82.17092 
L 215.741576 72.676813 
L 217.528447 60.632735 
L 218.719694 54.21339 
L 219.910941 49.243424 
L 220.506565 47.273215 
L 221.102188 45.701526 
L 221.697812 44.682862 
L 222.293435 44.496977 
L 222.889059 45.553862 
L 223.484682 48.365516 
L 224.080306 53.474875 
L 224.67593 61.339927 
L 225.271553 72.18775 
L 226.4628 101.822936 
L 228.249671 152.552799 
L 229.440918 178.69041 
L 230.036542 188.235106 
L 230.632165 195.815635 
L 231.823412 207.190362 
L 233.610283 220.415703 
L 234.80153 227.848228 
L 235.992777 233.861222 
L 237.184024 238.453979 
L 237.779648 240.216732 
L 238.375271 241.508424 
L 238.970895 242.106781 
L 239.566518 241.658087 
L 240.162142 239.689354 
L 240.757766 235.659594 
L 241.353389 229.056534 
L 241.949013 219.53256 
L 242.544636 207.052391 
L 243.735883 175.201947 
L 245.522754 125.766853 
L 246.714001 102.268714 
L 247.309625 93.881092 
L 248.500872 81.591974 
L 249.692119 72.18993 
L 251.47899 60.237673 
L 252.670237 53.900368 
L 253.861484 49.007248 
L 254.457107 47.077052 
L 255.052731 45.557061 
L 255.648354 44.614673 
L 256.243978 44.544376 
L 256.839601 45.769602 
L 257.435225 48.810146 
L 258.030849 54.205982 
L 258.626472 62.396922 
L 259.222096 73.575218 
L 260.413343 103.694488 
L 262.200213 154.245085 
L 263.391461 179.861835 
L 263.987084 189.165352 
L 265.178331 202.579915 
L 266.369578 212.388111 
L 268.156449 224.704543 
L 269.347696 231.372284 
L 270.538943 236.580117 
L 271.73019 240.386487 
L 272.325814 241.614467 
L 272.921437 242.116364 
L 273.517061 241.523981 
L 274.112685 239.353438 
L 274.708308 235.061327 
L 275.303932 228.146413 
L 275.899555 218.288693 
L 276.495179 205.495618 
L 277.686426 173.274686 
L 279.473297 124.209949 
L 280.06892 111.526614 
L 280.664544 101.237591 
L 281.260167 93.062581 
L 282.451414 81.021272 
L 283.642661 71.706112 
L 284.833909 63.513958 
L 286.025156 56.532889 
L 287.216403 51.012793 
L 288.40765 46.885848 
L 289.003273 45.419596 
L 289.598897 44.557116 
L 290.194521 44.607665 
L 290.790144 46.007727 
L 291.385768 49.28395 
L 291.981391 54.971849 
L 292.577015 63.491195 
L 293.172638 74.997702 
L 294.363885 105.580441 
L 296.150756 155.911893 
L 297.342003 181.004416 
L 297.937627 190.071888 
L 299.128874 203.187143 
L 300.320121 212.884847 
L 302.106992 225.112421 
L 303.298239 231.699275 
L 304.489486 236.828992 
L 305.680733 240.550321 
L 306.276357 241.711683 
L 306.87198 242.11256 
L 307.467604 241.370459 
L 308.063227 238.991293 
L 308.658851 234.430496 
L 309.254474 227.199622 
L 309.850098 217.008138 
L 311.041345 188.383734 
L 313.423839 122.681789 
L 314.019463 110.267457 
L 314.615086 100.23279 
L 315.21071 92.26404 
L 316.401957 80.458305 
L 317.593204 71.225292 
L 318.784451 63.090471 
L 319.975698 56.187664 
L 321.166945 50.747576 
L 322.358192 46.699759 
L 322.953816 45.28945 
L 323.54944 44.510696 
L 324.145063 44.687517 
L 324.740687 46.268999 
L 325.33631 49.787643 
L 325.931934 55.772943 
L 326.527557 64.622756 
L 327.123181 76.454605 
L 328.314428 107.479168 
L 330.101299 157.552423 
L 331.292546 182.118568 
L 331.888169 190.955429 
L 333.079416 203.784423 
L 334.270664 213.378201 
L 336.057534 225.516165 
L 337.248781 232.021678 
L 338.440028 237.073725 
L 339.631276 240.707989 
L 340.226899 241.799649 
L 340.822523 242.094764 
L 341.418146 241.196783 
L 342.01377 238.602163 
L 342.609393 233.766502 
L 343.205017 226.215926 
L 343.80064 215.691211 
L 344.991888 186.545197 
L 346.778758 135.678736 
L 347.970005 109.038067 
L 348.565629 99.253696 
L 349.161252 91.484701 
L 350.3525 79.902587 
L 351.543747 70.747422 
L 352.734994 62.670813 
L 353.926241 55.84708 
L 355.117488 50.486526 
L 356.308735 46.518957 
L 356.904359 45.166966 
L 357.499982 44.475942 
L 358.095606 44.784619 
L 358.691229 46.554183 
L 359.286853 50.321918 
L 359.882476 56.609689 
L 360.4781 65.791554 
L 361.073724 77.945263 
L 362.264971 109.389014 
L 364.051841 159.165948 
L 365.243088 183.20475 
L 365.838712 191.816709 
L 367.029959 204.372343 
L 368.221206 213.8683 
L 370.008077 225.915706 
L 371.199324 232.339516 
L 372.390571 237.314307 
L 372.986195 239.286406 
L 373.581818 240.859229 
L 373.581818 240.859229 
" style="fill:none;stroke:#1f77b4;stroke-linecap:square;stroke-width:1.5;"/>
   </g>
   <g id="patch_3">
    <path d="M 54 252 
L 54 34.56 
" style="fill:none;stroke:#000000;stroke-linecap:square;stroke-linejoin:miter;stroke-width:0.8;"/>
   </g>
   <g id="patch_4">
    <path d="M 388.8 252 
L 388.8 34.56 
" style="fill:none;stroke:#000000;stroke-linecap:square;stroke-linejoin:miter;stroke-width:0.8;"/>
   </g>
   <g id="patch_5">
    <path d="M 54 252 
L 388.8 252 
" style="fill:none;stroke:#000000;stroke-linecap:square;stroke-linejoin:miter;stroke-width:0.8;"/>
   </g>
   <g id="patch_6">
    <path d="M 54 34.56 
L 388.8 34.56 
" style="fill:none;stroke:#000000;stroke-linecap:square;stroke-linejoin:miter;stroke-width:0.8;"/>
   </g>
  </g>
 </g>
 <defs>
  <clipPath id="p9977f7b39a">
   <rect height="217.44" width="334.8" x="54" y="34.56"/>
  </clipPath>
 </defs>
</svg>
