<?xml version="1.0" encoding="utf-8" standalone="no"?>
<!DOCTYPE svg PUBLIC "-//W3C//DTD SVG 1.1//EN"
  "http://www.w3.org/Graphics/SVG/1.1/DTD/svg11.dtd">
<svg height="288pt" version="1.1" viewBox="0 0 432 288" width="432pt" xmlns="http://www.w3.org/2000/svg" xmlns:xlink="http://www.w3.org/1999/xlink">
 <metadata>
  <rdf:RDF xmlns:cc="http://creativecommons.org/ns#" xmlns:dc="http://purl.org/dc/elements/1.1/" xmlns:rdf="http://www.w3.org/1999/02/22-rdf-syntax-ns#">
   <cc:Work>
    <dc:type rdf:resource="http://purl.org/dc/dcmitype/StillImage"/>
    <dc:date>2022-05-12T10:41:46.982477</dc:date>
    <dc:format>image/svg+xml</dc:format>
    <dc:creator>
     <cc:Agent>
      <dc:title>Matplotlib v3.4.3, https://matplotlib.org/</dc:title>
     </cc:Agent>
    </dc:creator>
   </cc:Work>
  </rdf:RDF>
 </metadata>
 <defs>
  <style type="text/css">*{stroke-linecap:butt;stroke-linejoin:round;}</style>
 </defs>
 <g id="figure_1">
  <g id="patch_1">
   <path d="M 0 288 
L 432 288 
L 432 0 
L 0 0 
z
" style="fill:none;"/>
  </g>
  <g id="axes_1">
   <g id="patch_2">
    <path d="M 54 252 
L 388.8 252 
L 388.8 34.56 
L 54 34.56 
z
" style="fill:#ffffff;"/>
   </g>
   <g id="matplotlib.axis_1">
    <g id="xtick_1">
     <g id="line2d_1">
      <defs>
       <path d="M 0 0 
L 0 3.5 
" id="me53d75b34a" style="stroke:#000000;stroke-width:0.8;"/>
      </defs>
      <g>
       <use style="stroke:#000000;stroke-width:0.8;" x="76.090491" xlink:href="#me53d75b34a" y="252"/>
      </g>
     </g>
     <g id="text_1">
      <!-- −6 -->
      <g transform="translate(68.719397 266.598437)scale(0.1 -0.1)">
       <defs>
        <path d="M 678 2272 
L 4684 2272 
L 4684 1741 
L 678 1741 
L 678 2272 
z
" id="DejaVuSans-2212" transform="scale(0.015625)"/>
        <path d="M 2113 2584 
Q 1688 2584 1439 2293 
Q 1191 2003 1191 1497 
Q 1191 994 1439 701 
Q 1688 409 2113 409 
Q 2538 409 2786 701 
Q 3034 994 3034 1497 
Q 3034 2003 2786 2293 
Q 2538 2584 2113 2584 
z
M 3366 4563 
L 3366 3988 
Q 3128 4100 2886 4159 
Q 2644 4219 2406 4219 
Q 1781 4219 1451 3797 
Q 1122 3375 1075 2522 
Q 1259 2794 1537 2939 
Q 1816 3084 2150 3084 
Q 2853 3084 3261 2657 
Q 3669 2231 3669 1497 
Q 3669 778 3244 343 
Q 2819 -91 2113 -91 
Q 1303 -91 875 529 
Q 447 1150 447 2328 
Q 447 3434 972 4092 
Q 1497 4750 2381 4750 
Q 2619 4750 2861 4703 
Q 3103 4656 3366 4563 
z
" id="DejaVuSans-36" transform="scale(0.015625)"/>
       </defs>
       <use xlink:href="#DejaVuSans-2212"/>
       <use x="83.789062" xlink:href="#DejaVuSans-36"/>
      </g>
     </g>
    </g>
    <g id="xtick_2">
     <g id="line2d_2">
      <g>
       <use style="stroke:#000000;stroke-width:0.8;" x="124.626264" xlink:href="#me53d75b34a" y="252"/>
      </g>
     </g>
     <g id="text_2">
      <!-- −4 -->
      <g transform="translate(117.255171 266.598437)scale(0.1 -0.1)">
       <defs>
        <path d="M 2419 4116 
L 825 1625 
L 2419 1625 
L 2419 4116 
z
M 2253 4666 
L 3047 4666 
L 3047 1625 
L 3713 1625 
L 3713 1100 
L 3047 1100 
L 3047 0 
L 2419 0 
L 2419 1100 
L 313 1100 
L 313 1709 
L 2253 4666 
z
" id="DejaVuSans-34" transform="scale(0.015625)"/>
       </defs>
       <use xlink:href="#DejaVuSans-2212"/>
       <use x="83.789062" xlink:href="#DejaVuSans-34"/>
      </g>
     </g>
    </g>
    <g id="xtick_3">
     <g id="line2d_3">
      <g>
       <use style="stroke:#000000;stroke-width:0.8;" x="173.162038" xlink:href="#me53d75b34a" y="252"/>
      </g>
     </g>
     <g id="text_3">
      <!-- −2 -->
      <g transform="translate(165.790944 266.598437)scale(0.1 -0.1)">
       <defs>
        <path d="M 1228 531 
L 3431 531 
L 3431 0 
L 469 0 
L 469 531 
Q 828 903 1448 1529 
Q 2069 2156 2228 2338 
Q 2531 2678 2651 2914 
Q 2772 3150 2772 3378 
Q 2772 3750 2511 3984 
Q 2250 4219 1831 4219 
Q 1534 4219 1204 4116 
Q 875 4013 500 3803 
L 500 4441 
Q 881 4594 1212 4672 
Q 1544 4750 1819 4750 
Q 2544 4750 2975 4387 
Q 3406 4025 3406 3419 
Q 3406 3131 3298 2873 
Q 3191 2616 2906 2266 
Q 2828 2175 2409 1742 
Q 1991 1309 1228 531 
z
" id="DejaVuSans-32" transform="scale(0.015625)"/>
       </defs>
       <use xlink:href="#DejaVuSans-2212"/>
       <use x="83.789062" xlink:href="#DejaVuSans-32"/>
      </g>
     </g>
    </g>
    <g id="xtick_4">
     <g id="line2d_4">
      <g>
       <use style="stroke:#000000;stroke-width:0.8;" x="221.697812" xlink:href="#me53d75b34a" y="252"/>
      </g>
     </g>
     <g id="text_4">
      <!-- 0 -->
      <g transform="translate(218.516562 266.598437)scale(0.1 -0.1)">
       <defs>
        <path d="M 2034 4250 
Q 1547 4250 1301 3770 
Q 1056 3291 1056 2328 
Q 1056 1369 1301 889 
Q 1547 409 2034 409 
Q 2525 409 2770 889 
Q 3016 1369 3016 2328 
Q 3016 3291 2770 3770 
Q 2525 4250 2034 4250 
z
M 2034 4750 
Q 2819 4750 3233 4129 
Q 3647 3509 3647 2328 
Q 3647 1150 3233 529 
Q 2819 -91 2034 -91 
Q 1250 -91 836 529 
Q 422 1150 422 2328 
Q 422 3509 836 4129 
Q 1250 4750 2034 4750 
z
" id="DejaVuSans-30" transform="scale(0.015625)"/>
       </defs>
       <use xlink:href="#DejaVuSans-30"/>
      </g>
     </g>
    </g>
    <g id="xtick_5">
     <g id="line2d_5">
      <g>
       <use style="stroke:#000000;stroke-width:0.8;" x="270.233585" xlink:href="#me53d75b34a" y="252"/>
      </g>
     </g>
     <g id="text_5">
      <!-- 2 -->
      <g transform="translate(267.052335 266.598437)scale(0.1 -0.1)">
       <use xlink:href="#DejaVuSans-32"/>
      </g>
     </g>
    </g>
    <g id="xtick_6">
     <g id="line2d_6">
      <g>
       <use style="stroke:#000000;stroke-width:0.8;" x="318.769359" xlink:href="#me53d75b34a" y="252"/>
      </g>
     </g>
     <g id="text_6">
      <!-- 4 -->
      <g transform="translate(315.588109 266.598437)scale(0.1 -0.1)">
       <use xlink:href="#DejaVuSans-34"/>
      </g>
     </g>
    </g>
    <g id="xtick_7">
     <g id="line2d_7">
      <g>
       <use style="stroke:#000000;stroke-width:0.8;" x="367.305133" xlink:href="#me53d75b34a" y="252"/>
      </g>
     </g>
     <g id="text_7">
      <!-- 6 -->
      <g transform="translate(364.123883 266.598437)scale(0.1 -0.1)">
       <use xlink:href="#DejaVuSans-36"/>
      </g>
     </g>
    </g>
   </g>
   <g id="matplotlib.axis_2">
    <g id="ytick_1">
     <g id="line2d_8">
      <defs>
       <path d="M 0 0 
L -3.5 0 
" id="m03cd38c10a" style="stroke:#000000;stroke-width:0.8;"/>
      </defs>
      <g>
       <use style="stroke:#000000;stroke-width:0.8;" x="54" xlink:href="#m03cd38c10a" y="230.822671"/>
      </g>
     </g>
     <g id="text_8">
      <!-- $\mathdefault{10^{-18}}$ -->
      <g transform="translate(19.1 234.62189)scale(0.1 -0.1)">
       <defs>
        <path d="M 794 531 
L 1825 531 
L 1825 4091 
L 703 3866 
L 703 4441 
L 1819 4666 
L 2450 4666 
L 2450 531 
L 3481 531 
L 3481 0 
L 794 0 
L 794 531 
z
" id="DejaVuSans-31" transform="scale(0.015625)"/>
        <path d="M 2034 2216 
Q 1584 2216 1326 1975 
Q 1069 1734 1069 1313 
Q 1069 891 1326 650 
Q 1584 409 2034 409 
Q 2484 409 2743 651 
Q 3003 894 3003 1313 
Q 3003 1734 2745 1975 
Q 2488 2216 2034 2216 
z
M 1403 2484 
Q 997 2584 770 2862 
Q 544 3141 544 3541 
Q 544 4100 942 4425 
Q 1341 4750 2034 4750 
Q 2731 4750 3128 4425 
Q 3525 4100 3525 3541 
Q 3525 3141 3298 2862 
Q 3072 2584 2669 2484 
Q 3125 2378 3379 2068 
Q 3634 1759 3634 1313 
Q 3634 634 3220 271 
Q 2806 -91 2034 -91 
Q 1263 -91 848 271 
Q 434 634 434 1313 
Q 434 1759 690 2068 
Q 947 2378 1403 2484 
z
M 1172 3481 
Q 1172 3119 1398 2916 
Q 1625 2713 2034 2713 
Q 2441 2713 2670 2916 
Q 2900 3119 2900 3481 
Q 2900 3844 2670 4047 
Q 2441 4250 2034 4250 
Q 1625 4250 1398 4047 
Q 1172 3844 1172 3481 
z
" id="DejaVuSans-38" transform="scale(0.015625)"/>
       </defs>
       <use transform="translate(0 0.765625)" xlink:href="#DejaVuSans-31"/>
       <use transform="translate(63.623047 0.765625)" xlink:href="#DejaVuSans-30"/>
       <use transform="translate(128.203125 39.046875)scale(0.7)" xlink:href="#DejaVuSans-2212"/>
       <use transform="translate(186.855469 39.046875)scale(0.7)" xlink:href="#DejaVuSans-31"/>
       <use transform="translate(231.391602 39.046875)scale(0.7)" xlink:href="#DejaVuSans-38"/>
      </g>
     </g>
    </g>
    <g id="ytick_2">
     <g id="line2d_9">
      <g>
       <use style="stroke:#000000;stroke-width:0.8;" x="54" xlink:href="#m03cd38c10a" y="199.347621"/>
      </g>
     </g>
     <g id="text_9">
      <!-- $\mathdefault{10^{-15}}$ -->
      <g transform="translate(19.1 203.14684)scale(0.1 -0.1)">
       <defs>
        <path d="M 691 4666 
L 3169 4666 
L 3169 4134 
L 1269 4134 
L 1269 2991 
Q 1406 3038 1543 3061 
Q 1681 3084 1819 3084 
Q 2600 3084 3056 2656 
Q 3513 2228 3513 1497 
Q 3513 744 3044 326 
Q 2575 -91 1722 -91 
Q 1428 -91 1123 -41 
Q 819 9 494 109 
L 494 744 
Q 775 591 1075 516 
Q 1375 441 1709 441 
Q 2250 441 2565 725 
Q 2881 1009 2881 1497 
Q 2881 1984 2565 2268 
Q 2250 2553 1709 2553 
Q 1456 2553 1204 2497 
Q 953 2441 691 2322 
L 691 4666 
z
" id="DejaVuSans-35" transform="scale(0.015625)"/>
       </defs>
       <use transform="translate(0 0.684375)" xlink:href="#DejaVuSans-31"/>
       <use transform="translate(63.623047 0.684375)" xlink:href="#DejaVuSans-30"/>
       <use transform="translate(128.203125 38.965625)scale(0.7)" xlink:href="#DejaVuSans-2212"/>
       <use transform="translate(186.855469 38.965625)scale(0.7)" xlink:href="#DejaVuSans-31"/>
       <use transform="translate(231.391602 38.965625)scale(0.7)" xlink:href="#DejaVuSans-35"/>
      </g>
     </g>
    </g>
    <g id="ytick_3">
     <g id="line2d_10">
      <g>
       <use style="stroke:#000000;stroke-width:0.8;" x="54" xlink:href="#m03cd38c10a" y="167.87257"/>
      </g>
     </g>
     <g id="text_10">
      <!-- $\mathdefault{10^{-12}}$ -->
      <g transform="translate(19.1 171.671789)scale(0.1 -0.1)">
       <use transform="translate(0 0.765625)" xlink:href="#DejaVuSans-31"/>
       <use transform="translate(63.623047 0.765625)" xlink:href="#DejaVuSans-30"/>
       <use transform="translate(128.203125 39.046875)scale(0.7)" xlink:href="#DejaVuSans-2212"/>
       <use transform="translate(186.855469 39.046875)scale(0.7)" xlink:href="#DejaVuSans-31"/>
       <use transform="translate(231.391602 39.046875)scale(0.7)" xlink:href="#DejaVuSans-32"/>
      </g>
     </g>
    </g>
    <g id="ytick_4">
     <g id="line2d_11">
      <g>
       <use style="stroke:#000000;stroke-width:0.8;" x="54" xlink:href="#m03cd38c10a" y="136.39752"/>
      </g>
     </g>
     <g id="text_11">
      <!-- $\mathdefault{10^{-9}}$ -->
      <g transform="translate(23.5 140.196739)scale(0.1 -0.1)">
       <defs>
        <path d="M 703 97 
L 703 672 
Q 941 559 1184 500 
Q 1428 441 1663 441 
Q 2288 441 2617 861 
Q 2947 1281 2994 2138 
Q 2813 1869 2534 1725 
Q 2256 1581 1919 1581 
Q 1219 1581 811 2004 
Q 403 2428 403 3163 
Q 403 3881 828 4315 
Q 1253 4750 1959 4750 
Q 2769 4750 3195 4129 
Q 3622 3509 3622 2328 
Q 3622 1225 3098 567 
Q 2575 -91 1691 -91 
Q 1453 -91 1209 -44 
Q 966 3 703 97 
z
M 1959 2075 
Q 2384 2075 2632 2365 
Q 2881 2656 2881 3163 
Q 2881 3666 2632 3958 
Q 2384 4250 1959 4250 
Q 1534 4250 1286 3958 
Q 1038 3666 1038 3163 
Q 1038 2656 1286 2365 
Q 1534 2075 1959 2075 
z
" id="DejaVuSans-39" transform="scale(0.015625)"/>
       </defs>
       <use transform="translate(0 0.765625)" xlink:href="#DejaVuSans-31"/>
       <use transform="translate(63.623047 0.765625)" xlink:href="#DejaVuSans-30"/>
       <use transform="translate(128.203125 39.046875)scale(0.7)" xlink:href="#DejaVuSans-2212"/>
       <use transform="translate(186.855469 39.046875)scale(0.7)" xlink:href="#DejaVuSans-39"/>
      </g>
     </g>
    </g>
    <g id="ytick_5">
     <g id="line2d_12">
      <g>
       <use style="stroke:#000000;stroke-width:0.8;" x="54" xlink:href="#m03cd38c10a" y="104.922469"/>
      </g>
     </g>
     <g id="text_12">
      <!-- $\mathdefault{10^{-6}}$ -->
      <g transform="translate(23.5 108.721688)scale(0.1 -0.1)">
       <use transform="translate(0 0.765625)" xlink:href="#DejaVuSans-31"/>
       <use transform="translate(63.623047 0.765625)" xlink:href="#DejaVuSans-30"/>
       <use transform="translate(128.203125 39.046875)scale(0.7)" xlink:href="#DejaVuSans-2212"/>
       <use transform="translate(186.855469 39.046875)scale(0.7)" xlink:href="#DejaVuSans-36"/>
      </g>
     </g>
    </g>
    <g id="ytick_6">
     <g id="line2d_13">
      <g>
       <use style="stroke:#000000;stroke-width:0.8;" x="54" xlink:href="#m03cd38c10a" y="73.447419"/>
      </g>
     </g>
     <g id="text_13">
      <!-- $\mathdefault{10^{-3}}$ -->
      <g transform="translate(23.5 77.246638)scale(0.1 -0.1)">
       <defs>
        <path d="M 2597 2516 
Q 3050 2419 3304 2112 
Q 3559 1806 3559 1356 
Q 3559 666 3084 287 
Q 2609 -91 1734 -91 
Q 1441 -91 1130 -33 
Q 819 25 488 141 
L 488 750 
Q 750 597 1062 519 
Q 1375 441 1716 441 
Q 2309 441 2620 675 
Q 2931 909 2931 1356 
Q 2931 1769 2642 2001 
Q 2353 2234 1838 2234 
L 1294 2234 
L 1294 2753 
L 1863 2753 
Q 2328 2753 2575 2939 
Q 2822 3125 2822 3475 
Q 2822 3834 2567 4026 
Q 2313 4219 1838 4219 
Q 1578 4219 1281 4162 
Q 984 4106 628 3988 
L 628 4550 
Q 988 4650 1302 4700 
Q 1616 4750 1894 4750 
Q 2613 4750 3031 4423 
Q 3450 4097 3450 3541 
Q 3450 3153 3228 2886 
Q 3006 2619 2597 2516 
z
" id="DejaVuSans-33" transform="scale(0.015625)"/>
       </defs>
       <use transform="translate(0 0.765625)" xlink:href="#DejaVuSans-31"/>
       <use transform="translate(63.623047 0.765625)" xlink:href="#DejaVuSans-30"/>
       <use transform="translate(128.203125 39.046875)scale(0.7)" xlink:href="#DejaVuSans-2212"/>
       <use transform="translate(186.855469 39.046875)scale(0.7)" xlink:href="#DejaVuSans-33"/>
      </g>
     </g>
    </g>
    <g id="ytick_7">
     <g id="line2d_14">
      <g>
       <use style="stroke:#000000;stroke-width:0.8;" x="54" xlink:href="#m03cd38c10a" y="41.972369"/>
      </g>
     </g>
     <g id="text_14">
      <!-- $\mathdefault{10^{0}}$ -->
      <g transform="translate(29.4 45.771587)scale(0.1 -0.1)">
       <use transform="translate(0 0.765625)" xlink:href="#DejaVuSans-31"/>
       <use transform="translate(63.623047 0.765625)" xlink:href="#DejaVuSans-30"/>
       <use transform="translate(128.203125 39.046875)scale(0.7)" xlink:href="#DejaVuSans-30"/>
      </g>
     </g>
    </g>
   </g>
   <g id="line2d_15">
    <path clip-path="url(#pba2adccae8)" d="M 69.218182 231.330844 
L 69.813805 222.065582 
L 70.409429 230.545258 
L 71.005052 220.029243 
L 71.600676 219.333961 
L 72.1963 199.078863 
L 72.791923 224.498502 
L 73.387547 221.858003 
L 73.98317 231.327892 
L 74.578794 215.679497 
L 75.174417 229.679044 
L 75.770041 223.708941 
L 76.365664 229.434237 
L 76.961288 187.956777 
L 77.556912 226.640719 
L 78.152535 223.815784 
L 78.748159 228.592305 
L 79.343782 222.10573 
L 79.939406 226.156305 
L 80.535029 223.091057 
L 81.130653 228.508927 
L 81.726276 226.302882 
L 82.3219 206.653306 
L 82.917524 207.767922 
L 83.513147 227.839604 
L 84.108771 219.300657 
L 84.704394 230.427051 
L 85.300018 221.99612 
L 85.895641 235.677914 
L 86.491265 224.44238 
L 87.086888 227.844872 
L 87.682512 176.124936 
L 88.278136 226.793939 
L 88.873759 220.276491 
L 89.469383 228.133191 
L 90.065006 226.115835 
L 90.66063 232.535212 
L 91.256253 222.846474 
L 91.851877 230.065244 
L 92.4475 226.330319 
L 93.043124 195.196376 
L 93.638748 216.762003 
L 94.234371 229.330551 
L 94.829995 223.113401 
L 95.425618 231.250588 
L 96.021242 223.16882 
L 96.616865 226.951565 
L 97.212489 220.167386 
L 97.808112 226.507479 
L 98.403736 164.315209 
L 98.99936 226.967497 
L 99.594983 221.847096 
L 100.190607 227.950855 
L 100.78623 220.377808 
L 101.381854 242.116364 
L 101.977477 222.345686 
L 102.573101 232.404497 
L 103.168724 221.924716 
L 103.764348 183.796358 
L 104.359972 219.405068 
L 104.955595 224.612115 
L 105.551219 224.484005 
L 106.146842 236.309079 
L 106.742466 221.661516 
L 107.338089 226.066026 
L 107.933713 219.684181 
L 108.529336 227.757122 
L 109.12496 152.528448 
L 109.720584 227.286993 
L 110.316207 221.825739 
L 110.911831 227.567079 
L 111.507454 219.826335 
L 112.103078 229.15249 
L 112.698701 216.926082 
L 113.294325 236.388387 
L 113.889948 221.514449 
L 114.485572 172.454479 
L 115.081196 220.816639 
L 115.676819 225.582398 
L 116.272443 222.293474 
L 116.868066 231.58603 
L 117.46369 219.747911 
L 118.059313 226.074218 
L 118.654937 222.380556 
L 119.25056 231.411338 
L 119.846184 140.771992 
L 120.441808 229.381049 
L 121.037431 217.773429 
L 121.633055 228.332993 
L 122.228678 217.902804 
L 122.824302 229.742896 
L 123.419925 221.836548 
L 124.015549 226.853522 
L 124.611172 221.278244 
L 125.206796 161.210683 
L 125.802419 219.416004 
L 126.398043 231.939582 
L 126.993667 222.65235 
L 127.58929 231.97045 
L 128.184914 221.36039 
L 128.780537 230.579172 
L 129.376161 219.90859 
L 129.971784 233.368032 
L 130.567408 129.103538 
L 131.163031 231.985895 
L 131.758655 217.163228 
L 132.354279 228.694862 
L 132.949902 223.768425 
L 133.545526 228.981879 
L 134.141149 223.119282 
L 134.736773 229.093691 
L 135.332396 219.018349 
L 135.92802 150.151447 
L 136.523643 222.764078 
L 137.119267 229.381271 
L 137.714891 223.071116 
L 138.310514 226.122269 
L 138.906138 222.733386 
L 139.501761 229.504106 
L 140.097385 213.083592 
L 140.693008 228.535445 
L 141.288632 117.573622 
L 141.884255 234.109433 
L 142.479879 221.023139 
L 143.075503 232.208023 
L 143.671126 226.540294 
L 144.26675 232.745623 
L 144.862373 219.852608 
L 145.457997 228.633467 
L 146.05362 220.402272 
L 146.649244 139.284333 
L 147.244867 226.354988 
L 147.840491 229.321034 
L 148.436115 223.999565 
L 149.031738 229.718044 
L 149.627362 226.733587 
L 150.222985 226.778904 
L 150.818609 216.990315 
L 151.414232 226.447356 
L 152.009856 106.127469 
L 152.605479 229.064675 
L 153.201103 224.218112 
L 153.796727 225.033447 
L 154.39235 224.256618 
L 154.987974 225.744703 
L 155.583597 222.743828 
L 156.179221 227.998313 
L 156.774844 219.254572 
L 157.370468 128.589881 
L 157.966091 220.464906 
L 158.561715 229.024059 
L 159.157339 215.135801 
L 159.752962 231.585389 
L 160.348586 222.019437 
L 160.944209 229.569371 
L 161.539833 217.682942 
L 162.135456 217.462661 
L 162.73108 94.813155 
L 163.326703 218.416774 
L 163.922327 218.302585 
L 164.517951 217.304014 
L 165.113574 217.561896 
L 165.709198 218.810727 
L 166.304821 219.576607 
L 166.900445 221.835986 
L 167.496068 218.757035 
L 168.091692 118.190235 
L 168.687315 222.866853 
L 169.282939 228.515042 
L 169.878563 223.682328 
L 170.474186 222.510277 
L 171.06981 216.755056 
L 171.665433 217.28012 
L 172.261057 210.69704 
L 172.85668 207.550616 
L 173.452304 83.519741 
L 174.047927 207.542956 
L 174.643551 208.6613 
L 175.239175 208.649611 
L 175.834798 208.472116 
L 176.430422 210.327868 
L 177.026045 211.508914 
L 177.621669 213.971964 
L 178.217292 215.554646 
L 178.812916 107.67243 
L 179.408539 222.503754 
L 180.004163 217.893442 
L 180.599787 212.133387 
L 181.19541 211.202757 
L 181.791034 206.49889 
L 182.386657 207.290271 
L 182.982281 200.887298 
L 183.577904 197.800792 
L 184.173528 71.752018 
L 184.769151 196.62983 
L 185.364775 200.33436 
L 185.960399 200.129723 
L 186.556022 199.604107 
L 187.151646 201.499647 
L 187.747269 202.542669 
L 188.342893 205.417345 
L 188.938516 209.460862 
L 189.53414 97.239932 
L 190.129763 211.750128 
L 191.32101 202.928423 
L 191.916634 201.767788 
L 192.512258 197.814035 
L 193.107881 198.499247 
L 193.703505 192.579816 
L 194.299128 189.011011 
L 194.894752 60.901106 
L 195.490375 187.383264 
L 196.085999 194.666019 
L 196.681622 193.547728 
L 197.277246 193.183327 
L 197.87287 195.314151 
L 198.468493 196.600589 
L 199.65974 202.899144 
L 200.255364 89.927386 
L 200.850987 204.815682 
L 202.042234 197.555291 
L 202.637858 196.392844 
L 203.233482 193.420148 
L 203.829105 193.850859 
L 205.020352 183.978048 
L 205.615976 53.496351 
L 206.211599 182.654559 
L 206.807223 194.450465 
L 207.402846 191.429326 
L 207.99847 191.815177 
L 209.189717 195.954275 
L 210.380964 202.298035 
L 210.976588 86.414606 
L 211.572211 202.386428 
L 212.763458 196.353784 
L 213.359082 194.791979 
L 213.954706 192.51178 
L 214.550329 190.789112 
L 215.145953 185.869893 
L 215.741576 179.557654 
L 216.3372 44.443636 
L 216.932823 179.205332 
L 217.528447 188.063036 
L 219.315318 193.168547 
L 221.102188 200.994393 
L 221.697812 81.823427 
L 222.293435 200.976958 
L 224.080306 193.168547 
L 225.867177 188.063815 
L 226.4628 179.205332 
L 227.058424 44.443636 
L 227.654047 179.557654 
L 228.249671 185.869824 
L 228.845294 190.789112 
L 229.440918 192.502173 
L 230.036542 194.79198 
L 230.632165 196.347577 
L 231.823412 202.353627 
L 232.419036 86.414606 
L 233.014659 202.266514 
L 234.205906 195.958552 
L 235.397154 191.81632 
L 235.992777 191.429326 
L 236.588401 194.444131 
L 237.184024 182.654558 
L 237.779648 53.496351 
L 238.375271 183.978048 
L 239.566518 193.85086 
L 240.162142 193.415961 
L 240.757766 196.392844 
L 241.353389 197.575065 
L 241.949013 200.844955 
L 242.544636 204.815478 
L 243.14026 89.927386 
L 243.735883 202.845716 
L 244.92713 196.583553 
L 245.522754 195.314151 
L 246.118378 193.198296 
L 246.714001 193.547727 
L 247.309625 194.661924 
L 247.905248 187.383264 
L 248.500872 60.901106 
L 249.096495 189.011012 
L 249.692119 192.579288 
L 250.287742 198.499247 
L 250.883366 197.796918 
L 251.47899 201.767806 
L 252.074613 202.948498 
L 253.26586 212.174705 
L 253.861484 97.239932 
L 254.457107 209.301225 
L 255.052731 205.417345 
L 255.648354 202.581013 
L 256.243978 201.499648 
L 256.839601 199.571525 
L 257.435225 200.129723 
L 258.030849 200.348441 
L 258.626472 196.629831 
L 259.222096 71.752018 
L 259.817719 197.800792 
L 260.413343 200.89769 
L 261.008966 207.290267 
L 261.60459 206.432279 
L 262.200213 211.202762 
L 262.795837 211.983343 
L 263.987084 223.713386 
L 264.582708 107.67243 
L 265.178331 215.443968 
L 265.773955 213.972009 
L 266.369578 211.414913 
L 266.965202 210.327862 
L 267.560825 208.329843 
L 268.156449 208.649607 
L 268.752073 208.551561 
L 269.347696 207.542956 
L 269.94332 83.519741 
L 270.538943 207.550538 
L 271.134567 210.517715 
L 271.73019 217.279943 
L 272.325814 216.984655 
L 272.921437 222.510196 
L 273.517061 219.915018 
L 274.112685 228.515025 
L 274.708308 223.490171 
L 275.303932 118.190235 
L 275.899555 221.22304 
L 276.495179 221.835491 
L 277.090802 218.6639 
L 277.686426 218.810534 
L 278.282049 217.286744 
L 278.877673 217.304014 
L 279.473297 218.265516 
L 280.06892 218.41666 
L 280.664544 94.813155 
L 281.260167 217.46249 
L 281.855791 217.731705 
L 282.451414 229.568826 
L 283.047038 222.256618 
L 283.642661 231.585358 
L 284.238285 216.573876 
L 284.833909 229.024111 
L 285.429532 222.609235 
L 286.025156 128.589881 
L 286.620779 219.473724 
L 287.216403 228.00148 
L 287.812026 219.398231 
L 288.40765 225.744703 
L 289.003273 220.733058 
L 289.598897 225.03433 
L 290.194521 220.702182 
L 290.790144 229.06663 
L 291.385768 106.127469 
L 291.981391 226.44733 
L 292.577015 213.962224 
L 293.172638 226.778889 
L 293.768262 217.776539 
L 294.363885 229.715534 
L 294.959509 223.211294 
L 295.555133 229.320559 
L 296.150756 223.408726 
L 296.74638 139.284333 
L 297.342003 221.423464 
L 297.937627 228.633467 
L 298.53325 224.637175 
L 299.128874 232.751455 
L 299.724497 226.61413 
L 300.320121 232.202839 
L 300.915745 219.439713 
L 301.511368 234.110519 
L 302.106992 117.573622 
L 302.702615 228.535533 
L 303.298239 212.221423 
L 303.893862 229.506976 
L 304.489486 222.301483 
L 305.680733 230.226834 
L 306.276357 229.378714 
L 306.87198 219.335511 
L 307.467604 150.151447 
L 308.063227 224.078078 
L 308.658851 229.083149 
L 309.254474 223.945271 
L 309.850098 228.981742 
L 310.445721 223.406424 
L 311.041345 228.691848 
L 311.636969 218.301133 
L 312.232592 231.985919 
L 312.828216 129.103538 
L 313.423839 233.376075 
L 314.019463 221.244863 
L 314.615086 230.577239 
L 315.21071 223.668154 
L 315.806333 231.964394 
L 316.401957 219.684602 
L 316.997581 231.939582 
L 317.593204 227.287011 
L 318.188828 161.210683 
L 318.784451 218.721129 
L 319.380075 226.85403 
L 319.975698 219.1169 
L 320.571322 229.743376 
L 321.166945 218.624135 
L 321.762569 228.332959 
L 322.358192 220.732881 
L 322.953816 229.379893 
L 323.54944 140.771992 
L 324.145063 231.410585 
L 324.740687 225.756336 
L 325.33631 226.077809 
L 325.931934 220.132575 
L 326.527557 231.58603 
L 327.123181 222.964849 
L 327.718804 225.580237 
L 328.314428 225.702911 
L 328.910052 172.454479 
L 329.505675 223.5788 
L 330.101299 236.394681 
L 330.696922 216.293708 
L 331.292546 229.152725 
L 331.888169 222.347668 
L 332.483793 227.567314 
L 333.079416 224.669438 
L 333.67504 227.286506 
L 334.270664 152.528448 
L 334.866287 227.7526 
L 335.461911 220.196339 
L 336.057534 226.066026 
L 336.653158 221.452423 
L 337.248781 236.302228 
L 337.844405 223.589199 
L 338.440028 224.61089 
L 339.035652 228.24399 
L 339.631276 183.796358 
L 340.226899 217.310408 
L 340.822523 232.404592 
L 341.418146 214.977181 
L 342.01377 242.083367 
L 342.609393 222.948581 
L 343.205017 227.950944 
L 343.80064 219.167451 
L 344.396264 226.968448 
L 344.991888 164.315213 
L 345.587511 226.507479 
L 346.183135 221.2891 
L 346.778758 226.948588 
L 347.374382 228.012981 
L 347.970005 231.25198 
L 348.565629 223.551906 
L 349.161252 229.331409 
L 349.756876 215.937434 
L 350.3525 195.196376 
L 350.948123 223.343091 
L 351.543747 230.069293 
L 352.13937 221.043352 
L 352.734994 232.544396 
L 353.330617 221.463014 
L 353.926241 228.131427 
L 354.521864 226.588565 
L 355.117488 226.793939 
L 355.713112 176.12474 
L 356.308735 227.844869 
L 356.904359 219.828168 
L 357.499982 235.663274 
L 358.095606 218.802487 
L 358.691229 230.428849 
L 359.286853 221.074216 
L 359.882476 227.839607 
L 360.4781 208.61774 
L 361.073724 206.653312 
L 361.669347 222.497013 
L 362.264971 228.509555 
L 362.860594 222.321041 
L 363.456218 226.159447 
L 364.051841 217.487643 
L 364.647465 228.592305 
L 365.243088 220.293932 
L 365.838712 226.636797 
L 366.434336 187.959197 
L 367.029959 229.433168 
L 367.625583 227.962863 
L 368.221206 229.679289 
L 368.224635 289 
M 369.409119 289 
L 369.412453 231.327981 
L 370.008077 216.643141 
L 370.6037 224.497623 
L 371.199324 199.089528 
L 371.794948 219.333806 
L 372.390571 221.251756 
L 372.986195 230.54772 
L 373.581818 220.296486 
L 373.581818 220.296486 
" style="fill:none;stroke:#1f77b4;stroke-linecap:square;stroke-width:1.5;"/>
   </g>
   <g id="patch_3">
    <path d="M 54 252 
L 54 34.56 
" style="fill:none;stroke:#000000;stroke-linecap:square;stroke-linejoin:miter;stroke-width:0.8;"/>
   </g>
   <g id="patch_4">
    <path d="M 388.8 252 
L 388.8 34.56 
" style="fill:none;stroke:#000000;stroke-linecap:square;stroke-linejoin:miter;stroke-width:0.8;"/>
   </g>
   <g id="patch_5">
    <path d="M 54 252 
L 388.8 252 
" style="fill:none;stroke:#000000;stroke-linecap:square;stroke-linejoin:miter;stroke-width:0.8;"/>
   </g>
   <g id="patch_6">
    <path d="M 54 34.56 
L 388.8 34.56 
" style="fill:none;stroke:#000000;stroke-linecap:square;stroke-linejoin:miter;stroke-width:0.8;"/>
   </g>
  </g>
 </g>
 <defs>
  <clipPath id="pba2adccae8">
   <rect height="217.44" width="334.8" x="54" y="34.56"/>
  </clipPath>
 </defs>
</svg>
